<?xml version="1.0" encoding="utf-8"?>
<!-- Generator: Adobe Illustrator 16.0.4, SVG Export Plug-In . SVG Version: 6.00 Build 0)  -->
<!DOCTYPE svg PUBLIC "-//W3C//DTD SVG 1.1//EN" "http://www.w3.org/Graphics/SVG/1.1/DTD/svg11.dtd">
<svg version="1.1" id="Layer_1" xmlns="http://www.w3.org/2000/svg" xmlns:xlink="http://www.w3.org/1999/xlink" x="0px" y="0px"
	 width="56.692px" height="45.383px" viewBox="0 0 56.692 45.383" enable-background="new 0 0 56.692 45.383" xml:space="preserve">
<g>
	<g>
		<path fill="#DBA94B" d="M28.096,7.585c0.448,0,0.672-0.108,0.672-0.325c0-0.108,0.038-0.163,0.114-0.163
			c0.076,0,0.114,0.089,0.114,0.267c0,0.177-0.102,0.312-0.304,0.406c-0.203,0.095-0.382,0.142-0.537,0.142
			c-0.156,0-0.284-0.007-0.385-0.022c-1.063-0.137-1.975-0.368-2.734-0.694c-0.514,0.812-0.973,1.888-1.378,3.233
			c-0.152,0.485-0.367,1.009-0.646,1.573c-0.278,0.563-0.578,1.029-0.9,1.394c-0.322,0.366-0.693,0.664-1.112,0.896
			c-0.825,0.448-1.798,0.673-2.918,0.673c-0.912,0-1.765-0.225-2.561-0.673c-0.781-0.441-1.237-1.121-1.367-2.039
			c-0.015-0.123-0.022-0.306-0.022-0.549c0-0.242,0.071-0.587,0.212-1.035s0.407-0.789,0.797-1.021
			C15.3,9.553,15.419,9.506,15.5,9.506c0.13,0,0.188,0.062,0.173,0.184c-0.029,0.037-0.103,0.097-0.222,0.18
			c-0.119,0.083-0.233,0.17-0.341,0.261c-0.109,0.09-0.217,0.229-0.326,0.418c-0.188,0.317-0.282,0.676-0.282,1.073
			c0,0.911,0.311,1.613,0.933,2.105c0.333,0.274,0.706,0.484,1.118,0.629c0.412,0.145,0.824,0.217,1.236,0.217
			c0.015,0,0.033,0,0.055,0c1.497-0.036,2.727-0.579,3.689-1.627c0.607-0.658,1.439-2.145,2.496-4.46
			c0.361-0.796,0.593-1.262,0.694-1.399c-1.28-0.405-2.43-0.607-3.45-0.607c-1.02,0-1.848,0.308-2.484,0.923
			c-0.514,0.491-0.771,1.005-0.771,1.54c0,0.586,0.257,0.959,0.771,1.118c0.181,0.051,0.345,0.075,0.494,0.075
			c0.148,0,0.318-0.027,0.51-0.081c0.191-0.055,0.376-0.167,0.554-0.336c0.177-0.17,0.311-0.338,0.401-0.505
			c0.091-0.166,0.129-0.293,0.114-0.38V8.812c0.058-0.051,0.108-0.067,0.152-0.05c0.043,0.02,0.065,0.064,0.065,0.136
			c-0.072,0.565-0.358,0.988-0.857,1.271c-0.304,0.18-0.586,0.271-0.846,0.271c-0.261,0-0.492-0.036-0.695-0.108
			c-0.593-0.209-0.969-0.611-1.128-1.204c-0.051-0.188-0.076-0.373-0.076-0.554c0-0.434,0.133-0.857,0.401-1.269
			c0.477-0.739,1.226-1.183,2.245-1.335c0.232-0.037,0.452-0.055,0.662-0.055s0.454,0.012,0.732,0.032
			c0.278,0.022,0.647,0.095,1.106,0.218c0.459,0.123,0.93,0.266,1.411,0.429c0.481,0.162,0.769,0.259,0.862,0.287
			c0.355-0.434,0.619-0.654,0.792-0.661c0.036-0.015,0.084-0.022,0.146-0.022c0.062,0,0.11,0.051,0.146,0.152
			c0.036,0.101,0.011,0.166-0.076,0.195c-0.036,0.007-0.083,0.004-0.141-0.012c-0.043-0.028-0.132,0.017-0.266,0.137
			c-0.134,0.118-0.233,0.219-0.298,0.298c0.68,0.217,1.276,0.374,1.79,0.473C27.502,7.537,27.871,7.585,28.096,7.585z"/>
		<path fill="#DBA94B" d="M26.316,13.456c0,0.202,0.072,0.304,0.217,0.304c0.34,0,0.821-0.637,1.443-1.91
			c0.051-0.101,0.096-0.141,0.136-0.119c0.04,0.022,0.06,0.051,0.06,0.087s-0.042,0.14-0.125,0.31
			c-0.083,0.17-0.167,0.333-0.25,0.488c-0.083,0.155-0.205,0.359-0.364,0.612c-0.333,0.507-0.688,0.76-1.063,0.76
			c-0.246,0-0.441-0.102-0.586-0.304c-0.065-0.094-0.098-0.223-0.098-0.386c0-0.162,0.036-0.358,0.108-0.591
			c0.072-0.231,0.271-0.608,0.597-1.129c0.08-0.13,0.12-0.232,0.12-0.309c0-0.075-0.062-0.113-0.185-0.113
			c-0.123,0-0.358,0.162-0.705,0.488c-0.521,0.477-1.027,1.192-1.52,2.147c-0.05,0.108-0.184,0.163-0.401,0.163
			c-0.196,0.015-0.318,0.035-0.369,0.064c1.374-2.856,2.369-4.85,2.983-5.979c0.138-0.253,0.258-0.43,0.364-0.53
			c0.104-0.103,0.229-0.152,0.374-0.152c0.036,0,0.112,0.009,0.228,0.027c0.116,0.018,0.203,0.022,0.26,0.017
			c-0.217,0.224-0.606,0.845-1.166,1.859c-0.561,1.017-1.098,2.05-1.611,3.099c0.34-0.428,0.646-0.76,0.917-0.998
			c0.271-0.239,0.602-0.465,0.993-0.679c0.391-0.213,0.676-0.319,0.857-0.319c0.043,0,0.083,0.006,0.119,0.021
			C26.761,11.948,26.316,12.971,26.316,13.456z"/>
		<path fill="#DBA94B" d="M28.464,12.273c-0.102,0.246-0.152,0.521-0.152,0.824c0,0.203,0.045,0.363,0.136,0.483
			c0.09,0.118,0.218,0.179,0.385,0.179c0.658,0,1.255-0.619,1.791-1.854c0.05-0.116,0.111-0.167,0.184-0.152
			c0.029,0.007,0.043,0.024,0.043,0.054s-0.081,0.219-0.244,0.569c-0.162,0.352-0.326,0.635-0.493,0.852
			c-0.369,0.507-0.825,0.76-1.367,0.76c-0.29,0-0.535-0.094-0.738-0.282s-0.304-0.444-0.304-0.77c0-0.326,0.078-0.671,0.233-1.037
			c0.156-0.365,0.367-0.704,0.635-1.02c0.268-0.314,0.575-0.544,0.922-0.688c0.166-0.072,0.325-0.108,0.477-0.108
			c0.152,0,0.294,0.043,0.424,0.13c0.123,0.102,0.184,0.213,0.184,0.337c0,0.434-0.26,0.85-0.781,1.247
			c-0.158,0.123-0.383,0.233-0.672,0.331C28.836,12.223,28.616,12.273,28.464,12.273z M30.287,10.537
			c0-0.145-0.058-0.218-0.174-0.218c-0.202,0-0.51,0.25-0.923,0.75c-0.246,0.304-0.462,0.644-0.65,1.02
			c0.123,0,0.302-0.044,0.537-0.131c0.234-0.086,0.439-0.201,0.613-0.347C30.088,11.272,30.287,10.914,30.287,10.537z"/>
	</g>
	<g>
		<path fill="#DBA94B" d="M5.839,29.775c-0.064-0.246-0.112-0.492-0.145-0.736c-0.032-0.246-0.059-0.492-0.081-0.738
			c-0.042-0.492-0.042-0.977,0-1.451c0.043-0.475,0.113-0.953,0.209-1.434c0.053-0.236,0.106-0.465,0.16-0.689
			c0.053-0.225,0.123-0.449,0.208-0.674c0.064-0.224,0.144-0.448,0.24-0.672c0.075-0.203,0.166-0.417,0.273-0.642
			c0.096-0.213,0.198-0.424,0.305-0.632c0.106-0.209,0.218-0.414,0.336-0.618c0.117-0.202,0.24-0.403,0.369-0.601
			c0.128-0.198,0.267-0.387,0.417-0.569c0.289-0.405,0.593-0.769,0.914-1.089c0.16-0.161,0.332-0.318,0.513-0.474
			c0.182-0.154,0.369-0.301,0.561-0.44c0.192-0.139,0.39-0.268,0.593-0.385c0.204-0.117,0.412-0.225,0.625-0.32
			c0.106-0.054,0.21-0.101,0.312-0.145c0.102-0.042,0.211-0.091,0.329-0.144c0.106-0.042,0.213-0.08,0.32-0.113
			c0.106-0.031,0.219-0.063,0.336-0.096c0.224-0.064,0.449-0.12,0.673-0.169c0.224-0.047,0.449-0.081,0.673-0.103
			c0.225-0.033,0.454-0.049,0.689-0.049c0.224-0.011,0.449-0.011,0.673,0c0.118,0.012,0.235,0.02,0.353,0.024
			c0.117,0.005,0.235,0.019,0.352,0.039c0.118,0.022,0.232,0.041,0.345,0.057c0.112,0.017,0.227,0.04,0.345,0.072
			c0.246,0.063,0.481,0.149,0.705,0.257c0.118,0.053,0.23,0.111,0.336,0.176c0.107,0.064,0.214,0.139,0.321,0.225
			c0.203,0.16,0.39,0.357,0.561,0.593c0.085,0.117,0.16,0.237,0.224,0.36c0.064,0.123,0.123,0.248,0.176,0.377
			c0.086,0.257,0.139,0.54,0.161,0.85c0,0.15-0.006,0.294-0.016,0.433c-0.011,0.139-0.032,0.278-0.064,0.416
			c-0.053,0.3-0.139,0.567-0.256,0.802c-0.117,0.278-0.25,0.518-0.401,0.721c-0.149,0.215-0.318,0.417-0.504,0.609
			c-0.187,0.193-0.382,0.369-0.585,0.529c-0.396,0.311-0.828,0.571-1.298,0.785c-0.118,0.055-0.233,0.102-0.345,0.145
			c-0.112,0.043-0.227,0.092-0.345,0.145c-0.053,0.021-0.112,0.041-0.176,0.057c-0.064,0.016-0.123,0.035-0.177,0.057
			c-0.032,0.01-0.061,0.018-0.088,0.023c-0.027,0.004-0.056,0.014-0.088,0.023l-0.096,0.016l-0.081,0.033
			c-0.277,0.062-0.537,0.023-0.777-0.121c-0.241-0.145-0.393-0.355-0.457-0.633c-0.075-0.267-0.042-0.518,0.096-0.753
			c0.139-0.234,0.336-0.396,0.593-0.48h0.016l0.145-0.049l0.144-0.031c0.042-0.021,0.085-0.037,0.128-0.049
			c0.042-0.011,0.09-0.026,0.144-0.048l0.529-0.192c0.085-0.043,0.168-0.082,0.249-0.119c0.08-0.037,0.163-0.078,0.248-0.121
			c0.086-0.042,0.166-0.085,0.241-0.128c0.074-0.042,0.154-0.092,0.24-0.145c0.15-0.097,0.289-0.2,0.417-0.312
			c0.128-0.114,0.246-0.233,0.353-0.361c0.213-0.245,0.379-0.519,0.497-0.817c0.053-0.149,0.085-0.299,0.096-0.448
			c0.021-0.15,0.021-0.3,0-0.45c-0.022-0.17-0.054-0.325-0.096-0.464c-0.043-0.16-0.118-0.315-0.225-0.465
			c-0.107-0.16-0.219-0.3-0.336-0.417c-0.075-0.075-0.15-0.139-0.225-0.192c-0.075-0.053-0.155-0.107-0.24-0.159
			c-0.182-0.107-0.369-0.19-0.561-0.249s-0.396-0.1-0.609-0.12c-0.213-0.01-0.422-0.01-0.625,0
			c-0.107,0.011-0.211,0.021-0.312,0.032c-0.102,0.01-0.206,0.026-0.312,0.048c-0.417,0.085-0.807,0.214-1.17,0.384
			c-0.097,0.055-0.19,0.107-0.281,0.16c-0.091,0.055-0.179,0.107-0.265,0.161c-0.182,0.118-0.347,0.235-0.497,0.353
			c-0.16,0.138-0.312,0.278-0.457,0.416c-0.144,0.139-0.285,0.283-0.425,0.434c-0.277,0.31-0.534,0.63-0.769,0.962
			c-0.118,0.159-0.23,0.323-0.336,0.488c-0.107,0.166-0.214,0.339-0.321,0.521c-0.214,0.354-0.401,0.716-0.561,1.091
			c-0.16,0.373-0.304,0.747-0.433,1.121c-0.032,0.097-0.064,0.192-0.096,0.289c-0.032,0.095-0.059,0.197-0.08,0.303
			c-0.033,0.098-0.062,0.193-0.088,0.289c-0.027,0.098-0.051,0.191-0.072,0.289c-0.053,0.203-0.096,0.4-0.128,0.592
			c-0.032,0.193-0.064,0.391-0.096,0.594c-0.032,0.193-0.056,0.389-0.072,0.586c-0.016,0.195-0.03,0.393-0.04,0.584
			c-0.032,0.396-0.032,0.787,0,1.17c0.021,0.385,0.069,0.754,0.144,1.105c0.043,0.182,0.088,0.359,0.136,0.529
			c0.048,0.172,0.104,0.336,0.168,0.496c0.128,0.332,0.289,0.633,0.481,0.898c0.182,0.268,0.417,0.508,0.706,0.721
			c0.074,0.055,0.149,0.102,0.224,0.145s0.155,0.08,0.241,0.113c0.085,0.043,0.171,0.08,0.256,0.111s0.177,0.064,0.272,0.096
			c0.085,0.021,0.177,0.041,0.273,0.057s0.192,0.035,0.289,0.057c0.021,0,0.045,0.002,0.072,0.008s0.051,0.008,0.072,0.008
			l0.08,0.016h0.081c0.053,0.012,0.104,0.018,0.152,0.018s0.099,0,0.152,0c0.214,0.02,0.422,0.027,0.625,0.023
			c0.203-0.006,0.411-0.02,0.625-0.041c0.405-0.043,0.811-0.123,1.218-0.24c0.406-0.117,0.795-0.27,1.169-0.457
			c0.375-0.188,0.732-0.404,1.074-0.648c0.353-0.268,0.663-0.551,0.93-0.85c0.074-0.086,0.146-0.168,0.216-0.248
			c0.07-0.08,0.131-0.164,0.185-0.248c0.011-0.021,0.038-0.059,0.08-0.113c0.042-0.053,0.088-0.109,0.136-0.168
			c0.048-0.059,0.094-0.117,0.137-0.176c0.042-0.059,0.069-0.1,0.08-0.121c0.032-0.031,0.059-0.074,0.08-0.129
			c0.011-0.01,0.019-0.02,0.024-0.031c0.005-0.012,0.013-0.021,0.024-0.031l0.016-0.033c0-0.01,0.005-0.021,0.016-0.031
			c0.032-0.064,0.083-0.109,0.152-0.137c0.07-0.027,0.136-0.025,0.201,0.008c0.064,0.033,0.109,0.086,0.136,0.16
			c0.026,0.076,0.024,0.145-0.008,0.209c-0.01,0.01-0.016,0.018-0.016,0.023s-0.005,0.014-0.017,0.025l-0.016,0.047
			c-0.011,0.012-0.019,0.021-0.024,0.031c-0.005,0.012-0.013,0.023-0.023,0.033l-0.097,0.145c-0.021,0.021-0.053,0.062-0.096,0.121
			c-0.042,0.059-0.088,0.119-0.136,0.184c-0.048,0.062-0.094,0.125-0.137,0.184s-0.07,0.1-0.08,0.121
			c-0.128,0.191-0.273,0.367-0.433,0.527c-0.278,0.322-0.604,0.637-0.978,0.947c-0.695,0.566-1.479,1.016-2.356,1.346
			c-0.214,0.084-0.43,0.162-0.649,0.232c-0.219,0.068-0.44,0.131-0.665,0.184c-0.214,0.055-0.436,0.102-0.665,0.145
			c-0.23,0.043-0.457,0.076-0.682,0.096c-0.053,0.01-0.112,0.02-0.176,0.023c-0.064,0.006-0.123,0.016-0.176,0.025h-0.081h-0.096
			c-0.032,0.012-0.091,0.016-0.176,0.016c-0.118,0.01-0.238,0.018-0.36,0.018c-0.123,0-0.248-0.014-0.377-0.033
			c-0.246-0.021-0.497-0.053-0.753-0.096c-0.128-0.033-0.254-0.068-0.377-0.105c-0.123-0.037-0.249-0.082-0.376-0.137
			c-0.118-0.053-0.238-0.105-0.36-0.158c-0.123-0.055-0.244-0.119-0.361-0.193c-0.118-0.074-0.23-0.152-0.336-0.232
			c-0.107-0.08-0.208-0.168-0.305-0.264c-0.107-0.086-0.206-0.178-0.297-0.273c-0.09-0.096-0.178-0.203-0.264-0.32
			c-0.085-0.105-0.166-0.213-0.24-0.32c-0.075-0.105-0.144-0.219-0.208-0.338c-0.128-0.234-0.238-0.473-0.329-0.721
			C5.98,30.266,5.902,30.021,5.839,29.775z"/>
		<path fill="#DBA94B" d="M25.648,33.174c-0.107,0.129-0.214,0.223-0.321,0.287c-0.053,0.055-0.118,0.102-0.192,0.145
			s-0.155,0.08-0.241,0.113c-0.096,0.041-0.187,0.068-0.272,0.08c-0.011,0.01-0.022,0.016-0.032,0.016h-0.048h-0.016H24.51v0.016
			h-0.033c-0.021,0-0.04,0.002-0.056,0.008s-0.035,0.008-0.056,0.008c-0.15,0.021-0.31,0.021-0.48,0
			c-0.086-0.01-0.171-0.023-0.256-0.039c-0.086-0.018-0.177-0.047-0.273-0.088c-0.171-0.064-0.337-0.166-0.497-0.305
			s-0.283-0.283-0.369-0.434c-0.107-0.148-0.182-0.305-0.224-0.465c-0.064-0.139-0.112-0.283-0.145-0.434
			c-0.021-0.074-0.035-0.146-0.04-0.217c-0.006-0.068-0.014-0.141-0.025-0.215c-0.01-0.064-0.018-0.129-0.023-0.193
			c-0.006-0.062-0.008-0.127-0.008-0.191c-0.022,0.055-0.043,0.102-0.064,0.145s-0.043,0.086-0.064,0.129
			c-0.042,0.084-0.085,0.172-0.128,0.264c-0.043,0.092-0.091,0.18-0.145,0.264c-0.085,0.172-0.192,0.344-0.32,0.514
			c-0.064,0.086-0.128,0.168-0.193,0.248c-0.063,0.08-0.139,0.162-0.224,0.25c-0.043,0.041-0.086,0.078-0.128,0.111
			c-0.042,0.031-0.091,0.07-0.144,0.113c-0.096,0.062-0.208,0.127-0.336,0.191c-0.054,0.021-0.112,0.041-0.177,0.062
			c-0.064,0.021-0.134,0.037-0.208,0.049c-0.011,0-0.019,0.002-0.024,0.008c-0.005,0.006-0.018,0.008-0.04,0.008h-0.016h-0.032
			h-0.016h-0.032h-0.048c-0.043,0.01-0.08,0.014-0.112,0.01c-0.032-0.008-0.069-0.01-0.112-0.01
			c-0.064-0.01-0.134-0.023-0.208-0.039c-0.075-0.018-0.15-0.041-0.224-0.072c-0.15-0.062-0.278-0.15-0.385-0.258
			c-0.118-0.096-0.208-0.203-0.273-0.32c-0.042-0.053-0.08-0.111-0.112-0.176c-0.032-0.064-0.059-0.121-0.08-0.176
			c-0.053-0.117-0.094-0.229-0.121-0.336c-0.026-0.107-0.05-0.221-0.072-0.338c-0.021-0.105-0.035-0.213-0.041-0.32
			c-0.004-0.105-0.013-0.213-0.023-0.32c0-0.107,0-0.211,0-0.312s0.005-0.205,0.016-0.312c0.011-0.201,0.03-0.404,0.057-0.602
			s0.062-0.398,0.104-0.6c0.032-0.193,0.075-0.385,0.128-0.578c0.053-0.191,0.107-0.385,0.16-0.576
			c0.139-0.406,0.283-0.785,0.433-1.139c0.085-0.182,0.176-0.363,0.272-0.545c0.096-0.182,0.203-0.363,0.32-0.545
			c0.107-0.172,0.235-0.346,0.385-0.529c0.074-0.084,0.15-0.168,0.225-0.248c0.074-0.08,0.155-0.162,0.24-0.248
			c0.149-0.15,0.342-0.299,0.577-0.449c0.202-0.139,0.449-0.25,0.737-0.336c0.138-0.053,0.283-0.088,0.433-0.104
			c0.149-0.016,0.299-0.025,0.449-0.025c0.288,0.021,0.577,0.08,0.865,0.178c0.235,0.086,0.476,0.207,0.721,0.367
			c0.054,0.043,0.104,0.082,0.152,0.119c0.048,0.039,0.094,0.08,0.136,0.121c0.064,0.043,0.112,0.08,0.144,0.113
			c0.033,0.012,0.054,0.031,0.065,0.064l0.063,0.047c0.225,0.215,0.342,0.471,0.353,0.77c0.011,0.301-0.085,0.561-0.289,0.785
			c-0.214,0.215-0.47,0.328-0.769,0.346c-0.299,0.016-0.556-0.084-0.77-0.297c-0.022-0.012-0.035-0.021-0.041-0.033
			c-0.004-0.01-0.018-0.02-0.04-0.033l-0.016-0.029l-0.016-0.016l-0.032-0.033c-0.011-0.021-0.022-0.035-0.032-0.041
			c-0.011-0.004-0.022-0.012-0.032-0.023l-0.128-0.129c-0.054-0.041-0.099-0.076-0.136-0.104c-0.038-0.027-0.078-0.051-0.12-0.072
			c-0.043-0.02-0.08-0.037-0.112-0.047c-0.033-0.01-0.064-0.018-0.097-0.018c-0.075-0.01-0.15-0.01-0.224,0
			c-0.096,0-0.192,0.033-0.289,0.098c-0.054,0.021-0.107,0.047-0.16,0.08c-0.054,0.031-0.107,0.068-0.161,0.111
			c-0.118,0.086-0.227,0.184-0.328,0.297c-0.102,0.111-0.206,0.227-0.313,0.344c-0.096,0.129-0.189,0.26-0.28,0.393
			c-0.092,0.135-0.18,0.277-0.265,0.426s-0.163,0.301-0.232,0.457c-0.069,0.154-0.142,0.307-0.217,0.457
			c-0.139,0.33-0.251,0.656-0.336,0.977c-0.053,0.16-0.099,0.324-0.136,0.49c-0.037,0.164-0.067,0.334-0.088,0.504
			c-0.021,0.084-0.035,0.166-0.04,0.24s-0.013,0.154-0.024,0.24c0,0.086,0,0.166,0,0.24s0.005,0.154,0.016,0.24
			c0,0.076,0.005,0.148,0.016,0.217c0.011,0.07,0.027,0.131,0.048,0.184c0.01,0.033,0.021,0.062,0.032,0.09
			c0.01,0.025,0.021,0.049,0.032,0.07c0.011,0.021,0.021,0.041,0.032,0.059c0.011,0.014,0.021,0.033,0.032,0.055
			c0.021,0.012,0.048,0.031,0.08,0.064l0.096,0.031c0.01,0,0.019,0.002,0.024,0.008s0.019,0.01,0.04,0.01h0.016h0.016h0.016h0.016
			c0.032,0,0.08-0.012,0.145-0.033c0.106-0.021,0.219-0.08,0.336-0.178c0.053-0.053,0.109-0.104,0.168-0.15
			c0.058-0.049,0.114-0.105,0.168-0.17c0.054-0.062,0.107-0.127,0.161-0.191c0.053-0.064,0.106-0.133,0.16-0.209l0.289-0.432
			c0.085-0.15,0.171-0.305,0.256-0.465s0.171-0.326,0.256-0.498c0.149-0.299,0.294-0.629,0.433-0.992
			c0.021-0.055,0.042-0.111,0.064-0.17c0.021-0.059,0.042-0.113,0.064-0.168c0.021-0.105,0.042-0.188,0.064-0.24
			c0.011-0.053,0.021-0.109,0.032-0.168s0.026-0.121,0.048-0.184c0.01-0.033,0.026-0.092,0.048-0.178l0.032-0.096
			c0.011-0.021,0.016-0.037,0.016-0.047c0-0.012,0.005-0.027,0.016-0.049v-0.031c0.106-0.289,0.296-0.502,0.569-0.643
			c0.272-0.137,0.558-0.16,0.857-0.064c0.299,0.098,0.518,0.281,0.657,0.555c0.139,0.271,0.16,0.559,0.064,0.857
			c-0.022,0.043-0.032,0.074-0.032,0.096l-0.032,0.062l-0.032,0.066l-0.048,0.143c-0.021,0.055-0.04,0.104-0.056,0.145
			c-0.017,0.043-0.035,0.092-0.056,0.145c-0.032,0.096-0.064,0.193-0.097,0.289c-0.032,0.096-0.064,0.197-0.096,0.305
			c-0.021,0.096-0.048,0.191-0.08,0.287s-0.059,0.199-0.08,0.305c-0.011,0.055-0.022,0.104-0.032,0.145
			c-0.011,0.043-0.022,0.092-0.032,0.145l-0.048,0.289c-0.021,0.096-0.038,0.189-0.047,0.279c-0.011,0.092-0.017,0.18-0.017,0.264
			c-0.021,0.088-0.021,0.168,0,0.242c0,0.107,0.005,0.182,0.017,0.225c0,0.041,0.01,0.096,0.032,0.16
			c0.021,0.043,0.032,0.074,0.032,0.096c0.011,0.021,0.032,0.047,0.064,0.08c0.01,0.012,0.048,0.033,0.112,0.064
			c0.064,0.021,0.128,0.031,0.192,0.031c0.021,0,0.038,0.006,0.048,0.018h0.016h0.017h-0.017h0.017h0.047
			c0.021-0.012,0.048-0.02,0.081-0.025c0.032-0.006,0.064-0.02,0.096-0.039c0.032-0.021,0.064-0.043,0.096-0.064
			c0.032-0.021,0.069-0.043,0.112-0.064c0.074-0.053,0.146-0.111,0.216-0.176c0.07-0.064,0.137-0.139,0.201-0.225
			c0.149-0.15,0.289-0.305,0.417-0.465c0.064-0.086,0.131-0.174,0.2-0.266c0.07-0.09,0.131-0.178,0.185-0.264
			c0.032-0.041,0.064-0.086,0.096-0.127c0.032-0.043,0.064-0.092,0.096-0.145c0.075-0.086,0.133-0.178,0.176-0.273
			c0.032-0.053,0.064-0.102,0.096-0.143c0.033-0.043,0.059-0.092,0.081-0.145c0.075-0.086,0.133-0.178,0.176-0.273
			c0.032-0.053,0.062-0.102,0.088-0.145s0.056-0.092,0.088-0.145l0.08-0.145l0.081-0.143v-0.018c0.042-0.053,0.096-0.09,0.16-0.111
			c0.064-0.021,0.128-0.016,0.192,0.016c0.128,0.074,0.171,0.176,0.128,0.305l-0.032,0.08l-0.032,0.098l-0.048,0.158
			c-0.022,0.055-0.04,0.107-0.056,0.16c-0.016,0.055-0.035,0.107-0.056,0.162c-0.022,0.053-0.043,0.105-0.064,0.158
			c-0.021,0.055-0.042,0.107-0.063,0.162c-0.032,0.096-0.075,0.203-0.128,0.32c-0.022,0.053-0.043,0.105-0.064,0.16
			c-0.021,0.053-0.043,0.105-0.064,0.16c-0.022,0.053-0.045,0.105-0.072,0.16c-0.027,0.053-0.052,0.107-0.072,0.16
			c-0.054,0.105-0.108,0.211-0.161,0.312c-0.054,0.102-0.107,0.205-0.161,0.312c-0.117,0.213-0.246,0.422-0.384,0.625
			C26.011,32.771,25.851,32.969,25.648,33.174z"/>
		<path fill="#DBA94B" d="M31.177,33.477c-0.107-0.084-0.208-0.174-0.305-0.271c-0.096-0.098-0.188-0.191-0.272-0.289
			c-0.171-0.225-0.314-0.438-0.433-0.641c-0.117-0.193-0.23-0.41-0.336-0.656c-0.055-0.129-0.098-0.246-0.129-0.354
			c-0.021-0.053-0.037-0.111-0.048-0.176s-0.026-0.123-0.048-0.176c-0.021-0.055-0.035-0.113-0.041-0.178
			c-0.005-0.064-0.014-0.121-0.023-0.176c-0.011-0.064-0.019-0.129-0.023-0.191c-0.006-0.064-0.008-0.125-0.008-0.176
			c-0.055-0.086-0.039-0.162,0.047-0.225c0.043-0.033,0.097-0.039,0.16-0.018l0.032,0.018c0.149,0.072,0.315,0.111,0.497,0.111
			c0.15,0,0.315-0.027,0.496-0.082c0.086-0.029,0.166-0.062,0.242-0.096c0.074-0.031,0.154-0.074,0.24-0.127
			c0.084-0.043,0.162-0.088,0.232-0.137c0.068-0.049,0.141-0.1,0.216-0.152c0.074-0.053,0.144-0.113,0.208-0.176
			c0.064-0.064,0.129-0.129,0.192-0.193c0.075-0.053,0.142-0.113,0.2-0.184c0.059-0.068,0.115-0.135,0.168-0.201
			c0.033-0.031,0.062-0.062,0.089-0.096c0.026-0.031,0.051-0.064,0.072-0.096l0.032-0.064l0.031-0.049
			c0.021-0.021,0.037-0.039,0.049-0.055c0.01-0.016,0.021-0.035,0.031-0.057l0.145-0.24c0.021-0.043,0.04-0.082,0.057-0.119
			c0.016-0.039,0.034-0.078,0.056-0.121c0.021-0.041,0.04-0.084,0.056-0.121c0.017-0.037,0.035-0.076,0.057-0.119
			s0.037-0.086,0.048-0.129s0.026-0.084,0.048-0.129c0.074-0.18,0.117-0.336,0.129-0.463c0.01-0.055,0.025-0.123,0.048-0.211v-0.191
			c0-0.074-0.006-0.127-0.017-0.16c0-0.02-0.003-0.035-0.008-0.047c-0.006-0.01-0.008-0.027-0.008-0.049
			c-0.021-0.02-0.032-0.037-0.032-0.047l-0.032-0.033l-0.031-0.031l-0.017-0.016l-0.017-0.018h0.017h0.017h-0.049
			c-0.054,0-0.096,0.006-0.128,0.018c-0.021,0.01-0.046,0.021-0.072,0.031s-0.056,0.021-0.089,0.031
			c-0.063,0.033-0.127,0.064-0.191,0.098c-0.064,0.031-0.134,0.074-0.209,0.127c-0.031,0.021-0.063,0.043-0.096,0.064
			c-0.031,0.021-0.07,0.049-0.112,0.08c-0.032,0.021-0.067,0.047-0.104,0.072c-0.037,0.027-0.071,0.051-0.104,0.07l-0.433,0.338
			l-0.433,0.385l-0.209,0.193c-0.031,0.031-0.066,0.064-0.104,0.096s-0.072,0.064-0.104,0.098c-0.064,0.062-0.128,0.127-0.192,0.191
			s-0.129,0.133-0.192,0.209c-0.139,0.137-0.271,0.283-0.394,0.432c-0.122,0.15-0.242,0.299-0.359,0.449
			c-0.043,0.053-0.084,0.105-0.121,0.16c-0.037,0.053-0.077,0.107-0.119,0.158c-0.021,0.076-0.037,0.15-0.049,0.225
			c-0.011,0.076-0.021,0.15-0.031,0.227c-0.012,0.041-0.027,0.117-0.049,0.225c-0.021,0.041-0.035,0.082-0.039,0.119
			c-0.006,0.037-0.015,0.072-0.025,0.104c-0.021,0.086-0.039,0.168-0.056,0.24c-0.016,0.074-0.035,0.15-0.056,0.225
			c-0.032,0.15-0.066,0.297-0.104,0.441s-0.077,0.291-0.12,0.441c-0.075,0.287-0.145,0.568-0.208,0.84
			c-0.064,0.273-0.123,0.543-0.176,0.811v0.049c-0.054,0.309-0.209,0.549-0.465,0.721c-0.256,0.17-0.54,0.229-0.85,0.176
			c-0.288-0.053-0.518-0.197-0.689-0.434c-0.17-0.234-0.245-0.49-0.224-0.768c0.022-0.023,0.032-0.039,0.032-0.049l0.032-0.033
			l-0.048-0.016c0.021-0.16,0.045-0.32,0.072-0.48c0.027-0.16,0.057-0.32,0.088-0.48c0.021-0.074,0.04-0.15,0.056-0.225
			c0.016-0.074,0.035-0.154,0.056-0.24c0.021-0.076,0.04-0.146,0.056-0.217c0.017-0.068,0.035-0.146,0.057-0.232l0.224-0.865
			c0.021-0.074,0.037-0.146,0.048-0.217c0.011-0.068,0.027-0.135,0.048-0.199l0.048-0.209l0.048-0.225
			c0.139-0.578,0.272-1.158,0.4-1.746c0.128-0.588,0.262-1.176,0.401-1.764c0.149-0.598,0.296-1.191,0.441-1.777
			c0.144-0.589,0.307-1.177,0.489-1.765c0.042-0.148,0.085-0.296,0.128-0.439c0.042-0.145,0.085-0.292,0.128-0.44
			c0.053-0.15,0.104-0.3,0.151-0.449c0.049-0.15,0.1-0.3,0.152-0.448c0.086-0.269,0.198-0.562,0.337-0.883l0.048-0.112l0.049-0.095
			c0.021-0.043,0.037-0.084,0.048-0.121s0.026-0.071,0.048-0.104c0.031-0.075,0.064-0.146,0.096-0.216
			c0.033-0.07,0.07-0.143,0.113-0.217c0.149-0.299,0.314-0.578,0.496-0.834c0.054-0.074,0.107-0.144,0.16-0.208
			c0.054-0.063,0.107-0.128,0.161-0.191c0.021-0.032,0.048-0.064,0.079-0.097c0.033-0.032,0.064-0.064,0.097-0.096
			c0.021-0.032,0.048-0.065,0.081-0.097c0.031-0.032,0.063-0.064,0.096-0.096c0.064-0.065,0.131-0.126,0.199-0.186
			c0.07-0.058,0.147-0.113,0.233-0.168c0.096-0.063,0.187-0.116,0.272-0.159c0.053-0.021,0.104-0.04,0.152-0.057
			c0.047-0.017,0.099-0.034,0.152-0.057c0.053-0.011,0.109-0.021,0.168-0.031s0.12-0.011,0.184,0h0.033h0.031h0.016h0.017h0.017
			h0.016c0.032,0,0.053,0.005,0.064,0.017c0.053,0,0.122,0.021,0.208,0.063c0.074,0.032,0.139,0.074,0.192,0.128
			c0.032,0.032,0.059,0.062,0.08,0.088s0.042,0.051,0.064,0.073c0.021,0.031,0.034,0.061,0.04,0.088
			c0.005,0.026,0.019,0.056,0.04,0.088l0.048,0.144c0.011,0.055,0.019,0.103,0.024,0.145c0.005,0.043,0.008,0.092,0.008,0.145
			c0.01,0.043,0.016,0.085,0.016,0.128s0,0.086,0,0.128c0,0.086-0.003,0.166-0.008,0.241c-0.006,0.074-0.014,0.154-0.023,0.24
			c-0.022,0.085-0.035,0.165-0.041,0.24c-0.005,0.075-0.018,0.154-0.04,0.24c-0.011,0.042-0.017,0.083-0.017,0.12
			c0,0.038-0.005,0.077-0.016,0.12l-0.016,0.048l-0.016,0.064l-0.032,0.112c-0.149,0.609-0.326,1.197-0.529,1.763
			c-0.202,0.599-0.427,1.17-0.673,1.715c-0.032,0.075-0.062,0.146-0.088,0.217c-0.027,0.069-0.062,0.142-0.104,0.217l-0.017,0.048
			l-0.031,0.048l-0.049,0.112c-0.031,0.075-0.069,0.149-0.111,0.225c-0.032,0.063-0.067,0.13-0.104,0.199
			c-0.038,0.071-0.072,0.138-0.104,0.201c-0.043,0.075-0.082,0.144-0.119,0.208c-0.039,0.064-0.072,0.133-0.105,0.209
			c-0.085,0.127-0.162,0.258-0.232,0.393c-0.069,0.133-0.141,0.264-0.216,0.393c-0.075,0.139-0.147,0.275-0.216,0.408
			c-0.07,0.133-0.143,0.264-0.217,0.393c-0.021,0.064-0.049,0.125-0.08,0.184c-0.032,0.059-0.064,0.115-0.097,0.168
			c0.043-0.053,0.083-0.104,0.12-0.152c0.037-0.047,0.078-0.098,0.121-0.152c0.128-0.18,0.262-0.346,0.4-0.496l0.24-0.24l0.24-0.24
			c0.171-0.15,0.369-0.299,0.594-0.449c0.053-0.031,0.109-0.062,0.168-0.096c0.059-0.031,0.119-0.064,0.184-0.096
			c0.074-0.021,0.146-0.045,0.217-0.072c0.069-0.027,0.146-0.051,0.232-0.072c0.139-0.043,0.32-0.064,0.545-0.064
			c0.096,0.01,0.195,0.025,0.297,0.041c0.101,0.016,0.199,0.039,0.297,0.072c0.213,0.084,0.384,0.186,0.512,0.305l0.032,0.014
			l0.017,0.018l0.031,0.016l0.016,0.031c0.021,0.012,0.054,0.037,0.098,0.08c0.031,0.033,0.063,0.064,0.096,0.098
			c0.031,0.031,0.059,0.064,0.08,0.096c0.053,0.074,0.104,0.15,0.152,0.225c0.048,0.074,0.094,0.156,0.137,0.24
			c0.074,0.158,0.121,0.33,0.143,0.512c0.033,0.184,0.043,0.344,0.033,0.482c-0.012,0.086-0.02,0.162-0.024,0.232
			c-0.005,0.068-0.019,0.141-0.04,0.215c-0.032,0.141-0.074,0.268-0.128,0.385c-0.054,0.119-0.106,0.23-0.161,0.338
			c-0.053,0.117-0.111,0.223-0.176,0.32c-0.064,0.096-0.129,0.188-0.192,0.273c-0.032,0.053-0.066,0.1-0.104,0.143
			c-0.037,0.043-0.072,0.086-0.104,0.129c-0.032,0.041-0.066,0.084-0.104,0.129c-0.037,0.041-0.071,0.084-0.104,0.127
			c-0.043,0.043-0.08,0.084-0.111,0.121c-0.032,0.037-0.07,0.076-0.113,0.119l-0.225,0.225l-0.111,0.113l-0.063,0.062l-0.049,0.049
			c-0.054,0.043-0.099,0.084-0.136,0.121c-0.038,0.037-0.083,0.07-0.137,0.104c-0.182,0.148-0.357,0.277-0.529,0.385
			c-0.085,0.053-0.176,0.104-0.271,0.152c-0.097,0.047-0.193,0.098-0.289,0.15c-0.106,0.055-0.208,0.1-0.305,0.139
			c-0.096,0.037-0.197,0.07-0.305,0.104c-0.224,0.074-0.443,0.117-0.656,0.129c-0.15,0.021-0.305,0.021-0.465,0
			c0.021,0.021,0.048,0.045,0.08,0.07c0.031,0.027,0.059,0.051,0.08,0.072c0.043,0.033,0.082,0.066,0.12,0.104
			c0.037,0.039,0.077,0.074,0.12,0.105c0.342,0.287,0.662,0.523,0.962,0.705c0.341,0.203,0.646,0.336,0.913,0.4
			c0.021,0.01,0.04,0.016,0.057,0.016c0.016,0,0.029,0.006,0.039,0.016h0.081h0.079h0.064h0.129h0.176
			c0.054-0.01,0.117-0.021,0.192-0.031c0.075-0.012,0.155-0.027,0.24-0.049c0.043-0.01,0.083-0.02,0.121-0.031
			c0.036-0.01,0.082-0.027,0.136-0.047c0.021-0.012,0.064-0.029,0.128-0.049c0.022-0.01,0.043-0.018,0.064-0.023
			s0.042-0.02,0.063-0.041c0.172-0.074,0.342-0.182,0.514-0.32c0.085-0.055,0.166-0.115,0.24-0.184
			c0.074-0.07,0.154-0.143,0.24-0.217c0.16-0.139,0.318-0.283,0.473-0.434c0.154-0.148,0.307-0.305,0.457-0.463
			c0.149-0.162,0.297-0.324,0.441-0.49c0.143-0.166,0.291-0.334,0.44-0.504c0.031-0.055,0.077-0.082,0.136-0.082
			s0.109,0.018,0.152,0.049c0.086,0.064,0.107,0.15,0.064,0.258c-0.193,0.404-0.396,0.811-0.609,1.217
			c-0.107,0.203-0.217,0.404-0.328,0.602c-0.113,0.197-0.232,0.393-0.361,0.584c-0.064,0.098-0.131,0.195-0.199,0.297
			c-0.07,0.102-0.143,0.199-0.217,0.297c-0.075,0.096-0.15,0.191-0.225,0.287c-0.075,0.098-0.155,0.193-0.24,0.289
			c-0.021,0.033-0.064,0.082-0.129,0.145c-0.021,0.033-0.064,0.08-0.128,0.145c-0.054,0.053-0.104,0.102-0.151,0.145
			c-0.049,0.043-0.1,0.09-0.152,0.145c-0.022,0.02-0.049,0.045-0.081,0.07c-0.032,0.027-0.059,0.051-0.08,0.074
			c-0.032,0.02-0.063,0.041-0.097,0.062c-0.031,0.021-0.063,0.043-0.096,0.064c-0.064,0.043-0.131,0.08-0.199,0.113
			c-0.07,0.031-0.143,0.064-0.217,0.096c-0.075,0.031-0.152,0.059-0.232,0.08s-0.163,0.043-0.248,0.064
			c-0.086,0.01-0.174,0.018-0.266,0.023c-0.09,0.006-0.179,0.004-0.264-0.008c-0.055,0-0.1-0.004-0.137-0.008
			c-0.037-0.006-0.078-0.014-0.12-0.023c-0.106-0.021-0.192-0.043-0.257-0.064c-0.053-0.012-0.133-0.039-0.24-0.08
			c-0.053-0.021-0.094-0.037-0.119-0.049c-0.027-0.01-0.062-0.027-0.105-0.047C31.642,33.824,31.401,33.67,31.177,33.477z
			 M30.76,22.755c-0.021,0.118-0.046,0.231-0.071,0.346c-0.027,0.111-0.052,0.227-0.072,0.343c0.021-0.021,0.053-0.063,0.096-0.128
			c0.053-0.053,0.099-0.108,0.137-0.168c0.037-0.059,0.082-0.12,0.137-0.185c0.02-0.021,0.039-0.048,0.055-0.079
			c0.017-0.032,0.035-0.06,0.057-0.081s0.043-0.053,0.064-0.096l0.031-0.048l0.033-0.049c0.084-0.128,0.16-0.251,0.223-0.368
			c0.15-0.257,0.291-0.516,0.426-0.778c0.134-0.261,0.26-0.53,0.377-0.809s0.225-0.555,0.32-0.833s0.187-0.556,0.272-0.833
			l0.032-0.113l0.016-0.048v-0.032v-0.016c0.011-0.032,0.019-0.066,0.024-0.104c0.005-0.037,0.013-0.073,0.024-0.104
			c0.01-0.075,0.018-0.146,0.023-0.217c0.005-0.069,0.008-0.142,0.008-0.216c0.021-0.149,0.016-0.283-0.016-0.4
			c0-0.043-0.012-0.107-0.033-0.192c-0.01-0.043-0.026-0.097-0.047-0.161c-0.012-0.021-0.027-0.042-0.049-0.063l-0.031-0.032h-0.017
			v0.016v0.017h-0.017h0.017c-0.011,0-0.017,0.005-0.017,0.016h-0.016l-0.096,0.048c-0.032,0.021-0.064,0.051-0.097,0.088
			c-0.032,0.038-0.063,0.078-0.096,0.121c-0.032,0.042-0.063,0.087-0.097,0.137c-0.031,0.048-0.064,0.099-0.096,0.151
			c-0.021,0.031-0.037,0.062-0.049,0.089c-0.01,0.026-0.026,0.055-0.047,0.088c-0.012,0.031-0.021,0.062-0.032,0.088
			c-0.011,0.027-0.027,0.056-0.048,0.088l-0.145,0.385c-0.054,0.128-0.102,0.256-0.145,0.385c-0.043,0.128-0.086,0.262-0.128,0.401
			l-0.145,0.4l-0.063,0.208l-0.033,0.096l-0.031,0.112l-0.24,0.817c-0.032,0.149-0.067,0.294-0.104,0.433
			c-0.038,0.139-0.071,0.283-0.104,0.433c-0.032,0.139-0.064,0.278-0.096,0.417C30.824,22.461,30.792,22.606,30.76,22.755z"/>
		<path fill="#DBA94B" d="M45.89,30.24c-0.096,0.117-0.192,0.234-0.289,0.354c-0.096,0.117-0.191,0.234-0.289,0.352
			c-0.202,0.225-0.41,0.445-0.625,0.664c-0.213,0.219-0.443,0.43-0.689,0.635c-0.115,0.107-0.236,0.207-0.359,0.305
			c-0.123,0.096-0.254,0.191-0.393,0.287c-0.256,0.193-0.528,0.369-0.816,0.529c-0.311,0.191-0.615,0.346-0.914,0.465
			c-0.086,0.031-0.172,0.064-0.258,0.096c-0.084,0.033-0.17,0.059-0.256,0.08s-0.174,0.039-0.264,0.057
			c-0.092,0.016-0.186,0.035-0.281,0.057c-0.085,0.021-0.176,0.031-0.272,0.031c-0.095,0-0.192,0-0.288,0
			c-0.225,0-0.428-0.021-0.609-0.064c-0.214-0.031-0.416-0.096-0.609-0.191c-0.106-0.043-0.207-0.092-0.305-0.145
			c-0.096-0.055-0.191-0.113-0.287-0.176c-0.183-0.127-0.348-0.279-0.498-0.449c-0.074-0.086-0.145-0.174-0.207-0.264
			c-0.064-0.092-0.123-0.18-0.178-0.266c-0.053-0.086-0.102-0.176-0.144-0.273c-0.043-0.096-0.08-0.191-0.112-0.287
			c-0.064-0.191-0.111-0.385-0.145-0.578c-0.043-0.18-0.066-0.363-0.072-0.543c-0.004-0.182-0.002-0.363,0.009-0.545
			c0.011-0.184,0.029-0.359,0.056-0.529c0.027-0.172,0.062-0.338,0.105-0.498c0.17-0.641,0.422-1.248,0.752-1.826
			c0.075-0.15,0.154-0.291,0.24-0.424c0.086-0.135,0.177-0.266,0.273-0.395c0.096-0.127,0.191-0.254,0.288-0.375
			c0.097-0.123,0.202-0.244,0.32-0.361c0.054-0.064,0.112-0.125,0.177-0.184c0.064-0.061,0.122-0.115,0.176-0.17
			c0.064-0.053,0.129-0.104,0.192-0.152c0.064-0.047,0.128-0.098,0.192-0.152c0.139-0.105,0.281-0.205,0.424-0.297
			c0.145-0.09,0.298-0.172,0.457-0.248c0.139-0.062,0.305-0.133,0.498-0.207c0.085-0.021,0.174-0.043,0.264-0.064
			c0.092-0.021,0.184-0.043,0.281-0.064c0.096-0.021,0.195-0.035,0.295-0.039c0.104-0.006,0.207,0.002,0.314,0.023
			c0.105,0.012,0.215,0.027,0.328,0.049c0.111,0.021,0.227,0.057,0.345,0.111c0.245,0.107,0.454,0.246,0.624,0.416
			c0.182,0.162,0.331,0.363,0.449,0.609c0.106,0.225,0.182,0.439,0.225,0.641c0.031,0.225,0.047,0.439,0.047,0.643
			c0,0.201-0.016,0.4-0.047,0.592c-0.022,0.098-0.046,0.189-0.072,0.281c-0.027,0.092-0.051,0.18-0.072,0.264
			c-0.064,0.182-0.137,0.357-0.217,0.529s-0.179,0.336-0.296,0.498c-0.097,0.16-0.22,0.314-0.368,0.463
			c-0.139,0.172-0.301,0.311-0.482,0.418c-0.084,0.062-0.181,0.129-0.287,0.191c-0.012,0-0.038,0.012-0.08,0.033l-0.049,0.016
			c-0.01,0.01-0.021,0.016-0.031,0.016c-0.021,0.01-0.064,0.027-0.129,0.047c-0.16,0.064-0.331,0.113-0.512,0.146
			c-0.375,0.084-0.744,0.111-1.107,0.078L40.023,30.4c-0.054-0.01-0.099-0.021-0.136-0.031c-0.038-0.012-0.083-0.027-0.137-0.049
			c-0.191-0.064-0.363-0.145-0.513-0.24c-0.042-0.021-0.083-0.045-0.12-0.072s-0.072-0.057-0.104-0.088
			c-0.021-0.012-0.055-0.037-0.098-0.08c-0.031-0.021-0.068-0.055-0.111-0.096c-0.054-0.064-0.107-0.129-0.16-0.193
			c-0.054-0.064-0.107-0.133-0.16-0.209c-0.012-0.01-0.016-0.02-0.016-0.031s-0.006-0.021-0.017-0.031v0.256
			c0,0.139,0.008,0.27,0.024,0.393c0.016,0.123,0.033,0.242,0.055,0.359c0.022,0.119,0.051,0.232,0.09,0.346
			c0.037,0.111,0.076,0.217,0.119,0.312c0.074,0.191,0.171,0.352,0.289,0.48c0.053,0.074,0.105,0.135,0.16,0.176
			c0.053,0.043,0.111,0.086,0.176,0.129c0.054,0.043,0.115,0.078,0.185,0.104c0.069,0.027,0.147,0.053,0.232,0.072
			c0.085,0.033,0.177,0.057,0.272,0.072s0.203,0.035,0.32,0.057c0.054,0,0.109,0.002,0.168,0.008s0.115,0.008,0.168,0.008
			c0.119,0.021,0.236,0.021,0.354,0c0.256-0.012,0.513-0.043,0.77-0.096c0.128-0.031,0.256-0.068,0.385-0.111
			c0.128-0.043,0.256-0.092,0.384-0.145c0.128-0.055,0.254-0.113,0.378-0.178c0.121-0.064,0.242-0.127,0.359-0.191
			c0.246-0.139,0.488-0.289,0.729-0.449c0.24-0.16,0.473-0.33,0.698-0.512c0.052-0.043,0.108-0.086,0.166-0.129
			c0.061-0.043,0.116-0.09,0.17-0.145c0.053-0.043,0.108-0.09,0.168-0.145c0.059-0.053,0.115-0.105,0.168-0.16
			c0.053-0.053,0.134-0.125,0.24-0.217c0.107-0.09,0.188-0.162,0.24-0.217c0.064-0.062,0.118-0.111,0.161-0.143l0.063-0.08
			l0.081-0.08c0.105-0.107,0.218-0.113,0.336-0.016c0.096,0.096,0.106,0.197,0.032,0.303l-0.032,0.049l-0.032,0.049l-0.08,0.096
			c-0.022,0.033-0.043,0.062-0.064,0.088c-0.021,0.027-0.043,0.057-0.063,0.088c-0.043,0.064-0.112,0.152-0.21,0.264
			C46.017,30.088,45.942,30.176,45.89,30.24z M38.966,27.211c-0.064,0.117-0.121,0.24-0.168,0.369
			c-0.049,0.127-0.094,0.256-0.137,0.385c-0.074,0.213-0.129,0.459-0.16,0.736l0.016,0.018c0.129,0.084,0.252,0.158,0.369,0.223
			c0.107,0.064,0.229,0.113,0.369,0.145c0.021,0.012,0.034,0.016,0.039,0.016c0.006,0,0.02,0.006,0.041,0.016
			c0.021,0,0.037,0.004,0.048,0.008c0.011,0.006,0.026,0.01,0.048,0.01c0.032,0.01,0.061,0.016,0.088,0.016s0.057,0.006,0.088,0.016
			c0.246,0.021,0.471,0,0.674-0.064c0.106-0.031,0.211-0.068,0.312-0.111s0.205-0.09,0.312-0.145
			c0.054-0.031,0.104-0.064,0.152-0.098c0.048-0.029,0.098-0.062,0.152-0.096c0.01-0.01,0.021-0.018,0.032-0.023
			c0.01-0.006,0.021-0.014,0.032-0.023l0.016-0.016l0.016-0.018c0.021-0.01,0.035-0.02,0.041-0.031
			c0.004-0.01,0.018-0.025,0.039-0.047s0.046-0.051,0.072-0.09c0.027-0.037,0.051-0.072,0.072-0.104
			c0.064-0.074,0.111-0.166,0.145-0.271c0.053-0.086,0.096-0.18,0.128-0.281s0.059-0.205,0.08-0.312
			c0.011-0.053,0.021-0.104,0.032-0.152c0.01-0.049,0.016-0.098,0.016-0.152c0.01-0.055,0.017-0.102,0.017-0.145s0-0.09,0-0.145
			c0.011-0.053,0.013-0.098,0.008-0.135c-0.006-0.037-0.008-0.078-0.008-0.121s-0.003-0.08-0.009-0.113
			c-0.006-0.031-0.008-0.057-0.008-0.08c-0.011-0.031-0.016-0.061-0.016-0.088c0-0.025-0.006-0.049-0.016-0.072
			c0-0.031-0.017-0.072-0.049-0.127c-0.021-0.021-0.043-0.045-0.064-0.072s-0.053-0.051-0.096-0.072
			c-0.075-0.055-0.166-0.096-0.271-0.129c-0.055-0.021-0.111-0.033-0.17-0.039s-0.114-0.014-0.168-0.023
			c-0.117-0.021-0.234-0.021-0.352,0c-0.247,0.031-0.481,0.115-0.706,0.256c-0.128,0.074-0.235,0.154-0.32,0.24
			c-0.097,0.086-0.187,0.176-0.272,0.271C39.238,26.762,39.083,26.986,38.966,27.211z"/>
		<path fill="#DBA94B" d="M52.765,28.957c0.055,0.043,0.088,0.098,0.104,0.16c0.016,0.064,0.003,0.123-0.04,0.178l-2.437,3.045
			c-0.106,0.213-0.257,0.416-0.448,0.607c-0.107,0.107-0.216,0.199-0.33,0.273c-0.11,0.074-0.227,0.145-0.344,0.209
			c-0.117,0.053-0.238,0.098-0.361,0.135c-0.123,0.039-0.242,0.066-0.359,0.09c-0.268,0.031-0.508,0.041-0.722,0.031
			c-0.245-0.012-0.485-0.059-0.722-0.145c-0.139-0.043-0.256-0.092-0.353-0.145c-0.106-0.064-0.214-0.137-0.32-0.223
			c-0.054-0.043-0.102-0.084-0.144-0.121c-0.044-0.037-0.086-0.084-0.129-0.137c-0.074-0.084-0.148-0.186-0.225-0.305
			c-0.064-0.117-0.117-0.229-0.16-0.336s-0.08-0.219-0.111-0.336c-0.033-0.117-0.053-0.23-0.064-0.338
			c-0.012-0.105-0.021-0.213-0.031-0.32c0-0.117,0-0.229,0-0.336c0-0.105,0.01-0.213,0.031-0.32s0.043-0.211,0.064-0.312
			s0.043-0.205,0.063-0.314c0.022-0.051,0.037-0.104,0.048-0.15c0.012-0.049,0.028-0.1,0.048-0.152
			c0.022-0.055,0.041-0.102,0.056-0.145c0.018-0.043,0.036-0.092,0.057-0.145c0.022-0.053,0.047-0.102,0.072-0.145
			c0.027-0.043,0.051-0.084,0.072-0.127c0.011-0.021,0.021-0.045,0.031-0.074c0.012-0.025,0.022-0.049,0.033-0.07l0.016-0.033
			l0.032-0.031l0.032-0.064l0.288-0.514l0.577-1.01c0.096-0.17,0.189-0.338,0.28-0.504c0.091-0.164,0.179-0.334,0.265-0.504
			c0.097-0.182,0.187-0.355,0.272-0.521c0.085-0.164,0.171-0.34,0.256-0.52c0.022-0.055,0.044-0.086,0.065-0.098l0.048-0.145
			c0.021-0.031,0.034-0.064,0.04-0.096s0.018-0.064,0.039-0.096l0.049-0.098c0-0.01,0.002-0.018,0.008-0.023
			c0.006-0.004,0.008-0.02,0.008-0.039l0.016-0.033l0.017-0.016l0.017-0.016c0.17-0.299,0.42-0.492,0.746-0.578
			c0.324-0.084,0.637-0.037,0.936,0.145c0.289,0.172,0.477,0.42,0.561,0.746c0.086,0.326,0.043,0.639-0.127,0.938v-0.016h-0.016
			c0,0.02-0.006,0.031-0.017,0.031c-0.011,0.023-0.019,0.035-0.023,0.039c-0.007,0.008-0.015,0.02-0.024,0.041
			c-0.011,0.033-0.021,0.062-0.033,0.088c-0.01,0.027-0.026,0.057-0.047,0.088c-0.064,0.129-0.113,0.264-0.145,0.4
			c-0.054,0.15-0.086,0.289-0.096,0.418c-0.012,0.074-0.02,0.146-0.024,0.217c-0.005,0.068-0.009,0.141-0.009,0.215
			c-0.01,0.076-0.013,0.15-0.008,0.225c0.006,0.076,0.014,0.15,0.024,0.225c0.011,0.076,0.021,0.15,0.032,0.225
			c0.011,0.076,0.026,0.15,0.049,0.225c0,0.031,0.01,0.068,0.031,0.111l0.016,0.064v0.018v0.016l0.016,0.016l0.049,0.16
			c0.021,0.062,0.043,0.113,0.064,0.143c0.031,0.109,0.064,0.215,0.096,0.322c0.032,0.107,0.059,0.215,0.08,0.32
			c0.055,0.213,0.094,0.436,0.121,0.666c0.025,0.229,0.04,0.467,0.04,0.713c0,0.02-0.003,0.07-0.009,0.145s-0.008,0.121-0.008,0.143
			l1.684-2.115C52.514,28.904,52.626,28.883,52.765,28.957z M49.126,31.297c0.021-0.127,0.021-0.266,0-0.416
			c-0.01-0.086-0.021-0.162-0.031-0.232c-0.011-0.07-0.027-0.146-0.049-0.232c-0.031-0.16-0.08-0.309-0.144-0.447
			c-0.054-0.172-0.118-0.328-0.192-0.467c-0.012-0.031-0.027-0.068-0.048-0.111l-0.032-0.064l-0.033-0.064v-0.016l-0.016-0.016
			l-0.016-0.031l-0.032-0.082c-0.032-0.053-0.058-0.105-0.08-0.16c-0.054-0.105-0.099-0.213-0.136-0.32
			c-0.037-0.105-0.078-0.217-0.12-0.336c-0.033-0.117-0.062-0.234-0.089-0.354c-0.025-0.115-0.051-0.234-0.072-0.352
			s-0.035-0.238-0.039-0.361c-0.006-0.123-0.014-0.242-0.024-0.359v-0.16L47.54,27.58c-0.086,0.18-0.172,0.355-0.258,0.52
			c-0.084,0.166-0.17,0.34-0.255,0.521l-0.241,0.529l-0.047,0.129c-0.012,0.02-0.02,0.043-0.025,0.062
			c-0.005,0.023-0.013,0.043-0.023,0.064c-0.053,0.086-0.086,0.172-0.096,0.258c-0.064,0.16-0.113,0.33-0.145,0.512
			c-0.032,0.182-0.049,0.359-0.049,0.529c-0.011,0.086-0.014,0.168-0.008,0.248s0.014,0.162,0.024,0.25
			c0.021,0.084,0.04,0.166,0.056,0.246c0.016,0.082,0.04,0.158,0.072,0.232c0.021,0.076,0.051,0.145,0.088,0.209
			s0.077,0.123,0.12,0.176c0.043,0.055,0.092,0.102,0.145,0.145c0.054,0.043,0.106,0.086,0.161,0.129
			c0.053,0.031,0.109,0.055,0.168,0.072c0.059,0.016,0.12,0.035,0.184,0.057c0.117,0.031,0.262,0.037,0.432,0.016
			c0.15,0,0.295-0.027,0.435-0.08c0.075-0.021,0.142-0.047,0.2-0.072c0.059-0.027,0.114-0.057,0.168-0.088
			c0.193-0.141,0.326-0.326,0.4-0.562c0.021-0.053,0.038-0.111,0.049-0.176C49.104,31.443,49.116,31.373,49.126,31.297z"/>
	</g>
	<g>
		<path fill="#DBA94B" d="M17.14,41.346c0,0.303-0.108,0.582-0.326,0.844c-0.308,0.369-0.718,0.637-1.232,0.801
			c-0.381,0.123-0.752,0.184-1.113,0.184c-0.132,0-0.262-0.008-0.389-0.023c-0.832-0.107-1.537-0.289-2.114-0.549
			c-0.524,0.387-1.079,0.58-1.661,0.58c-0.689,0-1.116-0.191-1.28-0.572c-0.037-0.09-0.056-0.195-0.056-0.318
			c0-0.121,0.061-0.252,0.183-0.389c0.191-0.213,0.456-0.318,0.795-0.318c0.223,0,0.424,0.031,0.604,0.096
			c0.18,0.064,0.403,0.168,0.667,0.311s0.461,0.246,0.588,0.309c0.233-0.227,0.474-0.543,0.723-0.949s0.468-0.803,0.656-1.193
			c0.188-0.389,0.428-0.822,0.719-1.299c0.291-0.477,0.588-0.881,0.89-1.217l0.453-0.516c-0.418-0.074-0.88-0.111-1.383-0.111
			c-0.503,0-1.058,0.066-1.661,0.199c-0.827,0.174-1.463,0.529-1.908,1.064c-0.27,0.324-0.406,0.631-0.406,0.922
			c0,0.387,0.188,0.639,0.565,0.756c0.132,0.037,0.249,0.055,0.349,0.055c0.101,0,0.218-0.018,0.35-0.055
			c0.132-0.037,0.261-0.115,0.385-0.236c0.125-0.117,0.214-0.232,0.271-0.346c0.055-0.111,0.083-0.193,0.083-0.25
			c0-0.055,0.026-0.082,0.079-0.082c0.053,0.006,0.083,0.041,0.087,0.111v0.008c-0.059,0.387-0.265,0.68-0.62,0.883
			c-0.217,0.115-0.435,0.174-0.652,0.174l-0.414-0.072c-0.562-0.195-0.842-0.561-0.842-1.096c0-0.367,0.162-0.727,0.485-1.08
			c0.52-0.584,1.282-0.947,2.289-1.09c0.487-0.068,0.995-0.104,1.522-0.104s1.064,0.059,1.61,0.174
			c0.148-0.127,0.278-0.211,0.389-0.254s0.176-0.062,0.194-0.062c0.019,0,0.031,0.002,0.037,0.008c0.031,0,0.038,0.016,0.02,0.051
			s-0.077,0.084-0.175,0.146c-0.098,0.064-0.158,0.123-0.179,0.176c0.721,0.186,1.24,0.451,1.558,0.795
			c0.169,0.189,0.254,0.385,0.254,0.584s-0.059,0.4-0.175,0.6c-0.154,0.266-0.403,0.465-0.747,0.602
			c-0.345,0.135-0.692,0.209-1.042,0.225c0.339,0.107,0.655,0.256,0.946,0.445C16.933,40.535,17.14,40.895,17.14,41.346z
			 M11.632,42.449c-0.62-0.295-1.012-0.473-1.176-0.531c-0.165-0.059-0.328-0.088-0.489-0.088s-0.29,0.057-0.385,0.172
			c-0.095,0.113-0.143,0.217-0.143,0.309c0,0.094,0.021,0.184,0.063,0.268c0.116,0.238,0.36,0.357,0.731,0.357
			C10.736,42.936,11.203,42.773,11.632,42.449z M14.358,42.951c0.593,0,1.097-0.17,1.51-0.508c0.45-0.361,0.675-0.75,0.675-1.17
			c0-0.434-0.23-0.764-0.691-0.984c-0.169-0.08-0.377-0.158-0.624-0.234c-0.247-0.078-0.445-0.143-0.596-0.195
			s-0.237-0.104-0.258-0.152c0-0.1,0.077-0.152,0.23-0.158c0.101,0,0.255,0.008,0.461,0.023c0.206,0.018,0.384,0.023,0.532,0.021
			c0.148-0.004,0.327-0.057,0.537-0.16c0.209-0.102,0.388-0.236,0.537-0.4c0.238-0.266,0.357-0.514,0.357-0.748
			c0-0.498-0.466-0.855-1.398-1.072c-0.281,0.387-0.785,1.203-1.511,2.451s-1.285,2.084-1.677,2.508l-0.302,0.285
			c0.599,0.25,1.243,0.41,1.931,0.479C14.172,42.945,14.268,42.951,14.358,42.951z"/>
		<path fill="#DBA94B" d="M19.627,41.365c-0.175,0.336-0.28,0.588-0.314,0.754c-0.034,0.168-0.052,0.303-0.052,0.406
			s0.04,0.156,0.119,0.156c0.101,0,0.225-0.094,0.374-0.279c0.217-0.27,0.432-0.621,0.644-1.057c0.021-0.047,0.045-0.074,0.072-0.08
			c0.042-0.016,0.063,0,0.063,0.049c0,0.025-0.008,0.059-0.024,0.094c-0.488,0.986-0.898,1.479-1.232,1.479
			c-0.154,0-0.278-0.074-0.374-0.223c-0.048-0.078-0.071-0.184-0.071-0.316s0.026-0.295,0.08-0.486
			c-0.424,0.684-0.79,1.025-1.097,1.025c-0.085,0-0.162-0.025-0.231-0.078c-0.159-0.111-0.238-0.303-0.238-0.572
			c0-0.52,0.225-1.047,0.676-1.582c0.254-0.297,0.567-0.49,0.938-0.58c0.1-0.027,0.196-0.039,0.286-0.039
			c0.244,0,0.45,0.084,0.62,0.254c0.053,0.059,0.069,0.113,0.048,0.166s-0.066,0.074-0.135,0.064
			c-0.058-0.191-0.186-0.287-0.381-0.287c-0.228,0-0.509,0.182-0.843,0.541c-0.19,0.213-0.368,0.461-0.532,0.746
			c-0.207,0.346-0.31,0.621-0.31,0.828c0,0.205,0.066,0.309,0.199,0.309c0.318,0,0.733-0.486,1.248-1.463
			c0.101-0.195,0.186-0.328,0.254-0.4c0.069-0.07,0.157-0.107,0.262-0.107c0.021,0,0.076,0.008,0.164,0.023
			c0.087,0.016,0.152,0.02,0.194,0.01C19.938,40.812,19.802,41.029,19.627,41.365z"/>
		<path fill="#DBA94B" d="M22.449,40.725c0-0.143-0.072-0.215-0.215-0.215c-0.211,0-0.457,0.121-0.735,0.363
			c-0.278,0.242-0.51,0.494-0.695,0.758c-0.08,0.154-0.145,0.348-0.195,0.58c-0.05,0.234-0.076,0.396-0.076,0.486
			s0.016,0.148,0.048,0.174H20.08c-0.079,0-0.099-0.07-0.06-0.211c0.04-0.139,0.094-0.291,0.163-0.457
			c0.069-0.164,0.155-0.352,0.258-0.568c0.104-0.215,0.179-0.377,0.227-0.488c-0.435,0.822-0.715,1.293-0.843,1.414
			c-0.053,0.049-0.079,0.033-0.079-0.047c0-0.016,0.005-0.033,0.016-0.057c0.186-0.242,0.555-0.904,1.109-1.986
			c0.553-1.08,0.942-1.789,1.164-2.123c0.18-0.258,0.355-0.389,0.525-0.389h0.008h0.04c0.006,0,0.052,0.01,0.139,0.023
			c0.088,0.016,0.152,0.02,0.195,0.01c-0.196,0.148-0.466,0.488-0.811,1.021c-0.345,0.531-0.618,0.998-0.819,1.398
			c-0.201,0.398-0.336,0.703-0.405,0.91c0.482-0.6,0.914-0.971,1.296-1.113c0.18-0.059,0.323-0.088,0.429-0.088
			c0.233,0,0.35,0.098,0.35,0.295c0,0.064-0.013,0.135-0.04,0.215c-0.074,0.201-0.226,0.381-0.457,0.543
			c-0.23,0.162-0.483,0.258-0.759,0.283c-0.063,0.148-0.095,0.285-0.095,0.408c0,0.125,0.013,0.238,0.04,0.338
			c0.063,0.254,0.183,0.412,0.358,0.471c0.037,0.01,0.074,0.016,0.111,0.016c0.148,0,0.323-0.094,0.525-0.279
			c0.164-0.18,0.379-0.543,0.644-1.088c0.037-0.068,0.066-0.092,0.088-0.068c0.021,0.023,0.031,0.047,0.031,0.068
			s-0.04,0.125-0.119,0.309c-0.079,0.186-0.191,0.391-0.333,0.613c-0.302,0.455-0.636,0.684-1.002,0.684
			c-0.222,0-0.395-0.064-0.517-0.191c-0.174-0.18-0.262-0.416-0.262-0.707c0-0.148,0.04-0.299,0.119-0.453
			c0.08-0.154,0.172-0.236,0.278-0.248c0.016,0,0.032,0,0.048,0c0.186,0,0.367-0.07,0.544-0.213
			C22.36,40.973,22.449,40.842,22.449,40.725z"/>
		<path fill="#DBA94B" d="M23.633,41.648c-0.075,0.18-0.111,0.381-0.111,0.604c0,0.148,0.033,0.266,0.099,0.354
			s0.16,0.131,0.282,0.131c0.482,0,0.919-0.453,1.312-1.359c0.037-0.084,0.082-0.121,0.135-0.111
			c0.021,0.006,0.031,0.02,0.031,0.041s-0.059,0.16-0.178,0.416c-0.12,0.258-0.24,0.467-0.362,0.625
			c-0.271,0.371-0.604,0.555-1.001,0.555c-0.212,0-0.392-0.066-0.541-0.205s-0.223-0.326-0.223-0.564s0.057-0.492,0.171-0.76
			s0.269-0.516,0.465-0.746s0.422-0.4,0.676-0.506c0.122-0.053,0.239-0.078,0.35-0.078c0.111,0,0.215,0.031,0.311,0.094
			c0.089,0.074,0.135,0.158,0.135,0.248c0,0.316-0.191,0.621-0.573,0.914c-0.116,0.09-0.28,0.17-0.493,0.24
			C23.906,41.611,23.745,41.648,23.633,41.648z M24.968,40.377c0-0.107-0.042-0.16-0.127-0.16c-0.148,0-0.374,0.182-0.676,0.549
			c-0.18,0.221-0.339,0.471-0.477,0.746c0.09,0,0.222-0.031,0.394-0.094c0.172-0.064,0.322-0.148,0.449-0.254
			C24.822,40.914,24.968,40.652,24.968,40.377z"/>
		<path fill="#DBA94B" d="M26.916,42.41c0,0.17,0.069,0.254,0.207,0.254c0.249,0,0.581-0.416,0.994-1.246
			c0.016-0.033,0.03-0.064,0.044-0.096c0.013-0.033,0.034-0.053,0.063-0.064c0.029-0.01,0.049-0.004,0.06,0.02
			c0.011,0.025,0.005,0.062-0.016,0.115c-0.424,0.986-0.854,1.479-1.288,1.479c-0.143,0-0.257-0.062-0.342-0.189
			c-0.084-0.129-0.127-0.254-0.127-0.379c0-0.123,0.014-0.238,0.04-0.346c-0.307,0.51-0.572,0.799-0.794,0.867
			c-0.064,0.027-0.126,0.039-0.187,0.039s-0.121-0.008-0.179-0.023C25.13,42.771,25,42.564,25,42.219c0-0.232,0.06-0.49,0.179-0.773
			c0.12-0.283,0.288-0.555,0.505-0.814s0.479-0.436,0.787-0.525c0.111-0.037,0.242-0.055,0.393-0.055s0.319,0.047,0.505,0.143
			c0.36-0.678,0.668-1.307,0.922-1.885c0.074-0.174,0.146-0.287,0.218-0.338c0.071-0.051,0.138-0.074,0.199-0.074
			c0.061,0,0.098,0,0.111,0s0.063,0.006,0.15,0.02c0.088,0.012,0.156,0.018,0.203,0.012c-0.122,0.111-0.445,0.652-0.969,1.621
			c-0.668,1.24-1.071,2.066-1.208,2.48C26.942,42.184,26.916,42.311,26.916,42.41z M27.305,40.32
			c-0.069-0.068-0.166-0.104-0.291-0.104c-0.124,0-0.298,0.094-0.52,0.277c-0.355,0.299-0.649,0.662-0.882,1.098
			c-0.154,0.285-0.231,0.523-0.231,0.707c0,0.086,0.018,0.162,0.052,0.23c0.035,0.07,0.089,0.104,0.163,0.104
			c0.18,0,0.403-0.186,0.667-0.557C26.529,41.705,26.876,41.119,27.305,40.32z"/>
		<path fill="#DBA94B" d="M29.665,45.383c-0.498,0-0.747-0.203-0.747-0.611c0-0.34,0.231-0.645,0.692-0.914
			c0.392-0.229,0.893-0.443,1.502-0.645c0.281-0.09,0.484-0.16,0.611-0.215c0.139-0.402,0.207-0.842,0.207-1.318
			c0-0.096-0.006-0.168-0.016-0.215c-0.148,0.303-0.353,0.611-0.612,0.93c-0.308,0.383-0.612,0.529-0.914,0.445
			c-0.275-0.117-0.413-0.344-0.413-0.684c0-0.455,0.228-0.957,0.684-1.502c0.249-0.297,0.541-0.484,0.874-0.564
			c0.091-0.027,0.181-0.039,0.271-0.039c0.238,0,0.472,0.078,0.699,0.238c0.084,0.068,0.127,0.127,0.127,0.174
			s-0.016,0.094-0.048,0.139c-0.031,0.047-0.063,0.051-0.099,0.018c-0.035-0.035-0.057-0.068-0.068-0.1
			c-0.068-0.197-0.18-0.295-0.334-0.295c-0.28,0-0.596,0.195-0.945,0.588c-0.195,0.223-0.365,0.461-0.508,0.715
			c-0.176,0.32-0.264,0.564-0.264,0.736s0.054,0.287,0.16,0.346c0.037,0.016,0.073,0.023,0.111,0.023
			c0.121,0,0.273-0.084,0.457-0.25c0.183-0.168,0.352-0.379,0.508-0.635c0.156-0.258,0.256-0.459,0.299-0.602
			c0.042-0.143,0.094-0.232,0.154-0.27s0.129-0.059,0.203-0.064c0.074-0.004,0.125-0.018,0.15-0.039
			c0.043,0.238,0.064,0.518,0.064,0.838s-0.057,0.686-0.168,1.094c0.244-0.176,0.418-0.332,0.521-0.469
			c0.104-0.139,0.186-0.264,0.246-0.375c0.061-0.109,0.115-0.221,0.163-0.328c0.048-0.109,0.079-0.18,0.095-0.211
			c0.017-0.033,0.043-0.053,0.08-0.061s0.056,0.01,0.056,0.053c0,0.025-0.009,0.059-0.024,0.094
			c-0.232,0.482-0.428,0.832-0.584,1.045c-0.156,0.217-0.369,0.387-0.64,0.514c-0.127,0.361-0.312,0.719-0.552,1.072
			c-0.242,0.355-0.545,0.668-0.91,0.939C30.389,45.248,30.026,45.383,29.665,45.383z M29.085,44.922
			c0,0.201,0.131,0.303,0.391,0.303c0.152,0,0.326-0.045,0.52-0.135c0.193-0.092,0.354-0.184,0.48-0.279
			c0.219-0.176,0.457-0.434,0.716-0.779c0.196-0.275,0.347-0.543,0.453-0.801l-0.278,0.094c-0.826,0.287-1.409,0.541-1.748,0.764
			c-0.25,0.164-0.414,0.373-0.493,0.627C29.099,44.795,29.085,44.865,29.085,44.922z"/>
		<path fill="#DBA94B" d="M34.776,40.09c0.387,0,0.58,0.244,0.58,0.732c0,0.221-0.059,0.459-0.176,0.713
			c-0.147,0.346-0.369,0.658-0.666,0.939c0.068,0.133,0.193,0.199,0.373,0.199c0.143,0,0.277-0.072,0.406-0.217
			c0.158-0.162,0.271-0.307,0.341-0.432s0.119-0.217,0.151-0.273c0.031-0.059,0.072-0.143,0.123-0.252
			c0.05-0.107,0.08-0.176,0.092-0.197c0.01-0.025,0.029-0.037,0.055-0.037c0.053-0.006,0.08,0.014,0.08,0.057
			c0,0.016-0.006,0.033-0.017,0.055l-0.048,0.111c-0.031,0.074-0.055,0.127-0.07,0.16c-0.017,0.031-0.044,0.088-0.084,0.17
			s-0.074,0.146-0.104,0.193c-0.029,0.049-0.068,0.113-0.119,0.191c-0.051,0.08-0.096,0.145-0.135,0.191
			c-0.041,0.049-0.09,0.102-0.147,0.158c-0.059,0.059-0.114,0.104-0.167,0.137c-0.133,0.08-0.257,0.119-0.373,0.119
			c-0.218,0-0.387-0.07-0.509-0.207c-0.244,0.18-0.47,0.27-0.676,0.27c-0.388,0-0.58-0.244-0.58-0.73
			c0-0.223,0.058-0.461,0.175-0.715c0.158-0.371,0.383-0.686,0.672-0.945C34.242,40.219,34.517,40.09,34.776,40.09z M34.864,40.336
			c-0.144,0-0.313,0.096-0.51,0.287c-0.195,0.189-0.371,0.449-0.523,0.779c-0.186,0.381-0.279,0.693-0.279,0.938
			c0,0.242,0.094,0.365,0.279,0.365c0.132,0,0.28-0.072,0.444-0.215c-0.085-0.121-0.127-0.252-0.127-0.389
			c0.011-0.229,0.103-0.342,0.278-0.342c0.068,0,0.125,0.023,0.17,0.07s0.068,0.092,0.068,0.131c0,0.041-0.006,0.082-0.016,0.125
			c0.09-0.133,0.193-0.322,0.31-0.566c0.132-0.27,0.198-0.533,0.198-0.795C35.157,40.465,35.06,40.336,34.864,40.336z"/>
		<path fill="#DBA94B" d="M37.438,40.09c0.388,0,0.581,0.244,0.581,0.732c0,0.221-0.06,0.459-0.176,0.713
			c-0.147,0.346-0.371,0.658-0.667,0.939c0.068,0.133,0.193,0.199,0.373,0.199c0.144,0,0.279-0.072,0.405-0.217
			c0.159-0.162,0.273-0.307,0.342-0.432s0.119-0.217,0.151-0.273c0.032-0.059,0.073-0.143,0.123-0.252
			c0.051-0.107,0.081-0.176,0.092-0.197c0.01-0.025,0.029-0.037,0.056-0.037c0.053-0.006,0.079,0.014,0.079,0.057
			c0,0.016-0.006,0.033-0.016,0.055l-0.049,0.111c-0.03,0.074-0.055,0.127-0.07,0.16c-0.016,0.031-0.044,0.088-0.084,0.17
			c-0.039,0.082-0.074,0.146-0.104,0.193c-0.029,0.049-0.068,0.113-0.119,0.191c-0.05,0.08-0.095,0.145-0.135,0.191
			c-0.039,0.049-0.089,0.102-0.146,0.158c-0.059,0.059-0.115,0.104-0.167,0.137c-0.133,0.08-0.257,0.119-0.374,0.119
			c-0.217,0-0.387-0.07-0.509-0.207c-0.243,0.18-0.469,0.27-0.675,0.27c-0.387,0-0.58-0.244-0.58-0.73
			c0-0.223,0.057-0.461,0.174-0.715c0.159-0.371,0.383-0.686,0.672-0.945C36.905,40.219,37.179,40.09,37.438,40.09z M37.526,40.336
			c-0.143,0-0.312,0.096-0.509,0.287c-0.196,0.189-0.371,0.449-0.524,0.779c-0.186,0.381-0.278,0.693-0.278,0.938
			c0,0.242,0.093,0.365,0.278,0.365c0.133,0,0.281-0.072,0.445-0.215c-0.085-0.121-0.127-0.252-0.127-0.389
			c0.01-0.229,0.103-0.342,0.277-0.342c0.068,0,0.127,0.023,0.172,0.07c0.044,0.047,0.066,0.092,0.066,0.131
			c0,0.041-0.005,0.082-0.016,0.125c0.09-0.133,0.193-0.322,0.31-0.566c0.134-0.27,0.199-0.533,0.199-0.795
			C37.82,40.465,37.722,40.336,37.526,40.336z"/>
		<path fill="#DBA94B" d="M40.331,42.41c0,0.17,0.069,0.254,0.207,0.254c0.25,0,0.58-0.416,0.994-1.246
			c0.016-0.033,0.03-0.064,0.043-0.096c0.014-0.033,0.035-0.053,0.064-0.064c0.029-0.01,0.049-0.004,0.059,0.02
			c0.012,0.025,0.006,0.062-0.016,0.115c-0.424,0.986-0.854,1.479-1.287,1.479c-0.143,0-0.258-0.062-0.342-0.189
			c-0.085-0.129-0.127-0.254-0.127-0.379c0-0.123,0.012-0.238,0.039-0.346c-0.307,0.51-0.572,0.799-0.794,0.867
			c-0.063,0.027-0.126,0.039-0.188,0.039c-0.061,0-0.119-0.008-0.178-0.023c-0.26-0.068-0.39-0.275-0.39-0.621
			c0-0.232,0.06-0.49,0.179-0.773s0.288-0.555,0.506-0.814c0.217-0.26,0.479-0.436,0.786-0.525c0.111-0.037,0.242-0.055,0.394-0.055
			c0.15,0,0.319,0.047,0.504,0.143c0.361-0.678,0.668-1.307,0.923-1.885c0.073-0.174,0.146-0.287,0.219-0.338
			c0.071-0.051,0.138-0.074,0.198-0.074s0.098,0,0.111,0c0.013,0,0.063,0.006,0.15,0.02c0.088,0.012,0.155,0.018,0.203,0.012
			c-0.122,0.111-0.445,0.652-0.969,1.621c-0.668,1.24-1.071,2.066-1.209,2.48C40.358,42.184,40.331,42.311,40.331,42.41z
			 M40.721,40.32c-0.069-0.068-0.165-0.104-0.29-0.104s-0.297,0.094-0.52,0.277c-0.355,0.299-0.65,0.662-0.883,1.098
			c-0.154,0.285-0.23,0.523-0.23,0.707c0,0.086,0.018,0.162,0.052,0.23c0.034,0.07,0.089,0.104,0.163,0.104
			c0.18,0,0.402-0.186,0.668-0.557C39.944,41.705,40.292,41.119,40.721,40.32z"/>
		<path fill="#DBA94B" d="M42.255,42.721c0.068,0.012,0.117,0.016,0.144,0.016c0.212,0,0.421-0.125,0.628-0.373
			c0.111-0.139,0.311-0.486,0.596-1.041c0.011-0.027,0.029-0.041,0.057-0.041c0.047-0.004,0.07,0.014,0.07,0.057
			c0,0.01-0.012,0.041-0.035,0.09c-0.023,0.053-0.047,0.102-0.067,0.152c-0.021,0.051-0.056,0.123-0.104,0.219
			s-0.09,0.172-0.124,0.23s-0.077,0.129-0.131,0.215c-0.053,0.084-0.105,0.15-0.158,0.199l-0.167,0.174
			c-0.091,0.09-0.196,0.154-0.317,0.191c-0.197,0.062-0.388,0.068-0.574,0.016c-0.121,0.053-0.229,0.078-0.324,0.078
			c-0.377,0-0.604-0.146-0.685-0.445c-0.015-0.068-0.023-0.15-0.023-0.25c0-0.096,0.033-0.191,0.099-0.281
			c0.066-0.09,0.137-0.137,0.211-0.143c0.271-0.514,0.502-0.979,0.691-1.393c0.213-0.449,0.459-0.674,0.74-0.674
			c0.074,0,0.146,0.016,0.219,0.051c0.07,0.035,0.098,0.072,0.078,0.115c-0.018,0.043-0.057,0.051-0.114,0.023
			c-0.06-0.025-0.108-0.039-0.151-0.039c-0.042,0-0.08,0.008-0.111,0.023c-0.18,0.086-0.271,0.268-0.271,0.549
			c0,0.148,0.021,0.27,0.063,0.365c0.043,0.096,0.09,0.199,0.143,0.311c0.123,0.275,0.184,0.5,0.184,0.676
			c0,0.174-0.057,0.346-0.166,0.516C42.541,42.477,42.408,42.615,42.255,42.721z M41.39,42.449c0,0.033,0.002,0.066,0.006,0.104
			c0.045,0.145,0.143,0.217,0.295,0.217c0.063,0,0.117-0.012,0.16-0.033c-0.197-0.121-0.303-0.32-0.318-0.596
			C41.437,42.236,41.39,42.34,41.39,42.449z M41.984,42.664c0.233-0.18,0.351-0.471,0.351-0.873c0-0.164-0.019-0.389-0.057-0.676
			c-0.037-0.287-0.055-0.48-0.055-0.58c0-0.102,0.002-0.17,0.008-0.207c-0.402,0.805-0.652,1.295-0.747,1.471
			c0.111,0,0.167,0.078,0.167,0.238C41.651,42.35,41.763,42.559,41.984,42.664z"/>
	</g>
	<g>
		<path fill="#DBA94B" d="M45.321,13.795c0-1.081-1.199-1.957-2.676-1.957c-0.008,0-0.016,0-0.022,0
			c-0.416-0.485-1.114-0.826-1.925-0.902c-0.161-1.946,0.67-1.066,0.67-1.066c-1.096-1.964-1.586-0.209-1.545,1.09
			c-0.733,0.107-1.357,0.435-1.74,0.884c-0.061-0.004-0.121-0.005-0.183-0.005c-1.478,0-2.677,0.876-2.677,1.957
			c0,0.085,0.009,0.168,0.022,0.249h10.052C45.312,13.963,45.321,13.88,45.321,13.795z"/>
		<g>
			<polygon fill="#DBA94B" points="37.862,21.169 37.109,21.169 35.403,14.34 36.956,14.34 			"/>
			<polygon fill="#DBA94B" points="39.981,21.169 38.504,21.169 37.522,14.34 39.981,14.34 			"/>
			<polygon fill="#DBA94B" points="40.536,21.169 42.014,21.169 42.995,14.341 40.536,14.341 			"/>
			<polygon fill="#DBA94B" points="42.665,21.169 43.419,21.169 45.124,14.34 43.571,14.34 			"/>
		</g>
	</g>
	<path fill="#DBA94B" d="M0,19.907c0,0,0.128-0.333,0.37-0.957c0.12-0.312,0.269-0.697,0.443-1.149
		c0.09-0.226,0.175-0.472,0.288-0.727c0.126-0.247,0.26-0.511,0.401-0.789c0.286-0.557,0.588-1.182,0.948-1.846
		c0.408-0.636,0.848-1.321,1.319-2.058c0.486-0.723,1.102-1.422,1.699-2.2c0.286-0.4,0.668-0.731,1.02-1.108
		C6.846,8.705,7.214,8.328,7.59,7.942c0.389-0.37,0.824-0.708,1.247-1.074c0.214-0.18,0.43-0.362,0.648-0.546
		c0.215-0.188,0.436-0.373,0.681-0.529c0.965-0.645,1.911-1.396,3.016-1.954c2.117-1.28,4.58-2.21,7.176-2.923
		c0.658-0.146,1.322-0.294,1.991-0.442c0.67-0.142,1.363-0.184,2.05-0.281c0.344-0.042,0.69-0.084,1.037-0.127l1.05-0.029
		c0.702-0.005,1.408-0.058,2.115-0.025c2.839,0.104,5.681,0.675,8.43,1.538c2.685,0.994,5.3,2.296,7.603,3.954
		c0.58,0.407,1.105,0.882,1.656,1.316l0.812,0.667l0.742,0.736c0.482,0.498,1.005,0.955,1.446,1.479
		c0.438,0.527,0.871,1.052,1.302,1.571c1.613,2.154,2.989,4.398,3.876,6.708c0.531,1.118,0.818,2.292,1.186,3.393
		c0.098,0.273,0.158,0.555,0.213,0.835c0.061,0.279,0.119,0.556,0.177,0.829c0.109,0.549,0.247,1.083,0.327,1.614
		c0.06,0.535,0.119,1.059,0.177,1.57c0.046,0.512,0.146,1.008,0.127,1.5c-0.007,0.98,0.052,1.91-0.009,2.781
		c-0.078,0.869-0.151,1.682-0.22,2.434c-0.122,0.744-0.269,1.422-0.382,2.037c-0.06,0.305-0.115,0.596-0.168,0.871
		c-0.068,0.268-0.152,0.516-0.219,0.75c-0.14,0.465-0.258,0.859-0.354,1.18c-0.192,0.641-0.294,0.982-0.294,0.982
		s0.094-0.344,0.27-0.988c0.088-0.324,0.197-0.721,0.326-1.188c0.061-0.234,0.139-0.484,0.199-0.754
		c0.045-0.273,0.094-0.566,0.146-0.873c0.099-0.615,0.228-1.293,0.331-2.035c0.049-0.75,0.102-1.561,0.158-2.424
		c0.039-0.865-0.041-1.787-0.059-2.758c0.006-0.486-0.098-0.977-0.15-1.482c-0.063-0.506-0.129-1.023-0.196-1.551
		c-0.087-0.525-0.229-1.051-0.345-1.592c-0.062-0.269-0.123-0.541-0.186-0.816c-0.059-0.275-0.123-0.553-0.223-0.821
		c-0.378-1.083-0.676-2.236-1.215-3.332c-0.904-2.265-2.297-4.448-3.884-6.564c-0.425-0.509-0.854-1.022-1.286-1.539
		c-0.436-0.512-0.952-0.959-1.429-1.445l-0.731-0.72L45.954,7.22c-0.543-0.424-1.061-0.889-1.631-1.285
		c-2.275-1.62-4.807-2.866-7.477-3.847c-2.693-0.858-5.479-1.432-8.265-1.546c-0.694-0.036-1.388,0.014-2.078,0.015l-1.032,0.024
		c-0.34,0.04-0.68,0.08-1.019,0.12c-0.675,0.093-1.356,0.13-2.015,0.268c-0.658,0.143-1.312,0.284-1.959,0.426
		c-2.551,0.699-4.991,1.569-7.094,2.805c-1.099,0.536-2.04,1.265-3.002,1.887c-0.245,0.152-0.464,0.331-0.681,0.513
		c-0.217,0.18-0.434,0.357-0.647,0.532C8.633,7.487,8.197,7.815,7.807,8.177C7.431,8.552,7.062,8.92,6.701,9.281
		C6.35,9.648,5.966,9.972,5.672,10.36c-0.608,0.755-1.237,1.435-1.738,2.142c-0.485,0.719-0.939,1.391-1.36,2.013
		c-0.373,0.649-0.687,1.263-0.986,1.81c-0.148,0.274-0.288,0.533-0.42,0.778c-0.118,0.251-0.209,0.496-0.305,0.719
		c-0.186,0.448-0.344,0.83-0.472,1.138C0.136,19.578,0,19.907,0,19.907z"/>
</g>
</svg>
