<?xml version="1.0" encoding="utf-8"?>
<!-- Generator: Adobe Illustrator 16.0.4, SVG Export Plug-In . SVG Version: 6.00 Build 0)  -->
<!DOCTYPE svg PUBLIC "-//W3C//DTD SVG 1.1//EN" "http://www.w3.org/Graphics/SVG/1.1/DTD/svg11.dtd">
<svg version="1.1" id="Layer_1" xmlns="http://www.w3.org/2000/svg" xmlns:xlink="http://www.w3.org/1999/xlink" x="0px" y="0px"
	 width="90.304px" height="96.367px" viewBox="0 0 90.304 96.367" enable-background="new 0 0 90.304 96.367" xml:space="preserve">
<path fill="#DBA94B" d="M74.203,65.047c-1.445-2.316-6.251-5.21-9.265-3.887c0.045-1.817,0.228-3.599,0.726-5.306
	c0.088-0.297-0.067-0.477-0.295-0.553c-0.052-1.036-0.236-2.108-0.155-2.754c0.444-3.587,3.25-6.702,4.096-10.249
	c2.079-8.732-10.76-11.506-17.059-10.247c-0.096-0.279-0.203-0.554-0.323-0.82c-1.774-3.942-5.292-3.726-8.386-2.178
	c-0.795-3.316-1.778-6.665-3.016-9.893c0.397,0.031,0.87-0.048,1.388-0.21c7.744,2.452,13.763-5.015,16.995-11.718
	c1.15-0.806,2.573-1.877,2.573-2.703c-0.022-0.053-0.062-0.087-0.122-0.099C51.398,1.842,44.182,8.583,39.48,16.608
	C35.451,7.403,29.072-0.409,18.559-2.938c-0.553-0.133-1.571,0.681-0.77,0.874C32.602,1.5,38.964,15.788,42.222,29.414
	c-1.176-0.514-2.676-0.584-4.12-0.341c-2.678,0.452-4.732,2.16-5.576,4.509c-2.139,1.899-7.979,1.885-10.304,2.917
	c-2.531,1.126-4.282,4.21-4.606,6.854c-0.333,2.695,1.763,5.34,3.003,7.536c1.671,2.955,1.276,6.159,2.523,9.147
	c0.207,0.492,0.548,0.815,0.96,1.027c-0.023,0.678-0.073,1.365-0.137,2.057c-11.583-2.792-13.728,12.763-8.384,20.621
	c3.21,4.723,9.361,6.647,14.583,8.041c0.208,0.056,0.417,0.107,0.625,0.161c1.344,0.71,2.516,2.125,3.711,2.87
	c1.374,0.854,3.232,1.274,4.812,1.417c3.94,0.358,7.795-0.257,11.677-0.828c9.819,0.322,19.805-2.829,23.424-13.012
	C76.178,77.431,77.155,69.784,74.203,65.047z M43.333,18.376c2.458-1.176,5.233-3.285,5.785-3.674
	c2.686-1.888,5.267-3.925,7.817-5.994C54.089,14.144,49.422,19.849,43.333,18.376z M40.083,17.955
	c-0.011,0.003-0.021,0.003-0.03,0.006c-0.039-0.093-0.076-0.184-0.113-0.277c0.096-0.048,0.177-0.102,0.214-0.168
	c2.625-4.774,5.896-9.355,10.832-11.933c1.972-1.031,4.168-1.281,6.349-1.167c-0.32-0.016,3.521,0.08,2.566,0.895
	c-0.072,0.062-0.146,0.12-0.22,0.181c0.083-0.37-1.146-0.218-1.323,0.201c-0.197,0.467-0.415,0.952-0.645,1.442
	c-0.206,0.172-0.412,0.348-0.622,0.519C55.866,8.662,45.97,16.5,42.192,18.021c-0.32-0.122-0.64-0.256-0.965-0.418
	C40.954,17.467,40.269,17.706,40.083,17.955z M33.768,33.333c0.891-3.041,5.479-4.578,7.854-3.128
	c-0.638,0.452-1.23,0.943-1.75,1.438c-0.553,0.524,0.757,0.473,1.055,0.19c0.416-0.396,0.856-0.773,1.312-1.121
	c0.166,0.177,0.501,2.705,0.501,2.705c0,0.155,0.702,0.182,0.702,0.182c0.226,0,0.904-0.123,0.922-0.448
	c0.048-0.829-0.088-1.512-0.356-2.074c-0.096-0.442-0.198-0.886-0.301-1.33c2.513-1.393,5.223-1.501,6.897,1.839
	c1.57,3.13,1.119,7.261-0.616,10.212c-2.983,5.074-9.898,4.387-13.584,0.568C34.157,40.039,32.839,36.501,33.768,33.333z
	 M48.33,44.717c3.331-1.963,4.821-6.115,4.493-9.944c2.939-0.324,4.777-0.444,7.751,0.731c3.915,1.548,4.079,6.125,2.529,9.454
	c-2.959,6.354-11.529,7.845-17.75,7.749c-5.65-0.088-11.688-0.737-16.816-3.258c-2.359-1.16-4.264-3.001-4.861-5.612
	c-1.212-5.3,4.15-7.189,8.455-7.221C32.594,44.323,41.993,48.454,48.33,44.717z M22.996,52.765c-0.996-2.922-3.248-5.217-3.968-8.26
	c-0.592-2.508,1.071-4.944,2.662-6.684c1.6-1.748,4.663-1.665,6.836-1.958c1.298-0.176,2.686-0.438,3.705-1.175
	c-0.066,0.354-0.101,0.72-0.114,1.095c-3.033-0.057-6.519,0.473-8.5,3.058c-2.083,2.716-1.666,6.24,0.477,8.772
	c4.617,5.456,14.787,5.779,21.312,5.88c7.135,0.11,15.969-2.121,19.253-9.177c1.564-3.36,0.748-7.243-2.441-9.177
	c-3.13-1.897-6.067-1.492-9.485-1.103c-0.061-0.404-0.143-0.804-0.246-1.196c3.898-0.829,7.777,0.096,11.299,1.935
	c5.006,2.614,4.84,7.184,2.76,11.652c-1.138,2.445-2.869,4.972-2.771,7.781c0.053,1.5,0.913,3.492-1.429,3.605
	c-2.561,0.123-1.897-1.398-3.555-1.698c-4.765-0.863-4.116,6.222-3.763,9.049c0.125,0.989,0.122,1.96-0.035,2.942
	c-1.218,0.476-2.437,0.95-3.657,1.426c-0.354-0.449-0.629-0.941-0.824-1.478c-0.526-1.215-0.741-2.589-1.042-3.874
	c-0.387-1.64-1.494-3.906-3.236-4.478c-3.434-1.128-5.723,2.957-8.604,3.896c-2.283,0.745-3.705-1.939-3.364-3.711
	c0.106-0.557-0.033-1.266-0.659-1.477c-1.863-0.627-3.043-0.052-4.519,1.182C23.66,64.13,23.903,55.431,22.996,52.765z
	 M59.931,74.593c-1.22,0.765-2.396-0.328-3.507-0.57c-1.034-0.225-2.208,0.727-2.957,1.279c-2.917,2.151-4.3-1.506-6.785-1.66
	c-1.604-0.098-2.89,0.436-4.157,1.429c-1.413,1.108-4.127,3.018-5.029,0.523c-0.277-0.763-0.165-1.897-0.806-2.507
	c-1.189-1.128-2.788-0.636-4.261-0.332c-2.034,0.422-3.527,0.278-5.033-1.158c-0.529-0.506-1.011-0.789-1.71-0.974
	c-0.528-0.14-0.883-0.071-1.169,0.105c0.054-1.496,0.23-3.026,0.416-4.535c2.295,1.738,5.229,3.391,8.033,2.501
	c3.715-1.179,5.02,1.04,7.672,2.722c1.43,0.907,3.307,0.484,4.784-0.013c1.709-0.574,3.393-1.07,5.097,0.056
	c0.559,0.368,1.271,0.821,1.974,0.831c1.346,0.02,2.651-0.196,3.838-0.862c2.306-1.293,5.675-3.539,7.25-6.079
	c0.042,1.934,0.094,3.869-0.01,5.774C62.622,72.356,61.007,73.917,59.931,74.593z M63.412,72.953
	c-0.026,0.235-0.053,0.474-0.09,0.71c-1.311,8.672-10.221,11.779-17.851,11.406c-5.445-0.269-11.499-1.172-16.25-3.957
	c-3.635-2.13-4.646-5.431-4.718-9.045c1.16-0.484,3.762,1.765,5.048,1.819c1,0.044,2.076-0.285,3.051-0.496
	c3.66-0.788,3.071,1.183,3.778,3.139c1.319,3.65,6.378-0.676,7.707-1.616c3.312-2.346,4.125,2.044,6.687,1.91
	c1.882-0.099,5.071-2.321,6.646-1.21C59.036,76.751,61.813,74.642,63.412,72.953z M25.256,63.501c0.077-0.717,0.14-1.42,0.175-2.104
	c0.785,0.056,1.617-0.059,2.265-0.153c0.674-0.098,1.343-0.489,1.855-0.92c0.913-0.767,3.628-1.517,3.288,0.262
	c-0.145,0.747-0.026,1.268,0.29,1.964c0.617,1.365,1.674,1.861,2.848,1.88c-0.114,0.076-0.176,0.156-0.145,0.222
	c0.338,0.678,0.586,1.335,0.601,2.103c0.006,0.271,1.333,0.055,1.325-0.355c-0.016-0.764-0.261-1.417-0.597-2.094
	c1.467-0.313,2.955-1.146,3.893-1.855c0.908-0.685,1.761-1.446,2.783-1.963c1.962-0.997,3.329,1.652,4.009,2.963
	c1.072,2.067,0.739,4.592,2.204,6.474c-0.156-0.04-0.315-0.073-0.49-0.092c-1.352-0.136-2.487,0.069-3.764,0.555
	c-3.524,1.338-4.378-0.208-6.815-1.951c-0.994-0.712-2.062-1.153-3.313-1.085c-1.939,0.105-3.569,1.051-5.536,0.46
	c-1.73-0.519-3.611-1.854-5.028-3.004c0.03-0.241,0.058-0.481,0.086-0.72C25.451,63.905,25.574,63.65,25.256,63.501z M63.557,62.255
	c-0.13,0.187-0.107,0.324-0.004,0.413c-0.003,0.38-0.002,0.761,0.004,1.143c-0.305,0.057-0.619,0.208-0.698,0.431
	c-0.964,2.726-5.709,6.442-8.449,7.048c-1.06,0.236-1.742,0.023-2.341-0.307c0.809,0.015,1.667-0.245,2.258-0.6
	c2.408-1.446,2.247-3.82,1.929-6.355c-0.195-1.563-0.204-3.04,0.013-4.599c0.17-1.216,1.553-2.823,2.67-1.712
	c0.358,0.355,0.585,0.449,1.028,0.674c0.422,0.214,1.043,0.311,1.707,0.309c-0.005,0.041-0.02,0.078-0.02,0.119
	c-0.016,0.599,0.976,0.533,1.262,0.122c0.312,0.096,0.714-0.097,0.883-0.345C63.644,59.801,63.574,61.022,63.557,62.255z
	 M63.001,58.604c0.001-0.014,0.003-0.029,0.003-0.042c0.007-0.001,0.015-0.001,0.021-0.003
	C63.019,58.573,63.016,58.587,63.001,58.604z M37.878,95.048c-1.659-0.384-3.034-1.492-4.455-2.436
	c4.911,1.197,9.913,2.15,14.932,2.624c0.017,0.003,0.032,0.003,0.049,0.005C44.899,95.667,41.376,95.855,37.878,95.048z
	 M71.26,86.208c-5.113,8.58-16.013,8.95-24.824,7.898c-8.428-1.005-18.766-2.694-25.965-7.397
	c-4.437-2.896-6.354-7.843-6.453-12.979c-0.12-6.193,3.234-11.478,9.845-9.604c-0.665,6.023-2.078,12.334,3.041,16.85
	c0.589,0.52,1.232,0.98,1.914,1.394c-0.097,0.062-0.173,0.137-0.19,0.222c-1.114,5.542,8.958,5.089,12.21,5.074
	c7.808-0.039,15.213,0.201,21.109-5.686c0.532-0.532-0.771-0.442-1.048-0.167c-5.504,5.493-12.33,5.091-19.529,5.162
	c-2.89,0.029-11.718,0.425-11.491-4.019c4.53,2.293,10.468,2.761,15.147,3.122c6.466,0.5,12.742-1.274,16.938-6.405
	c4.103-5.016,2.972-11.339,2.961-17.392c1.997-1.819,6.543,1.237,7.657,2.683c1.617,2.099,1.887,5.261,1.988,7.792
	C74.759,77.469,73.679,82.153,71.26,86.208z M29.826,77.062v0.507c0,0.309,1.324,0.089,1.324-0.356v-0.506
	C31.15,76.399,29.826,76.618,29.826,77.062z M38.999,78.218c-0.586-0.187-1.168-0.172-1.715,0.13
	c-0.446,0.248-0.546,0.758-0.552,1.224c-0.008,0.58,1.321,0.307,1.328-0.154c0.001-0.153,0.003-0.325,0.038-0.481
	c0.034,0.01,0.067,0.021,0.097,0.03c0.296,0.095,0.718-0.046,0.937-0.251C39.353,78.509,39.26,78.302,38.999,78.218z M46.167,81.124
	c-0.886,0-1.732,0.061-2.583,0.33c-0.249,0.081-0.631,0.293-0.543,0.618c0.082,0.312,0.53,0.344,0.779,0.264
	c0.738-0.233,1.453-0.268,2.221-0.268c0.286,0,0.692-0.215,0.734-0.525C46.82,81.198,46.417,81.123,46.167,81.124z M51.001,81.784
	c-1.383-0.41-2.647,0.194-3.639,1.151c-0.217,0.211-0.121,0.494,0.154,0.575c0.323,0.097,0.7-0.021,0.938-0.25
	c0.511-0.493,1.043-0.865,1.765-0.65c0.312,0.093,0.712-0.015,0.937-0.251C51.36,82.144,51.288,81.867,51.001,81.784z
	 M47.987,78.939c0.294,0.148,0.68,0.072,0.944-0.104c0.188-0.127,0.389-0.445,0.097-0.591c-0.399-0.199-0.806-0.399-1.26-0.423
	c-0.557-0.025-1.108,0.241-1.386,0.729c-0.16,0.279,0.135,0.446,0.379,0.463c0.259,0.018,0.587-0.078,0.779-0.28
	C47.695,78.789,47.843,78.868,47.987,78.939z M56.376,79.043c-0.5,0.646,0.765,0.713,1.084,0.301
	c0.187-0.242,0.471-0.678,0.771-0.786c-0.072,0.025,0.091,0.074,0.154,0.131c0.14,0.133,0.232,0.312,0.324,0.48
	c0.238,0.445,1.52,0.005,1.221-0.552c-0.345-0.64-0.883-0.989-1.625-0.898C57.49,77.817,56.856,78.421,56.376,79.043z
	 M43.314,64.297c0.336,0.105,0.684-0.03,0.936-0.251c-0.115,0.102,0.055,0.008,0.12,0c0.155-0.02,0.311-0.02,0.467-0.02
	c0.275,0,0.692-0.207,0.736-0.511c0.051-0.338-0.367-0.391-0.601-0.391c-0.67,0-1.301,0.128-1.818,0.581
	C42.921,63.911,43.05,64.214,43.314,64.297z M43.669,67.611c0.228-0.019,0.459-0.014,0.688-0.014c0.31,0,0.699-0.09,0.87-0.378
	c0.158-0.271-0.133-0.46-0.378-0.46c-0.518,0-1.03-0.002-1.542,0.095c-0.337,0.062-0.832,0.304-0.872,0.695
	C42.386,68.062,43.354,67.966,43.669,67.611z M29.309,64.848c-0.554-0.529-1.042-1.111-1.462-1.75
	c-0.221-0.337-1.439,0.179-1.324,0.354c0.443,0.675,0.956,1.295,1.541,1.853C28.32,65.551,29.526,65.057,29.309,64.848z
	 M57.511,61.86c0.347-0.161,0.745-0.195,1.139-0.204v1.069c0,0.692,1.341,0.487,1.341-0.103v-1.501c0-0.347-0.319-0.43-0.61-0.43
	c-0.836,0-1.682,0.042-2.452,0.395c-0.238,0.108-0.515,0.413-0.315,0.678C56.815,62.032,57.247,61.981,57.511,61.86z M59.879,65.002
	c-0.888,0.002-1.804,0.028-2.622,0.403c-0.154,0.071-0.567,0.31-0.354,0.533c0.201,0.21,0.649,0.116,0.876,0.013
	c0.486-0.223,1.059-0.197,1.584-0.197c0.299,0,0.693-0.098,0.874-0.362C60.416,65.133,60.087,65.002,59.879,65.002z"/>
</svg>
