<?xml version="1.0" encoding="utf-8"?>
<!-- Generator: Adobe Illustrator 16.0.4, SVG Export Plug-In . SVG Version: 6.00 Build 0)  -->
<!DOCTYPE svg PUBLIC "-//W3C//DTD SVG 1.1//EN" "http://www.w3.org/Graphics/SVG/1.1/DTD/svg11.dtd">
<svg version="1.1" id="Layer_1" xmlns="http://www.w3.org/2000/svg" xmlns:xlink="http://www.w3.org/1999/xlink" x="0px" y="0px"
	 width="90.304px" height="96.367px" viewBox="0 0 90.304 96.367" enable-background="new 0 0 90.304 96.367" xml:space="preserve">
<path fill="#DBA94B" d="M44.764,84.092c-0.27-0.27-1.472,0.201-1.207,0.467c0.118,0.117,0.236,0.234,0.354,0.354
	c0.27,0.27,1.472-0.201,1.205-0.467C45,84.328,44.882,84.209,44.764,84.092z M56.808,74.184c-0.261,0.023-0.676,0.1-0.864,0.303
	c-0.326,0.355-0.414,0.707-0.416,1.18c0,0.193,1.289,0.014,1.289-0.346c0.001-0.355,0.041-0.668,0.291-0.939
	C57.299,74.172,56.939,74.17,56.808,74.184z M51.888,78.289c-0.007-0.242-0.009-0.484-0.01-0.73
	c-0.001-0.658-1.303-0.447-1.302,0.107c0,0.021,0,0.043,0,0.064c-1.028-0.359-2.042-0.533-2.918-0.453
	c-5.109,0.473-13.119,4.838-10.5,11.018c0.19,0.449,1.458,0.055,1.289-0.346c-2.251-5.311,3.861-9.164,8.403-9.902
	c1.086-0.176,2.438,0.123,3.751,0.732c0.033,0.738,0.113,1.469,0.335,2.186c0.177,0.572,1.463,0.219,1.288-0.346
	c-0.109-0.352-0.176-0.707-0.228-1.064c2.8,1.83,4.848,4.943,2.692,7.494c-0.365,0.434,0.934,0.342,1.2,0.027
	C58.574,83.895,55.465,80.082,51.888,78.289z M50.438,90.041c-0.89,0-1.721-0.059-2.573-0.332c-0.28-0.088-0.654,0.027-0.904,0.154
	c-0.128,0.064-0.429,0.291-0.145,0.381c1.016,0.324,2.021,0.375,3.08,0.375c0.276,0,0.664-0.111,0.859-0.32
	C50.964,90.076,50.572,90.041,50.438,90.041z M63.953,30.657c0.217-3.363-1.503-6.843-4.291-9.244
	c-0.019-0.017-0.051-0.021-0.078-0.031c0.718-2.862,1.372-5.739,1.771-8.681c0.27-1.985,0.541-3.97,0.818-5.955
	c0.15-1.078,0.05-3,0.576-3.971c0.102-0.188,0.053-0.315-0.07-0.39c0.181-0.48,0.021-1.063-0.206-1.492
	c-0.589-1.113-1.846-1.281-2.869-0.788c-0.204,0.056-0.404,0.132-0.581,0.245c-0.395,0.252-0.474,0.723-0.462,1.158
	c0.002,0.052,0.014,0.102,0.019,0.152c-0.314,5.957-0.871,12.085-2.142,18.007c-3.697-1.264-7.711-1.099-11.559-0.642
	c-0.05,0.006-0.118,0.025-0.193,0.052c-0.473-1.235-1.074-2.434-1.822-3.574c-3.656-5.574-10.991-5.132-15.954-8.818
	c-0.321-0.238-1.299,0.019-1.144,0.534c0.821,2.736,0.565,6.417,0.227,10.277c-2.722-2.745-8.732-2.775-11.866-4.102
	c-0.18-0.076-1.354,0.143-1.167,0.448c1.73,2.821,1.966,6.383,3.027,9.489c1.08,3.159,2.779,5.986,4.74,8.664
	c2.569,3.509,5.92,6.341,10.135,5.965c-0.201,1.314-0.388,2.629-0.487,3.958c-0.289,3.832,0.853,7.773,1.855,11.428
	c1.07,3.898,2.164,7.724,2.544,11.765c0.421,4.473,0.001,9.147-0.088,13.635c-0.066,3.297-0.836,6.562-0.565,9.861
	c0.225,2.734,2.623,4.545,4.809,5.785c3.68,2.086,8.415,2.635,12.396,1.088c8.987-3.492,8.951-14.188,9.224-22.361
	c0.271-8.107,0.627-15.683,3.592-23.316C66.654,43.327,65.33,37.041,63.953,30.657z M61.695,34.119
	c-0.745-0.85-1.656-1.569-2.698-2.086c-0.543-0.27-1.091-0.495-1.644-0.688c-0.071-0.107-0.153-0.206-0.23-0.308
	c0.044-0.054,0.078-0.113,0.093-0.179c0.614-2.77,1.353-5.502,2.055-8.241C62.477,25.8,63.706,29.864,61.695,34.119z M39.209,51.491
	c-2.629-0.891-4.781-3.634-5.202-6.33c-0.089-0.575-0.175-3.358,0.327-5.044c0.316-0.011,0.749-0.11,0.877-0.245
	c0.369-0.391,0.754-0.778,1.153-1.16c0.312-0.126,0.555-0.297,0.408-0.381c0.301-0.279,0.612-0.554,0.928-0.825
	c1.193,0.545,2.479,0.988,3.8,1.342c-0.43,1.741-0.872,3.509-1.881,4.872c-0.057,0.077-0.076,0.147-0.079,0.214
	c0,0.002-0.002,0.004-0.002,0.006c-0.272,5.9,6.401,4.156,9.986,2.884c2.193-0.778,5.978-1.356,7.573-3.234
	c1.252-1.475,1.603-3.425,1.631-5.377c0.771-0.431,1.503-0.939,2.18-1.538c0.251-0.223,0.479-0.452,0.697-0.686
	c0.795,1.698,0.932,3.732,0.589,5.559c-0.573,3.053-3.262,5.231-5.787,6.706C51.786,50.952,44.375,53.243,39.209,51.491z
	 M54.139,49.951c-0.12,2.231-1.346,3.098-3.28,4.107c-1.521,0.794-4.185,1.29-5.708,0.293c-0.008-0.005-0.014-0.009-0.023-0.013
	c-0.515-0.345-0.899-0.862-1.056-1.604C47.63,52.422,51.344,51.158,54.139,49.951z M43.838,54.894
	c-2.238,3.906-3.408,9.771-3.553,14.208c-0.042,1.279-0.08,2.541-0.37,3.791c-0.322,1.387-0.965-0.58-1.019-0.998
	c-0.212-1.664,0.077-3.467,0.242-5.121c0.439-4.434,1.515-9.923,3.57-13.97c0.005,0,0.011,0,0.016,0
	C42.843,53.752,43.255,54.425,43.838,54.894z M39.04,35.568c-0.375,0.269-0.744,0.544-1.104,0.826
	c-1.189-0.612-2.306-1.329-3.27-2.195c-2.872-2.583-2.171-6.362-0.285-9.207c1.025,3.621,3.178,6.815,4.682,10.263
	c-0.015,0.081-0.033,0.16-0.045,0.241C39.014,35.526,39.03,35.545,39.04,35.568z M39.423,36.121
	c0.135,0.343,0.266,0.688,0.384,1.039c0.019,0.054,0.055,0.093,0.093,0.13c-0.432-0.171-0.856-0.356-1.275-0.552
	C38.887,36.528,39.154,36.323,39.423,36.121z M41.096,36.814c-0.17-0.504-0.361-0.999-0.562-1.488
	c0.816-0.557,1.661-1.077,2.529-1.544c-0.281,0.837-0.525,1.626-0.755,2.241c-0.226,0.605-0.407,1.25-0.578,1.909
	c-0.497-0.157-0.99-0.328-1.479-0.513C40.674,37.441,41.216,37.168,41.096,36.814z M47.397,30.686
	c-0.933,0.137-1.388,0.587-1.548,1.177c-0.215,0.081-0.43,0.164-0.643,0.25c0.063-0.063,0.116-0.133,0.135-0.216
	c0.08-0.333,0.15-0.667,0.215-1.001c0.431-0.827,0.926-1.478,1.458-1.541c2.854-0.336,6.046-0.45,8.294,1.448
	c-2.463-0.457-4.98-0.252-7.432,0.41C48.025,30.925,47.921,30.609,47.397,30.686z M45.78,32.525
	c0.046,1.108,0.747,2.442,1.325,3.239c2.063,2.843,5.626,3.9,8.734,2.132c0.761-0.433,0.069-1.123-0.57-0.759
	c-2.327,1.323-4.635,0.588-6.411-1.255c-0.238-0.246-1.901-2.699-1.916-3.766c3.077-0.987,6.298-1.202,9.406-0.171
	c1.12,1.735,1.108,4.486,1.047,6.46c-3.567,1.635-8.239,1.237-11.948,0.484c-0.813-0.165-1.648-0.365-2.487-0.593
	c0.383-1.35,0.742-2.678,1.181-3.814c0.12-0.312,0.302-0.865,0.529-1.491C45.037,32.824,45.407,32.67,45.78,32.525z M40.822,43.755
	c0.839-1.301,1.403-2.943,1.894-4.608c2.491,0.565,5.021,0.843,7.162,0.946c2.556,0.122,5.163-0.234,7.499-1.22
	c-0.046,1.189-0.262,2.376-0.688,3.488c-0.742,1.938-3.597,2.374-5.318,2.93c-3.139,1.015-10.817,4.632-10.536-1.482
	C40.836,43.788,40.824,43.774,40.822,43.755z M58,32.621c0.43,0.209,0.857,0.44,1.28,0.703c0.773,0.48,1.38,1.106,1.85,1.819
	c-0.656,1.047-1.47,1.871-2.403,2.504c-0.012-0.825-0.07-1.643-0.136-2.416C58.51,34.272,58.308,33.407,58,32.621z M59.871,0.771
	c0.007-0.045,0.021-0.088,0.035-0.131c0.171-0.014,0.345-0.063,0.484-0.115c0.007-0.002,0.039-0.017,0.08-0.036
	c0.065,0.04,0.131,0.083,0.191,0.128c0.3,0.223,0.505,0.549,0.649,0.887c0.137,0.319,0.193,0.692,0.115,1.032
	c-0.033,0.14-0.104,0.282-0.195,0.392c-0.016,0.017-0.067,0.072-0.105,0.102c-0.013,0.001-0.026,0.002-0.042,0
	c-0.652-0.092-1.014-0.804-1.162-1.372c-0.019-0.072-0.023-0.148-0.037-0.223c0.005-0.079,0.009-0.158,0.014-0.237
	c0.004-0.069-0.015-0.125-0.04-0.176C59.86,0.938,59.856,0.853,59.871,0.771z M59.771,3.413c0.286,0.118,0.607,0.172,0.963,0.126
	c0.176-0.022,0.356-0.057,0.537-0.104c-0.135,0.699-0.132,1.52-0.216,2.103c-0.319,2.246-0.625,4.494-0.931,6.741
	c-0.822,6.045-2.62,11.817-3.989,17.739c-0.375-0.307-0.792-0.583-1.262-0.819C58.07,21.072,59.232,12.123,59.771,3.413z
	 M56.092,20.432c0.047,0.02,0.105,0.026,0.172,0.024c-0.64,2.828-1.452,5.603-2.485,8.286c-1.914-0.613-6.318-1.016-7.906,0.051
	c0.333-3.161,0.026-6.336-1.032-9.302C48.608,19.072,52.535,18.97,56.092,20.432z M41.123,15.317
	c3.544,4.119,4.132,10.205,3.18,15.415c-0.365,0.686-0.677,1.457-0.954,2.224c-1,0.498-1.973,1.057-2.911,1.66
	c0.611-2.325,2.471-4.105,3.037-6.474c0.088-0.369-1.191-0.165-1.278,0.201c-0.448,1.872-1.703,3.376-2.512,5.073
	c-0.071-0.149-0.145-0.298-0.217-0.448c0-0.001,0.001-0.001,0.001-0.003c-0.542-3.108-0.05-5.753,1.431-8.513
	c0.99-1.848,1.959-3.517,2.051-5.656c0.006-0.142-1.273,0-1.289,0.345c-0.108,2.49-1.467,4.417-2.557,6.567
	c-0.706,1.393-1.049,2.818-1.133,4.281c-0.147-0.293-0.292-0.585-0.436-0.88c0-0.002,0.001-0.004,0-0.007
	c-1.004-4.609,1.887-9.67,3.347-14.039C40.962,15.15,41.046,15.228,41.123,15.317z M38.462,13.059
	c0.558,0.352,1.093,0.749,1.601,1.198c-0.126,0.074-0.225,0.166-0.259,0.276c-1.042,3.444-3.108,7.291-3.643,11.082
	c0.091-3.633-0.982-9.816,2.072-12.167C38.413,13.31,38.475,13.176,38.462,13.059z M19.202,27.347
	c-2.272-3.996-2.405-8.863-4.407-12.852c3.882,0.994,9.689,1.362,11.015,5.075c-0.112,1.293-0.211,2.591-0.266,3.866
	c-0.694-0.824-1.566-1.55-2.312-2.265c-0.655-0.625-1.313-1.248-1.951-1.891c-0.175-0.177-1.126-0.983-1.027-1.274
	c0.149-0.439-1.142-0.269-1.289,0.163c-0.259,0.763,1.807,2.297,2.24,2.713c0.764,0.735,1.712,1.485,2.521,2.312
	c-1.251-0.314-2.533-0.377-3.877-0.059c-0.802,0.189-0.565,1.045,0.229,0.855c1.69-0.4,3.312,0.019,4.849,0.734
	c0.014,0.023,0.032,0.046,0.045,0.071c0.087,0.157,0.303,0.199,0.536,0.177c-0.006,0.616,0.003,1.224,0.032,1.821
	c-0.183,0.033-0.347,0.078-0.414,0.118c-0.969,0.591-2.334,0.147-3.417,0.334c-0.779,0.134-1.464,0.39-2.088,0.827
	C19.475,27.825,19.335,27.582,19.202,27.347z M19.846,28.456c0.224-0.042,0.439-0.108,0.521-0.182
	c0.963-0.856,2.291-0.537,3.48-0.608c0.595-0.037,1.178-0.199,1.717-0.451c0.062,0.958,0.177,1.885,0.364,2.764
	c-0.011,0.001-0.024,0.003-0.031,0.004c-1.459,0.275-3.044,0.522-3.686,2.029C21.314,30.833,20.525,29.598,19.846,28.456z
	 M25.083,35.111c-0.956-0.81-1.835-1.774-2.634-2.792c0.353,0.007,0.892-0.141,0.979-0.377c0.411-1.116,1.233-1.183,2.258-1.377
	c0.096-0.018,0.229-0.049,0.356-0.093c0.264,1.061,0.638,2.049,1.166,2.933C26.203,33.65,25.48,34.237,25.083,35.111z
	 M30.947,37.391c-1.784,0.104-3.417-0.512-4.889-1.531c0.004-0.011,0.017-0.021,0.019-0.032c0.117-0.651,0.418-1.77,1.199-1.904
	c0.068-0.011,0.154-0.031,0.243-0.056c0.829,1.202,1.972,2.188,3.527,2.884C31.014,36.965,30.981,37.178,30.947,37.391z
	 M31.219,35.593c-4.956-2.816-4.773-9.443-4.205-16.029c0.098-0.074,0.154-0.157,0.128-0.238c-0.024-0.072-0.062-0.134-0.09-0.204
	c0.346-3.91,0.787-7.774,0.321-10.779c3.315,1.876,7.207,2.508,10.466,4.342c-0.165,0-0.333,0.043-0.468,0.147
	c-2.215,1.706-2.58,4.804-2.583,7.866c-0.821-3.727-1.841-7.229-4.872-9.949c-0.397-0.356-1.613,0.161-1.186,0.544
	c3.551,3.187,4.475,7.689,5.292,12.19c0.025,0.139,0.059,0.275,0.088,0.414c-1.883,2.126-2.866,4.672-2.453,7.105
	C31.626,32.546,31.441,34.072,31.219,35.593z M32.221,37.193c-0.031,0.007-0.062,0.017-0.092,0.024
	c0.001-0.018,0.004-0.034,0.006-0.051C32.163,37.176,32.193,37.184,32.221,37.193z M63.568,47.695
	c-0.786,3.487-2.447,6.683-3.18,10.212c-0.6,2.89-0.731,5.881-0.86,8.82c-0.37,8.385,1.324,21.611-6.425,27.266
	c-5.004,3.652-13.702,1.459-17.004-3.586c-1.605-2.453-0.598-6.211-0.291-8.887c0.353-3.068,0.226-6.219,0.271-9.303
	c0.055-3.738,0.126-7.388-0.496-11.086c-0.59-3.507-1.76-6.916-2.664-10.349c-0.999-3.792-1.504-7.524-1.043-11.437
	c0.062-0.534,0.126-1.062,0.188-1.584c0.226-0.051,0.45-0.101,0.681-0.171c0.159-0.048,0.27-0.109,0.352-0.172
	c0.539-0.036,1.27-0.674,0.576-0.849c-0.512-0.128-0.976-0.293-1.418-0.474c0.102-0.928,0.194-1.853,0.262-2.786
	c0.4,0.672,0.921,1.32,1.599,1.93c0.827,0.743,1.804,1.374,2.871,1.918c-0.404,0.337-0.796,0.68-1.176,1.028
	c-1.341,0.006-2.261,0.967-2.755,2.373c-1.142,3.251-0.298,6.542,1.784,9.131c1.653,2.056,4.049,2.928,6.691,3.088
	c-1.548,2.953-2.561,6.534-3.167,10.137c-0.31-0.643-0.39-1.27,0.074-2.018c0.124-0.2-0.47-0.13-0.515-0.122
	c-0.236,0.042-0.617,0.127-0.756,0.35c-0.66,1.064-0.297,1.911,0.344,2.885c0.095,0.144,0.391,0.114,0.676,0.027
	c-0.341,2.343-0.518,4.669-0.562,6.808c-0.038,1.824,0.848,4.811,3.044,2.869c1.441-1.273,0.911-5.307,1.206-7.127
	c0.584-3.609,1.155-7.826,2.865-11.17c1.13,0.458,2.555,0.476,3.829,0.29c-0.657,0.756-1.182,1.624-1.515,2.569
	c-0.133,0.378,1.144,0.211,1.282-0.183c0.358-1.017,0.939-1.923,1.683-2.699c2.87-0.82,5.545-2.775,5.674-5.9
	c0.004-0.096-0.03-0.164-0.082-0.216c3.066-1.473,5.873-3.417,7.402-6.558c1.28-2.631,0.858-5.477-0.619-7.691
	c0.499-0.703,0.877-1.441,1.134-2.201C64.347,37.701,64.753,42.438,63.568,47.695z M38.976,53.643c0.3,0,0.68-0.087,0.846-0.369
	c0.154-0.26-0.13-0.444-0.367-0.444c-1.009,0-2.045,0.021-2.979,0.449c-0.185,0.085-0.53,0.339-0.328,0.576
	c0.197,0.229,0.627,0.153,0.862,0.046C37.614,53.624,38.324,53.643,38.976,53.643z M56.054,52.812
	c-0.298-0.024-0.691,0.099-0.845,0.376c-0.152,0.277,0.132,0.453,0.375,0.474c0.258,0.02,0.532,0.383,0.701,0.552
	c0.224,0.223,0.601,0.181,0.865,0.061c0.177-0.08,0.547-0.376,0.321-0.601C57.066,53.267,56.656,52.861,56.054,52.812z
	 M58.941,48.941c-0.546,0.28-0.76,1.02-0.938,1.553c-0.146,0.431,1.144,0.258,1.287-0.167c0.077-0.229,0.163-0.458,0.268-0.677
	c0.412,0.176,1.412-0.253,1.101-0.549C60.152,48.622,59.544,48.63,58.941,48.941z M41.972,78.561c0.304,0,0.647-0.092,0.911-0.244
	c0.209-0.119,0.175-0.238-0.064-0.238c-0.354-0.002-0.609-0.08-0.874-0.324c-0.235-0.215-1.374,0.283-1.219,0.424
	C41.085,78.508,41.501,78.561,41.972,78.561z M51.523,69.072c0.042-1.395,0.623-2.627,1.373-3.776
	c0.365-0.561-0.946-0.514-1.218-0.096c-0.787,1.206-1.409,2.536-1.454,3.997C50.206,69.814,51.507,69.586,51.523,69.072z
	 M49.559,60.873c0.201,0.138,0.631-0.011,0.828-0.082c0.057-0.021,0.574-0.223,0.387-0.352c-0.273-0.188-0.625-0.414-0.631-0.783
	c-0.006-0.308,0.415-0.63,0.605-0.821c0.203-0.202-0.179-0.207-0.3-0.195c-0.269,0.025-0.663,0.103-0.863,0.304
	c-0.264,0.264-0.629,0.564-0.715,0.946C48.77,60.333,49.247,60.658,49.559,60.873z M56.817,60.483
	c-0.009-0.182-1.303,0.021-1.289,0.345c0.001,0.011-0.005,0.052-0.007,0.09c-0.067,0.028-0.132,0.06-0.189,0.092
	c-0.219,0.125-0.168,0.229,0.064,0.241C55.877,61.275,56.847,61.117,56.817,60.483z M43.429,67.424
	c0.958,0.254,1.727,0.871,2.594,1.326c0.836,0.438,1.732,0.57,2.665,0.467c0.69-0.076,1.016-0.971,0.133-0.873
	c-1.799,0.199-2.992-1.301-4.633-1.738C43.677,66.471,42.661,67.219,43.429,67.424z M43.171,72.947
	c1.435-1.088,2.742-1.039,3.932,0.352c0.368,0.432,1.596-0.074,1.182-0.557c-1.694-1.982-3.972-1.861-5.96-0.355
	C41.626,72.916,42.678,73.32,43.171,72.947z M54.51,70.564h0.354c0.291,0,0.675-0.096,0.85-0.354
	c0.171-0.252-0.144-0.387-0.352-0.387h-0.354c-0.292,0-0.675,0.094-0.85,0.354C53.989,70.43,54.301,70.564,54.51,70.564z"/>
</svg>
