<?xml version="1.0" encoding="utf-8"?>
<!-- Generator: Adobe Illustrator 16.0.4, SVG Export Plug-In . SVG Version: 6.00 Build 0)  -->
<!DOCTYPE svg PUBLIC "-//W3C//DTD SVG 1.1//EN" "http://www.w3.org/Graphics/SVG/1.1/DTD/svg11.dtd">
<svg version="1.1" id="Layer_1" xmlns="http://www.w3.org/2000/svg" xmlns:xlink="http://www.w3.org/1999/xlink" x="0px" y="0px"
	 width="90.304px" height="96.367px" viewBox="0 0 90.304 96.367" enable-background="new 0 0 90.304 96.367" xml:space="preserve">
<path fill="#DBA94B" d="M33.654,48.447c0.775,0.111,1.561,0.178,2.339,0.199C35.197,48.602,34.408,48.533,33.654,48.447z
	 M57.403,93.32c3.49,3.101,8.99,4.381,12.867,1.208c3.518-2.878,2.724-8.058,0.227-11.253c-0.023-0.043-0.056-0.088-0.102-0.138
	c-0.024-0.03-0.054-0.056-0.084-0.081c-3.625-3.701-9.58-5.325-14.207-2.27C52.042,83.469,54.39,90.644,57.403,93.32z
	 M55.465,83.582c0.209,0.018,0.38-0.008,0.406-0.111c0.594-2.325,3.729-3.294,5.456-1.157c0.72,0.891,1.447,1.937,1.828,3.036
	c0.45,1.303,0.705,3.303,1.823,4.243c1.862,1.566,4.102,1.285,4.834-1.254c0.09-0.312-1.295-0.695-1.389-0.372
	c-0.623,2.162-2.362,2.212-3.074,0.147c-0.349-1.01-0.569-2.113-1.06-3.066c-0.878-1.705-1.896-3.136-3.597-4.086
	c-0.4-0.224-0.84-0.38-1.291-0.475c3.421-0.97,7.389,0.454,9.843,3.008c2.071,2.553,2.976,6.644,0.695,9.418
	c-2.823,3.439-8.351,3.203-11.391,0.049C56.846,91.192,54.408,86.555,55.465,83.582z M3.377,74.607
	c7.636,7.533,21.062,7.624,31.005,7.073c6.858-0.379,13.859-0.961,20.628-2.159c2.185-0.387,4.763-0.908,7.192-1.777
	c3.318,1.366,6.911,1.281,9.836-1.159c-0.555,0.93-0.948,1.977-1.105,3.144c-0.608,4.492,2.107,7.981,6.682,8.342
	c3.862,0.304,10.947-0.903,12.342-5.309c1.464-4.626-1.904-9.263-6.214-10.748c-0.075-0.043-0.166-0.078-0.277-0.1
	c-0.107-0.034-0.205-0.047-0.293-0.046c-3.52-0.602-7.52,0.587-9.981,3.193c1.625-3.219,0.97-7.724-2.286-9.321
	c-0.474-5.211-4.089-10.38-8.754-12.471c0.772-3.326,1.097-6.786,1.164-10.262c0.78-2.336,0.438-4.93-1.542-7.501
	c-4.214-5.47-10.153-7.505-16.746-8.976c-4.121-0.919-8.157-1.576-12.246-1.604c-0.291-0.261-0.58-0.522-0.862-0.788
	c-2.503-2.356-8.196-7.274-6.085-11.274c1.012-1.915,2.88-3.061,5.014-3.603c0.067,0.476,0.189,0.958,0.381,1.448
	c1.521,3.888,4.929,6.775,9.115,7.245c3.001,0.337,5.965-2.058,3.992-5.072c-2.028-3.097-7.41-5.109-12.131-4.894
	c0.331-6.23,10.351-8.042,15.999-6.55c0.845,0.223,1.062-0.586,0.218-0.809c-3.841-1.016-8.452-1.268-12.146,0.453
	c-2.839,1.322-5.338,3.948-5.48,7.04c-3.348,0.499-6.119,2.269-6.702,5.775c-0.667,4.017,3.802,8.146,7.155,11.044
	c-2.109,0.069-4.235,0.315-6.399,0.79c-4.558,1.002-10.593,3.683-11.918,8.68c-0.068,0.04-0.127,0.097-0.167,0.174
	c-0.709,1.367-1.193,2.857-1.494,4.418c-4.316-2.43-9.974,0.174-10.073,5.7c-0.07,3.932,4.987,7.578,9.277,8.022
	c-4.601,1.284-8.623,3.894-9.928,8.864C-0.617,66.022-0.037,71.238,3.377,74.607z M32.229,8.987
	c2.724-0.356,5.667,0.158,7.755,1.272c1.344,0.717,3.355,2.17,3.532,3.948c0.249,2.509-2.806,3.311-4.771,2.621
	c-2.243-0.788-4.405-2.458-5.498-4.618C32.655,11.037,32.333,9.965,32.229,8.987z M12.23,51.813
	c-3.729,1.194-10.13-3.108-9.635-7.207c0.506-4.189,4.739-7.731,8.545-4.784c-0.082,0.559-0.145,1.123-0.185,1.694
	c-0.827-0.578-1.809-0.932-2.774-0.487c-1.073,0.497-1.484,1.758-1.543,2.857c-0.071,1.332,0.354,2.738,1.38,3.636
	c0.958,0.836,2.179,1.026,3.376,0.861C11.612,49.546,11.896,50.692,12.23,51.813z M8.808,46.74
	c-0.569-0.692-0.797-1.617-0.773-2.503c0.021-0.724,0.209-1.743,0.851-2.194c0.719-0.507,1.477,0.285,1.956,0.787
	c0.019,0.02,0.042,0.036,0.063,0.052c-0.015,1.469,0.098,2.959,0.321,4.442C10.355,47.516,9.422,47.488,8.808,46.74z M31.259,51.771
	c8.661,1.444,19.212,1.435,27.096-2.967c1.375-0.87,2.543-1.905,3.442-3.05c-0.146,2.425-0.444,4.875-0.979,7.255
	c-0.104,0.047-0.139,0.121-0.048,0.212c-0.791,3.423-2.083,6.701-4.163,9.552c-1.906,2.611-4.249,4.816-6.893,6.487
	c-0.172,0.022-0.312,0.092-0.362,0.223c-4.007,2.432-8.681,3.639-13.603,3.11c-9.166-0.98-16.646-7.667-20.244-16.036
	c-0.585-1.36-1.137-2.833-1.617-4.365c0.037-0.066,0.007-0.141-0.067-0.213c-0.403-1.313-0.747-2.669-1.004-4.042
	c0.067-0.115,0.03-0.25-0.072-0.376c-0.419-2.391-0.566-4.821-0.276-7.146c0.312-0.013,0.513-0.129,0.221-0.397
	c-0.044-0.042-0.093-0.071-0.139-0.111c0.068-0.442,0.152-0.878,0.254-1.311C14.155,46.706,23.893,50.543,31.259,51.771z
	 M19.642,65.059c3.923,4.475,8.96,7.842,15.107,8.5c5.171,0.554,10.284-0.304,14.701-2.621c-0.26,2.464-3.839,2.135-5.97,2.432
	c-3.79,0.529-7.621,0.928-11.454,0.889c-3.823-0.038-8.367-0.252-11.421-2.881c-1.033-0.889-4.887-6.421-1.041-6.308
	C19.595,65.069,19.614,65.061,19.642,65.059z M21.417,45.412c-0.035,0.052-0.067,0.102-0.1,0.153
	c-1.721-3.274,0.429-5.544,3.543-6.908c-0.863,0.584-1.239,1.357-1.266,2.207C21.7,42.021,20.443,43.571,21.417,45.412z
	 M52.872,44.574c0.006-0.384-0.04-0.753-0.127-1.108c1.604,3.038,0.444,5.359-1.708,7.018c-5.138,1.321-10.787,1.407-15.792,0.918
	c-1.305-0.126-2.707-0.3-4.145-0.544c1.339-0.078,2.606-0.18,3.711-0.248c4.299-0.262,8.752-0.652,12.867-2.007
	C49.431,48.025,52.836,46.952,52.872,44.574z M42.027,40.368c0.687,0.096,1.361,0.208,2,0.35c1.961,0.431,8.274,2.563,4.759,5.27
	c-1.832,1.41-4.129,2.216-6.333,2.83c-4.292,1.198-8.128,1.313-12.512,0.407c-2.019-0.417-6.575-1.188-7.352-3.639
	c0.208-0.256,0.442-0.515,0.728-0.782c0.392-0.366,0.816-0.699,1.255-1.018c1.113,1.736,2.972,3.289,4.499,3.795
	c0.909,0.301,2.621,0.641,4.583,0.865c-2.712-0.39-5.271-1.322-6.733-2.766c-0.61-0.602-1.239-1.458-1.644-2.382
	c3.66-2.344,8.583-3.282,13.161-3.206c1.067,0.487,2.053,1.136,2.892,1.981c0.975,0.981,2.576,2.995,1.96,4.436
	c-2.235,1.156-5.658,0.691-7.765,0.23c-0.475-0.104-6.572-2.116-5.421-2.699c0.214-0.108,0.441-0.191,0.668-0.278
	c0.235,0.138,0.483,0.277,0.747,0.417h-0.012c-0.542,0.022,0.192,0.376,0.35,0.416c0.333,0.082,0.671,0.161,1.013,0.236
	c3.776,1.689,8.881,2.917,9.056,0.434c0.021-0.297-0.034-0.562-0.14-0.805c0.012-0.006,0.024-0.01,0.037-0.016
	c0.132-0.067-0.083-0.197-0.183-0.25c-0.527-0.786-1.738-1.253-3.232-1.485c-3.088-1.225-6.669-2.006-9.416-0.471
	c-0.037,0.023-0.046,0.055-0.025,0.094c0.172,0.276,0.543,0.604,1.048,0.952c-0.729,0.223-1.286,0.479-1.562,0.75
	c-0.057,0.057-0.033,0.104,0.024,0.153c1.577,1.32,3.632,2.088,5.608,2.587c1.502,0.378,4.906,1.134,7.751,0.938
	c-1.556,0.689-3.66,0.991-5.844,0.933c3.194,0.173,6.484-0.069,7.876-1.292c1.196-0.384,2.097-1.089,2.396-2.283
	C46.803,42.927,44.438,41.396,42.027,40.368z M45.044,44.744c-0.144,0.298-0.327,0.555-0.527,0.792
	c-0.116-0.761-0.587-1.683-1.548-2.806c-0.944-1.107-2.138-1.959-3.461-2.599c0.293,0.015,0.584,0.031,0.873,0.054
	C42.623,41.055,46.029,42.689,45.044,44.744z M37.076,45.797c-0.094,0-0.14,0.013-0.157,0.033c-1-0.161-1.999-0.419-2.945-0.773
	c1.186,0.219,2.401,0.362,3.599,0.344C38.466,45.621,38.697,45.797,37.076,45.797z M37.871,45.392
	c0.95-0.036,1.888-0.176,2.787-0.469c0.052,0.781-0.818,1.07-1.67,1.088C38.617,45.778,38.244,45.576,37.871,45.392z M32.043,44.172
	c-0.303-0.16-0.621-0.339-0.912-0.545c0.954-0.31,1.979-0.455,2.958-0.508c0.962-0.055,2.869-0.205,4.378,0.081
	c0.199,0.081,0.401,0.155,0.596,0.242c0.258,0.113,0.697,0.245,0.999,0.394c0.125,0.1,0.226,0.218,0.314,0.342
	c-0.057,0.137-0.358,0.281-1.083,0.432c-0.861,0.179-1.726,0.271-2.595,0.283C35.229,44.358,33.7,44.149,32.043,44.172z
	 M30.565,43.133c-0.077-0.087-0.146-0.177-0.206-0.271c-0.774-1.248,4.486-0.741,4.398-0.76c0.594,0.124,1.181,0.272,1.764,0.438
	C34.448,42.468,32.197,42.722,30.565,43.133z M38.298,37.11c-0.97,0.636-2.305,0.884-3.613,0.97
	c-0.867-0.19-1.748-0.354-2.632-0.454c1.225-0.297,2.379-0.487,3.186-0.61C36.22,37.018,37.251,37.048,38.298,37.11z M37.829,36.719
	c0.341-0.024,0.681-0.035,1.021-0.045c-0.053,0.054-0.116,0.099-0.173,0.148C38.393,36.79,38.112,36.745,37.829,36.719z
	 M30.603,38.025c0.378,0.01,0.756,0.033,1.13,0.071c0.301,0.031,0.6,0.077,0.9,0.114c-0.087,0.08-0.06,0.204,0.032,0.331
	c-0.759-0.034-1.507-0.029-2.225,0.015c-0.497,0.03-1.247,0.163-2.107,0.386C29.021,38.578,29.802,38.276,30.603,38.025z
	 M29.168,37.521c-0.39,0.021-0.774,0.062-1.155,0.115c0.65-0.152,1.302-0.272,1.937-0.361
	C29.682,37.353,29.421,37.436,29.168,37.521z M33.306,38.975c0.068,0.019,0.135,0.032,0.2,0.032c0.114,0.001,0.23-0.001,0.347-0.003
	c1.201,0.074,2.387,0.278,3.505,0.654c-3.938-0.01-8.019,0.671-11.42,2.274c0.013-0.655,0.273-1.226,0.704-1.724
	c0.164-0.072,0.325-0.14,0.479-0.198C28.996,39.298,31.16,38.919,33.306,38.975z M35.926,38.792
	c1.014,0.235,2.019,0.511,3.003,0.862c0.043,0.016,0.09,0.032,0.14,0.05c-0.203-0.012-0.408-0.018-0.612-0.024
	c-0.945-0.365-1.937-0.632-2.941-0.82C35.652,38.839,35.79,38.817,35.926,38.792z M25.247,40.008
	c-0.006,0.003-0.013,0.005-0.019,0.008c0.169-0.279,0.403-0.537,0.707-0.772C25.665,39.483,25.433,39.737,25.247,40.008z
	 M22.542,44.143c0.176-0.748,0.635-1.434,1.236-2.031c0.083,0.274,0.191,0.552,0.324,0.828
	C23.543,43.304,23.013,43.708,22.542,44.143z M28.671,50.374c-1.374-0.312-2.747-0.699-4.077-1.18
	c-0.714-0.527-1.379-1.107-1.961-1.768c-0.256-0.292-0.475-0.575-0.677-0.852c0.037-0.079,0.073-0.157,0.117-0.236
	c1.987,2.236,6.038,2.962,8.69,3.426c1.015,0.178,2.024,0.326,3.029,0.436C32.207,50.314,30.443,50.395,28.671,50.374z
	 M22.555,48.371c-0.3-0.139-0.59-0.291-0.882-0.44c-0.01-0.123-0.012-0.247,0-0.375C21.949,47.843,22.247,48.111,22.555,48.371z
	 M20.821,46.554c-0.093,0.266-0.14,0.537-0.166,0.809c-1.296-0.767-2.469-1.676-3.464-2.75c0.015-0.75,0.184-1.589,0.545-2.534
	c3.248-8.513,13.257-9.438,21.978-7.598c-0.02,0.657-0.178,1.197-0.444,1.64c-1.788-0.02-3.871,0.106-5.895,0.415
	c-0.788,0.008-1.573,0.032-2.353,0.081c-3.542,0.225-12.188,1.128-11.649,6.372C19.511,44.317,20.045,45.504,20.821,46.554z
	 M39.863,37.233c3.042,0.291,6.135,0.926,8.628,2.22c0.494,0.384,0.973,0.809,1.435,1.289c2.183,2.27,1.98,3.996,0.604,5.302
	c0.248-0.336,0.416-0.698,0.479-1.089c0.546-3.391-6.52-4.579-8.688-4.915c-0.548-0.084-1.11-0.152-1.679-0.21
	c-0.965-0.347-1.845-0.611-2.432-0.799c-0.458-0.145-0.931-0.289-1.413-0.425C37.956,38.313,39.05,37.86,39.863,37.233z
	 M40.144,36.999c0.113-0.102,0.218-0.209,0.314-0.318c2.608,0.124,5.103,0.771,7.325,2.264c-0.164-0.064-0.327-0.128-0.487-0.186
	C44.999,37.936,42.59,37.36,40.144,36.999z M40.832,36.182c0.244-0.403,0.386-0.852,0.403-1.347
	c2.913,0.732,5.624,1.752,7.807,2.873c3.33,1.708,8.612,5.166,6.745,9.695c-0.293,0.708-0.675,1.332-1.115,1.893
	c-0.271,0.109-0.545,0.211-0.819,0.313c0.516-0.665,0.864-1.423,0.955-2.293c0.303-2.921-1.546-5.178-3.876-6.742
	c-2.09-1.985-5.401-3.295-7.554-3.996C42.798,36.39,41.908,36.254,40.832,36.182z M33.341,26.757
	c1.948,1.76,6.178,4.401,6.373,7.264c0,0.004,0,0.008,0,0.013c-5.279-1.075-10.771-1.005-15.817,0.647
	c-3.41,1.115-7.234,4.854-7.812,8.567c-0.308-0.445-0.595-0.909-0.844-1.405c-1.28-2.554-1.601-4.75-1.212-6.623
	c0-0.002,0.001-0.004,0.001-0.006c0.045-0.086,0.062-0.171,0.059-0.251c1.485-6.042,10.466-8.65,18.285-9.055
	C32.725,26.211,33.051,26.495,33.341,26.757z M61.919,42.042c-0.003,0.354-0.01,0.711-0.018,1.067
	c-0.93,2.184-2.551,3.631-4.631,4.947c-0.168,0.094-0.344,0.177-0.514,0.267c0.014-0.032,0.029-0.06,0.042-0.092
	c1.688-4.091-1.421-7.366-4.743-9.377c-3.287-1.989-6.991-3.531-10.841-4.481c-0.094-0.795-0.497-1.699-1.316-2.721
	c-1.743-2.17-3.939-3.96-6.058-5.794c2.859-0.048,5.478,0.198,7.401,0.679c5.719,1.43,13.228,2.287,17.391,6.894
	c1.923,2.128,4.319,5.025,3.764,8.125C62.136,41.594,61.921,41.745,61.919,42.042z M72.496,79.354
	c1.513-4.56,5.898-7.435,10.71-6.467c1.212,0.376,2.495,1.26,3.553,2.406c-1.441-0.441-2.898-0.738-4.426-0.503
	c-2.169,0.336-0.742,2.733-0.947,3.965c-0.323,1.947-3.322,1.195-4.654,1.98c-1.037,0.613-2.939,1.854-1.843,3.182
	c0.259,0.311,1.423,0.325,1.366,0.258c-2.235-2.703,4.63-3.308,5.656-3.884c1.205-0.677,0.725-1.557,0.596-2.719
	c-0.32-2.897,2.172-2.569,4.748-1.699c1.809,2.272,2.675,5.317,0.703,7.598c-2.023,2.342-5.612,3.526-8.642,3.613
	C74.89,87.211,70.868,84.259,72.496,79.354z M61.457,76.753c-1.714-1.245-3.149-3.186-2.916-5.445
	c0.184-1.755,0.237-4.682,3.119-4.22c0.223,0.035,0.437,0.103,0.647,0.177c1.482,0.699,5.657,2.182,3.812,4.278
	c-0.253,0.287,1.054,0.772,1.305,0.489c1.615-1.835-0.705-3.296-2.669-4.249c1.308-0.197,1.923-1.392,3.62-1.758
	c5.483-1.18,4.649,7.302,2.811,9.682C68.651,78.093,64.778,79.164,61.457,76.753z M2.561,60.27
	c2.091-4.276,5.588-6.193,10.067-7.237c0.687,2.032,1.534,3.949,2.491,5.625c1.073,1.877,2.296,3.699,3.667,5.388
	c-2.658,0.297-2.598,2.977-1.354,5.257c1.867,3.425,5.724,5.12,9.469,5.645c6.163,0.862,12.151-0.159,18.282-0.665
	c2.852-0.235,6.211-0.688,5.633-4.121c2.214-1.361,4.224-3.116,5.933-5.279c2.641-3.339,4.278-7.096,5.263-11.055
	c3.766,1.965,6.944,6.779,7.57,11.471c-1.658-0.305-3.14,0.412-4.447,1.396c-1.206,0.811-3.764-0.443-5.653-0.306
	c-2.271,0.069-2.342,3.961-2.308,5.426c0.048,2.028,1.506,4.024,3.208,5.027c0.166,0.099,0.336,0.189,0.506,0.28
	c-2.868,1.118-5.954,1.729-9.026,2.128c-5.193,0.676-10.417,1.306-15.644,1.651c-6.542,0.434-13.211,0.532-19.673-0.742
	c-5.297-1.046-11.688-3.106-13.993-8.548C1.05,68.067,0.834,63.803,2.561,60.27z"/>
</svg>
