<?xml version="1.0" encoding="utf-8"?>
<!-- Generator: Adobe Illustrator 16.0.4, SVG Export Plug-In . SVG Version: 6.00 Build 0)  -->
<!DOCTYPE svg PUBLIC "-//W3C//DTD SVG 1.1//EN" "http://www.w3.org/Graphics/SVG/1.1/DTD/svg11.dtd">
<svg version="1.1" id="Layer_1" xmlns="http://www.w3.org/2000/svg" xmlns:xlink="http://www.w3.org/1999/xlink" x="0px" y="0px"
	 width="69.868px" height="42.762px" viewBox="0 0 69.868 42.762" enable-background="new 0 0 69.868 42.762" xml:space="preserve">
<path fill="#DBA94B" d="M61.325,32.368c-1.574,0.344-3.203,0.715-4.704,1.317c-1.799,0.721-3.485,1.974-5.231,2.837
	c-2.603,1.288-5.387,2.188-8.318,1.986c-0.167-0.011-0.339,0.084-0.454,0.201c-0.815-0.59-1.979-0.99-2.503-1.018
	c-2.099-0.104-6.648,2.682-7.817,0.242c-0.095-0.198-0.927,0.106-0.867,0.233c0.981,2.046,4.353,0.714,5.907,0.271
	c1.292-0.369,2.597-0.636,3.851,0.038c1.979,1.064,1.494,2.841-0.766,3.144c-1.598,0.214-3.237,1.053-4.867,0.819
	c-0.198-0.027-0.931,0.292-0.715,0.323c1.675,0.237,3.422-0.444,5.039-0.788c1.207-0.255,2.543-0.279,3.368-1.323
	c0.327-0.415,0.312-0.822,0.095-1.196c3.318,0.271,6.299-0.731,9.438-1.94c2.434-0.938,4.825-2.376,7.42-2.809
	c0.997-0.167,2.059-0.099,3.068-0.166c0.922-0.062,1.814-0.56,2.715-0.749c0.163-0.033,0.255-0.107,0.302-0.191
	c0.172,0.008,0.365-0.039,0.466-0.148C69.26,30.747,62.198,32.174,61.325,32.368z M66.031,33.21
	c-0.004,0.006-0.008,0.01-0.013,0.016c-0.054-0.004-0.114-0.002-0.184,0.012c-0.845,0.179-0.946,0.253-1.928,0.6
	c-1.046,0.368-2.509,0.182-3.618,0.272c-1.686,0.139-3.321,0.997-4.842,1.653c-2.516,1.084-5.057,2.237-7.699,2.794
	c0.875-0.244,1.744-0.551,2.613-0.905c2.485-1.012,4.706-2.865,7.24-3.687c1.539-0.5,3.123-0.873,4.706-1.204
	C62.908,32.635,67.399,31.736,66.031,33.21z M40.411,40.798c0,0.002,0.003,0.006,0.006,0.008c0.123,0.131,0.049,0.148,0.121,0.019
	c-0.236,0.426,0.644,0.429,0.829,0.098c0.104-0.188-0.036-0.417-0.241-0.628c-0.016-0.086-0.072-0.153-0.188-0.178
	c-0.214-0.184-0.44-0.338-0.542-0.418c-0.182-0.146-0.37-0.298-0.568-0.448c0.205-0.104,0.341-0.22,0.001-0.179
	c-0.063,0.008-0.13,0.02-0.2,0.03c-0.322-0.231-0.665-0.441-1.021-0.567c-0.368-0.132-1.019,0.396-0.5,0.582
	c0.169,0.06,0.332,0.15,0.493,0.25c-2.195,0.657-5.479,1.97-6.486-0.081c-0.094-0.194-0.923,0.115-0.866,0.232
	c0.319,0.65,0.867,0.988,1.538,1.125c-0.292,0.081-0.544,0.347-0.271,0.546C34.647,42.752,38.028,41.163,40.411,40.798z
	 M38.829,39.515c0.223,0.157,0.434,0.325,0.635,0.478c0.121,0.092,0.236,0.192,0.354,0.289c-2.113,0.485-4.929,1.608-6.607,0.419
	C34.988,40.844,37.39,39.883,38.829,39.515z M5.691,9.743c1.738,0.951,4.127-0.184,5.807-0.657c0.53-0.149,0.378-0.726-0.156-0.576
	C9.507,9.027,7.424,9.996,5.659,8.818C4.833,8.266,4.046,7.596,3.13,7.194C1.748,6.59,0.735,7.067,0.737,8.641
	C0.74,9.087,1.615,8.948,1.615,8.57C1.612,6.455,4.9,9.309,5.691,9.743z M66.706,16.691c-3.205,0.738-6.186,2.973-7.975,5.708
	c-0.079,0.119,0.714,0.074,0.856-0.145c1.499-2.295,6.068-6.673,9.074-5.105c1.254,0.652-0.209,2.943-0.646,3.65
	c-2.042,3.307-5.294,5.299-8.853,6.669c-2.96,1.141-6.433,1.605-9.238,0.274c-0.03-0.093-0.122-0.148-0.278-0.145
	c-0.774-0.408-1.496-0.952-2.132-1.674c-1.476-1.675-2.006-4.08-2.276-6.226c-0.498-3.96,2.385-7.713,6.311-8.137
	c-1.38,0.383-2.705,1.128-3.457,1.93c-2.188,2.338-2.92,6.013-1.166,8.806c0.199,0.318,1.029-0.004,0.794-0.377
	c-1.292-2.057-1.062-4.513-0.047-6.636c0.925-1.931,4.585-4.33,6.79-3.101c0.319,0.178,1.088-0.257,0.672-0.488
	c-0.203-0.113-0.422-0.193-0.652-0.257c0.065-0.05,0.084-0.094,0.005-0.11c-2.729-0.574-5.635,0.383-7.73,2.197
	c-0.682,0.589-1.19,1.247-1.57,1.946c-0.701-0.867-1.54-1.662-2.578-2.094c-1.979-0.826-4.19-0.301-6.087-1.366
	c-0.224-0.126-0.94,0.23-0.816,0.3c1.127,0.632,2.216,0.77,3.495,0.84c2.325,0.129,4.052,1.107,5.435,2.953
	c-0.03,0.018-0.056,0.035-0.073,0.054c-1.364,1.642-6.483-2.898-7.908-3.188c-0.213-0.043-0.836,0.247-0.662,0.384
	c-0.871,0.708-2.429,1.728-2.194,0.409c0.123-0.688,0.564-1.355,0.898-1.962c0.102-0.188,0.195-0.383,0.285-0.578
	c0.385-0.351,0.773-0.698,1.188-1.022c0.967-0.757,1.796-1.467,1.919-2.74c0.014-0.149-0.142-0.218-0.273-0.215
	c-1.901,0.031-2.678,1.688-3.354,3.257c-0.094,0.217-0.29,0.555-0.516,0.95c-0.426,0.333-0.797,0.626-1.037,0.852
	c-1.613,1.019-2.374,0.983-2.283-0.108c0.01-0.339,0.145-0.713,0.279-1.04c1.696-1.165,3.37-3.026,3.744-3.871
	c0.105-0.236-0.166-0.303-0.352-0.281c-1.298,0.15-2.214,1.111-3.002,2.075c-0.255,0.31-0.687,0.901-1.041,1.558
	c-1.161,0.764-2.34,1.224-2.264-0.106c0.016-0.286,0.103-0.568,0.222-0.84c1.305-0.77,2.425-1.88,3.054-3.024
	c0.131-0.237-0.188-0.293-0.353-0.281c-1.078,0.084-2.797,1.597-3.532,3.082c-0.271,0.142-0.547,0.271-0.823,0.391
	c-3.317,1.444-1.978-1.391-0.581-2.614c0.138-0.105,0.27-0.207,0.389-0.296c0.481-0.359-0.256-0.479-0.547-0.294
	c-0.258,0.165-0.498,0.344-0.725,0.531c-0.18,0.131-0.356,0.265-0.538,0.394c-0.654,0.465-3.033,0.328-1.353-0.449
	c0.559-0.258,0.045-0.54-0.354-0.397c-1.641,0.589-3.248,0.917-4.714,1.898c-0.488,0.328,0.252,0.493,0.548,0.294
	c0.826-0.552,1.724-0.886,2.644-1.184c-0.338,0.361-0.442,0.751,0.122,1.054c0.755,0.404,1.597,0.237,2.4-0.144
	c-0.264,0.498-0.429,1.056-0.465,1.688c-0.007,0.118,0.068,0.17,0.173,0.201c1.13,0.338,2.369,0.172,3.537-0.296
	c-0.168,0.715-0.021,1.36,0.651,1.753c0.524,0.305,1.242,0.186,2.019-0.176c-0.134,0.515-0.132,0.995,0.131,1.339
	c0.753,0.983,2.478,0.315,3.251-0.309c0.034-0.028,0.065-0.058,0.1-0.086c-0.375,0.812-0.604,1.608-0.24,2.02
	c0.693,0.781,2.036,0.044,3.048-0.724c-0.584,1.242-0.939,2.396-0.405,2.682c1.044,0.56,2.737-1.02,3.327-1.78
	c0.104,0.067,0.207,0.136,0.312,0.204c-0.119,0.392-0.188,0.781-0.177,1.167c0.044,1.377,1.286,1.3,2.228,0.597
	c0.195-0.146,0.35-0.236,0.494-0.329c1.021,0.429,2.004,0.587,2.822,0.137c-0.697,2.303-0.218,4.935,0.743,7.337
	c0.317,0.799,0.729,1.48,1.208,2.06c-2.923,0.252-5.852,0.213-8.716-0.211c-0.089-0.056-0.216-0.081-0.348-0.054
	c-2.477-0.395-4.906-1.079-7.243-2.126c-2.96-1.324-5.047-3.679-7.002-6.149c0.133-0.126,0.004-0.208-0.184-0.234
	c-0.597-0.761-1.187-1.53-1.786-2.281c-0.05-0.117-0.11-0.236-0.197-0.365c-0.042-0.062-0.111-0.09-0.186-0.106
	c-0.734-0.891-1.474-1.687-2.271-2.349c-0.03-0.086-0.114-0.147-0.218-0.178c-1.534-1.212-3.29-1.915-5.611-1.791
	c-2.244,0.121-9.23,2.974-10.466,0.323c-0.162-0.347-1.016-0.086-0.866,0.232c1.032,2.211,4.556,1.296,6.387,0.914
	c1.985-0.416,3.949-0.952,5.984-0.9c-1.278,1.638-2.156,3.376-2.512,5.11c-0.352-0.247-0.686-0.538-0.997-0.888
	c-0.147-0.167-0.958,0.138-0.814,0.299c0.508,0.576,1.079,1,1.691,1.316c-0.022,0.2-0.038,0.4-0.048,0.6
	c-0.128,0.096-0.174,0.207-0.009,0.275c-0.027,2.269,0.924,4.474,3.139,6.369c0.006,0.005,0.016,0.007,0.023,0.012
	c-1.364,1.361-2.284,3.185-3.189,4.85c-0.226,0.416,0.527,0.307,0.692,0.211c0.737-0.426,1.356-0.935,1.977-1.511
	c1.127-1.05,2.159-1.788,3.416-2.279c-1.446,1.025-2.69,2.429-3.797,3.77c-0.307,0.373,0.286,0.564,0.564,0.423
	c1.847-0.944,3.737-1.776,5.69-2.41c0.882,0.366,1.767,0.717,2.677,1.014c-1.014,1.368-1.753,2.93-2.118,4.466
	c-0.066,0.277,0.497,0.147,0.6,0.108c1.702-0.649,3.107-1.988,4.496-3.342c0.565,0.443,1.106,0.914,1.66,1.372
	c-0.338,1.242-0.503,2.411-0.479,3.195c0.013,0.431,0.767,0.192,0.871-0.093c0.275-0.755,0.626-1.436,1.036-2.062
	c0.813,0.489,1.681,0.871,2.583,1.164c-0.006,0.416-0.004,0.802-0.006,1.133c0,0.404,0.75,0.3,0.85,0.001
	c0.091-0.265,0.194-0.537,0.305-0.812c2.043,0.495,4.205,0.615,6.261,0.598c4.082-0.032,7.097-1.543,10.774-3.089
	c0.12-0.051,0.184-0.101,0.216-0.148c2.827-0.351,5.591-0.983,8.207-2.038c0.193-0.078,0.254-0.17,0.238-0.25
	c0.222-0.065,0.443-0.134,0.66-0.206c4.578-1.539,9.773-4.49,11.323-9.424C70.533,16.474,68.162,16.357,66.706,16.691z
	 M35.457,10.122c0.128-0.294,0.267-0.583,0.416-0.866c0.123-0.242,1.321-1.422,1.297-1.179c-0.062,0.633-0.871,1.453-1.792,2.231
	C35.405,10.246,35.43,10.184,35.457,10.122z M32.108,9.12c0.425-0.57,1.371-1.064,1.652-1.697c-0.263,0.594-0.925,1.108-1.388,1.546
	c-0.081,0.076-0.235,0.215-0.435,0.387C31.995,9.277,32.051,9.198,32.108,9.12z M29.691,7.727c-0.226,0.266-0.48,0.508-0.752,0.732
	C29.524,7.743,30.925,6.277,29.691,7.727z M37.151,15.878c-1.308,0.661-0.515-1.098-0.013-2.061c0.407,0.217,0.85,0.498,1.319,0.802
	C38.046,15.143,37.619,15.641,37.151,15.878z M39.997,16.531c-0.016-0.299,0.01-0.59,0.065-0.875
	c0.247,0.152,0.498,0.301,0.746,0.44C40.552,16.231,40.327,16.345,39.997,16.531z M46.936,26.67
	c0.046-0.005,0.092-0.018,0.132-0.033c0.448,0.444,0.947,0.808,1.479,1.11c-4.227,0.553-8.452,0.256-12.702-0.016
	c0.519-0.473,1.072-0.874,1.647-1.189C40.622,26.988,43.834,26.966,46.936,26.67z M25.232,20.929
	c0.022,0.021,0.046,0.041,0.068,0.062c-2.332,0.428-4.629,0.282-6.866,0.805c-0.641-0.699-1.083-1.423-1.36-2.159
	c2.555-0.595,6.247-0.066,7.861,1.261C24.996,20.947,25.109,20.949,25.232,20.929z M23.142,18.68
	c0.273,0.321,0.547,0.635,0.824,0.941c-2.048-0.745-4.813-0.868-7.005-0.329c-0.049-0.161-0.091-0.323-0.125-0.486
	c1.743,0.183,3.473,0.09,5.127-0.548c0.32,0.114,0.635,0.247,0.938,0.41C22.958,18.698,23.045,18.698,23.142,18.68z M16.753,18.297
	c-0.025-0.218-0.034-0.438-0.034-0.658c1.544,0.031,3.102,0.042,4.531,0.403C19.808,18.506,18.28,18.509,16.753,18.297z
	 M21.164,16.238c0.022,0.028,0.044,0.059,0.068,0.088c0.347,0.442,0.689,0.875,1.033,1.299c-0.073,0.036-0.145,0.078-0.218,0.111
	c-1.674-0.424-3.524-0.375-5.319-0.437c0.006-0.103,0.018-0.207,0.028-0.311c0.848,0.11,1.727,0.095,2.62-0.016
	C20.014,16.893,20.765,16.663,21.164,16.238z M20.195,14.995c0.001,0.093,0.071,0.176,0.176,0.224
	c0.029,0.038,0.058,0.075,0.087,0.113c0.538,1.235-2.063,1.144-2.772,1.128c-0.285-0.005-0.561-0.038-0.833-0.082
	c0.236-1.164,0.77-2.327,1.507-3.459C19.027,13.56,19.633,14.286,20.195,14.995z M14.692,10.913
	c1.151,0.149,2.174,0.719,3.088,1.485c-0.832,1.228-1.458,2.507-1.756,3.791c-0.876-0.272-1.682-0.74-2.396-1.357
	c-0.279-0.242-1.042,0.167-0.67,0.489c0.894,0.772,1.888,1.253,2.946,1.509c-0.021,0.142-0.042,0.285-0.055,0.427
	c-1.314-0.083-2.578-0.28-3.696-0.827C12.409,14.572,13.309,12.69,14.692,10.913z M12.094,17.057
	c1.159,0.405,2.436,0.515,3.743,0.56c-0.004,0.178-0.001,0.355,0.009,0.534c-1.282-0.243-2.552-0.604-3.76-0.941
	C12.089,17.159,12.091,17.107,12.094,17.057z M12.086,17.821c1.251,0.341,2.53,0.664,3.812,0.865
	c0.043,0.29,0.109,0.579,0.197,0.866c-0.575,0.206-1.09,0.464-1.509,0.781c-0.37,0.278,0.5,0.204,0.675,0.071
	c0.267-0.201,0.586-0.37,0.945-0.51c0.273,0.737,0.708,1.46,1.323,2.16c-0.473,0.154-0.942,0.344-1.411,0.588
	c-0.422,0.221-0.809,0.484-1.169,0.777C13.06,21.728,12.171,19.808,12.086,17.821z M15.016,25.574
	c-0.869,0.589-1.569,1.361-2.34,2.057c1.078-1.928,2.264-3.72,4.323-4.795c2.675-1.396,5.854-0.772,8.714-1.354
	c0.034-0.006,0.057-0.019,0.083-0.027c0.686,0.621,1.411,1.197,2.195,1.723c-2.145,0.051-4.32,0.233-6.463,0.543
	c-0.68,0.008-1.323,0.117-1.935,0.312c-0.396,0.072-0.793,0.147-1.186,0.229C17.137,24.524,16.083,24.848,15.016,25.574z
	 M15.207,28.089c1.723-1.947,3.8-3.771,6.514-3.695c0.153,0.004,0.267-0.057,0.344-0.141c2.114-0.285,4.24-0.478,6.372-0.506
	c0.119-0.002,0.222-0.04,0.298-0.096c0.113,0.068,0.23,0.133,0.346,0.198c-1.388,0.126-2.693,0.646-3.86,1.428
	c-0.06-0.053-0.155-0.083-0.296-0.068C21.503,25.554,18.292,26.645,15.207,28.089z M20.717,26.695
	c1.171-0.332,2.37-0.578,3.595-0.732c-0.542,0.455-1.045,0.967-1.501,1.519C22.102,27.247,21.407,26.978,20.717,26.695z
	 M21.25,31.947c1.022-3.601,4.261-7.724,8.256-7.658c0.077,0.001,0.171-0.025,0.261-0.066c0.393,0.2,0.799,0.393,1.224,0.572
	c-0.341,0.108-0.662,0.281-0.966,0.509C26.621,26.576,24.556,30.302,21.25,31.947z M27.27,29.817
	c-0.098-0.081-0.194-0.164-0.292-0.245c0.124,0.01,0.245,0.017,0.368,0.021C27.32,29.667,27.294,29.743,27.27,29.817z
	 M27.571,28.967c-0.442-0.007-0.882-0.085-1.321-0.129c-0.055-0.005-0.111-0.003-0.169,0.007c-0.029-0.022-0.057-0.047-0.084-0.067
	c-0.025-0.021-0.061-0.03-0.098-0.038c1.038-1.005,2.088-1.968,3.271-2.611c-0.647,0.775-1.183,1.783-1.595,2.84
	C27.573,28.968,27.572,28.967,27.571,28.967z M31.054,32.199c-0.755-0.292-1.477-0.646-2.139-1.076
	c-0.016-0.012-0.042-0.015-0.065-0.021c0.347-0.462,0.726-0.893,1.132-1.302c0.417,0.072,0.836,0.142,1.256,0.204
	C31.126,30.744,31.077,31.499,31.054,32.199z M31.34,29.432c-0.279-0.044-0.557-0.087-0.834-0.134
	c0.359-0.329,0.735-0.644,1.122-0.946C31.509,28.696,31.415,29.06,31.34,29.432z M27.683,31.575c0.466-2.245,1.54-5.206,3.079-6.073
	c0.451-0.11,0.923-0.172,1.421-0.166c0.025,0.007,0.05,0.014,0.075,0.022c0.065,0.022,0.146,0.021,0.228,0.003
	c0.55,0.188,1.103,0.357,1.665,0.508c-0.02,0.002-0.039,0-0.061,0.003c-0.877,0.169-1.502,0.681-1.948,1.386
	C30.419,28.49,28.834,29.82,27.683,31.575z M31.928,31.848c0.023-0.649,0.074-1.349,0.178-2.025
	c0.037-0.059,0.046-0.117,0.025-0.172c0.143-0.843,0.375-1.634,0.75-2.228c0.656-0.464,1.332-0.913,2.007-1.368
	c0.553,0.132,1.113,0.241,1.673,0.339C34.644,27.63,33.009,29.726,31.928,31.848z M39.584,33.258
	c-2.282,0.155-4.841,0.028-7.177-0.616c0.349-0.777,0.778-1.57,1.277-2.327c4.685,0.472,9.644,0.788,14.466,0.338
	C45.31,31.872,42.812,33.035,39.584,33.258z M34.046,29.787c0.363-0.509,0.759-0.992,1.18-1.438
	c0.043,0.022,0.102,0.038,0.176,0.042c4.717,0.3,9.406,0.657,14.098-0.114c0.031-0.006,0.057-0.019,0.084-0.028
	c1.743,0.678,3.756,0.783,5.73,0.521C48.579,30.888,40.976,30.484,34.046,29.787z M29.527,2.677c0.406,0.007,0.89-0.604,0.303-0.613
	c-1.912-0.033-3.855-0.487-5.35-1.733c-0.286-0.239-1.049,0.175-0.67,0.491C25.391,2.139,27.504,2.643,29.527,2.677z M30.536,0.656
	c1.659,0.702,3.043,1.776,4.926,1.694c0.463-0.02,0.692-0.584,0.097-0.559c-1.622,0.071-2.919-0.993-4.344-1.596
	C30.915,0.069,30.135,0.487,30.536,0.656z M3.451,4.018c3.51-3.143,8.206-0.353,11.873,0.918c0.038,0.013,0.087,0.013,0.144,0.008
	c3.042,1.001,6.303-0.13,9.441-1.003c0.006,0.002,0.01,0.006,0.017,0.007c0.217,0.042,0.44-0.039,0.613-0.165
	c0.008-0.006,0.018-0.013,0.026-0.021c0.859-0.226,1.708-0.421,2.538-0.531c1.176-0.156,2.375-0.258,3.58-0.329
	c0.036,0.059,0.075,0.118,0.104,0.182c0.17,0.355,1.023,0.096,0.867-0.232c0-0.001-0.001-0.003-0.002-0.004
	c3.078-0.126,6.207,0.006,9.262,0.326c0.014,0.021,0.029,0.039,0.043,0.059c0.066,0.103,0.294,0.07,0.498,0
	c0.471,0.054,0.94,0.109,1.407,0.171c0.064,0.092,0.129,0.184,0.188,0.279c0.12,0.192,0.673,0.014,0.828-0.137
	c0.187,0.028,0.377,0.05,0.562,0.079c0.477,0.073,0.953,0.162,1.427,0.251c0.072,0.105,0.146,0.211,0.208,0.321
	c0.123,0.229,0.633,0.113,0.784-0.119c0.823,0.176,1.638,0.375,2.448,0.6c0.006,0.018,0.016,0.034,0.021,0.051
	c0.065,0.188,0.349,0.197,0.575,0.117c2.804,0.821,5.523,1.927,8.103,3.302c3.247,1.731,7.671,4.387,8.418,8.304
	c0.028,0.154,0.901-0.045,0.865-0.233c-0.656-3.45-4.166-5.771-6.938-7.481c-1.622-1-3.328-1.843-5.085-2.57
	c0.013-0.027,0.017-0.053-0.015-0.07c-1.831-1.062-3.649-2.955-5.91-2.896c-0.024,0-0.057,0.006-0.086,0.014
	c-0.378-0.342-0.803-0.641-1.171-0.902c-0.573-0.407-1.495-1.094-2.241-0.753c-0.545,0.249-0.052,0.61,0.36,0.423
	C47.01,2.071,46.969,2,47.163,2.06c0.16,0.05,0.31,0.138,0.458,0.216c0.372,0.198,0.718,0.441,1.057,0.689
	c0.407,0.299,0.918,0.684,1.279,1.131c-0.241-0.061-0.482-0.126-0.727-0.185c-0.503-0.121-1.009-0.224-1.517-0.325
	c-0.831-1.173-3.874-4.27-4.688-2.296c-0.013,0.03-0.008,0.052-0.013,0.077c-0.578-0.359-1.212-0.484-1.825-0.092
	c-0.516-0.389-1.081-0.72-1.682-0.995C39.28,0.176,38.61,0.535,38.69,0.571c1.133,0.519,2.157,1.223,2.926,2.194
	c-0.451-0.035-0.904-0.061-1.357-0.086c0.095-0.008,0.19-0.016,0.287-0.031c0.443-0.067,0.691-0.646,0.097-0.557
	c-1.416,0.215-2.35-0.728-2.906-1.931c-0.158-0.341-1.01-0.079-0.866,0.232c0.535,1.158,1.372,2.009,2.507,2.237
	c-0.529-0.023-1.057-0.037-1.586-0.049c0.304-0.04,0.671-0.247,0.516-0.375c-1.191-0.973-2.681-1.564-4.094-2.13
	c-0.246-0.099-1.038,0.266-0.695,0.403c1.37,0.548,2.828,1.116,3.981,2.057c0.024,0.019,0.056,0.03,0.089,0.039
	c-1.386-0.029-2.767-0.027-4.139-0.003c-0.312,0.006-0.624,0.022-0.937,0.034c-1.057-1.729-3.942-2.289-5.78-2.173
	c-0.472,0.03-0.684,0.624-0.09,0.586c1.441-0.091,3.846,0.36,4.864,1.633c-1.58,0.096-3.152,0.268-4.718,0.509
	c-0.256,0.04-0.514,0.09-0.775,0.145c0.061-0.117,0.084-0.245,0.039-0.381c-0.124-0.366-0.698-0.52-1.015-0.623
	c-0.546-0.179-1.109-0.305-1.664-0.458c-0.452-0.126-1.091-0.269-1.368-0.688C21.849,0.918,21.008,1.2,21.2,1.492
	c0.447,0.678,1.677,0.829,2.395,1.016c0.513,0.134,2.082,0.409,1.352,1.055c-2.931,0.779-6.018,2.058-8.85,1.039
	c-0.008-0.022-0.032-0.042-0.075-0.058c-4.28-1.482-9.283-4.188-13.254-0.629C2.404,4.238,3.266,4.184,3.451,4.018z M53.633,5.178
	c-0.818-0.277-1.643-0.53-2.475-0.761c-0.102-0.259-0.253-0.499-0.44-0.723C51.75,3.89,52.713,4.521,53.633,5.178z M43.846,1.356
	c0.019-0.046,0.007-0.071,0-0.082c0.012,0.009,0.05,0.031,0.143,0.062c0.176,0.058,0.341,0.167,0.496,0.264
	c0.39,0.24,0.74,0.544,1.08,0.852c0.304,0.277,0.618,0.581,0.906,0.907c-0.596-0.102-1.194-0.193-1.794-0.272
	c-0.34-0.494-0.802-1.068-1.329-1.484C43.552,1.595,43.783,1.506,43.846,1.356z M41.468,1.497c0.068-0.014,0.138-0.033,0.2-0.06
	c0.027,0.003,0.065,0.011,0.118,0.03c0.16,0.054,0.305,0.157,0.441,0.251c0.263,0.177,0.493,0.397,0.719,0.617
	c0.193,0.19,0.381,0.393,0.559,0.604c-0.259-0.028-0.521-0.049-0.78-0.074C42.367,2.344,41.943,1.891,41.468,1.497z M58.649,11.687
	c-0.074-0.021-0.175-0.006-0.273,0.023c-0.024-0.016-0.045-0.035-0.071-0.049c-0.285-0.15-0.643-0.06-0.89,0.125
	c-0.793-0.071-1.61,0.204-2.146,0.831c-1.007,1.181,0.195,2.28,1.324,2.666c1.167,0.399,2.539-0.134,3.238-1.108
	c0.179-0.248,0.272-0.49,0.306-0.72c0.039-0.066,0.039-0.119,0.013-0.159C60.16,12.54,59.479,11.927,58.649,11.687z M57.243,14.812
	c-0.795-0.177-1.801-0.923-1.376-1.834c0.25-0.531,0.741-0.706,1.239-0.65c-0.046,0.229-0.04,0.478-0.028,0.68
	c0.028,0.449,0.161,0.973,0.501,1.291c0.299,0.28,0.691,0.313,1.066,0.225C58.253,14.812,57.74,14.921,57.243,14.812z M58.59,14.031
	c0.001,0,0.001,0,0.007-0.002C58.622,14.023,58.609,14.026,58.59,14.031z M58.961,13.783c-0.054,0.048-0.095,0.08-0.132,0.107
	c-0.029,0.022-0.208,0.131-0.13,0.09c-0.019,0.009-0.096,0.041-0.11,0.049c-0.007,0.002-0.013,0.004-0.019,0.005
	c-0.001,0-0.003,0-0.005,0.001c-0.018-0.001-0.032-0.002-0.05-0.003c0.147,0.014-0.111-0.05-0.001-0.004
	c-0.114-0.048-0.098-0.044-0.169-0.116c-0.065-0.064-0.118-0.142-0.166-0.221c-0.075-0.126-0.151-0.382-0.192-0.572
	c-0.032-0.175-0.044-0.332-0.043-0.489c0.05,0.019,0.108,0.025,0.172,0.021c0.184,0.056,0.479-0.027,0.62-0.172
	c0.341,0.235,0.562,0.569,0.53,0.987C59.168,13.575,59.069,13.685,58.961,13.783z M13.583,5.803c0.382,0,0.899-0.581,0.313-0.581
	c-1.539,0-11.986,0.227-11.703-1.876c0.056-0.41-0.826-0.275-0.873,0.081C0.933,6.292,11.89,5.803,13.583,5.803z M12.248,6.725
	c0.509-0.265-0.298-0.208-0.496-0.105C7.698,8.727,4.456,4.879,0.593,5.15c-0.221,0.016-0.95,0.379-0.378,0.339
	c2.504-0.176,4.569,1.765,7.059,1.935C8.965,7.541,10.721,7.519,12.248,6.725z M49.255,9.486c0.56-0.225,0.052-0.561-0.354-0.397
	c-1.632,0.659-2.942,1.684-4.195,2.91c-0.149,0.146-0.294,0.297-0.432,0.452c-0.502-0.392-1.086-0.681-1.72-0.885
	c1.272-1.058,2.477-2.18,3.116-3.761c0.058-0.147-0.18-0.212-0.273-0.215c-1.468-0.062-2.245,1.23-2.904,2.371
	c-0.244,0.426-0.566,0.883-0.907,1.357c-0.834-0.167-1.705-0.238-2.539-0.265c0.516-0.565,1.054-1.11,1.703-1.592
	c0.912-0.677,1.876-1.374,2.186-2.51c0.056-0.203-0.266-0.22-0.381-0.212c-2.159,0.134-3.502,2.179-4.536,3.854
	c-0.061,0.097-0.157,0.253-0.275,0.445c-0.115,0-0.23,0-0.341,0c-0.305,0.001-0.929,0.467-0.344,0.465
	c2.589-0.011,6.411-0.031,7.589,2.8c0.12,0.286,0.971,0.019,0.866-0.233c-0.193-0.465-0.461-0.852-0.771-1.187
	C45.975,11.43,47.515,10.188,49.255,9.486z M43.555,9.569c0.118-0.205,1.304-1.602,0.737-0.706
	c-0.288,0.455-0.669,0.889-1.075,1.308C43.327,9.969,43.436,9.767,43.555,9.569z M39.782,9.197c0.312-0.427,0.661-0.821,1.047-1.18
	c0.215,0.027,0.427,0.055,0.639,0.082C41.077,8.49,40.655,8.845,40.2,9.164c-0.334,0.256-0.645,0.519-0.937,0.79
	C39.433,9.699,39.604,9.446,39.782,9.197z"/>
</svg>
