<?xml version="1.0" encoding="utf-8"?>
<!-- Generator: Adobe Illustrator 16.0.4, SVG Export Plug-In . SVG Version: 6.00 Build 0)  -->
<!DOCTYPE svg PUBLIC "-//W3C//DTD SVG 1.1//EN" "http://www.w3.org/Graphics/SVG/1.1/DTD/svg11.dtd">
<svg version="1.1" id="Layer_1" xmlns="http://www.w3.org/2000/svg" xmlns:xlink="http://www.w3.org/1999/xlink" x="0px" y="0px"
	 width="90.304px" height="96.367px" viewBox="0 0 90.304 96.367" enable-background="new 0 0 90.304 96.367" xml:space="preserve">
<path fill="#DBA94B" d="M55.895,95.772c-2.368,0.335-4.845-0.672-7.136-1.158c-1.214-0.257-2.432-0.377-3.618-0.766
	c-1.767-2.185-1.226-3.763,1.625-4.738c1.251-0.423,3.07,0.046,4.302,0.343c3.057,0.737,9.033,3.417,10.962-0.606
	c0.353-0.735-1.098-0.728-1.37-0.16c-1.573,3.281-9.703-0.896-12.432-0.758c-1.433,0.073-3.351,0.671-4.594,1.81
	c-0.079-0.067-0.225-0.107-0.478-0.091c-7.853,0.541-14.921-3.744-21.501-7.47c-2.625-1.486-5.819-2.058-8.732-2.721
	c-1.125-0.256-13.383-2.555-9.364,1.778c0.144,0.153,0.481,0.138,0.788,0.044c-0.056,0.208,0.041,0.415,0.426,0.496
	c1.477,0.312,2.816,0.919,4.297,1.203c1.625,0.312,3.423,0.139,5.074,0.273c3.809,0.312,7.749,2.75,11.223,4.207
	c5.624,2.36,11.222,4.259,17.295,3.591c-0.135,0.306-0.229,0.633-0.267,0.984c-0.258,2.448,2.244,2.991,4.21,3.338
	c2.911,0.511,6.174,1.865,9.159,1.441C56.55,96.703,56.868,95.635,55.895,95.772z M23.688,85.438
	c-2.954-1.273-5.852-2.679-9.045-3.212c-1.65-0.274-3.404-0.162-5.074-0.274c-1.393-0.093-2.894-0.907-4.297-1.202
	c-0.117-0.025-0.234-0.009-0.346,0.02c-0.009-0.028-0.009-0.059-0.036-0.088c-1.153-1.244-0.514-1.529,0.948-1.475
	c1.619,0.06,3.246,0.401,4.83,0.717c2.706,0.535,5.406,1.221,8.031,2.073c4.076,1.323,7.829,4.305,11.785,6.044
	c0.671,0.296,1.351,0.56,2.035,0.806C29.521,87.945,26.59,86.689,23.688,85.438z M60.934,91.106
	c-1.476,3.008-7.379,0.576-10.594-0.396c0.136-0.075,0.269-0.142,0.392-0.186c0.849-0.302,0.613-1.269-0.256-0.958
	c-0.536,0.191-1.045,0.479-1.534,0.804c-0.001,0-0.003,0-0.005-0.001c-0.376-0.045-1.604,0.568-0.951,0.688
	c-0.229,0.177-0.455,0.355-0.675,0.529c-0.465,0.367-2.082,1.4-1.658,2.162c0.27,0.485,1.37,0.128,1.367-0.41
	c0.008-0.006,0.021-0.018,0.047-0.051c0.037-0.046,0.082-0.084,0.123-0.127c4.119,0.741,9.438,3.079,13.08,0.412
	c0.595-0.437-0.842-0.261-1.105-0.068c-1.893,1.387-5.466,0.239-7.518-0.21c-1.249-0.274-2.49-0.585-3.752-0.783
	c0.214-0.176,0.433-0.348,0.65-0.516c0.25-0.194,0.541-0.426,0.841-0.652c3.895,1.004,10.847,3.887,12.974-0.448
	C62.528,90.553,61.138,90.691,60.934,91.106z M80.734,43.759c-6.954-4.156-16.086-3.207-23.819-2.922
	c-4.375,0.161-8.192-0.358-12.184-1.404c2.717-3.936,4.689-7.946,5.783-12.915c4.307-0.464,9.053-2.391,11.815-5.651
	c0.243,0.108,0.481,0.193,0.714,0.25c5.162,1.251,10.502-1.544,13.008-6.104c3.101-5.646,1.608-13.375-4.871-15.521
	c-0.409-0.137-1.71,0.478-1.146,0.665c6.732,2.23,7.332,10.044,4.299,15.566c-2.351,4.278-7.364,5.843-11.207,4.087
	c0.258-0.393,0.497-0.796,0.695-1.223c1.788-3.832,1.139-9.267-4.064-7.969c-5.188,1.295-1.749,7.518,1.7,9.765
	c-1.532,1.954-4.131,3.288-6.214,4.244c-1.467,0.672-3.027,1.099-4.587,1.227c0.02-0.098,0.042-0.192,0.063-0.291
	c0.684-3.55,1.983-10.805-2.129-12.931c-3.439-1.779-9.27-0.469-10.321,3.615c-1.294,5.03,4.825,10.101,9.305,10.364
	c0.502,0.029,1.024,0.025,1.554,0.006c-0.235,1.127-0.499,2.246-0.756,3.359c-0.789,3.396-2.499,6.309-4.501,9.045
	c-1.028-0.556-2.065-0.945-2.883-1.075c-0.458-0.073-0.994-0.077-1.567-0.022c-3.398-0.832-6.733-1.044-10.321-0.76
	c-0.742-0.938-1.542-1.832-2.459-2.637c-1.628-1.431-4.421-2.871-6.611-1.887c-1.016,0.456-1.647,1.165-1.834,1.898
	c-1.257-0.585-2.983-1.143-4.069-0.384c-1.817,1.27-0.628,2.823,0.725,3.834c-0.158,0.126-0.315,0.271-0.468,0.456
	c-0.69,0.846-0.716,1.965-0.375,3.169c-1.691,0.913-3.24,1.985-4.652,3.297c-2.319-0.19-6.047,0.203-7.048,2.356
	C1.505,48.989,3.1,50.07,5.109,50.789c-0.542,1.002-1.033,2.048-1.299,3.155c-0.008,0.003-0.014,0.007-0.021,0.011
	c-1.914,1.105-6.929,7.399-1.577,6.949c0.454-0.039,0.896-0.111,1.329-0.209c0.193,0.88,0.473,1.729,0.85,2.55
	c0.028,0.061,0.074,0.106,0.129,0.144c-0.358,0.489-0.673,1.014-0.939,1.577c-1.669,3.532,0.703,6.678,4.187,4.128
	c0.252-0.185,0.476-0.421,0.683-0.681c4.521,3.82,10.044,6.312,15.892,7.951c2.19,1.571,3.934,3.673,6.253,5.074
	c3.189,1.926,6.944,2.602,10.602,3.011c7.739,0.868,14.016-1.347,20.955-4.379c0.921-0.401,0.069-0.807-0.552-0.535
	c-2.825,1.234-5.58,2.601-8.545,3.479c-4.269,1.263-9.219,1.009-13.56,0.358c-3.812-0.571-7.032-1.822-9.946-4.336
	c-0.739-0.639-1.453-1.278-2.182-1.896c5.457,1.253,11.083,1.858,16.344,2.19c11.847,0.748,24.736,0.994,35.259-5.332
	c5.063-3.045,9.225-8.186,10.915-13.857C91.934,53.275,86.114,46.976,80.734,43.759z M59.448,16.329
	c-0.424-0.78-0.649-1.621-0.837-2.479c1.257-2.763,2.552-3.456,3.881-2.08c0.314,0.407,0.522,0.859,0.63,1.355
	c0.544,1.801-0.073,3.965-0.731,5.655c-0.066,0.17-0.143,0.337-0.226,0.501C61.096,18.593,60.154,17.626,59.448,16.329z
	 M43.306,23.759c-4.141-3.258-5.848-10.644,1.491-11.1c4.686-0.291,5.241,5.004,5.094,8.424c-0.069,1.61-0.309,3.211-0.619,4.798
	C47.145,25.809,45.073,25.15,43.306,23.759z M41.781,39.7c0.429,0.137,0.854,0.266,1.281,0.396
	c-0.913,1.188-1.865,2.351-2.804,3.512c-0.382,0.472,1.053,0.34,1.326,0.001c0.849-1.047,1.633-2.079,2.382-3.11
	c1.739,1.308,3.355,3.309,2.365,5.259c-0.051,0.1,0.012,0.161,0.13,0.193c-0.366,0.314-0.671,0.699-0.889,1.158
	c-2.999-2.008-7.63-2.339-8.658-0.067c-0.558-0.54-1.108-1.088-1.645-1.642c-0.308-0.317-0.593-0.652-0.878-0.985
	c0.082-0.082,0.124-0.169,0.082-0.251c-1.611-3.201,1.625-5.017,4.677-5.212C40.018,39.172,40.89,39.416,41.781,39.7z
	 M52.508,46.779c1.668,1.066,2.251,2.882,2.241,4.751c-1.754,0.902-3.316,2.208-4.348,3.727c-1.047-0.417-2.069-0.805-3.07-1.21
	c0.01-0.013,0.024-0.027,0.032-0.041c1.582-2.654,0.69-4.872-1.113-6.383c0.27-0.067,0.509-0.175,0.552-0.312
	C47.675,44.488,50.683,45.611,52.508,46.779z M47.937,45.143c0.071-0.208,0.121-0.415,0.148-0.621
	c1.964,0.309,3.931,0.304,5.912,0.243c-0.267,0.396-0.411,0.855-0.43,1.367c-0.762-0.507-1.661-0.879-2.658-1.106
	C49.942,44.806,48.88,44.839,47.937,45.143z M66.67,47.143c0.015-0.026,0.039-0.046,0.051-0.075
	c0.869-2.401,5.234-1.034,6.514,0.385c1.031,1.146,2.172,5.153,0.593,6.291c-1.917-0.517-3.997-0.495-5.688,0.104
	c-0.762,0.271-1.461,0.625-2.066,1.073c-0.267-0.896-0.64-1.647-1.096-2.269c0.081-0.03,0.156-0.073,0.223-0.131
	C66.813,51.131,67.169,49.055,66.67,47.143z M65.5,44.731c0.608,0.06,1.203,0.133,1.789,0.224c-0.448,0.167-0.851,0.406-1.186,0.731
	C65.929,45.353,65.73,45.032,65.5,44.731z M75.175,47.809c0.608,0.392,1.21,0.824,1.802,1.313c4.545,3.751,5.51,9.03,2.81,14.157
	c-2.09,3.967-5.327,6.66-9.082,8.473c0.782-1.072,0.882-2.506,0.423-3.998c4.499,0.518,9.959-5.456,7.872-10.044
	c-0.746-1.639-2.199-2.826-3.906-3.539C76.477,52.663,76.202,49.774,75.175,47.809z M77.952,59.137
	c1.107,3.858-3.795,9.208-7.334,7.354c-0.221-0.437-0.483-0.869-0.788-1.292c-0.882-1.224-1.898-2.225-3.009-2.987
	c0.171-0.151,0.199-0.31-0.132-0.391c-1.433-0.351-1.353-3.307-1.172-4.31c0.432-2.381,3.022-3.335,5.142-3.389
	c0.89-0.021,1.814,0.153,2.701,0.482c0.123,0.176,0.365,0.295,0.643,0.266C75.846,55.732,77.417,57.271,77.952,59.137z
	 M63.135,73.894c-0.266,0.201-0.532,0.35-0.795,0.475c-0.663,0.119-1.329,0.221-1.995,0.31c-1.85-0.285-3.466-2.048-4.37-3.813
	c-1.304-2.549-1.229-5.736,0.738-7.905c3.285-3.622,8.105-1.398,10.815,1.529c0.202,0.219,0.421,0.49,0.64,0.796
	c-0.258,0.131-0.428,0.318-0.294,0.5c0.411,0.556,0.868,0.982,1.358,1.298c1.165,2.405,1.604,5.354-1.587,5.794
	c-0.298,0.04-0.602,0.217-0.72,0.37c-0.877,0.276-1.766,0.516-2.665,0.724C64.812,73.533,63.405,73.688,63.135,73.894z
	 M19.025,42.496c1.322,2.769,3.185,5.073,5.106,7.476c4.633,5.795,9.589,10.37,16.792,12.69c-0.428,0.256-0.837,0.543-1.216,0.865
	c-2.299-0.199-4.888-1.577-6.579-2.917c-0.062-0.049-0.17-0.057-0.293-0.046c-2.918-4.87-7.54-9.115-12.703-11.985
	c-0.014-0.048-0.036-0.096-0.075-0.146c-1.549-1.873-2.931-3.734-3.962-5.953c-0.428-0.985-0.63-2.021-0.607-3.107
	C15.461,36.579,19.492,43.473,19.025,42.496z M23.852,47.286c0.629,0.755,1.192,1.56,1.757,2.374
	C25.003,48.886,24.417,48.095,23.852,47.286z M35.329,53.908c2.388,1.51,5.169,2.337,7.926,2.815
	c1.08,0.186,2.154,0.237,3.224,0.497c0.639,0.142,1.224,0.397,1.752,0.768c-1.542,1.696-3.302,2.199-5.281,1.509
	c-3.311-0.618-6.353-2.941-9.231-4.589c-0.044-0.026-0.1-0.038-0.163-0.042c-0.548-1.149-1.098-2.317-1.661-3.492
	C32.861,52.391,34.179,53.18,35.329,53.908z M30.397,47.668c-0.082-0.058-0.218-0.066-0.374-0.043
	c-0.786-1.491-1.622-2.947-2.531-4.337c2.746,1.971,4.957,5.024,6.875,7.597c0.543,0.728,1.12,1.479,1.754,2.163
	c-0.152-0.092-0.305-0.178-0.457-0.273C33.485,51.397,32.416,49.104,30.397,47.668z M49.131,59.393
	c0.042,0.848,0.28,1.71,0.746,2.564c-2.185-0.623-4.608-0.702-6.325-0.343c-0.427,0.09-0.846,0.225-1.257,0.382
	c-0.042-0.08-0.133-0.148-0.29-0.199c-2.353-0.734-4.511-1.763-6.514-3.001c-0.006-0.015-0.001-0.027-0.01-0.042
	c-0.363-0.693-0.721-1.41-1.078-2.135c2.669,1.639,5.471,3.362,8.568,3.654C44.397,60.407,47.576,60.499,49.131,59.393z
	 M39.117,64.074c-0.287,0.292-0.545,0.604-0.784,0.93c-0.085-0.153-0.171-0.304-0.254-0.45c-0.111-0.199-0.27-0.424-0.402-0.659
	C38.161,63.993,38.641,64.051,39.117,64.074z M36.581,64.824c0.277,0.486,0.614,1,0.729,1.554c0.012,0.059,0.083,0.088,0.171,0.104
	c-0.016,0.037-0.034,0.071-0.048,0.107c-0.669-0.936-1.592-1.6-2.647-2.008c-0.269-0.717-0.579-1.426-0.922-2.125
	c0.717,0.393,1.475,0.732,2.255,1.002c-0.07,0.059-0.121,0.122-0.114,0.192C36.045,64.053,36.387,64.482,36.581,64.824z
	 M33.406,65.089c0.102,0.248,0.372,0.338,0.654,0.319c1.395,0.791,2.512,2.13,2.865,3.615c0,0.004,0.004,0.004,0.004,0.007
	c-0.004,0.843,0.164,1.708,0.544,2.569c0.736,1.662,2.313,2.62,4.169,3.082c-1.924-0.205-3.834-0.465-5.71-0.785
	c-3.085-0.525-6.489-1.243-9.773-2.336c0.022-0.035,0.05-0.068,0.057-0.107c0.327-2.064,0.679-4.186,2.304-5.656
	C29.976,64.478,31.811,64.423,33.406,65.089z M38.671,70.679c-0.26-0.584-0.384-1.18-0.416-1.771
	c0.076-0.082,0.125-0.172,0.104-0.27c-0.03-0.123-0.071-0.236-0.107-0.355c0.109-1.633,0.974-3.188,2.206-4.345
	c0.322-0.134,0.617-0.32,0.426-0.376c1.185-0.962,2.631-1.568,4.059-1.559c1.824,0.012,4.212,0.421,6.021,1.47
	c0.278,0.308,0.588,0.614,0.938,0.915c0.107,0.093,0.256,0.126,0.415,0.12c0.17,0.173,0.329,0.353,0.47,0.547
	c0.823,2.2,0.034,5.172-1.153,7.008C48.971,76.17,40.549,74.924,38.671,70.679z M64.233,60.943c-2.22-0.682-4.664-0.483-7.123,0.808
	c-1.384,0.726-2.291,1.745-2.823,2.898c-0.354-0.872-0.962-1.638-1.921-2.184c-0.095-0.054-0.253-0.044-0.424-0.006
	c-6.084-7.513,10.319-16.864,12.82-6.716c0.029,0.121,0.113,0.196,0.212,0.25c-0.38,0.493-0.688,1.054-0.886,1.713
	C63.828,58.573,63.839,59.891,64.233,60.943z M50.299,73.912c1.567-0.722,2.954-2.379,3.726-4.252
	c0.659,2.294,2.262,4.354,4.302,5.243c-0.329,0.029-0.659,0.063-0.987,0.088c-3.911,0.29-7.928,0.276-11.92,0.013
	C47.258,74.909,49.033,74.497,50.299,73.912z M64.264,51.837c-2.058-1.934-5.197-2-8.086-0.936
	c-0.053-1.676-0.683-3.043-1.729-4.057c0.315-0.114,0.587-0.351,0.552-0.662c-0.297-2.633,4.994-2.845,6.655-2.603
	C64.988,44.064,66.766,49.646,64.264,51.837z M46.203,53.575c-1.517-0.656-2.987-1.403-4.426-2.422
	c-1.365-0.969-2.656-2.06-3.895-3.204c0.149-0.091,0.258-0.209,0.272-0.349c0.263-2.479,4.292-0.878,5.542-0.221
	C46.139,48.663,47.461,51.061,46.203,53.575z M36.995,38.467c-1.261,0.438-2.47,1.112-3.297,1.981
	c-0.711,0.033-1.421,0.088-2.13,0.166c-0.602-0.884-1.211-1.765-1.849-2.625C32.257,37.854,34.628,38.021,36.995,38.467z
	 M32.892,41.622c-0.087,0.195-0.153,0.396-0.2,0.603c-0.131-0.186-0.264-0.371-0.393-0.556
	C32.496,41.651,32.694,41.636,32.892,41.622z M23.828,34.003c1.333,0.707,2.419,1.86,3.422,2.959
	c1.915,2.098,3.298,4.626,5.004,6.884c2.025,2.68,4.516,4.899,7.12,7.007c3.176,2.571,6.357,3.586,10.053,5.068
	c0.12,0.049,0.36,0.011,0.601-0.064c-0.268,0.474-0.481,0.966-0.633,1.47c-1.021-0.715-3.19-0.973-3.902-1.047
	c-1.332-0.14-2.614-0.396-3.856-0.762c0.404-0.281,0.41-0.877-0.337-0.875c-3.677,0.004-6.076-5.319-8.194-7.694
	c-2.032-2.281-4.363-4.83-7.257-5.987c-1.757-2.26-3.81-4.215-6.287-5.674c-0.047-0.133-0.088-0.272-0.107-0.424
	C20.862,33.076,22.319,32.789,23.828,34.003z M16.257,35.085c0.814,0.22,1.583,0.63,2.311,1.059
	c0.285,0.341,0.719,0.637,1.301,0.858c1.854,1.391,3.465,3.358,4.924,5.072c3.659,4.297,5.787,9.922,8.251,15.062
	c-1.308-0.988-2.533-2.08-3.699-3.24c-0.007-0.028-0.003-0.057-0.025-0.084c-0.88-1.168-1.08-2.727-1.895-3.971
	c-0.826-1.259-1.667-2.544-2.703-3.643c-1.402-1.486-2.856-2.926-4.3-4.371c-0.009-0.009-0.025-0.01-0.035-0.018
	c-0.319-0.555-0.631-1.111-0.937-1.668c-0.658-1.198-1.816-2.399-3.015-2.592c-0.013-0.006-0.025-0.013-0.038-0.019
	C15.188,37.185,15.141,36.371,16.257,35.085z M14.292,42.446c0.653,1.625,1.83,3.321,2.866,4.659
	c-2.147-0.936-4.344-1.624-6.518-2.014C11.761,44.066,12.975,43.194,14.292,42.446z M4.643,49.157
	c-0.771-1.829-0.356-2.798,1.249-2.907c4.281-1.252,9.176,1.125,12.795,3.17c6,3.39,11.631,8.298,14.333,14.725
	c-0.348-0.043-0.7-0.069-1.056-0.069c0.005-0.033,0.021-0.063,0.016-0.099c-0.692-5.368-8.182-10.06-12.796-11.836
	c-2.334-0.898-4.974-1.091-7.572-0.773c-0.05-0.055-0.125-0.105-0.227-0.147c-1.029-0.423-2-0.65-3.086-0.844
	c-0.507-0.059-1.001-0.17-1.486-0.308c-0.039-0.186-0.333-0.246-0.646-0.208C5.646,49.67,5.137,49.442,4.643,49.157z M9.103,51.833
	c-1.274,0.318-2.509,0.749-3.659,1.273c0.223-0.67,0.516-1.316,0.844-1.943C7.289,51.446,8.297,51.659,9.103,51.833z M1.442,57.789
	c0.632-1.082,1.452-1.994,2.46-2.735c1.187-0.968,2.677-1.549,4.111-2.027c2.97-0.991,6.271-0.932,9.299-0.285
	c4.646,0.994,12.425,6.56,13.208,11.46c-0.184,0.031-0.368,0.064-0.551,0.105c-0.567,0.131-1.064,0.326-1.514,0.566
	c-0.32-1.64-1.523-2.846-3.113-3.736c0.011-0.076,0.001-0.154-0.062-0.234c-3.494-4.399-8.75-4.831-13.763-3.763
	c-0.23-0.029-0.489,0.028-0.68,0.154c-2.076,0.5-4.093,1.239-5.909,2.041C3.766,58.821,2.604,58.305,1.442,57.789z M22.314,59.89
	c-2.241-0.682-4.611-1.007-6.229-1.18c-1.309-0.14-2.654-0.081-3.967,0.162c-0.059-0.383-0.092-0.764-0.093-1.153
	c0.15-0.025,0.302-0.052,0.455-0.07C15.897,57.25,19.598,57.804,22.314,59.89z M10.681,59.213c-1.933,0.575-3.721,1.575-5.124,2.975
	c-0.242-0.62-0.448-1.252-0.591-1.906c1.892-0.655,3.68-1.645,5.612-2.226C10.589,58.444,10.622,58.83,10.681,59.213z M7.996,67.084
	c-1.163,1.804-3.967,2.36-3.592-0.452c0.475-3.546,3.547-5.902,6.808-6.852c0.199,0.009,0.414-0.048,0.592-0.157
	c0.15-0.037,0.299-0.073,0.449-0.103c4.027-0.796,14.58,1.048,14.853,6.376c-0.256,0.267-0.485,0.554-0.691,0.863
	c-2.057-5.649-12.54-6.261-16.43-2.206C9.23,65.34,8.585,66.171,7.996,67.084z M25.422,68.876c-0.236,0.717-0.411,1.472-0.547,2.236
	c-4.467-1.647-8.595-4.066-11.233-7.773c1-0.344,2.092-0.512,3.258-0.528c3.818-0.05,8.132,1.696,8.427,5.941
	C25.331,68.808,25.368,68.847,25.422,68.876z M77.331,73.946c-9.897,5.95-22.814,5.153-33.876,4.454
	c-5.81-0.366-12.129-1.14-18.119-2.813c-0.36-0.244-0.719-0.487-1.108-0.702c-0.18-0.101-0.57-0.026-0.874,0.111
	c-5.152-1.642-9.98-4.013-13.929-7.448c-0.077-0.066-0.192-0.093-0.315-0.104c0.212-0.349,0.412-0.7,0.61-1.01
	c0.712-1.104,1.591-1.905,2.587-2.479c5.177,7.317,15.613,9.762,23.94,11.18c8.191,1.395,17.399,1.819,25.604,0.465
	c9.045-1.492,17.127-6.006,20.595-14.897c1.625-4.167-0.568-8.941-3.657-11.785c-4.148-3.82-8.848-5.082-14.388-5.417
	c-0.037-0.003-0.074,0.009-0.112,0.013c-0.628-0.474-1.348-0.822-2.141-0.989c-1.62-0.341-4.836-0.097-6.844,1.08
	c-2.458,0.086-4.88,0.18-7.31-0.281c-0.209-0.796-0.704-1.559-1.357-2.247c1.436,0.333,2.89,0.587,4.396,0.708
	c8.478,0.682,16.935-1.451,25.275,1.194c6.481,2.055,12.557,8.258,12.447,15.317C88.655,64.745,82.454,70.866,77.331,73.946z"/>
</svg>
