<?xml version="1.0" encoding="utf-8"?>
<!-- Generator: Adobe Illustrator 16.0.4, SVG Export Plug-In . SVG Version: 6.00 Build 0)  -->
<!DOCTYPE svg PUBLIC "-//W3C//DTD SVG 1.1//EN" "http://www.w3.org/Graphics/SVG/1.1/DTD/svg11.dtd">
<svg version="1.1" id="Layer_1" xmlns="http://www.w3.org/2000/svg" xmlns:xlink="http://www.w3.org/1999/xlink" x="0px" y="0px"
	 width="59.625px" height="50.644px" viewBox="0 0 59.625 50.644" enable-background="new 0 0 59.625 50.644" xml:space="preserve">
<path fill="#DBA94B" d="M8.549,26.512c-0.423,0.315,0.519,0.312,0.747,0.141c1.754-1.311,3.527-0.178,4.367,1.573
	c0.323,0.673,0.508,1.468,0.359,2.207c-0.166,0.829-0.764,0.864-1.432,0.701c0.364-1.231,0.458-2.675-0.988-3.16
	c-1.069-0.357-2.306-0.151-3.424,0.09c0.142-0.388,0.338-0.919,0.224-1.175c-0.125-0.277-0.684-0.095-0.842,0.056
	c-0.053,0.05-0.089,0.096-0.125,0.16c-0.06,0.104-0.025,0.168,0.052,0.205c-0.015,0.345-0.279,0.936-0.347,1.178
	c-0.073,0.256,0.42,0.188,0.527,0.164c1.011-0.222,2.098-0.462,3.129-0.246c1.438,0.301,1.146,1.947,0.823,2.979
	c-0.038,0.118,0.096,0.163,0.179,0.188c0.979,0.29,2.138,0.271,2.844-0.568c0.658-0.781,0.361-2.065,0.014-2.903
	C13.558,25.454,10.785,24.839,8.549,26.512z M12.796,17.334c-0.206,0.061-0.496,0.243-0.353,0.487
	c0.663,1.142,1.019,2.333,1.28,3.616c0.066,0.326,0.705,0.219,0.886-0.054c0.211,0.266,0.578,0.394,0.887,0.486
	c0.25,0.075,0.581-0.029,0.719-0.256c0.624-1.026,0.367-2.285-0.269-3.239C15.244,17.322,13.971,16.99,12.796,17.334z
	 M15.549,20.995c-0.26-0.254-0.368-0.6-0.663-0.933c-0.108-0.121-0.322-0.128-0.518-0.075c-0.209-0.739-0.475-1.449-0.833-2.14
	C14.934,17.902,15.89,19.644,15.549,20.995z M59.549,10.571c-0.585-2.315-3.504-4.11-5.789-4.219
	c-2.41-0.115-4.068,1.394-5.408,3.188c0.105-2.533-0.631-5.066-2.962-6.434c-0.445-0.262-1.102-0.328-1.6-0.211
	c-1.013,0.234-2.091,0.654-3.149,0.175c-0.611-0.277-1.062-0.493-1.719-0.596c-1.534-0.244-2.319,1.312-2.999,2.345
	c-0.11,0.169,0.674-0.006,0.729-0.031c2.566-1.16,4.403,3.017,4.665,4.957c-8.781-3.592-19.625-3.274-28.591-0.604
	c-7.903,2.355-14.614,9.371-12.35,17.75c-0.211,0.068-0.39,0.198-0.351,0.345c1.547,5.751,5.312,11.754,9.515,15.945
	c3.679,3.67,9.05,5.404,14.19,4.944c11.179-1.001,19.592-10.039,23.717-19.939c0.446-0.146,0.904-0.273,1.377-0.368
	c0.672,0.63,1.586,1.253,2.19-0.095c0.309-0.689-0.771-0.651-1.588-0.537c-0.289-0.317-0.802-0.688-1.019-0.833
	c-0.315-0.209-0.769-0.352-1.223-0.427c0.723-0.574,3.115,0.406,3.999,0.3c0.197-0.023,0.59-0.175,0.516-0.448
	c-0.101-0.365-0.195-0.951-0.594-1.162c-1.266-0.67,0.338-0.692,0.654-0.493c0.841,0.528,1.54,1.095,2.588,1.004
	c1.922-0.169,3.081-2.701,2.969-4.365c-0.015-0.224-0.411-0.214-0.548-0.174c-2.139,0.619-3.443-0.4-5.372-0.625
	c-0.368-0.042-0.729-0.066-1.09-0.08c2.303-2.112,5.374-2.921,8.136-4.303c0.207-0.104,0.269-0.213,0.247-0.303
	C60.104,14.383,59.904,11.978,59.549,10.571z M40.75,5.899c-0.978-1.373-2.28-1.85-3.692-1.536c0.869-1.139,1.872-1.355,3.257-0.729
	c0.464,0.209,0.962,0.228,1.459,0.181c0.37-0.035,0.774-0.178,1.102-0.326c1.979-0.893,3.361,1.304,4.024,2.664
	c1.311,2.689,0.223,6.227-0.54,8.894c-0.63,2.203-1.416,4.364-2.632,6.302c-0.666,0.375-1.296,0.815-1.886,1.313
	c-1.886,1.593-3.121,3.903-4.626,5.822c-2.062,2.633-3.217,6.21-6.248,7.896c-0.07,0.037-0.123,0.078-0.161,0.12
	c-2.246,0.375-4.556,0.503-6.834,0.457c0.001-0.026,0.003-0.054,0.003-0.081c0.694-0.255,1.332-0.751,1.359-1.544
	c0.011-0.318-0.062-0.626-0.183-0.916c0.118-0.059,0.212-0.138,0.237-0.238c0.073-0.305,0.261-1.002,0.679-1.011
	c0.438-0.009,0.854,0.281,1.154,0.572c0.126,0.121,0.233,0.255,0.324,0.394c0.016,0.085,0.038,0.172,0.073,0.259
	c0.014,0.037,0.052,0.058,0.101,0.071c0.249,0.612,0.132,1.28-0.571,1.677c-0.15,0.085-0.258,0.306-0.068,0.414
	c0.039,0.022,0.083,0.031,0.124,0.04c-0.068,0.044-0.133,0.092-0.204,0.135c-0.389,0.238,0.553,0.112,0.713,0.013
	c4.353-2.674,7.683-6.868,10.142-11.501c0.031-0.037,0.07-0.066,0.1-0.107c0.065-0.092,0.087-0.171,0.076-0.236
	c1.41-2.712,2.527-5.565,3.377-8.346C42.475,13.054,42.965,9.015,40.75,5.899z M16.73,36.251c-0.833-0.168-1.657-0.381-2.464-0.639
	c0.837-0.073,1.65-0.377,2.395-0.935C16.434,35.168,16.415,35.731,16.73,36.251z M10.867,33.701
	c-0.068-0.054-0.167-0.072-0.271-0.065c-0.594-1.051-1.595-1.787-2.537-2.516c-1.023-0.795-2.501-1.819-2.101-3.308
	c0.019-0.066-0.107-0.088-0.271-0.078c-0.008-0.012-0.013-0.023-0.022-0.035c-1.59-1.866,2.111-3.754,3.393-4.309
	c2.722-1.18,5.776-1.109,7.773,1.264C20.414,28.91,16.747,38.271,10.867,33.701z M9.202,33.228c-1.254-0.827-2.38-1.794-3.317-2.895
	c0.138,0.139,0.282,0.274,0.431,0.405C7.259,31.57,8.399,32.253,9.202,33.228z M4.804,28.1C4.851,28.156,4.921,28.188,5,28.203
	c-0.078,0.478,0.016,0.902,0.223,1.281c-1.847-2.567-2.718-5.775-1.969-9.557c1.384-6.993,8.992-9.555,15.186-10.361
	c7.429-0.967,16.001-0.214,22.544,3.596c0.062,0.036,0.168,0.037,0.284,0.016c-0.26,2.007-0.873,3.992-1.61,5.872
	c-0.208-0.085-0.469-0.071-0.677-0.049c-0.235,0.025-0.517,0.104-0.782,0.221c-0.149-0.859-0.6-1.766-1.558-1.771
	c-0.398-0.002-1.187,0.146-1.831,0.417c0.257-0.656,0.396-1.309,0.364-1.869c-0.059-1.002-1.508-2.104-2.463-2.081
	c-0.403,0.01-0.792,0.06-1.14,0.288c-0.37,0.242-0.712,0.804-1.085,1.164c0.142-1.065,0-2.067-0.796-2.668
	c-0.754-0.569-1.895-0.87-2.797-0.444c-0.703,0.331-1.034,0.921-1.363,1.576c-0.122-0.082-0.252-0.165-0.396-0.25
	c-1.066-0.646-1.929-0.207-2.895,0.443c-1.064,0.714-2.46,1.35-3.01,2.543c-0.963-1.288-2.208-2.303-3.445-2.664
	c-5.691-1.655-6.8,4.518-6.296,8.687c-0.284,0.091-0.564,0.188-0.833,0.292C7.021,23.517,2.923,25.891,4.804,28.1z M28.803,34.798
	c-0.025-0.34-0.146-0.66-0.325-0.948c-0.073-0.494,0.156-0.965,0.585-1.271c0.306-0.22,0.621-0.161,0.903,0.021
	c0.006,0.004,0.012,0.007,0.018,0.01c0.39,0.259,0.716,0.751,0.863,1.073c0.001,0.004,0.005,0.004,0.006,0.006
	c-0.691,0.682-1.431,1.318-2.213,1.91C28.76,35.359,28.826,35.092,28.803,34.798z M26.142,14.394
	c0.049-0.036,0.09-0.078,0.114-0.127c0.188-0.373,0.386-0.739,0.597-1.098c0.807-1.377,2.431,0.224,2.624,1.115
	c0.305,1.405-0.4,3.066-0.953,4.381c-0.003,0.001-0.005,0-0.007,0.001c-0.019,0.002-0.042,0.009-0.065,0.016
	c-1.311-0.457-3.156-0.444-4.718,0.094c-0.008-0.008-0.008-0.019-0.019-0.026c0.246-0.413,0.745-0.845,0.997-1.149
	c0.485-0.587,0.952-1.188,1.32-1.857C26.367,15.135,26.363,14.729,26.142,14.394z M31.694,20.944
	c-0.622-0.755-1.429-1.398-2.407-1.889c0.006-0.01,0.016-0.018,0.02-0.028c0.314-0.751,0.825-1.921,1.077-3.086
	c0.376-0.138,0.67-0.354,0.962-0.675c0.276-0.307,0.581-0.978,1.117-0.863c0.77,0.165,1.438,0.984,1.731,1.651
	C34.746,17.3,32.93,20.197,31.694,20.944z M34.738,18.73c0.028-0.081,0.86-0.391,1.065-0.464c0.799-0.283,1.144,0.086,1.385,0.855
	c0.19,0.608,0.146,1.283,0.051,1.903c-0.156,1.015-0.876,1.143-1.699,1.35c-0.318,0.079-1.746,0.394-2.6,0.851
	c-0.229-0.693-0.566-1.346-1.002-1.946c0.86-0.383,1.698-1.261,2.307-2.272C34.454,18.994,34.674,18.9,34.738,18.73z M24.032,17.369
	c-0.397,0.494-1.22,1.156-1.377,1.791c-0.011,0.043-0.007,0.074,0.006,0.101c-0.755,0.437-1.361,1.039-1.685,1.81
	c-0.037-1.231-0.507-2.554-1.226-3.733c0.108-0.055,0.191-0.126,0.204-0.208c0.217-1.42,1.545-1.962,2.613-2.686
	c0.456-0.307,1.015-0.837,1.585-0.554c0.378,0.188,1.11,0.527,1.232,0.984C25.596,15.669,24.475,16.815,24.032,17.369z
	 M18.471,24.226c-0.573,0.292-0.056,0.729,0.4,0.497c0.872-0.445,1.441-1.066,1.767-1.79c0.039,0.762,0.297,1.556,0.479,2.361
	c0.282,1.24-0.028,2.612-0.733,3.646c-0.334,0.492-0.672,0.936-0.8,1.469c-0.167,0.055-0.325,0.127-0.474,0.216
	c0.454-2.356-0.219-4.945-1.751-6.766c-1.736-2.062-4.479-2.14-6.938-1.534c-0.436-3.566,0.003-9.229,5.133-7.736
	C18.587,15.471,22.22,22.313,18.471,24.226z M18.994,32.108c0.109-0.602,0.439-0.926,0.835-1.05c0.086-0.009,0.179-0.028,0.27-0.054
	c1.02-0.092,2.221,0.928,1.302,1.97c-0.086,0.099-0.107,0.182-0.088,0.248c-0.176,0.169-0.328,0.365-0.45,0.584
	c-0.819-0.729-2.119-0.694-3.069-0.249c0,0-0.001,0-0.002,0.001c0.268-0.343,0.5-0.708,0.692-1.088
	C18.716,32.439,18.958,32.309,18.994,32.108z M21.225,30.415c-0.243-0.078-0.487-0.119-0.728-0.13
	c0.203-1.188,1.419-2.123,1.557-3.403c0.16-1.495-0.764-3.465-0.422-4.989c0.016-0.021,0.032-0.042,0.033-0.066
	c0.005-0.044,0.017-0.081,0.021-0.125c0.091-0.299,0.233-0.58,0.454-0.833c0.076-0.086-0.04-0.113-0.208-0.103
	c0.938-2.059,4.02-2.236,6.092-1.577c0.021,0.026,0.046,0.053,0.087,0.076c0.029,0.018,0.06,0.035,0.088,0.053
	c0.078,0.048,0.184,0.056,0.292,0.042c1.511,0.623,2.576,1.773,3.294,3.22c0.757,1.527,0.832,3.25,0.442,4.878
	c-0.03,0.039-0.038,0.08-0.029,0.121c-0.112,0.447-0.258,0.887-0.437,1.312c-0.223-0.573-0.832-0.952-1.592-1.01
	c-0.118-0.009-0.235-0.003-0.352,0c0.596-1.609,0.175-3.354-0.246-4.967c-0.113-0.433-1.05-0.183-0.938,0.25
	c0.407,1.564,0.875,3.305,0.19,4.857c-0.008,0.021-0.005,0.036-0.01,0.056c-0.148,0.056-0.289,0.121-0.425,0.2
	c-0.389-1.408-2.643-1.482-3.586-0.618c-0.536,0.491-1.201,1.544-1.043,2.308c-0.101,0.017-0.2,0.04-0.297,0.067
	c-0.673-1.59,1.262-2.899,1.768-4.263c0.289-0.783,0.16-1.309-0.409-1.923c-0.423-0.455-0.802-0.727-0.98-1.353
	c-0.365-1.3,1.611-1.264,2.222-1.272c0.313-0.003,1.009-0.483,0.379-0.477c-1.378,0.018-3.612,0.167-3.536,1.999
	c0.026,0.653,0.592,1.08,1.04,1.452c1.137,0.945,0.081,2.188-0.527,3.074c-0.615,0.896-1.389,2.038-0.848,3.124
	c0.012,0.024,0.035,0.039,0.057,0.055c-0.184,0.152-0.329,0.33-0.437,0.532C21.946,30.738,21.619,30.541,21.225,30.415z
	 M30.775,30.223c-0.046,0.037-0.094,0.074-0.135,0.116c-0.068,0.071-0.183,0.261-0.305,0.498c-0.373-0.686-1.424-1.099-2.293-1.012
	c0.047-0.038,0.084-0.079,0.097-0.126c0.209-0.878,0.854-1.461,1.78-1.295c0.917,0.163,1.182,1.01,0.856,1.795
	C30.77,30.209,30.776,30.215,30.775,30.223z M22.669,31.911c0.104-0.049,0.18-0.112,0.187-0.19c0.04-0.473,0.197-1.186,0.705-1.389
	c0.1-0.04,0.216-0.047,0.337-0.033c0.119,0.177,0.309,0.323,0.592,0.421c0.107,0.035,0.251,0.014,0.385-0.04
	c0.852,0.512,1.113,1.388,0.599,2.119c-0.356,0.19-0.617,0.486-0.798,0.846c-0.074-0.091-0.15-0.178-0.231-0.26
	c-0.507-0.512-1.176-0.781-1.889-0.721C22.662,32.407,22.698,32.153,22.669,31.911z M25.188,30.086
	c-0.128-0.049-0.264-0.084-0.401-0.11c-0.389-0.459,0.228-1.477,0.521-1.83c0.625-0.757,2.031-0.473,2.191,0.553
	c0.015,0.095,0.086,0.151,0.182,0.177c-0.22,0.27-0.39,0.584-0.479,0.952c-0.027,0.117,0.082,0.171,0.234,0.177
	c-0.421,0.202-0.802,0.55-1.063,0.958C26.113,30.591,25.696,30.279,25.188,30.086z M27.938,30.46
	c0.815-0.145,2.093,0.68,1.429,1.564c-0.031,0.041-0.051,0.079-0.062,0.114c-0.092,0.021-0.184,0.038-0.279,0.069
	c-0.478,0.159-0.955,0.474-1.241,0.886c-0.11-0.084-0.227-0.157-0.347-0.224c0-0.063-0.032-0.127-0.111-0.187
	C26.622,32.148,27.095,30.609,27.938,30.46z M30.756,32.289c0.016-0.075,0.015-0.151-0.021-0.214c0.028,0.033,0.038,0.065,0.04,0.08
	c0-0.013,0-0.042,0.01-0.102c0.021-0.14,0.068-0.276,0.112-0.41c0.044-0.133,0.095-0.264,0.15-0.392
	c0.057-0.024,0.104-0.051,0.135-0.086c0.175-0.204,0.332-0.419,0.485-0.632c0.494-0.104,1.147,0.335,1.189,0.842
	c0.001,0.024,0.015,0.038,0.022,0.059c-0.43,0.535-0.879,1.054-1.349,1.555C31.316,32.68,31.054,32.445,30.756,32.289z
	 M32.107,29.851c0.294-0.499,0.534-1.014,0.72-1.54c0.4,0.371,0.875,0.659,1.436,0.679c0.138,0.005,0.272-0.006,0.404-0.026
	c-0.351,0.534-0.714,1.059-1.092,1.57C33.27,30.102,32.695,29.874,32.107,29.851z M34.215,28.346
	c-0.449-0.219-0.803-0.651-1.103-1.037c0.234-1.071,0.26-2.156,0.061-3.191c0.105-0.1,0.153-0.227,0.059-0.361
	c0.011,0.016,0.354-0.078,0.821-0.214c-0.09,0.155-0.155,0.324-0.181,0.516c-0.074,0.554,0.297,1.039,0.695,1.373
	c0.515,0.43,1.215,0.612,1.876,0.539c-0.404,0.748-0.828,1.483-1.273,2.202c-0.016,0.012-0.036,0.022-0.047,0.036
	C34.829,28.571,34.622,28.545,34.215,28.346z M35.353,24.947c-0.727-0.523-0.652-1.328,0.108-1.76
	c0.061-0.034,0.104-0.071,0.141-0.108c0.53-0.162,0.981-0.302,1.125-0.348c1.286-0.412,1.556-1.699,1.531-2.91
	c0.011-0.011,0.027-0.021,0.034-0.031c0.107-0.162,0.367-0.286,0.513-0.326c0.006-0.002,0.074-0.017,0.156,0.046
	c0.164,0.125,0.159,0.395,0.145,0.576c-0.005,0.062,0.03,0.101,0.078,0.13c-0.087,0.206-0.175,0.411-0.265,0.614
	c-0.631,1.452-1.307,2.902-2.039,4.319C36.421,25.45,35.833,25.292,35.353,24.947z M17.897,34.152
	c1.459-1.436,3.974,1.36,1.881,2.241c-0.611,0.179-1.274,0.159-1.837-0.16C17.173,35.796,17.362,34.68,17.897,34.152z
	 M21.464,35.492c0.825-0.334,1.488,0.667,1.57,1.438c-0.932-0.038-1.854-0.103-2.764-0.19C20.869,36.46,21.316,36.016,21.464,35.492
	z M21.515,35.072c-0.007-0.201-0.055-0.408-0.156-0.618c0.075-0.043,0.135-0.092,0.155-0.148c0.07-0.218,0.208-0.634,0.417-0.916
	c0.1-0.026,0.192-0.073,0.253-0.141c0.037-0.043,0.068-0.086,0.102-0.129c0.043-0.013,0.086-0.024,0.133-0.021
	c0.52,0.039,0.98,0.432,1.312,0.801c0.618,0.69,0.99,1.94,0.195,2.518c-0.107-0.476-0.385-0.897-0.815-1.178
	C22.63,34.926,22.054,34.93,21.515,35.072z M23.267,47.648c-5.355,0.288-10.233-1.988-13.839-5.85
	c-2.613-2.797-5.008-6.335-6.702-10.017c4.783,6.667,14.332,9.084,22.151,8.818c7.615-0.257,15.307-3.335,20.175-9.177
	C40.675,39.804,33.052,47.122,23.267,47.648z M23.509,40.247C15.111,40.211,5.934,36.61,2.062,28.713
	C-2.077,20.274,4.483,12.246,12.38,9.567c8.758-2.97,20.041-2.976,28.583,0.705c0.092,0.04,0.244,0.014,0.398-0.035
	c0.056,0.762,0.045,1.526-0.021,2.289C34.209,8.55,24.969,8.074,17.042,9.331c-6.468,1.026-13.421,4.165-14.814,11.207
	c-0.881,4.448,0.819,8.561,4.04,11.608c3.247,3.071,7.479,4.279,11.777,4.868c0.092,0.014,0.181,0.029,0.276,0.037
	c0.418,0.055,0.836,0.106,1.255,0.15c3.624,0.386,7.556,0.383,11.331-0.275c0.125,0.054,0.297,0.057,0.463-0.034
	c0.041-0.023,0.078-0.049,0.119-0.073c4.956-0.959,9.598-3.089,12.851-7.018c0.028-0.034,0.039-0.064,0.038-0.088
	c0.572-0.396,1.17-0.742,1.794-1.032C41.514,36.629,32.511,40.286,23.509,40.247z M48.369,27.366
	c0.008,0.006,0.015,0.014,0.021,0.021c-0.35,0.08-0.694,0.178-1.032,0.284c-0.21-0.004-0.498,0.071-0.633,0.202
	c-0.026,0.012-0.048,0.025-0.069,0.039c-1.757,0.663-3.337,1.686-4.727,3.023c-0.22,0.211-0.036,0.306,0.209,0.312
	c-1.409,1.349-3.007,2.414-4.729,3.238C38.98,31.597,44.502,23.542,48.369,27.366z M56.386,21.312
	c-0.053,1.751-1.508,3.867-3.479,2.584c-0.396-0.259-0.904-0.736-1.413-0.777c-1.129-0.093-1.635,0.518-2.211,1.436
	c-0.123,0.196,0.105,0.354,0.277,0.365c0.217,0.2,0.435,0.4,0.651,0.6c-1.462-0.277-2.941-1.104-3.965,0.353
	c-0.013,0.001-0.028,0.001-0.041,0.003c-4.455,0.435-7.847,5.132-9.758,8.74c-0.072,0.142-0.004,0.217,0.119,0.25
	c-1.309,0.556-2.681,0.985-4.089,1.307c1.069-0.803,1.905-1.788,2.66-2.976c1.648-2.59,3.329-5.076,5.122-7.583
	c2.172-3.035,4.884-4.764,8.659-5.103c0.055-0.005,0.108-0.005,0.164-0.009c0.131,0.044,0.339,0.039,0.507-0.013
	C51.946,20.521,54.046,21.731,56.386,21.312z M58.817,13.562c-0.246,1.972-2.546,1.755-3.953,1.214
	c-0.962-0.369-1.29-1.625-1.57-2.5c-0.236-0.744-0.839-3.742,1.331-2.714c0.577,0.273,0.896,0.859,1.083,1.429
	c0.03,0.087,0.043,0.184,0.046,0.283c-0.576-0.67-2.064-0.569-1.882,0.501c0.219,1.264,2.202,1.784,2.647,0.332
	c0.579-1.894-0.921-3.507-2.84-3.3c-2.352,0.253-1.49,3.376-0.964,4.738c0.683,1.762,2.453,2.278,4.187,2.162
	c-2.646,1.188-5.419,2.116-7.535,4.171c-0.632,0.019-1.261,0.079-1.91,0.176c-0.894,0.135-1.75,0.387-2.563,0.73
	c1.648-2.783,2.528-6.02,3.195-9.157c0.042-0.196,0.078-0.396,0.111-0.596c0.02-0.017,0.038-0.035,0.051-0.054
	c0.753-1.162,1.548-2.237,2.57-3.183c1.841-1.703,3.998-0.687,5.645,0.326C58.399,9.309,59.089,11.376,58.817,13.562z
	 M55.637,11.857c-0.156,0.344-0.437,0.487-0.659-0.077C55.053,11.972,55.387,11.958,55.637,11.857z"/>
</svg>
