<?xml version="1.0" encoding="utf-8"?>
<!-- Generator: Adobe Illustrator 16.0.4, SVG Export Plug-In . SVG Version: 6.00 Build 0)  -->
<!DOCTYPE svg PUBLIC "-//W3C//DTD SVG 1.1//EN" "http://www.w3.org/Graphics/SVG/1.1/DTD/svg11.dtd">
<svg version="1.1" id="Layer_1" xmlns="http://www.w3.org/2000/svg" xmlns:xlink="http://www.w3.org/1999/xlink" x="0px" y="0px"
	 width="68.698px" height="77.412px" viewBox="0 0 68.698 77.412" enable-background="new 0 0 68.698 77.412" xml:space="preserve">
<path fill="#DBA94B" d="M26.269,66.432c13.023-0.781,23.259-12.318,27.935-23.804c0.025-0.062-0.004-0.077-0.062-0.062
	c0.07-0.146,0.145-0.288,0.213-0.436c5.748-13.791-5.551-19.486-17.464-21.055c0.18-1.097,0.296-2.198,0.341-3.281
	c0.246-0.117,0.491-0.237,0.729-0.363c2.002-1.066,3.549-2.667,4.819-4.495c2.984,4.165,10.541,2.489,14.434,0.994
	c0.748-0.288,0.074-0.772-0.479-0.56c-2.66,1.021-5.469,1.565-8.322,1.323c-2.342-0.199-3.877-1.335-4.844-2.971
	c0.844-1.392,1.559-2.869,2.213-4.314c0.744-1.649,3.102-7.303-0.537-7.406c-5.963-0.17-4.713,8.434-2.998,12.025
	c-1.129,1.714-2.486,3.259-4.166,4.461c-0.272,0.196-0.55,0.371-0.828,0.537c0.092-7.588-3.272-13.968-11.109-11.08
	c-4.384,1.615-3.263,6.982-1.237,10.005c2.577,3.844,7.266,3.818,11.194,2.322c-0.04,0.853-0.122,1.754-0.248,2.675
	c-4.905-0.548-9.835-0.419-13.646,0.114C13.766,22.241,4.682,25.29,1.099,33.831c-1.643,3.913-1.328,7.542,0.18,10.732
	C4.878,55.756,13.484,67.199,26.269,66.432z M42.226,3.534c0.033-0.625,0.174-1.229,0.424-1.809
	c0.721-1.772,2.766-1.232,3.258-0.121c0.66,1.489-0.441,3.86-0.99,5.208c-0.533,1.319-1.146,2.63-1.857,3.881
	c-0.338-0.818-0.57-1.718-0.715-2.667C42.12,6.545,42.149,5.025,42.226,3.534z M24.246,11.031c-0.694-5.122,6.117-6.54,9.159-3.463
	c2.218,2.243,2.659,5.974,2.719,8.96c0.008,0.349,0.007,0.712-0.002,1.085C30.811,19.979,25.088,17.241,24.246,11.031z
	 M36.385,23.499c5.249,0.994,10.18,3.073,13.598,6.802c3.553,3.877,2.879,9.086,0.533,13.309c-0.074-3.295-2.607-5.585-5.811-6.997
	c-4.055-1.787-8.389-3.408-12.802-4.151C33.982,30.183,35.507,26.948,36.385,23.499z M49.095,45.79
	c-0.061,0.082-0.123,0.165-0.186,0.245c-1.201,1.533-2.66,2.771-4.275,3.78c-1.355-0.457-2.213-1.914-3.684-2.269
	c-1.598-0.385-2.932,0.857-3.684,2.091c-0.02,0.037-0.011,0.067,0.024,0.09c0.762,0.791,1.424,1.676,2.255,2.396
	c0.006,0.004,0.016,0.004,0.021,0.007c-1.992,0.65-4.055,1.085-6.073,1.363c-8.97,1.236-22.385-0.035-27.631-8.317
	c0.037-0.029,0.071-0.062,0.095-0.098c2.353-3.557,3.113-7.229,7.219-9.356c4.453-2.306,10.503-2.972,15.457-2.795
	c0.575,0.021,1.145,0.068,1.711,0.137c-0.862,0.722-1.834,1.286-2.929,1.636c-0.687,0.219-0.52,0.889,0.178,0.666
	c1.32-0.422,2.521-1.18,3.592-2.183c3.578,0.574,7.001,1.972,10.4,3.193c4.262,1.532,8.904,4.105,7.508,9.395
	C49.093,45.779,49.097,45.783,49.095,45.79z M43.812,50.303c-1.012,0.565-2.076,1.044-3.17,1.452
	c-0.004-0.007,0.002-0.016-0.004-0.021c-0.652-0.565-1.199-1.23-1.77-1.875c-0.561-0.638-0.049-1.139,0.453-1.632
	c0.484-0.477,1.066-0.154,1.529,0.088C41.894,48.862,42.657,49.98,43.812,50.303z M5.318,44.233
	c-0.661-1.258-1.151-2.659-1.422-4.223c-1.067-10.886,7.917-15.675,17.465-16.853c4.297-0.531,9.284-0.61,14.07,0.173
	c-0.735,3.364-2.101,6.738-4.305,9.009c-0.694-0.101-1.389-0.179-2.086-0.23c-5.06-0.377-10.746,0.708-15.457,2.546
	C8.823,36.512,7.714,40.339,5.318,44.233z M8.586,25.953c7.242-5.32,18.624-5.539,27.162-4.628c0.017,0.001,0.033,0.004,0.051,0.006
	c-0.072,0.486-0.159,0.978-0.257,1.471c-2.694-0.387-5.436-0.529-8.11-0.543c-8.245-0.042-19.015,1.647-23.383,9.607
	c-1.409,2.57-1.587,5.6-1.307,8.454c2.253,12.981,18.516,14.788,29.118,13.899c9.916-0.83,22.666-6.936,21.761-18.76
	c-0.447-5.858-6.537-9.321-11.439-11.074c-1.826-0.654-3.729-1.112-5.662-1.437c0.116-0.496,0.219-0.994,0.307-1.494
	c7.482,0.981,16.9,4.159,17.947,12.677c0.348,2.806-0.492,5.639-1.561,8.2C47.048,56.004,30.359,60.02,16.888,55.967
	c-6.377-1.92-12.159-6.291-14.644-12.597C-0.431,36.583,3.078,29.999,8.586,25.953z M4.198,48.837
	c3.965,4.349,10.063,7.392,15.28,8.476c11.013,2.293,23.886-0.836,31.226-9.441c-5.047,9.517-13.811,17.72-25.028,17.947
	C15.485,66.021,8.204,57.768,4.198,48.837z M12.239,41.108c-1.568,0.581-1.884,2.348-2.553,3.683
	c-0.101,0.202,0.409,0.142,0.468,0.134c1.519-0.208,2.899,0.256,4.015,1.284c0.159,0.146,0.678-0.002,0.946-0.171
	c0.052-0.02,0.095-0.042,0.124-0.065c1.007-0.82,1.436-1.979,1.877-3.164c0.019-0.043,0.009-0.078-0.027-0.105
	C15.59,41.66,14.161,40.396,12.239,41.108z M15.716,43.69c-0.238,0.632-0.525,1.22-0.931,1.732
	c-1.138-0.835-2.463-1.112-3.868-1.012c0.651-1.431,1.07-3.702,3.153-2.639C14.788,42.138,16.059,42.782,15.716,43.69z
	 M28.827,48.812c-0.297-1.39-3.355-2.525-4.573-2.833c-1.915-0.486-4.634,0.92-4.366,3.087c0.062,0.497,1.116,0.859,1.466,1.022
	c1.078,0.5,2.219,0.878,3.364,1.188c2.113,0.57,3.856,0.226,4.112-2.368c0.003-0.018-0.007-0.027-0.007-0.042
	C28.821,48.847,28.831,48.831,28.827,48.812z M26.237,50.763c-0.59-0.101-1.169-0.276-1.741-0.45
	c-1.113-0.34-2.263-0.746-3.25-1.374c-0.931-0.593,0.443-1.808,0.971-2.062c0.785-0.377,1.47-0.199,2.203,0.114
	c0.807,0.344,2.987,1.134,3.238,2.098C27.552,50.105,27.312,50.947,26.237,50.763z M45.259,41.353
	c-2.371-1.252-7.472,2.918-4.439,4.726c0.004,0.001,0.008,0.001,0.012,0.003c0.016,0.014,0.035,0.025,0.062,0.038
	c1.93,0.821,3.314-0.956,4.74-1.993c0.488-0.355,1.234-0.64,1.615-1.095c0.115-0.136,0.049-0.237-0.047-0.359
	C46.759,42.11,45.88,41.681,45.259,41.353z M45.626,43.382c-0.691,0.465-1.354,0.969-2.039,1.439
	c-0.617,0.42-0.906,1.127-1.727,0.801c-2.102-1.326,0.754-4.72,2.533-3.724c0.426,0.238,0.832,0.51,1.23,0.791
	C46.165,43.071,46.177,43.011,45.626,43.382z M33.384,40.356c0.763,0.629,2.066-0.299,2.555-0.893
	c1.524-1.853-1.41-4.112-3.11-4.135c-0.023,0-0.049,0.003-0.073,0.006c-0.026,0-0.045-0.007-0.074-0.005
	c-1.526,0.109-3.382,0.8-3.87,2.393c-0.067,0.219,0.228,0.305,0.374,0.331c1.095,0.191,1.962,0.168,2.79,1.019
	C32.421,39.531,32.893,39.951,33.384,40.356z M32.481,36.107c1.424,0.087,3.784,2.225,2.092,3.464
	c-0.554,0.405-1.628-1.144-2.037-1.474c-0.717-0.575-1.576-0.633-2.441-0.744C30.52,36.523,31.596,36.185,32.481,36.107z
	 M20.658,42.332c0.77-0.566,1.537-1.492,2.516-1.688c1.271-0.023,2.658,0.677,3.251-0.928c0.611-1.652-1.625-2.604-2.869-2.734
	c-2.988-0.31-7.315,2.861-3.892,5.507C19.917,42.685,20.438,42.495,20.658,42.332z M19.6,39.464c0.377-1.239,1.9-1.899,3.076-1.941
	c1.061-0.038,2.279,0.624,2.625,1.651c0.167,0.498,0.045,1.143-0.469,1.03c-0.38-0.084-0.75-0.118-1.135-0.112
	c-0.036-0.005-0.082-0.005-0.136-0.002c-0.003,0-0.006-0.001-0.009,0c-0.007,0-0.017,0.002-0.024,0.003
	c-0.04,0.003-0.07,0.002-0.121,0.01c-1.25,0.219-2.104,0.916-3.034,1.646C19.722,41.145,19.311,40.412,19.6,39.464z M33.77,41.706
	c-1.131-0.153-3.657,0.732-3.914,2.022c-0.164,0.824,0.4,1.267,1.123,1.486c0.682,0.207,1.23,0.095,1.786,0.646
	c0.393,0.389,0.664,0.787,1.13,1.075c0.022,0.025,0.053,0.048,0.101,0.068c0.022,0.013,0.049,0.021,0.077,0.028
	c1.435,0.557,3.365,0.472,3.665-1.371C38.078,43.559,35.549,41.946,33.77,41.706z M34.909,46.419
	c-0.912-0.496-1.208-1.441-2.281-1.707c-0.621-0.153-1.406-0.051-1.643-0.808c-0.187-0.6,0.784-1.047,1.172-1.224
	c1.308-0.595,2.486,0.063,3.477,0.956C36.771,44.664,37.144,47.333,34.909,46.419z M68.411,45.224
	c-0.756-1.037-3.254-0.314-4.217-0.033c-4.922,1.435-8.711,6.375-11.855,10.084c-2.625,3.098-5.121,6.381-8.072,9.182
	c-1.199,1.137-2.84,1.908-4.619,2.477c-1.57-0.098-3.404,0.369-4.406,0.836c-0.3,0.139-0.27,0.217-0.115,0.25
	c-1.072,0.203-2.111,0.381-3.052,0.566c-2.646,0.525-8.11,1.84-7.076,5.66c0.804,2.969,6.23,3.432,8.655,3.166
	c4.236-0.465,8.24-2.988,10.107-6.84c4.389-9.637,13.639-16.596,22.615-21.465C67.548,48.47,69.417,46.604,68.411,45.224z
	 M27.284,70.852c0.216-0.154,0.104-0.215-0.105-0.219c1.64-1.26,4.61-1.594,6.28-2.002c1.581-0.387,3.183-0.721,4.757-1.129
	c1.299-0.029,2.639,0.295,2.989,1.359c0.492,1.492-1.789,3.111-2.79,3.816c-0.01-0.068-0.048-0.139-0.13-0.205
	c-1.74-1.412-4.676-0.734-6.607-0.16c-0.695,0.207-3.122,1.012-3.411,2.096C26.67,73.627,25.367,72.23,27.284,70.852z M29.484,74.66
	c-0.54-0.768,2.692-1.688,3.099-1.797c1.436-0.387,3.548-0.766,4.805,0.256c0.06,0.049,0.137,0.072,0.22,0.082
	c-2.12,1.27-4.635,1.848-7.094,1.838c-0.275-0.002-0.616-0.057-0.982-0.154C29.544,74.812,29.539,74.738,29.484,74.66z
	 M67.126,47.486c-0.846,1.903-4.379,2.931-6.156,3.965s-3.434,2.277-5.037,3.562c-5.131,4.109-10.547,9.713-13.309,15.777
	c-2.596,5.352-8.911,7.621-14.292,5.162c-0.705-0.322-1.33-0.777-1.756-1.365c0.618,0.463,1.391,0.785,2.146,0.854
	c3.447,0.312,6.746-0.465,9.746-2.172c1.429-0.814,5.22-3.445,3.468-5.434c-0.434-0.492-1.104-0.756-1.863-0.859
	c1.275-0.402,2.523-0.893,3.711-1.543c3.928-2.146,6.883-7.031,9.691-10.375c1.734-2.065,3.387-4.208,5.449-5.96
	c0.902-0.765,1.943-1.41,2.895-2.115C63.55,45.702,68.681,43.991,67.126,47.486z"/>
</svg>
