<?xml version="1.0" encoding="utf-8"?>
<!-- Generator: Adobe Illustrator 16.0.4, SVG Export Plug-In . SVG Version: 6.00 Build 0)  -->
<!DOCTYPE svg PUBLIC "-//W3C//DTD SVG 1.1//EN" "http://www.w3.org/Graphics/SVG/1.1/DTD/svg11.dtd">
<svg version="1.1" id="Layer_1" xmlns="http://www.w3.org/2000/svg" xmlns:xlink="http://www.w3.org/1999/xlink" x="0px" y="0px"
	 width="251.898px" height="191.207px" viewBox="0 0 251.898 191.207" enable-background="new 0 0 251.898 191.207"
	 xml:space="preserve">
<g>
	<path fill-rule="evenodd" clip-rule="evenodd" fill="#F3859F" d="M207.5,24.356c-1.244,0-2.508,0.045-3.753,0.136
		c-4.841,0.345-11.225,1.134-17.985,1.971c-11.178,1.382-23.85,2.949-32.716,2.949c-3.192-0.001-5.021-0.212-5.995-0.388
		c-9.17-1.661-13.544-6.302-14.007-6.819l-7.148-10.651l-7.494,11.246c-0.384,0.534-3.646,4.813-10.592,6.016
		c-1.114,0.193-3.194,0.422-6.787,0.422c-9.439-0.001-22.699-1.521-34.399-2.863c-6.969-0.798-13.551-1.554-18.542-1.887
		c-1.171-0.078-2.36-0.117-3.531-0.117c-12.009-0.002-23.312,4.047-31.821,11.399C-2.372,48.812-4.819,73.704,8.654,88.666
		c-1.226,2.801-1.907,5.895-1.907,9.147c0,3.25,0.68,6.34,1.903,9.138c-22.407,24.89-0.834,64.293,35.899,64.293
		c1.172,0,2.36-0.04,3.532-0.119c4.99-0.331,11.571-1.088,18.542-1.885c11.701-1.343,24.96-2.863,34.399-2.863
		c3.592,0,5.672,0.229,6.787,0.421c6.969,1.206,10.229,5.508,10.596,6.021l6.702,11.254l7.94-10.67
		c0.485-0.539,4.859-5.157,14.003-6.813c0.974-0.177,2.803-0.388,5.995-0.388c8.866,0,21.537,1.568,32.716,2.949
		c6.76,0.836,13.145,1.623,17.987,1.972c1.243,0.089,2.505,0.134,3.751,0.134c36.666,0,58.079-39.481,35.732-64.306
		c1.224-2.798,1.903-5.888,1.903-9.138c0-3.252-0.682-6.346-1.908-9.148C265.581,63.842,244.17,24.356,207.5,24.356z"/>
	<path fill-rule="evenodd" clip-rule="evenodd" fill="#AC4A5D" d="M207.131,29.563c-0.98,0-1.968,0.038-2.968,0.11
		c-12.295,0.902-36.188,5.051-51.237,5.051c-3.041,0-5.719-0.17-7.869-0.569c-13.227-2.458-19.115-9.878-19.115-9.878
		c0,0-4.766,7.646-16.235,9.68c-2.338,0.416-5.259,0.59-8.571,0.59c-15.832,0-40.6-3.996-53.417-4.873
		c-0.94-0.065-1.876-0.096-2.802-0.096C11.697,29.575-3.071,68.639,19.45,87.963c-2.307,2.602-3.712,6.058-3.712,9.85
		c0,3.793,1.405,7.25,3.711,9.849c-22.521,19.326-7.75,58.389,25.468,58.389c0.927,0,1.859-0.032,2.802-0.098
		c12.816-0.877,37.585-4.872,53.417-4.872c3.313,0,6.232,0.173,8.571,0.589c11.469,2.033,16.235,9.681,16.235,9.681
		c0,0,5.889-7.422,19.115-9.879c2.15-0.4,4.83-0.569,7.869-0.569c15.049,0,38.94,4.149,51.237,5.051
		c0.999,0.074,1.989,0.109,2.968,0.109c33.086-0.002,47.78-39.11,25.303-58.398c2.308-2.602,3.712-6.058,3.712-9.851
		c0-3.792-1.404-7.249-3.712-9.85C254.912,68.672,240.214,29.563,207.131,29.563z"/>
	<path fill-rule="evenodd" clip-rule="evenodd" fill="#706F2E" d="M205.469,32.635c-0.96-0.001-1.928,0.035-2.906,0.104
		c-12.045,0.861-35.449,4.823-50.189,4.823c-2.978,0-5.601-0.162-7.708-0.543c-12.955-2.348-18.724-9.435-18.724-9.435
		s-4.668,7.302-15.903,9.245c-2.291,0.396-5.151,0.563-8.395,0.563c-15.508,0-39.769-3.816-52.324-4.653
		c-0.92-0.062-1.837-0.092-2.744-0.092c-32.541-0.002-47.007,37.305-24.947,55.76c-2.259,2.484-3.636,5.785-3.636,9.406
		c0,3.622,1.376,6.922,3.635,9.407c-22.061,18.455-7.591,55.76,24.947,55.76c0.908,0,1.821-0.03,2.744-0.091
		c12.554-0.838,36.815-4.654,52.324-4.654c3.246,0,6.104,0.166,8.395,0.562c11.235,1.943,15.903,9.245,15.903,9.245
		s5.769-7.088,18.724-9.435c2.105-0.383,4.732-0.543,7.708-0.543c14.74,0,38.144,3.962,50.189,4.824
		c0.979,0.068,1.947,0.103,2.906,0.103c32.409,0,46.802-37.351,24.785-55.771c2.259-2.484,3.635-5.785,3.635-9.407
		c0-3.621-1.376-6.923-3.635-9.406C252.271,69.983,237.874,32.635,205.469,32.635z"/>
	<path fill-rule="evenodd" clip-rule="evenodd" fill="#888734" d="M27.02,105.896c-3.43-1.086-5.917-4.294-5.917-8.083
		c0-3.789,2.487-6.998,5.917-8.083c-15.557-10.526-16.667-33.717-2.564-45.766c6.304-5.384,14.593-8.348,23.337-8.348
		c0.849-0.001,1.713,0.028,2.565,0.084c4.498,0.296,10.676,0.998,17.218,1.739c11.562,1.311,24.667,2.797,34.439,2.797
		c3.526-0.001,6.344-0.188,8.618-0.577c8.419-1.441,13.303-5.665,15.45-8.028c2.528,2.282,8.299,6.483,17.928,8.209
		c2.108,0.377,4.711,0.561,7.956,0.561c9.276,0,21.843-1.536,32.931-2.892c6.326-0.773,12.306-1.503,16.637-1.811
		c0.902-0.063,1.815-0.096,2.714-0.096c32.297-0.001,44.512,37.955,20.613,54.126c3.432,1.085,5.917,4.293,5.917,8.083
		c0,3.79-2.485,7-5.916,8.083c23.897,16.172,11.683,54.125-20.614,54.125c-0.898,0-1.812-0.032-2.714-0.096
		c-4.331-0.307-10.311-1.037-16.638-1.811c-11.087-1.355-23.653-2.891-32.93-2.891c-3.245,0-5.848,0.183-7.956,0.561
		c-9.629,1.726-15.399,5.927-17.928,8.207c-2.147-2.363-7.031-6.584-15.45-8.025c-2.273-0.388-5.092-0.578-8.618-0.578
		c-9.771,0-22.878,1.486-34.44,2.798c-6.541,0.741-12.72,1.442-17.217,1.738c-0.854,0.056-1.716,0.085-2.565,0.085
		C15.378,160.01,3.072,122.101,27.02,105.896z"/>
	<g>
		<g>
			<path fill-rule="evenodd" clip-rule="evenodd" fill="#706F2E" d="M43.549,35.852L15.225,59.619
				c0.396-1.867,0.973-3.698,1.733-5.463L37.283,37.1C39.312,36.509,41.409,36.091,43.549,35.852z"/>
			<path fill-rule="evenodd" clip-rule="evenodd" fill="#706F2E" d="M69.044,37.606L18.281,80.202
				c-0.517-0.924-0.979-1.873-1.389-2.843L64.834,37.13l2.743,0.31L69.044,37.606z"/>
			<path fill-rule="evenodd" clip-rule="evenodd" fill="#706F2E" d="M93.819,39.966l-72.25,60.625
				c-0.301-0.872-0.465-1.804-0.465-2.778c0-0.296,0.015-0.59,0.045-0.878l68.255-57.273C90.903,39.778,92.378,39.88,93.819,39.966z
				"/>
			<path fill-rule="evenodd" clip-rule="evenodd" fill="#706F2E" d="M128.789,33.77L14.512,129.659
				c-0.034-1.396,0.032-2.794,0.206-4.181l111.596-93.641C126.955,32.401,127.777,33.065,128.789,33.77z"/>
			<path fill-rule="evenodd" clip-rule="evenodd" fill="#706F2E" d="M148.565,40.323L20.891,147.454
				c-0.63-0.819-1.217-1.663-1.758-2.533l125.17-105.03C145.547,40.1,146.959,40.243,148.565,40.323z"/>
			<path fill-rule="evenodd" clip-rule="evenodd" fill="#706F2E" d="M178.593,38.275L35.814,158.081
				c-1.116-0.382-2.193-0.817-3.23-1.299L173.057,38.911C174.905,38.707,176.756,38.492,178.593,38.275z"/>
			<path fill-rule="evenodd" clip-rule="evenodd" fill="#706F2E" d="M209.016,35.895L62.607,158.747
				c-1.902,0.21-3.74,0.408-5.476,0.585L204.579,35.61C206.103,35.623,207.582,35.719,209.016,35.895z"/>
			<path fill-rule="evenodd" clip-rule="evenodd" fill="#706F2E" d="M227.073,43.89L93.875,155.658
				c-1.695,0.1-3.439,0.224-5.214,0.366l135.98-114.101C225.49,42.544,226.301,43.2,227.073,43.89z"/>
			<path fill-rule="evenodd" clip-rule="evenodd" fill="#706F2E" d="M236.42,59.195l-118.147,99.138
				c-0.992-0.467-2.073-0.901-3.247-1.284L235.413,56.031C235.808,57.07,236.145,58.126,236.42,59.195z"/>
			<path fill-rule="evenodd" clip-rule="evenodd" fill="#706F2E" d="M226.654,90.538l-77.137,64.725
				c-2.079,0.07-3.853,0.235-5.372,0.498l89.311-74.939c-2.031,3.347-4.874,6.391-8.594,8.909
				C225.495,89.93,226.096,90.203,226.654,90.538z"/>
			<path fill-rule="evenodd" clip-rule="evenodd" fill="#706F2E" d="M230.317,110.612l-55.217,46.332
				c-1.409-0.16-2.82-0.317-4.224-0.466l57.252-48.04C228.91,109.136,229.639,109.863,230.317,110.612z"/>
			<path fill-rule="evenodd" clip-rule="evenodd" fill="#706F2E" d="M237.356,127.854l-38.012,31.895
				c-1.323-0.117-2.755-0.264-4.267-0.43l41.881-35.142C237.172,125.394,237.306,126.621,237.356,127.854z"/>
		</g>
		<g>
			<path fill-rule="evenodd" clip-rule="evenodd" fill="#706F2E" d="M56.85,36.265L15.082,71.313
				c-0.224-1.202-0.372-2.415-0.448-3.633l37.915-31.814C53.884,35.976,55.327,36.111,56.85,36.265z"/>
			<path fill-rule="evenodd" clip-rule="evenodd" fill="#706F2E" d="M81.261,38.93L23.775,87.165
				c-0.764-0.701-1.479-1.438-2.149-2.205l55.383-46.472C78.425,38.64,79.846,38.788,81.261,38.93z"/>
			<path fill-rule="evenodd" clip-rule="evenodd" fill="#706F2E" d="M107.524,40.04l-89.108,74.771
				c2.031-3.348,4.879-6.395,8.604-8.914c-0.633-0.2-1.234-0.476-1.793-0.809l77.287-64.853
				C104.378,40.226,106.04,40.161,107.524,40.04z"/>
			<path fill-rule="evenodd" clip-rule="evenodd" fill="#706F2E" d="M137.403,38.116L16.481,139.581
				c-0.396-1.037-0.733-2.092-1.012-3.158l118.703-99.604C135.166,37.271,136.243,37.71,137.403,38.116z"/>
			<path fill-rule="evenodd" clip-rule="evenodd" fill="#706F2E" d="M162.864,39.899L27.282,153.667
				c-0.852-0.62-1.666-1.274-2.438-1.963L157.679,40.242C159.352,40.157,161.088,40.041,162.864,39.899z"/>
			<path fill-rule="evenodd" clip-rule="evenodd" fill="#706F2E" d="M194.68,36.351L47.319,160.002
				c-1.52-0.019-2.996-0.119-4.423-0.298L189.133,36.997C191.06,36.765,192.921,36.544,194.68,36.351z"/>
			<path fill-rule="evenodd" clip-rule="evenodd" fill="#706F2E" d="M219.34,38.806L78.507,156.979
				c-1.835,0.193-3.67,0.394-5.486,0.596L216.107,37.51C217.224,37.892,218.303,38.324,219.34,38.806z"/>
			<path fill-rule="evenodd" clip-rule="evenodd" fill="#706F2E" d="M232.772,50.683l-125.04,104.921
				c-1.354-0.118-2.857-0.187-4.531-0.208l127.816-107.25C231.646,48.966,232.232,49.813,232.772,50.683z"/>
			<path fill-rule="evenodd" clip-rule="evenodd" fill="#706F2E" d="M237.156,70.151L125.75,163.634
				c-0.593-0.621-1.351-1.341-2.289-2.089l113.907-95.579C237.398,67.364,237.332,68.763,237.156,70.151z"/>
			<path fill-rule="evenodd" clip-rule="evenodd" fill="#706F2E" d="M230.735,98.688l-67.968,57.032
				c-1.508-0.119-2.985-0.22-4.421-0.3l71.967-60.387c0.301,0.871,0.466,1.807,0.466,2.78
				C230.779,98.108,230.765,98.4,230.735,98.688z"/>
			<path fill-rule="evenodd" clip-rule="evenodd" fill="#706F2E" d="M235.162,118.121l-47.994,40.271l-2.271-0.277l-1.899-0.231
				l50.747-42.582C234.276,116.222,234.749,117.162,235.162,118.121z"/>
			<path fill-rule="evenodd" clip-rule="evenodd" fill="#706F2E" d="M234.446,141.868l-19.976,16.763
				c-1.954,0.559-4.019,0.958-6.187,1.182l28.209-23.671C236.007,138.1,235.321,140.021,234.446,141.868z"/>
		</g>
	</g>
	<path fill-rule="evenodd" clip-rule="evenodd" fill="#706F2E" d="M208.649,159.774v-0.35l0.366,0.307L208.649,159.774
		L208.649,159.774z M208.649,151.858v-4.008l10.69,8.969c-1.037,0.481-2.116,0.915-3.232,1.298L208.649,151.858L208.649,151.858z
		 M208.649,140.285l15.991,13.418c0.851-0.621,1.66-1.278,2.433-1.969l-18.424-15.458V140.285L208.649,140.285z M208.649,128.71
		v-4.008l24.123,20.241c-0.54,0.869-1.126,1.716-1.755,2.536L208.649,128.71L208.649,128.71z M208.649,117.139v-4.011l27.771,23.304
		c-0.276,1.067-0.613,2.125-1.008,3.164L208.649,117.139L208.649,117.139z M208.649,105.563l28.718,24.096
		c0.032-1.397-0.036-2.796-0.211-4.185l-28.507-23.921V105.563L208.649,105.563z M208.649,93.99l24.807,20.815
		c-2.03-3.347-4.874-6.392-8.593-8.908c0.632-0.2,1.232-0.474,1.792-0.807l-18.006-15.108V93.99L208.649,93.99z M208.649,82.416
		v-4.008l22.086,18.531c0.029,0.288,0.044,0.58,0.044,0.875c0,0.974-0.165,1.908-0.466,2.78L208.649,82.416L208.649,82.416z
		 M208.649,70.842l19.479,16.345c0.782-0.697,1.51-1.423,2.188-2.173l-21.668-18.181V70.842L208.649,70.842z M208.649,59.268
		l25.096,21.056c0.531-0.92,1.004-1.86,1.417-2.819l-26.513-22.246V59.268L208.649,59.268z M208.649,47.694v-4.009l28.707,24.087
		c-0.051,1.231-0.185,2.46-0.397,3.677L208.649,47.694L208.649,47.694z M208.649,36.12v-0.268c2.036,0.229,3.979,0.616,5.822,1.143
		l19.975,16.762c0.875,1.847,1.561,3.768,2.047,5.726L208.649,36.12z M208.649,35.853v0.268l-0.365-0.307L208.649,35.853
		L208.649,35.853z M208.649,43.685v4.009l-6.603-5.54v-4.009L208.649,43.685L208.649,43.685z M208.649,55.259v4.009l-6.603-5.54
		v-4.009L208.649,55.259L208.649,55.259z M208.649,66.833v4.009l-6.603-5.54v-4.009L208.649,66.833L208.649,66.833z M208.649,78.407
		v4.008l-6.603-5.54v-4.009L208.649,78.407L208.649,78.407z M208.649,89.981v4.008l-6.603-5.54v-4.008L208.649,89.981
		L208.649,89.981z M208.649,101.554v4.01l-6.603-5.541v-4.008L208.649,101.554L208.649,101.554z M208.649,113.128v4.011l-6.603-5.54
		v-4.011L208.649,113.128L208.649,113.128z M208.649,124.702v4.008l-6.603-5.54v-4.008L208.649,124.702L208.649,124.702z
		 M208.649,136.276v4.009l-6.603-5.54v-4.009L208.649,136.276L208.649,136.276z M208.649,147.851v4.008l-6.603-5.54v-4.008
		L208.649,147.851L208.649,147.851z M208.649,159.425v0.35c-1.318,0.148-2.675,0.231-4.07,0.241l-2.532-2.122v-4.009
		L208.649,159.425z M202.047,38.146v4.009l-6.969-5.847c1.514-0.167,2.944-0.312,4.267-0.43L202.047,38.146L202.047,38.146z
		 M202.047,49.719l-13.208-11.084v4.009l13.208,11.084V49.719L202.047,49.719z M202.047,61.293v4.009l-13.208-11.083V50.21
		L202.047,61.293L202.047,61.293z M202.047,72.866l-13.208-11.083v4.008l13.208,11.083V72.866L202.047,72.866z M202.047,84.441
		v4.008l-13.208-11.083v-4.008L202.047,84.441L202.047,84.441z M202.047,96.015l-13.208-11.083v4.009l13.208,11.082V96.015
		L202.047,96.015z M202.047,107.588v4.011l-13.208-11.084v-4.008L202.047,107.588L202.047,107.588z M202.047,119.162l-13.208-11.084
		v4.01l13.208,11.082V119.162L202.047,119.162z M202.047,130.736v4.009l-13.208-11.084v-4.008L202.047,130.736L202.047,130.736z
		 M202.047,142.311l-13.208-11.084v4.01l13.208,11.082V142.311L202.047,142.311z M202.047,153.885v4.009l-13.208-11.084v-4.008
		L202.047,153.885L202.047,153.885z M188.839,158.384l0.296,0.247c1.927,0.233,3.788,0.451,5.545,0.644l-5.841-4.9V158.384z
		 M188.839,38.635v4.009l-5.841-4.901l1.9-0.232l2.271-0.277L188.839,38.635L188.839,38.635z M188.839,50.21l-13.738-11.529
		l-0.365,0.042v3.663l14.104,11.833V50.21L188.839,50.21z M188.839,61.784v4.008l-14.104-11.833v-4.009L188.839,61.784
		L188.839,61.784z M188.839,73.358l-14.104-11.834v4.008l14.104,11.834V73.358L188.839,73.358z M188.839,84.931v4.009
		l-14.104-11.834v-4.009L188.839,84.931L188.839,84.931z M188.839,96.506l-14.104-11.835v4.009l14.104,11.834V96.506L188.839,96.506
		z M188.839,108.078v4.01l-14.104-11.834v-4.009L188.839,108.078L188.839,108.078z M188.839,119.653l-14.104-11.835v4.009
		l14.104,11.834V119.653L188.839,119.653z M188.839,131.227v4.01l-14.104-11.835v-4.008L188.839,131.227L188.839,131.227z
		 M188.839,142.802l-14.104-11.835v4.009l14.104,11.834V142.802L188.839,142.802z M188.839,154.374v4.01l-14.104-11.834v-4.01
		L188.839,154.374L188.839,154.374z M174.735,156.902c1.29,0.146,2.578,0.298,3.858,0.45l-3.858-3.239V156.902z M174.735,38.723
		v3.663l-3.858-3.238C172.16,39.011,173.447,38.869,174.735,38.723L174.735,38.723z M174.735,49.949l-11.967-10.043
		c-0.729,0.058-1.45,0.111-2.163,0.16v2.036l14.13,11.857V49.949L174.735,49.949z M174.735,61.524v4.008l-14.13-11.855v-4.009
		L174.735,61.524L174.735,61.524z M174.735,73.097l-14.13-11.856v4.009l14.13,11.856V73.097L174.735,73.097z M174.735,84.671v4.009
		l-14.13-11.856v-4.009L174.735,84.671L174.735,84.671z M174.735,96.245l-14.13-11.855v4.008l14.13,11.856V96.245L174.735,96.245z
		 M174.735,107.818v4.009l-14.13-11.855v-4.008L174.735,107.818L174.735,107.818z M174.735,119.394l-14.13-11.858v4.011
		l14.13,11.855V119.394L174.735,119.394z M174.735,130.967v4.009l-14.13-11.855v-4.01L174.735,130.967L174.735,130.967z
		 M174.735,142.54l-14.13-11.856v4.009l14.13,11.857V142.54L174.735,142.54z M174.735,154.113v2.789
		c-0.559-0.062-1.118-0.126-1.678-0.188l-12.452-10.448v-4.008L174.735,154.113L174.735,154.113z M160.605,155.561
		c0.744,0.051,1.499,0.106,2.26,0.166l-2.26-1.895V155.561z M160.605,40.066v2.036l-2.258-1.895
		C159.09,40.165,159.843,40.118,160.605,40.066L160.605,40.066z M160.605,49.667l-11.087-9.305
		c-1.145-0.038-2.195-0.105-3.162-0.202v1.559l14.249,11.958V49.667L160.605,49.667z M160.605,61.241v4.009l-14.249-11.958v-4.009
		L160.605,61.241L160.605,61.241z M160.605,72.815l-14.249-11.957v4.008l14.249,11.958V72.815L160.605,72.815z M160.605,84.389
		v4.008L146.356,76.44v-4.008L160.605,84.389L160.605,84.389z M160.605,95.963l-14.249-11.958v4.008l14.249,11.958V95.963
		L160.605,95.963z M160.605,107.535v4.011l-14.249-11.958v-4.009L160.605,107.535L160.605,107.535z M160.605,119.11l-14.249-11.957
		v4.008l14.249,11.959V119.11L160.605,119.11z M160.605,130.684v4.009l-14.249-11.956v-4.011L160.605,130.684L160.605,130.684z
		 M160.605,142.259l-14.249-11.957v4.008l14.249,11.957V142.259L160.605,142.259z M160.605,153.832v1.729
		c-0.993-0.068-1.971-0.128-2.927-0.177l-11.322-9.501v-4.009L160.605,153.832L160.605,153.832z M146.356,155.465
		c0.692-0.068,1.429-0.123,2.209-0.163l-2.209-1.854V155.465z M146.356,40.161v1.559l-2.211-1.854
		C144.829,39.983,145.564,40.082,146.356,40.161L146.356,40.161z M146.356,49.283l-20.231-16.976v4.009l20.231,16.976V49.283
		L146.356,49.283z M146.356,60.858v4.008l-20.231-16.976v-4.008L146.356,60.858L146.356,60.858z M146.356,72.432l-20.231-16.976
		v4.008l20.231,16.976V72.432L146.356,72.432z M146.356,84.006v4.008l-20.231-16.976v-4.009L146.356,84.006L146.356,84.006z
		 M146.356,95.579l-20.231-16.977v4.009l20.231,16.976V95.579L146.356,95.579z M146.356,107.153v4.008l-20.231-16.975v-4.009
		L146.356,107.153L146.356,107.153z M146.356,118.726l-20.231-16.975v4.009l20.231,16.977V118.726L146.356,118.726z
		 M146.356,130.302v4.008l-20.231-16.977v-4.009L146.356,130.302L146.356,130.302z M146.356,141.874l-20.231-16.975v4.008
		l20.231,16.976V141.874L146.356,141.874z M146.356,153.447v2.018c-0.731,0.074-1.415,0.162-2.054,0.271l-18.178-15.254v-4.009
		L146.356,153.447L146.356,153.447z M126.125,163.63v-4.011l2.664,2.237c-1.012,0.705-1.834,1.367-2.475,1.932L126.125,163.63
		L126.125,163.63z M126.125,152.056l8.047,6.752c0.994-0.454,2.071-0.891,3.231-1.297l-11.278-9.465V152.056z M126.125,32.307v4.009
		l-2.665-2.235c0.938-0.749,1.696-1.469,2.289-2.089L126.125,32.307L126.125,32.307z M126.125,43.882v4.008l-4.217-3.539v-4.008
		L126.125,43.882L126.125,43.882z M126.125,55.456v4.008l-4.217-3.539v-4.008L126.125,55.456L126.125,55.456z M126.125,67.029v4.009
		l-4.217-3.539v-4.009L126.125,67.029L126.125,67.029z M126.125,78.603v4.009l-4.217-3.539v-4.008L126.125,78.603L126.125,78.603z
		 M126.125,90.177v4.009l-4.217-3.539v-4.008L126.125,90.177L126.125,90.177z M126.125,101.751v4.009l-4.217-3.538v-4.011
		L126.125,101.751L126.125,101.751z M126.125,113.324v4.009l-4.217-3.537v-4.009L126.125,113.324L126.125,113.324z M126.125,124.899
		v4.008l-4.217-3.538v-4.01L126.125,124.899L126.125,124.899z M126.125,136.473v4.009l-4.217-3.537v-4.011L126.125,136.473
		L126.125,136.473z M126.125,148.046v4.01l-4.217-3.54v-4.008L126.125,148.046L126.125,148.046z M126.125,159.619v4.011
		l-4.217-3.539v-4.009L126.125,159.619z M121.908,40.344v4.008l-6.882-5.774c1.173-0.383,2.254-0.818,3.247-1.285L121.908,40.344
		L121.908,40.344z M121.908,51.917l-14.176-11.895c-0.743,0.064-1.532,0.114-2.369,0.149v1.872l16.545,13.882V51.917L121.908,51.917
		z M121.908,63.491V67.5l-16.545-13.882v-4.009L121.908,63.491L121.908,63.491z M121.908,75.065l-16.545-13.883v4.009l16.545,13.882
		V75.065L121.908,75.065z M121.908,86.639v4.008l-16.545-13.882v-4.009L121.908,86.639L121.908,86.639z M121.908,98.211
		L105.363,84.33v4.009l16.545,13.883V98.211L121.908,98.211z M121.908,109.787v4.009l-16.545-13.884v-4.007L121.908,109.787
		L121.908,109.787z M121.908,121.359l-16.545-13.882v4.009l16.545,13.883V121.359L121.908,121.359z M121.908,132.934v4.011
		l-16.545-13.884v-4.008L121.908,132.934L121.908,132.934z M121.908,144.508l-16.545-13.884v4.011l16.545,13.881V144.508
		L121.908,144.508z M121.908,156.082v4.009l-16.545-13.882v-4.01L121.908,156.082L121.908,156.082z M105.363,155.454
		c0.76,0.032,1.48,0.076,2.162,0.132l-2.162-1.813V155.454z M91.241,153.497l2.579,2.163c-0.849,0.05-1.709,0.105-2.579,0.169
		V153.497L91.241,153.497z M105.363,40.171v1.872l-2.162-1.814C103.957,40.22,104.677,40.2,105.363,40.171L105.363,40.171z
		 M105.363,49.608l-11.488-9.639c-0.867-0.051-1.746-0.108-2.635-0.171v1.969l14.123,11.851V49.608L105.363,49.608z M105.363,61.182
		v4.009L91.241,53.34v-4.008L105.363,61.182L105.363,61.182z M105.363,72.756l-14.123-11.85v4.008l14.123,11.851V72.756
		L105.363,72.756z M105.363,84.33v4.009L91.241,76.488v-4.009L105.363,84.33L105.363,84.33z M105.363,95.905L91.241,84.053v4.009
		l14.123,11.85V95.905L105.363,95.905z M105.363,107.478v4.009l-14.123-11.85v-4.01L105.363,107.478L105.363,107.478z
		 M105.363,119.053l-14.123-11.851v4.009l14.123,11.85V119.053L105.363,119.053z M105.363,130.624v4.011l-14.123-11.852v-4.009
		L105.363,130.624L105.363,130.624z M105.363,142.199l-14.123-11.851v4.01l14.123,11.851V142.199L105.363,142.199z M105.363,153.772
		l-14.123-11.85v4.009l11.273,9.459c1.008,0.006,1.957,0.025,2.85,0.063V153.772z M83.42,146.937l7.82,6.561v2.332
		c-0.607,0.042-1.22,0.089-1.836,0.136l-5.984-5.021V146.937L83.42,146.937z M91.241,39.798v1.969l-2.579-2.165
		C89.529,39.673,90.39,39.737,91.241,39.798L91.241,39.798z M91.241,49.332v4.008l-7.82-6.562V42.77L91.241,49.332L91.241,49.332z
		 M91.241,60.906v4.008l-7.82-6.561v-4.01L91.241,60.906L91.241,60.906z M91.241,72.479v4.009l-7.82-6.562v-4.009L91.241,72.479
		L91.241,72.479z M91.241,84.053v4.009L83.42,81.5v-4.009L91.241,84.053L91.241,84.053z M91.241,95.626v4.01l-7.82-6.562v-4.009
		L91.241,95.626L91.241,95.626z M91.241,107.202v4.009l-7.82-6.562v-4.009L91.241,107.202L91.241,107.202z M91.241,118.774v4.009
		l-7.82-6.562v-4.009L91.241,118.774L91.241,118.774z M91.241,130.349v4.01l-7.82-6.562v-4.008L91.241,130.349L91.241,130.349z
		 M91.241,141.923v4.009l-7.82-6.562v-4.011L91.241,141.923z M77.142,141.666l6.279,5.271v4.008l-6.279-5.27V141.666L77.142,141.666
		z M83.42,42.77v4.008l-6.279-5.268v-3.008l1.366,0.145L83.42,42.77L83.42,42.77z M83.42,54.344v4.01l-6.279-5.27v-4.008
		L83.42,54.344L83.42,54.344z M83.42,65.917v4.009l-6.279-5.268v-4.009L83.42,65.917L83.42,65.917z M83.42,77.491V81.5l-6.279-5.268
		v-4.01L83.42,77.491L83.42,77.491z M83.42,89.065v4.009l-6.279-5.269v-4.009L83.42,89.065L83.42,89.065z M83.42,100.64v4.009
		l-6.279-5.269v-4.009L83.42,100.64L83.42,100.64z M83.42,112.213v4.009l-6.279-5.267v-4.011L83.42,112.213L83.42,112.213z
		 M83.42,123.788v4.008l-6.279-5.268v-4.011L83.42,123.788L83.42,123.788z M83.42,135.359v4.011l-6.279-5.27v-4.008L83.42,135.359
		L83.42,135.359z M77.142,157.123v-3.882l4.121,3.456C79.89,156.834,78.515,156.977,77.142,157.123z M57.462,125.153l19.68,16.513
		v4.009l-19.68-16.513V125.153L57.462,125.153z M77.142,38.503v3.008l-4.12-3.457C74.388,38.206,75.763,38.356,77.142,38.503
		L77.142,38.503z M77.142,49.076L62.608,36.881c-1.783-0.198-3.508-0.386-5.146-0.554v0.244l19.68,16.513V49.076L77.142,49.076z
		 M77.142,60.649v4.009l-19.68-16.514v-4.008L77.142,60.649L77.142,60.649z M77.142,72.223L57.462,55.71v4.008l19.68,16.514V72.223
		L77.142,72.223z M77.142,83.797v4.009l-19.68-16.513v-4.009L77.142,83.797L77.142,83.797z M77.142,95.371l-19.68-16.514v4.009
		l19.68,16.513V95.371L77.142,95.371z M77.142,106.944v4.011l-19.68-16.516V90.43L77.142,106.944L77.142,106.944z M77.142,118.518
		l-19.68-16.513v4.009l19.68,16.515V118.518L77.142,118.518z M77.142,130.093l-19.68-16.514v4.008l19.68,16.514V130.093
		L77.142,130.093z M77.142,153.241l-19.68-16.516v4.011l19.548,16.4l0.132-0.014V153.241L77.142,153.241z M57.462,152.31v-4.01
		l11.583,9.72l-1.469,0.167l-2.741,0.312L57.462,152.31z M49.877,118.789l7.584,6.364v4.009l-7.584-6.364V118.789L49.877,118.789z
		 M57.462,36.327v0.244l-0.331-0.277L57.462,36.327L57.462,36.327z M57.462,44.136v4.008l-7.584-6.363v-4.009L57.462,44.136
		L57.462,44.136z M57.462,55.71v4.008l-7.584-6.363v-4.009L57.462,55.71L57.462,55.71z M57.462,67.283v4.009l-7.584-6.364v-4.009
		L57.462,67.283L57.462,67.283z M57.462,78.857v4.009l-7.584-6.364v-4.009L57.462,78.857L57.462,78.857z M57.462,90.43v4.009
		l-7.584-6.364v-4.008L57.462,90.43L57.462,90.43z M57.462,102.005v4.009l-7.584-6.362v-4.01L57.462,102.005L57.462,102.005z
		 M57.462,113.579v4.008l-7.584-6.364v-4.008L57.462,113.579L57.462,113.579z M57.462,136.726v4.011l-7.584-6.365v-4.011
		L57.462,136.726L57.462,136.726z M57.462,148.3v4.01l-7.584-6.364v-4.008L57.462,148.3L57.462,148.3z M49.877,157.518v-4.009
		l6.973,5.853c-1.524,0.153-2.966,0.289-4.302,0.398L49.877,157.518z M43.232,113.213l6.645,5.576v4.009l-6.645-5.576V113.213
		L43.232,113.213z M49.877,37.771v4.009l-6.645-5.576v-0.316c1.344-0.162,2.706-0.251,4.081-0.269L49.877,37.771L49.877,37.771z
		 M49.877,49.346v4.009l-6.645-5.576V43.77L49.877,49.346L49.877,49.346z M49.877,60.919v4.009l-6.645-5.576v-4.009L49.877,60.919
		L49.877,60.919z M49.877,72.494v4.009l-6.645-5.577v-4.008L49.877,72.494L49.877,72.494z M49.877,84.067v4.008l-6.645-5.576v-4.008
		L49.877,84.067L49.877,84.067z M49.877,95.641v4.01l-6.645-5.577v-4.009L49.877,95.641L49.877,95.641z M49.877,107.215v4.008
		l-6.645-5.576v-4.008L49.877,107.215L49.877,107.215z M49.877,130.36v4.011l-6.645-5.576v-4.008L49.877,130.36L49.877,130.36z
		 M49.877,141.938v4.008l-6.645-5.575v-4.009L49.877,141.938L49.877,141.938z M49.877,153.509v4.009l-6.645-5.576v-4.008
		L49.877,153.509L49.877,153.509z M43.232,159.748v-0.238l0.328,0.273L43.232,159.748z M38.977,109.643l4.255,3.57v4.009
		l-4.255-3.57V109.643L38.977,109.643z M43.232,35.888v0.316l-0.328-0.275L43.232,35.888L43.232,35.888z M43.232,43.77v4.009
		l-4.255-3.571V40.2L43.232,43.77L43.232,43.77z M43.232,55.343v4.009l-4.255-3.571v-4.008L43.232,55.343L43.232,55.343z
		 M43.232,66.917v4.008l-4.255-3.569v-4.009L43.232,66.917L43.232,66.917z M43.232,78.491v4.008l-4.255-3.57V74.92L43.232,78.491
		L43.232,78.491z M43.232,90.065v4.009l-4.255-3.571v-4.008L43.232,90.065L43.232,90.065z M43.232,101.639v4.008l-4.255-3.569
		v-4.009L43.232,101.639L43.232,101.639z M43.232,124.787v4.008l-4.255-3.57v-4.01L43.232,124.787L43.232,124.787z M43.232,136.361
		v4.009l-4.255-3.57v-4.011L43.232,136.361L43.232,136.361z M43.232,147.934v4.008l-4.255-3.57v-4.008L43.232,147.934
		L43.232,147.934z M43.232,159.51v0.238c-1.467-0.172-2.887-0.426-4.255-0.753v-3.058L43.232,159.51z M21.148,98.69
		c-0.03-0.288-0.045-0.58-0.045-0.877c0-0.972,0.164-1.907,0.466-2.777l17.408,14.606v4.009L21.148,98.69L21.148,98.69z
		 M38.977,40.2v4.008l-6.403-5.373c1.06-0.478,2.146-0.904,3.254-1.278L38.977,40.2L38.977,40.2z M38.977,51.773l-11.797-9.9
		c-0.864,0.597-1.701,1.232-2.505,1.907l14.302,12.001V51.773L38.977,51.773z M38.977,63.347v4.009L18.869,50.484
		c0.538-0.87,1.126-1.713,1.766-2.528L38.977,63.347L38.977,63.347z M38.977,74.92L16.282,55.877
		c-0.376,1.055-0.69,2.13-0.941,3.218l23.636,19.833V74.92L38.977,74.92z M38.977,86.495l-24.4-20.475
		c0.01,1.437,0.124,2.872,0.338,4.292l24.062,20.191V86.495L38.977,86.495z M38.977,98.068L18.85,81.179
		c2.017,3.296,4.743,6.232,8.171,8.552c-0.633,0.2-1.235,0.473-1.794,0.809l13.75,11.538V98.068L38.977,98.068z M38.977,121.215
		L23.751,108.44c-0.781,0.697-1.51,1.423-2.189,2.172l17.415,14.612V121.215L38.977,121.215z M38.977,132.789v4.011l-22.264-18.683
		c0.413-0.957,0.887-1.899,1.419-2.817L38.977,132.789L38.977,132.789z M38.977,144.363v4.008l-24.456-20.52
		c0.049-1.231,0.182-2.46,0.394-3.678L38.977,144.363L38.977,144.363z M38.977,155.938L15.4,136.153
		c0.495,1.97,1.189,3.898,2.078,5.753l19.842,16.65c0.543,0.159,1.096,0.306,1.657,0.438V155.938z"/>
	<g>
		<path fill="#FFFFFF" d="M47.766,104.477c0,4.509-1.664,7.889-4.992,10.142c-2.85,1.936-6.637,2.902-11.36,2.902H15.451V71.566
			h17.206c3.95,0,7.022,0.908,9.216,2.722c2.394,1.956,3.591,4.867,3.591,8.736c0,2.573-0.721,4.797-2.161,6.672
			c-1.5,1.955-3.5,3.141-6,3.56C44.279,94.174,47.766,97.914,47.766,104.477z M35.898,84.73c0-4.368-2.392-6.552-7.174-6.552h-3.319
			v12.925h3.378C33.526,91.103,35.898,88.978,35.898,84.73z M37.482,103.788c0-4.408-2.551-6.612-7.653-6.612h-4.424v13.733h4.963
			C35.111,110.909,37.482,108.535,37.482,103.788z"/>
		<path fill="#FFFFFF" d="M64.926,79.045H55.21v-7.479h9.716V79.045z M64.926,117.521H55.21V82.546h9.716V117.521z"/>
		<path fill="#FFFFFF" d="M96.165,106.87c0,4.108-1.575,7.13-4.724,9.065c-2.571,1.594-6.039,2.394-10.403,2.394
			c-4.105,0-7.473-0.719-10.104-2.155l1.136-5.773c2.85,1.516,5.59,2.272,8.221,2.272c1.733,0,3.268-0.279,4.604-0.836
			c1.753-0.738,2.63-1.885,2.63-3.442c0-1.614-0.917-2.9-2.75-3.859c-0.458-0.239-2.073-0.788-4.843-1.645
			c-2.89-0.897-4.973-2.185-6.248-3.86c-1.335-1.734-2.003-4.087-2.003-7.06c0-3.43,1.355-6.033,4.066-7.809
			c2.292-1.495,5.241-2.243,8.848-2.243c3.727,0,6.916,0.678,9.566,2.034l-0.807,5.236c-2.073-1.137-4.833-1.705-8.28-1.705
			c-1.476,0-2.741,0.229-3.797,0.688c-1.475,0.639-2.212,1.576-2.212,2.812c0,1.396,0.876,2.463,2.63,3.201
			c0.12,0.06,1.595,0.509,4.425,1.347c3.388,1.017,5.819,2.264,7.294,3.739C95.247,101.105,96.165,103.638,96.165,106.87z"/>
		<path fill="#FFFFFF" d="M128.359,115.517c-1.036,0.679-2.615,1.315-4.737,1.914c-2.122,0.6-3.882,0.898-5.276,0.898
			c-12.337,0-18.504-6.134-18.504-18.4c0-5.764,1.604-10.257,4.812-13.478c3.208-3.221,7.692-4.832,13.452-4.832
			c4.225,0,7.493,0.807,9.806,2.423l-0.896,5.864c-1.875-1.476-4.355-2.214-7.444-2.214c-6.118,0-9.177,4.139-9.177,12.416
			c0,7.859,2.69,11.789,8.071,11.789c1.275,0,2.835-0.229,4.678-0.689c1.843-0.458,3.203-0.956,4.081-1.496L128.359,115.517z"/>
		<path fill="#FFFFFF" d="M164.442,117.521h-8.879l-0.598-5.446c-3.09,4.13-7.115,6.193-12.077,6.193
			c-5.839,0-8.76-3.76-8.76-11.278V82.546h9.688v23.516c0,3.151,1.323,4.726,3.975,4.726c3.069,0,5.4-1.105,6.995-3.32V82.546h9.656
			V117.521z"/>
		<path fill="#FFFFFF" d="M183.156,79.045h-9.716v-7.479h9.716V79.045z M183.156,117.521h-9.716V82.546h9.716V117.521z"/>
		<path fill="#FFFFFF" d="M211.973,116.145c-2.133,1.117-4.992,1.676-8.58,1.676c-3.447,0-6.077-1.158-7.891-3.471
			c-1.675-2.114-2.511-4.938-2.511-8.468V88.709h-4.604v-6.163h4.604v-4.428l9.745-5.864v10.292h7.265v6.163h-7.265v17.771
			c0,1.795,0.289,3.081,0.866,3.858c0.678,0.938,1.874,1.407,3.588,1.407c1.534,0,2.661-0.169,3.378-0.508L211.973,116.145z"/>
		<path fill="#FFFFFF" d="M238.52,106.87c0,4.108-1.575,7.13-4.724,9.065c-2.57,1.594-6.039,2.394-10.402,2.394
			c-4.106,0-7.474-0.719-10.104-2.155l1.136-5.773c2.85,1.516,5.59,2.272,8.222,2.272c1.733,0,3.268-0.279,4.603-0.836
			c1.754-0.738,2.632-1.885,2.632-3.442c0-1.614-0.918-2.9-2.752-3.859c-0.458-0.239-2.072-0.788-4.841-1.645
			c-2.891-0.897-4.975-2.185-6.249-3.86c-1.335-1.734-2.003-4.087-2.003-7.06c0-3.43,1.355-6.033,4.066-7.809
			c2.291-1.495,5.24-2.243,8.849-2.243c3.726,0,6.914,0.678,9.564,2.034l-0.807,5.236c-2.073-1.137-4.833-1.705-8.28-1.705
			c-1.475,0-2.74,0.229-3.797,0.688c-1.474,0.639-2.212,1.576-2.212,2.812c0,1.396,0.877,2.463,2.63,3.201
			c0.12,0.06,1.595,0.509,4.425,1.347c3.389,1.017,5.82,2.264,7.294,3.739C237.602,101.105,238.52,103.638,238.52,106.87z"/>
	</g>
	<g>
		<path fill="#F9E6BE" d="M82.897,141.604c0,1.248,0.424,1.871,1.272,1.871c0.132,0,0.333-0.017,0.598-0.049
			c0.266-0.034,0.465-0.052,0.599-0.052c0.216,0,0.403,0.079,0.561,0.233c0.158,0.157,0.237,0.341,0.237,0.554
			c0,0.574-0.374,0.859-1.122,0.859c-0.034,0-0.083,0-0.15,0c-0.083-0.017-0.141-0.023-0.175-0.023l-1.222-0.175
			c-0.465-0.067-0.989-0.102-1.571-0.102c-0.631,0-1.189,0.034-1.671,0.102l-1.247,0.175c-0.05,0-0.108,0.007-0.175,0.023
			c-0.083,0-0.141,0-0.174,0c-0.732,0-1.097-0.285-1.097-0.859c0-0.524,0.266-0.787,0.798-0.787c0.133,0,0.333,0.018,0.599,0.052
			c0.266,0.032,0.466,0.049,0.599,0.049c0.831,0,1.247-0.623,1.247-1.871v-1.744v-2.195v-2.12v-4.064
			c0-1.179-0.607-1.771-1.821-1.771h-0.773c-1.197,0-1.795,0.583-1.795,1.746c0,0.418,0.008,0.699,0.025,0.848l0.1,0.924
			c0.017,0.15,0.025,0.358,0.025,0.622c0,1.049-0.324,1.571-0.973,1.571c-0.615,0-0.922-0.382-0.922-1.147
			c0-0.214,0.024-0.589,0.075-1.121c0.033-0.797,0.05-1.305,0.05-1.521c0-0.415-0.014-0.848-0.042-1.298
			c-0.056-0.88-0.083-1.256-0.083-1.121c0-0.699,0.315-1.049,0.946-1.049c0.232,0,0.771,0.025,1.618,0.076
			c0.083,0,0.764,0.032,2.042,0.099h2.838c0.332,0,1.22-0.014,2.664-0.043c0.315,0,0.855-0.021,1.618-0.065
			c0.68-0.044,1.212-0.066,1.593-0.066c0.83,0,1.245,0.342,1.245,1.023v0.05c0,0.166-0.021,0.473-0.062,0.923
			c-0.042,0.448-0.087,0.932-0.137,1.446v0.273c0,0.25,0.025,0.641,0.075,1.173c0.066,0.698,0.1,1.132,0.1,1.298
			c0,0.682-0.324,1.021-0.973,1.021c-0.632,0-0.948-0.416-0.948-1.252c0-0.3,0.025-0.747,0.075-1.34
			c0.05-0.592,0.075-1.04,0.075-1.339c0-1.153-0.657-1.73-1.97-1.73h-0.698c-0.615,0-1.056,0.13-1.322,0.389
			c-0.266,0.258-0.416,0.686-0.449,1.284l-0.1,1.744V141.604z"/>
		<path fill="#F9E6BE" d="M93.62,131.579c0-1.23-0.424-1.846-1.271-1.846c-0.233,0-0.408,0.019-0.524,0.051
			c-0.266,0.051-0.491,0.073-0.673,0.073c-0.216,0-0.4-0.077-0.549-0.236c-0.15-0.156-0.225-0.353-0.225-0.586
			c0-0.581,0.348-0.873,1.044-0.873c0.016,0,0.14,0.009,0.372,0.025c2.485,0.166,3.645,0.249,3.479,0.249h0.248l5.989-0.173
			c0.116,0,0.547-0.025,1.293-0.076c0.264-0.017,0.505-0.025,0.72-0.025c0.862,0,1.293,0.383,1.293,1.147
			c0,0.134-0.024,0.558-0.071,1.272c-0.036,0.531-0.054,1.022-0.054,1.471c0,0.584,0.014,0.989,0.042,1.222
			c0.056,0.483,0.083,0.841,0.083,1.074c0,0.631-0.299,0.947-0.897,0.947s-0.898-0.442-0.898-1.329v-1.302
			c0-1.403-0.29-2.229-0.87-2.48c-0.431-0.185-1.542-0.276-3.331-0.276c-1.177,0-1.873,0.025-2.088,0.076
			c-0.713,0.186-1.069,0.692-1.069,1.521v1.122c0,0.133,0,0.315,0,0.549c0,0.232,0,0.398,0,0.497v0.325
			c0,0.666,0.147,1.048,0.442,1.147c0.115,0.034,0.312,0.05,0.591,0.05h1.008c1.033,0,1.55-0.356,1.55-1.072
			c0-0.198-0.021-0.457-0.062-0.772s-0.062-0.599-0.062-0.849c0-0.665,0.295-0.997,0.885-0.997c0.59,0,0.885,0.357,0.885,1.071
			c0,0.134-0.053,0.649-0.162,1.547c-0.091,0.765-0.138,1.438-0.138,2.02c0,0.332,0.034,0.924,0.1,1.772
			c0.017,0.131,0.059,0.423,0.125,0.87c0.05,0.366,0.075,0.659,0.075,0.874c0,0.599-0.299,0.897-0.897,0.897
			c-0.583,0-0.873-0.35-0.873-1.048c0-0.183,0.021-0.448,0.062-0.797c0.042-0.351,0.062-0.616,0.062-0.797
			c0-0.717-0.474-1.074-1.422-1.074h-1.122c-0.482,0-0.777,0.083-0.885,0.249c-0.108,0.168-0.162,0.524-0.162,1.073v1.546
			c0,0.266,0.009,0.623,0.025,1.071c0.016,0.549,0.025,0.915,0.025,1.1c0.017,0.664,0.15,1.08,0.399,1.246
			c0.183,0.115,0.615,0.175,1.296,0.175h3.392c0.98,0,1.654-0.146,2.021-0.437c0.365-0.292,0.548-0.837,0.548-1.634
			c0-0.25-0.012-0.619-0.037-1.11c-0.025-0.49-0.038-0.859-0.038-1.109c0-0.748,0.295-1.121,0.886-1.121
			c0.624,0,0.935,0.382,0.935,1.146c0,0.298-0.013,0.756-0.038,1.371s-0.038,1.072-0.038,1.371c0,0.232,0.013,0.579,0.038,1.035
			c0.025,0.459,0.038,0.803,0.038,1.036c0,0.78-0.383,1.171-1.147,1.171c-0.183,0-0.474-0.019-0.873-0.056
			c-0.2-0.021-0.565-0.029-1.097-0.029c0.116,0-0.532-0.021-1.945-0.056c-1.414-0.04-2.636-0.058-3.666-0.058
			c-1.563,0-3.092,0.058-4.589,0.175c-0.066,0-0.142,0.007-0.225,0.023c-0.083,0-0.133,0-0.15,0c-0.698,0-1.047-0.3-1.047-0.897
			c0-0.531,0.258-0.799,0.773-0.799c0.083,0,0.307,0.019,0.673,0.05c0.183,0.052,0.357,0.075,0.524,0.075
			c0.847,0,1.271-0.622,1.271-1.869V131.579z"/>
		<path fill="#F9E6BE" d="M114.056,129.284l6.696,13.941v-10.05c0-1.298-0.008-2.012-0.025-2.146
			c-0.15-0.864-0.566-1.297-1.247-1.297c-0.133,0-0.333,0.022-0.598,0.062c-0.266,0.042-0.465,0.062-0.599,0.062
			c-0.217,0-0.403-0.077-0.561-0.236c-0.159-0.156-0.237-0.345-0.237-0.561c0-0.599,0.375-0.898,1.123-0.898
			c0.15,0,0.257,0.009,0.325,0.025l1.122,0.149c0.499,0.067,0.964,0.1,1.396,0.1s1.006-0.046,1.721-0.137
			c0.25-0.029,0.54-0.067,0.873-0.114c0.034,0,0.091-0.007,0.175-0.023c0.066,0,0.125,0,0.174,0c0.715,0,1.073,0.286,1.073,0.86
			c0,0.558-0.339,0.835-1.015,0.835c-0.119,0-0.212,0-0.28,0h-0.253c-0.508,0-0.838,0.108-0.991,0.325s-0.246,0.689-0.279,1.42
			v1.417v2.54v6.647c0,1.146-0.13,1.951-0.389,2.417c-0.258,0.463-0.706,0.695-1.34,0.695c-0.818,0-1.512-0.58-2.08-1.744
			l-6.565-13.593v11.598c0,1.247,0.423,1.869,1.271,1.869c0.133,0,0.333-0.012,0.599-0.036c0.266-0.025,0.465-0.039,0.599-0.039
			c0.532,0,0.797,0.268,0.797,0.8c0,0.565-0.374,0.847-1.122,0.847c-0.034,0-0.083,0-0.15,0c-0.083-0.017-0.141-0.023-0.174-0.023
			l-1.023-0.15c-0.565-0.082-1.097-0.126-1.596-0.126c-0.433,0-0.989,0.044-1.671,0.126l-1.222,0.15
			c-0.034,0-0.092,0.007-0.175,0.023c-0.083,0-0.149,0-0.2,0c-0.715,0-1.072-0.291-1.072-0.872c0-0.516,0.266-0.774,0.797-0.774
			c0.083,0,0.308,0.018,0.674,0.052c0.182,0.049,0.357,0.073,0.523,0.073c0.848,0,1.271-0.622,1.271-1.87v-1.744v-2.195v-2.146
			v-3.939c0-1.246-0.429-1.871-1.287-1.871c-0.115,0-0.28,0.019-0.495,0.051c-0.313,0.051-0.545,0.073-0.693,0.073
			c-0.528,0-0.792-0.273-0.792-0.822c0-0.581,0.356-0.873,1.07-0.873c0.099,0,0.232,0.009,0.398,0.025
			c0.829,0.083,1.468,0.124,1.917,0.124c0.249,0,0.622-0.025,1.12-0.073c0.498-0.051,0.871-0.076,1.121-0.076
			c0.515,0,0.854,0.175,1.021,0.525L114.056,129.284z"/>
		<path fill="#F9E6BE" d="M129.456,131.579c0-1.247-0.425-1.871-1.272-1.871c-0.148,0-0.324,0.015-0.524,0.04
			c-0.298,0.041-0.523,0.062-0.673,0.062c-0.516,0-0.773-0.262-0.773-0.787c0-0.574,0.375-0.86,1.122-0.86
			c0.083,0,0.191,0.009,0.324,0.025l1.323,0.176c0.498,0.065,1.03,0.099,1.596,0.099c0.465,0,0.932-0.025,1.396-0.074l1.621-0.175
			c0.314-0.032,0.731-0.051,1.246-0.051c1.513,0,2.776,0.217,3.791,0.649c1.33,0.564,2.382,1.547,3.154,2.942
			c0.773,1.396,1.16,3.019,1.16,4.863c0,1.629-0.308,3.096-0.922,4.401c-0.616,1.305-1.456,2.265-2.519,2.88
			c-1.281,0.748-2.827,1.122-4.64,1.122c-0.366,0-0.74-0.017-1.122-0.05l-1.721-0.148c-0.582-0.051-1.188-0.077-1.821-0.077
			c-0.548,0-0.997,0.026-1.346,0.077l-1.198,0.175c-0.033,0-0.091,0.007-0.174,0.023c-0.083,0-0.149,0-0.199,0
			c-0.715,0-1.072-0.291-1.072-0.872c0-0.232,0.075-0.43,0.225-0.586c0.15-0.159,0.332-0.238,0.548-0.238
			c0.182,0,0.408,0.025,0.673,0.076c0.118,0.032,0.292,0.049,0.524,0.049c0.848,0,1.272-0.622,1.272-1.869V131.579z
			 M131.551,131.303v10.528c0,0.765,0.374,1.228,1.122,1.395c0.249,0.066,0.947,0.099,2.095,0.099c1.995,0,3.441-0.539,4.339-1.616
			c1.081-1.295,1.621-3.004,1.621-5.128c0-1.66-0.328-3.067-0.984-4.221c-0.657-1.152-1.56-1.896-2.707-2.228
			c-0.731-0.215-1.612-0.322-2.643-0.322c-1.313,0-2.116,0.073-2.406,0.224C131.696,130.183,131.551,130.604,131.551,131.303z"/>
		<path fill="#F9E6BE" d="M147.609,131.579c0-1.23-0.424-1.846-1.271-1.846c-0.232,0-0.406,0.019-0.523,0.051
			c-0.266,0.051-0.49,0.073-0.673,0.073c-0.216,0-0.399-0.077-0.548-0.236c-0.149-0.156-0.227-0.353-0.227-0.586
			c0-0.581,0.349-0.873,1.045-0.873c0.017,0,0.141,0.009,0.373,0.025c2.485,0.166,3.645,0.249,3.479,0.249h0.249l5.989-0.173
			c0.115,0,0.547-0.025,1.292-0.076c0.265-0.017,0.505-0.025,0.722-0.025c0.861,0,1.291,0.383,1.291,1.147
			c0,0.134-0.023,0.558-0.07,1.272c-0.036,0.531-0.054,1.022-0.054,1.471c0,0.584,0.014,0.989,0.041,1.222
			c0.056,0.483,0.083,0.841,0.083,1.074c0,0.631-0.299,0.947-0.896,0.947c-0.599,0-0.898-0.442-0.898-1.329v-1.302
			c0-1.403-0.29-2.229-0.869-2.48c-0.432-0.185-1.542-0.276-3.33-0.276c-1.177,0-1.873,0.025-2.088,0.076
			c-0.714,0.186-1.069,0.692-1.069,1.521v1.122c0,0.133,0,0.315,0,0.549c0,0.232,0,0.398,0,0.497v0.325
			c0,0.666,0.146,1.048,0.442,1.147c0.115,0.034,0.312,0.05,0.59,0.05h1.009c1.032,0,1.55-0.356,1.55-1.072
			c0-0.198-0.021-0.457-0.062-0.772c-0.041-0.315-0.062-0.599-0.062-0.849c0-0.665,0.294-0.997,0.885-0.997
			c0.59,0,0.886,0.357,0.886,1.071c0,0.134-0.054,0.649-0.162,1.547c-0.092,0.765-0.138,1.438-0.138,2.02
			c0,0.332,0.033,0.924,0.1,1.772c0.017,0.131,0.059,0.423,0.125,0.87c0.05,0.366,0.075,0.659,0.075,0.874
			c0,0.599-0.3,0.897-0.899,0.897c-0.581,0-0.871-0.35-0.871-1.048c0-0.183,0.021-0.448,0.062-0.797
			c0.042-0.351,0.062-0.616,0.062-0.797c0-0.717-0.474-1.074-1.422-1.074h-1.121c-0.483,0-0.778,0.083-0.885,0.249
			c-0.109,0.168-0.163,0.524-0.163,1.073v1.546c0,0.266,0.008,0.623,0.025,1.071c0.017,0.549,0.024,0.915,0.024,1.1
			c0.018,0.664,0.149,1.08,0.398,1.246c0.184,0.115,0.615,0.175,1.297,0.175h3.393c0.979,0,1.653-0.146,2.019-0.437
			c0.366-0.292,0.549-0.837,0.549-1.634c0-0.25-0.012-0.619-0.036-1.11c-0.026-0.49-0.038-0.859-0.038-1.109
			c0-0.748,0.294-1.121,0.886-1.121c0.623,0,0.935,0.382,0.935,1.146c0,0.298-0.013,0.756-0.038,1.371
			c-0.023,0.615-0.036,1.072-0.036,1.371c0,0.232,0.013,0.579,0.036,1.035c0.025,0.459,0.038,0.803,0.038,1.036
			c0,0.78-0.383,1.171-1.147,1.171c-0.182,0-0.473-0.019-0.872-0.056c-0.199-0.021-0.565-0.029-1.099-0.029
			c0.117,0-0.531-0.021-1.944-0.056c-1.413-0.04-2.635-0.058-3.665-0.058c-1.562,0-3.093,0.058-4.589,0.175
			c-0.067,0-0.141,0.007-0.224,0.023c-0.085,0-0.135,0-0.15,0c-0.698,0-1.049-0.3-1.049-0.897c0-0.531,0.258-0.799,0.774-0.799
			c0.083,0,0.308,0.019,0.673,0.05c0.182,0.052,0.357,0.075,0.523,0.075c0.848,0,1.271-0.622,1.271-1.869V131.579z"/>
		<path fill="#F9E6BE" d="M174.044,135.694c-0.483,0.231-1.098,0.431-1.846,0.597c0.972,0.182,1.643,0.547,2.013,1.093
			c0.37,0.547,0.556,1.451,0.556,2.709v1.145c0,0.066,0,0.166,0,0.298c0,1.194,0.379,1.789,1.135,1.789
			c0.773,0,1.159-0.707,1.159-2.123v-0.741v-0.617v-0.347c0-0.478,0.034-0.806,0.1-0.988c0.134-0.279,0.392-0.42,0.773-0.42
			c0.599,0,0.898,0.35,0.898,1.048c0,0.016-0.009,0.198-0.024,0.549v0.522c0,0.35,0,0.573,0,0.675v0.622
			c-0.018,0.1-0.025,0.249-0.025,0.449c0,0.965-0.271,1.718-0.811,2.257c-0.541,0.541-1.293,0.811-2.257,0.811
			c-1.962,0-2.943-0.992-2.943-2.977v-0.751v-0.85v-0.552c0-1.116-0.21-1.854-0.634-2.214c-0.422-0.356-1.295-0.537-2.619-0.537
			h-2.311c-0.53,0-0.796,0.326-0.796,0.977v1.928c0,1.235,0.017,1.936,0.05,2.103c0.15,0.834,0.564,1.253,1.248,1.253
			c0.231,0,0.406-0.011,0.523-0.03c0.282-0.029,0.499-0.046,0.647-0.046c0.533,0,0.799,0.276,0.799,0.824
			c0,0.581-0.357,0.872-1.072,0.872l-0.374-0.05l-1.347-0.174c-0.517-0.067-0.973-0.1-1.371-0.1c-0.5,0-1.082,0.042-1.746,0.125
			l-1.196,0.148c-0.267,0.033-0.392,0.05-0.375,0.05c-0.714,0-1.072-0.3-1.072-0.897c0-0.531,0.258-0.799,0.772-0.799
			c0.083,0,0.308,0.019,0.675,0.05c0.182,0.052,0.356,0.075,0.523,0.075c0.848,0,1.271-0.622,1.271-1.869v-10.001
			c0-1.247-0.424-1.871-1.271-1.871c-0.134,0-0.334,0.019-0.6,0.051c-0.265,0.034-0.466,0.051-0.599,0.051
			c-0.216,0-0.398-0.077-0.549-0.234c-0.148-0.156-0.224-0.34-0.224-0.553c0-0.574,0.364-0.86,1.098-0.86
			c0.066,0,0.182,0.009,0.35,0.025l1.271,0.124c0.332,0.034,0.747,0.052,1.247,0.052c0.514,0,1.088-0.018,1.72-0.052l1.896-0.099
			c0.631-0.032,1.214-0.051,1.745-0.051c3.657,0,5.486,1.393,5.486,4.176C175.938,133.98,175.308,135.098,174.044,135.694z
			 M167.136,135.496h2.345c1.396,0,2.443-0.2,3.142-0.6c0.849-0.482,1.272-1.288,1.272-2.42c0-1.895-1.303-2.842-3.903-2.842
			c-1.386,0-2.323,0.104-2.816,0.312c-0.491,0.208-0.746,0.618-0.763,1.234v0.797v2.868c0,0.283,0.05,0.462,0.15,0.536
			C166.662,135.458,166.854,135.496,167.136,135.496z"/>
	</g>
	<g>
		<path fill-rule="evenodd" clip-rule="evenodd" fill="#FFD99E" d="M134.964,60.236c11.26-0.856-6.239-12.053-7.329-0.571
			c-0.929,9.797,10.185,9.224,17.305,5.5c2.84-1.484,19.954-13.146,22.26-3.064c0.874,3.823-3.165,6.924-7.489,4.96
			c2.521,0.077,6.035-0.219,6.199-3.608c0.405-8.427-14.711,0.907-16.196,1.859c-24.303,15.578-29.758-6.142-22.583-12.208
			c11.411-9.643,24.003,9.77,7.866,11.456c-1.192,0.009-2.169-0.952-2.177-2.147C132.809,61.22,133.77,60.245,134.964,60.236z"/>
		<path fill-rule="evenodd" clip-rule="evenodd" fill="#FFD99E" d="M116.914,60.236c-11.26-0.856,6.24-12.053,7.329-0.571
			c0.93,9.797-10.185,9.223-17.305,5.501c-2.838-1.485-19.954-13.146-22.259-3.064c-0.874,3.821,3.165,6.923,7.49,4.959
			c-2.522,0.076-6.037-0.219-6.199-3.608c-0.406-8.426,14.71,0.907,16.195,1.86c24.304,15.576,29.759-6.143,22.583-12.209
			c-11.408-9.644-24.003,9.77-7.865,11.456c1.195,0.009,2.169-0.952,2.178-2.146C119.068,61.22,118.107,60.245,116.914,60.236z"/>
	</g>
</g>
</svg>
