<?xml version="1.0" encoding="utf-8"?>
<!-- Generator: Adobe Illustrator 16.0.4, SVG Export Plug-In . SVG Version: 6.00 Build 0)  -->
<!DOCTYPE svg PUBLIC "-//W3C//DTD SVG 1.1//EN" "http://www.w3.org/Graphics/SVG/1.1/DTD/svg11.dtd">
<svg version="1.1" id="Layer_1" xmlns="http://www.w3.org/2000/svg" xmlns:xlink="http://www.w3.org/1999/xlink" x="0px" y="0px"
	 width="251.898px" height="191.207px" viewBox="0 0 251.898 191.207" enable-background="new 0 0 251.898 191.207"
	 xml:space="preserve">
<g>
	<path fill-rule="evenodd" clip-rule="evenodd" fill="#F9AE35" d="M127.086,5.165c-1.826,4.006-3.652,8.012-5.478,12.017
		c-0.323,0.57-3.08,5.145-8.949,6.42c-0.939,0.204-2.697,0.446-5.734,0.439c-7.973-0.016-19.178-1.678-29.062-3.167
		c-5.888-0.885-11.449-1.729-15.664-2.116c-0.992-0.091-1.995-0.14-2.985-0.147c-10.146-0.076-19.695,4.18-26.885,12.025
		c-6.207,6.769-9.999,15.725-10.622,24.901C9.627,63.566,2.029,79.467,2.029,97.357c0,17.886,7.598,33.788,19.675,41.817
		c1.345,20.479,17.974,37.083,37.509,36.925c0.989-0.007,1.992-0.057,2.985-0.147c4.215-0.388,9.775-1.231,15.662-2.117
		c9.886-1.489,21.091-3.151,29.064-3.167c3.038-0.007,4.794,0.236,5.734,0.439c6.136,1.334,8.909,6.337,8.934,6.387
		c1.94,3.838,3.88,7.677,5.82,11.517c2.188-3.617,4.378-7.233,6.566-10.849c0.391-0.554,4.086-5.512,11.833-7.274
		c0.821-0.187,2.369-0.407,5.068-0.401c7.489,0.016,18.194,1.727,27.639,3.256c5.711,0.924,11.105,1.806,15.196,2.206
		c1.051,0.103,2.119,0.156,3.169,0.164c19.46,0.158,36.028-16.451,37.368-36.938c12.078-8.029,19.674-23.932,19.674-41.817
		c0-17.887-7.595-33.788-19.674-41.818c-1.34-20.486-17.907-37.101-37.368-36.944c-1.05,0.008-2.118,0.065-3.171,0.167
		c-4.09,0.401-9.482,1.28-15.194,2.204c-9.443,1.531-20.149,3.241-27.639,3.257c-2.7,0.006-4.247-0.217-5.068-0.402
		c-7.748-1.763-11.442-6.722-11.833-7.274C131.683,12.753,129.384,8.96,127.086,5.165z"/>
</g>
<g>
	<path fill-rule="evenodd" clip-rule="evenodd" fill="#C65500" d="M127.979,17.106c0-0.001-4.144,8.319-14.115,10.519
		c-2.033,0.449-4.572,0.637-7.452,0.631c-13.765-0.02-35.298-4.471-46.441-5.513c-0.816-0.075-1.63-0.116-2.435-0.122
		c-17.384-0.137-31.202,15.866-31.202,33.825c0,0.5,0,1,0,1.5C14.617,63.781,6.27,79.082,6.27,97.086
		c0,18.006,8.348,33.309,20.064,39.143c0,0.5,0,1,0,1.501c0,17.955,13.82,33.96,31.202,33.823c0.805-0.006,1.616-0.047,2.435-0.124
		c11.142-1.04,32.677-5.489,46.441-5.509c2.881-0.006,5.418,0.18,7.452,0.627c9.971,2.202,14.115,10.522,14.115,10.521
		c0,0.001,5.118-8.074,16.619-10.732c1.869-0.43,4.198-0.613,6.843-0.607c13.083,0.021,33.856,4.637,44.546,5.7
		c0.867,0.087,1.728,0.134,2.581,0.141c17.306,0.136,31.056-15.934,31.056-33.84c0-0.501,0-1.001,0-1.501
		c11.717-5.832,20.064-21.135,20.063-39.142c0.001-18.005-8.349-33.309-20.063-39.142c0-0.5,0-1,0-1.499
		c0-17.907-13.751-33.977-31.056-33.84c-0.854,0.006-1.713,0.052-2.581,0.138c-10.689,1.065-31.464,5.678-44.546,5.7
		c-2.646,0.005-4.974-0.174-6.843-0.606C133.097,25.18,127.979,17.104,127.979,17.106L127.979,17.106z"/>
</g>
<g>
	<path fill-rule="evenodd" clip-rule="evenodd" fill="#FF800D" d="M127.979,20.107c0,0-4.045,8.007-13.779,10.125
		c-1.984,0.433-4.464,0.613-7.274,0.608c-13.437-0.019-34.457-4.297-45.335-5.296c-0.798-0.072-1.592-0.111-2.378-0.117
		c-16.969-0.125-30.458,15.278-30.458,32.557c0,0.481,0,0.962,0,1.443C17.316,65.044,9.167,79.766,9.167,97.086
		c0,17.321,8.149,32.044,19.586,37.661c0,0.481,0,0.963,0,1.443c0,17.275,13.49,32.681,30.458,32.555
		c0.786-0.005,1.578-0.043,2.378-0.116c10.877-0.998,31.898-5.276,45.335-5.295c2.812-0.005,5.289,0.175,7.274,0.605
		c9.734,2.12,13.779,10.127,13.779,10.126c0,0.001,4.996-7.771,16.223-10.329c1.825-0.415,4.101-0.589,6.68-0.584
		c12.772,0.02,33.051,4.454,43.486,5.477c0.846,0.083,1.686,0.127,2.52,0.133c16.894,0.125,30.317-15.343,30.316-32.571
		c0-0.48,0-0.962,0-1.443c11.437-5.614,19.586-20.338,19.586-37.66c0.001-17.321-8.149-32.044-19.586-37.66c0-0.481,0-0.962,0-1.443
		c0-17.229-13.422-32.696-30.316-32.571c-0.835,0.006-1.672,0.049-2.52,0.132c-10.437,1.021-30.715,5.457-43.486,5.476
		c-2.582,0.005-4.854-0.167-6.68-0.583C132.975,27.879,127.979,20.107,127.979,20.107L127.979,20.107z"/>
</g>
<g>
	<path fill-rule="evenodd" clip-rule="evenodd" fill="#F9D482" d="M128.1,26.857c2.148,2.422,7.046,6.88,15.225,8.7
		c1.792,0.399,4.001,0.59,6.758,0.585c7.878-0.014,18.55-1.673,27.966-3.156c5.375-0.846,10.45-1.649,14.128-1.997
		c0.766-0.073,1.543-0.112,2.307-0.116c15.111-0.099,27.881,13.332,27.881,29.376c0,0.453,0,0.906,0,1.358c0,0.277,0,0.553,0,0.83
		c0.255,0.122,0.509,0.244,0.763,0.366c10.85,5.207,18.142,18.994,18.142,34.283c0,15.288-7.292,29.074-18.142,34.282
		c-0.254,0.123-0.508,0.245-0.763,0.367c0,0.276,0,0.552,0,0.827c0,0.454,0,0.907,0,1.361c0,16.044-12.77,29.476-27.881,29.377
		c-0.764-0.005-1.541-0.044-2.307-0.118c-3.679-0.347-8.754-1.152-14.128-1.996c-9.416-1.484-20.088-3.144-27.966-3.157
		c-2.757-0.005-4.966,0.186-6.758,0.585c-8.179,1.822-13.076,6.28-15.225,8.701c-1.824-2.506-5.97-6.99-13.122-8.509
		c-1.931-0.413-4.324-0.609-7.317-0.604c-8.3,0.013-19.43,1.621-29.25,3.058c-5.556,0.812-10.802,1.585-14.621,1.921
		c-0.724,0.066-1.457,0.1-2.178,0.104c-15.188,0.1-28.019-13.324-28.019-29.36c0-0.454,0-0.907,0-1.361c0-0.275,0-0.552,0-0.828
		c-0.254-0.122-0.508-0.244-0.763-0.366c-10.849-5.208-18.139-18.994-18.139-34.283c0-15.288,7.29-29.073,18.139-34.282
		c0.254-0.122,0.509-0.244,0.763-0.366c0-0.276,0-0.552,0-0.829c0-0.453,0-0.906,0-1.359c0-7.53,2.99-15.04,8.201-20.595
		c5.353-5.706,12.39-8.813,19.817-8.769c0.721,0.004,1.454,0.04,2.178,0.105c3.819,0.337,9.065,1.109,14.622,1.921
		c9.819,1.437,20.95,3.045,29.249,3.058c2.993,0.005,5.387-0.192,7.317-0.604C122.13,33.846,126.275,29.366,128.1,26.857z"/>
</g>
<g>
	<g>
		<path fill-rule="evenodd" clip-rule="evenodd" fill="#FFA52E" d="M17.186,69.733c0,18.236,0,36.472,0,54.708
			c-0.88-1.269-1.702-2.614-2.455-4.027c0-15.552,0-31.103,0-46.655C15.484,72.346,16.305,71,17.186,69.733z"/>
	</g>
	<g>
		<path fill-rule="evenodd" clip-rule="evenodd" fill="#FFA52E" d="M31.365,45.008c0,34.719,0,69.438,0,104.157
			c-1.28-3.075-2.126-6.367-2.456-9.766c0-28.208,0-56.416,0-84.624C29.239,51.375,30.085,48.083,31.365,45.008z"/>
	</g>
	<g>
		<path fill-rule="evenodd" clip-rule="evenodd" fill="#FFA52E" d="M45.544,28.922c0,45.443,0,90.886,0,136.328
			c-0.843-0.461-1.661-0.966-2.456-1.507c0-44.438,0-88.876,0-133.314C43.883,29.888,44.702,29.384,45.544,28.922z"/>
	</g>
	<g>
		<path fill-rule="evenodd" clip-rule="evenodd" fill="#FFA52E" d="M57.268,27.26c0.818,0.005,1.637,0.011,2.455,0.016
			c0,46.54,0,93.08,0,139.62c-0.818,0.005-1.637,0.011-2.455,0.016C57.268,120.361,57.268,73.811,57.268,27.26z"/>
	</g>
	<g>
		<path fill-rule="evenodd" clip-rule="evenodd" fill="#FFA52E" d="M71.448,27.346c0.818,0.004,1.637,0.008,2.455,0.013
			c0,46.485,0,92.971,0,139.456c-0.818,0.004-1.637,0.009-2.455,0.013C71.448,120.333,71.448,73.839,71.448,27.346z"/>
	</g>
	<g>
		<path fill-rule="evenodd" clip-rule="evenodd" fill="#FFA52E" d="M88.083,29.227c0,45.24,0,90.48,0,135.72
			c-0.818,0.109-1.637,0.223-2.456,0.336c0-45.464,0-90.928,0-136.392C86.445,29.006,87.264,29.118,88.083,29.227z"/>
	</g>
	<g>
		<path fill-rule="evenodd" clip-rule="evenodd" fill="#FFA52E" d="M102.263,30.688c0,44.266,0,88.531,0,132.797
			c-0.802,0.046-1.623,0.104-2.456,0.168c0-44.378,0-88.755,0-133.133C100.64,30.586,101.46,30.643,102.263,30.688z"/>
	</g>
	<g>
		<path fill-rule="evenodd" clip-rule="evenodd" fill="#FFA52E" d="M116.443,29.612c0,44.982,0,89.965,0,134.946
			c-0.712-0.238-1.459-0.448-2.243-0.619c-0.071-0.015-0.142-0.029-0.213-0.044c0-44.54,0-89.079,0-133.618
			c0.071-0.015,0.142-0.03,0.213-0.045C114.984,30.062,115.731,29.853,116.443,29.612z"/>
	</g>
	<g>
		<path fill-rule="evenodd" clip-rule="evenodd" fill="#FFA52E" d="M128.167,27.496c0.818,0,1.637,0,2.455,0
			c0,46.394,0,92.787,0,139.181c-0.818,0-1.637,0-2.455,0C128.167,120.283,128.167,73.89,128.167,27.496z"/>
	</g>
	<g>
		<path fill-rule="evenodd" clip-rule="evenodd" fill="#FFA52E" d="M144.803,30.562c0,44.35,0,88.7,0,133.049
			c-0.205,0.038-0.406,0.08-0.602,0.125c-0.638,0.146-1.256,0.309-1.854,0.486c0-44.757,0-89.514,0-134.271
			c0.6,0.176,1.216,0.34,1.854,0.485C144.396,30.482,144.597,30.523,144.803,30.562z"/>
	</g>
	<g>
		<path fill-rule="evenodd" clip-rule="evenodd" fill="#FFA52E" d="M158.982,30.572c0,44.343,0,88.686,0,133.03
			c-0.832-0.08-1.651-0.15-2.456-0.21c0-44.203,0-88.407,0-132.61C157.33,30.721,158.15,30.651,158.982,30.572z"/>
	</g>
	<g>
		<path fill-rule="evenodd" clip-rule="evenodd" fill="#FFA52E" d="M173.162,28.711c0,45.583,0,91.167,0,136.75
			c-0.816-0.125-1.636-0.25-2.456-0.374c0-45.334,0-90.668,0-136.002C171.526,28.962,172.345,28.838,173.162,28.711z"/>
	</g>
	<g>
		<path fill-rule="evenodd" clip-rule="evenodd" fill="#FFA52E" d="M184.886,27.343c0.818-0.004,1.637-0.009,2.455-0.013
			c0,46.504,0,93.009,0,139.513c-0.818-0.005-1.637-0.009-2.455-0.014C184.886,120.334,184.886,73.839,184.886,27.343z"/>
	</g>
	<g>
		<path fill-rule="evenodd" clip-rule="evenodd" fill="#FFA52E" d="M199.066,27.258c0.818-0.005,1.636-0.011,2.455-0.017
			c0,46.563,0,93.127,0,139.69c-0.818-0.006-1.637-0.011-2.455-0.017C199.066,120.362,199.066,73.81,199.066,27.258z"/>
	</g>
	<g>
		<path fill-rule="evenodd" clip-rule="evenodd" fill="#FFA52E" d="M215.7,32.57c0,43.012,0,86.023,0,129.034
			c-0.786,0.684-1.607,1.326-2.456,1.926c0-44.296,0-88.591,0-132.886C214.094,31.243,214.913,31.886,215.7,32.57z"/>
	</g>
	<g>
		<path fill-rule="evenodd" clip-rule="evenodd" fill="#FFA52E" d="M229.88,60.946c0,24.094,0,48.188,0,72.281
			c-0.8,0.516-1.619,0.986-2.456,1.406c0-25.032,0-50.063,0-75.095C228.261,59.96,229.08,60.429,229.88,60.946z"/>
	</g>
	<g>
		<path fill-rule="evenodd" clip-rule="evenodd" fill="#FFA52E" d="M24.275,62.216c0,23.248,0,46.495,0,69.742
			c-0.845-0.645-1.664-1.343-2.455-2.092c0-21.853,0-43.706,0-65.559C22.611,63.559,23.431,62.861,24.275,62.216z"/>
	</g>
	<g>
		<path fill-rule="evenodd" clip-rule="evenodd" fill="#FFA52E" d="M38.455,34.303c0,41.855,0,83.71,0,125.565
			c-0.867-0.879-1.688-1.81-2.455-2.787c0-39.997,0-79.994,0-119.991C36.767,36.113,37.587,35.182,38.455,34.303z"/>
	</g>
	<g>
		<path fill-rule="evenodd" clip-rule="evenodd" fill="#FFA52E" d="M50.178,27.21c0.819,0.006,1.637,0.012,2.456,0.018
			c0,46.572,0,93.144,0,139.716c-0.819,0.006-1.637,0.012-2.456,0.018C50.178,120.378,50.178,73.794,50.178,27.21z"/>
	</g>
	<g>
		<path fill-rule="evenodd" clip-rule="evenodd" fill="#FFA52E" d="M64.358,27.305c0.819,0.005,1.637,0.01,2.456,0.015
			c0,46.511,0,93.022,0,139.534c-0.819,0.004-1.637,0.009-2.456,0.014C64.358,120.347,64.358,73.826,64.358,27.305z"/>
	</g>
	<g>
		<path fill-rule="evenodd" clip-rule="evenodd" fill="#FFA52E" d="M80.993,28.223c0,45.909,0,91.818,0,137.727
			c-0.824,0.122-1.644,0.244-2.455,0.365c0-46.152,0-92.305,0-138.457C79.35,27.98,80.168,28.102,80.993,28.223z"/>
	</g>
	<g>
		<path fill-rule="evenodd" clip-rule="evenodd" fill="#FFA52E" d="M95.173,30.088c0,44.666,0,89.332,0,133.998
			c-0.812,0.087-1.631,0.179-2.455,0.276c0-44.851,0-89.7,0-134.55C93.542,29.909,94.361,30.001,95.173,30.088z"/>
	</g>
	<g>
		<path fill-rule="evenodd" clip-rule="evenodd" fill="#FFA52E" d="M109.353,30.793c0,44.196,0,88.393,0,132.589
			c-0.776-0.033-1.587-0.049-2.428-0.048c-0.01,0-0.019,0-0.028,0c0-44.165,0-88.33,0-132.495c0.009,0,0.019,0,0.028,0
			C107.766,30.841,108.577,30.826,109.353,30.793z"/>
	</g>
	<g>
		<path fill-rule="evenodd" clip-rule="evenodd" fill="#FFA52E" d="M121.077,27.494c0.818,0,1.637,0.001,2.456,0.001
			c0,46.394,0,92.788,0,139.182c-0.819,0-1.638,0.001-2.456,0.001C121.077,120.284,121.077,73.889,121.077,27.494z"/>
	</g>
	<g>
		<path fill-rule="evenodd" clip-rule="evenodd" fill="#FFA52E" d="M135.257,27.494c0.404,0,0.809,0,1.212,0
			c0.4,0.222,0.813,0.439,1.244,0.651c0,45.962,0,91.924,0,137.885c-0.43,0.211-0.844,0.429-1.243,0.65
			c-0.404,0-0.809,0-1.213-0.001C135.257,120.284,135.257,73.889,135.257,27.494z"/>
	</g>
	<g>
		<path fill-rule="evenodd" clip-rule="evenodd" fill="#FFA52E" d="M151.893,31.009c0,44.052,0,88.103,0,132.155
			c-0.342-0.007-0.68-0.011-1.012-0.012c-0.492-0.001-0.974,0.004-1.443,0.017c0-44.056,0-88.11,0-132.166
			c0.469,0.013,0.95,0.018,1.443,0.017C151.213,31.02,151.551,31.016,151.893,31.009z"/>
	</g>
	<g>
		<path fill-rule="evenodd" clip-rule="evenodd" fill="#FFA52E" d="M166.072,29.745c0,44.895,0,89.789,0,134.683
			c-0.823-0.111-1.643-0.217-2.456-0.315c0-44.684,0-89.367,0-134.051C164.43,29.961,165.249,29.855,166.072,29.745z"/>
	</g>
	<g>
		<path fill-rule="evenodd" clip-rule="evenodd" fill="#FFA52E" d="M180.252,27.582c0,46.336,0,92.672,0,139.009
			c-0.818-0.132-1.637-0.264-2.456-0.396c0-46.072,0-92.145,0-138.217C178.615,27.846,179.434,27.714,180.252,27.582z"/>
	</g>
	<g>
		<path fill-rule="evenodd" clip-rule="evenodd" fill="#FFA52E" d="M191.977,27.303c0.818-0.005,1.637-0.01,2.455-0.015
			c0,46.532,0,93.064,0,139.597c-0.818-0.005-1.637-0.01-2.455-0.015C191.977,120.348,191.977,73.825,191.977,27.303z"/>
	</g>
	<g>
		<path fill-rule="evenodd" clip-rule="evenodd" fill="#FFA52E" d="M206.156,27.208c0.213-0.002,0.428-0.003,0.642-0.005
			c0.614,0.232,1.218,0.487,1.813,0.762c0,46.082,0,92.163,0,138.244c-0.595,0.275-1.198,0.528-1.812,0.761
			c-0.214-0.002-0.429-0.003-0.643-0.005C206.156,120.379,206.156,73.793,206.156,27.208z"/>
	</g>
	<g>
		<path fill-rule="evenodd" clip-rule="evenodd" fill="#FFA52E" d="M222.79,41.301c0,37.191,0,74.381,0,111.573
			c-0.737,1.309-1.559,2.562-2.455,3.753c0-39.692,0-79.386,0-119.079C221.231,38.737,222.052,39.993,222.79,41.301z"/>
	</g>
	<g>
		<path fill-rule="evenodd" clip-rule="evenodd" fill="#FFA52E" d="M236.97,67.352c0,19.824,0,39.647,0,59.471
			c-0.782,0.95-1.602,1.845-2.456,2.681c0-21.61,0-43.221,0-64.832C235.368,65.507,236.188,66.401,236.97,67.352z"/>
	</g>
</g>
<g>
	<path fill="#C65500" d="M61.968,129.366h0.696v4.806h2.303v0.584h-2.999V129.366z"/>
	<path fill="#C65500" d="M69.11,132.789c0,1.431-0.991,2.055-1.927,2.055c-1.048,0-1.855-0.768-1.855-1.991
		c0-1.296,0.848-2.056,1.919-2.056C68.358,130.797,69.11,131.605,69.11,132.789z M66.04,132.828c0,0.848,0.487,1.487,1.175,1.487
		c0.672,0,1.176-0.632,1.176-1.503c0-0.656-0.328-1.487-1.159-1.487C66.399,131.325,66.04,132.093,66.04,132.828z"/>
	<path fill="#C65500" d="M70,132.093c0-0.456-0.008-0.848-0.032-1.208h0.615l0.024,0.76h0.032c0.176-0.52,0.6-0.848,1.071-0.848
		c0.08,0,0.136,0.009,0.199,0.025v0.663c-0.071-0.017-0.144-0.024-0.239-0.024c-0.496,0-0.848,0.376-0.943,0.904
		c-0.017,0.096-0.032,0.207-0.032,0.327v2.063H70V132.093z"/>
	<path fill="#C65500" d="M72.928,132.948c0.016,0.952,0.623,1.343,1.327,1.343c0.504,0,0.808-0.088,1.071-0.199l0.12,0.504
		c-0.248,0.111-0.672,0.24-1.287,0.24c-1.191,0-1.903-0.784-1.903-1.951c0-1.168,0.688-2.088,1.815-2.088
		c1.263,0,1.599,1.111,1.599,1.824c0,0.144-0.016,0.256-0.023,0.327H72.928z M74.99,132.445c0.008-0.448-0.184-1.145-0.976-1.145
		c-0.711,0-1.023,0.656-1.079,1.145H74.99z"/>
	<path fill="#C65500" d="M76.544,131.934c0-0.4-0.009-0.729-0.032-1.049h0.615l0.032,0.625h0.024
		c0.216-0.369,0.575-0.713,1.215-0.713c0.528,0,0.928,0.32,1.096,0.776h0.016c0.12-0.216,0.272-0.384,0.432-0.504
		c0.232-0.176,0.488-0.272,0.855-0.272c0.512,0,1.271,0.336,1.271,1.68v2.279h-0.688v-2.191c0-0.744-0.271-1.191-0.84-1.191
		c-0.399,0-0.711,0.296-0.831,0.64c-0.032,0.097-0.056,0.224-0.056,0.353v2.391h-0.688v-2.319c0-0.616-0.272-1.063-0.808-1.063
		c-0.44,0-0.76,0.352-0.872,0.703c-0.04,0.104-0.056,0.225-0.056,0.344v2.336h-0.688V131.934z"/>
	<path fill="#C65500" d="M85.695,129.799c0.008,0.239-0.168,0.432-0.447,0.432c-0.248,0-0.424-0.192-0.424-0.432
		c0-0.248,0.184-0.44,0.439-0.44C85.527,129.358,85.695,129.551,85.695,129.799z M84.912,134.756v-3.871h0.703v3.871H84.912z"/>
	<path fill="#C65500" d="M86.784,132.148c0-0.496-0.017-0.895-0.032-1.264h0.632l0.032,0.664h0.016
		c0.288-0.471,0.743-0.752,1.375-0.752c0.936,0,1.64,0.793,1.64,1.968c0,1.392-0.848,2.079-1.76,2.079
		c-0.512,0-0.959-0.225-1.191-0.607h-0.016v2.102h-0.695V132.148z M87.479,133.18c0,0.104,0.016,0.201,0.032,0.289
		c0.128,0.486,0.552,0.822,1.055,0.822c0.744,0,1.176-0.607,1.176-1.494c0-0.775-0.408-1.439-1.151-1.439
		c-0.479,0-0.928,0.344-1.063,0.871c-0.023,0.088-0.048,0.191-0.048,0.288V133.18z"/>
	<path fill="#C65500" d="M91.239,134.035c0.208,0.137,0.576,0.28,0.928,0.28c0.512,0,0.752-0.256,0.752-0.575
		c0-0.336-0.2-0.52-0.72-0.712c-0.695-0.248-1.023-0.632-1.023-1.095c0-0.625,0.504-1.137,1.335-1.137
		c0.392,0,0.735,0.113,0.952,0.24l-0.177,0.512c-0.151-0.096-0.432-0.224-0.791-0.224c-0.416,0-0.647,0.239-0.647,0.528
		c0,0.319,0.231,0.463,0.735,0.655c0.672,0.256,1.016,0.591,1.016,1.167c0,0.68-0.528,1.16-1.447,1.16
		c-0.424,0-0.815-0.105-1.088-0.264L91.239,134.035z"/>
	<path fill="#C65500" d="M97.742,133.699c0,0.4,0.008,0.752,0.031,1.057H97.15l-0.04-0.633h-0.017
		c-0.184,0.312-0.591,0.721-1.279,0.721c-0.607,0-1.335-0.336-1.335-1.695v-2.264h0.704v2.144c0,0.735,0.224,1.231,0.863,1.231
		c0.472,0,0.8-0.328,0.928-0.64c0.04-0.104,0.063-0.231,0.063-0.36v-2.375h0.704V133.699z"/>
	<path fill="#C65500" d="M98.911,131.934c0-0.4-0.009-0.729-0.032-1.049h0.615l0.032,0.625h0.024
		c0.216-0.369,0.575-0.713,1.215-0.713c0.528,0,0.928,0.32,1.096,0.776h0.016c0.12-0.216,0.272-0.384,0.432-0.504
		c0.232-0.176,0.488-0.272,0.855-0.272c0.512,0,1.271,0.336,1.271,1.68v2.279h-0.688v-2.191c0-0.744-0.271-1.191-0.84-1.191
		c-0.399,0-0.711,0.296-0.831,0.64c-0.032,0.097-0.056,0.224-0.056,0.353v2.391h-0.688v-2.319c0-0.616-0.272-1.063-0.808-1.063
		c-0.44,0-0.76,0.352-0.872,0.703c-0.04,0.104-0.056,0.225-0.056,0.344v2.336h-0.688V131.934z"/>
	<path fill="#C65500" d="M110.621,129.078v4.678c0,0.344,0.008,0.736,0.032,1h-0.632l-0.032-0.672h-0.016
		c-0.216,0.432-0.688,0.76-1.319,0.76c-0.936,0-1.655-0.792-1.655-1.967c-0.008-1.287,0.792-2.08,1.735-2.08
		c0.592,0,0.991,0.281,1.167,0.592h0.017v-2.311H110.621z M109.918,132.461c0-0.088-0.009-0.208-0.032-0.297
		c-0.104-0.447-0.488-0.814-1.016-0.814c-0.728,0-1.159,0.639-1.159,1.494c0,0.784,0.384,1.432,1.144,1.432
		c0.472,0,0.903-0.312,1.031-0.84c0.023-0.096,0.032-0.191,0.032-0.303V132.461z"/>
	<path fill="#C65500" d="M115.293,132.789c0,1.431-0.991,2.055-1.927,2.055c-1.048,0-1.855-0.768-1.855-1.991
		c0-1.296,0.848-2.056,1.919-2.056C114.541,130.797,115.293,131.605,115.293,132.789z M112.223,132.828
		c0,0.848,0.487,1.487,1.175,1.487c0.672,0,1.176-0.632,1.176-1.503c0-0.656-0.328-1.487-1.159-1.487
		C112.582,131.325,112.223,132.093,112.223,132.828z"/>
	<path fill="#C65500" d="M116.183,129.078h0.703v5.678h-0.703V129.078z"/>
	<path fill="#C65500" d="M121.573,132.789c0,1.431-0.991,2.055-1.927,2.055c-1.048,0-1.855-0.768-1.855-1.991
		c0-1.296,0.848-2.056,1.919-2.056C120.821,130.797,121.573,131.605,121.573,132.789z M118.503,132.828
		c0,0.848,0.487,1.487,1.175,1.487c0.672,0,1.176-0.632,1.176-1.503c0-0.656-0.328-1.487-1.159-1.487
		C118.862,131.325,118.503,132.093,118.503,132.828z"/>
	<path fill="#C65500" d="M122.463,132.093c0-0.456-0.008-0.848-0.032-1.208h0.615l0.024,0.76h0.032
		c0.176-0.52,0.6-0.848,1.071-0.848c0.08,0,0.136,0.009,0.199,0.025v0.663c-0.071-0.017-0.144-0.024-0.239-0.024
		c-0.496,0-0.848,0.376-0.943,0.904c-0.017,0.096-0.032,0.207-0.032,0.327v2.063h-0.695V132.093z"/>
	<path fill="#C65500" d="M126.678,134.035c0.208,0.137,0.576,0.28,0.928,0.28c0.512,0,0.752-0.256,0.752-0.575
		c0-0.336-0.2-0.52-0.72-0.712c-0.695-0.248-1.023-0.632-1.023-1.095c0-0.625,0.504-1.137,1.335-1.137
		c0.392,0,0.736,0.113,0.952,0.24l-0.177,0.512c-0.151-0.096-0.432-0.224-0.791-0.224c-0.416,0-0.647,0.239-0.647,0.528
		c0,0.319,0.231,0.463,0.735,0.655c0.672,0.256,1.016,0.591,1.016,1.167c0,0.68-0.528,1.16-1.447,1.16
		c-0.424,0-0.815-0.105-1.088-0.264L126.678,134.035z"/>
	<path fill="#C65500" d="M130.726,129.799c0.008,0.239-0.168,0.432-0.447,0.432c-0.248,0-0.424-0.192-0.424-0.432
		c0-0.248,0.184-0.44,0.439-0.44C130.558,129.358,130.726,129.551,130.726,129.799z M129.942,134.756v-3.871h0.703v3.871H129.942z"
		/>
	<path fill="#C65500" d="M132.662,129.773v1.111h1.007v0.537h-1.007v2.086c0,0.48,0.136,0.752,0.527,0.752
		c0.184,0,0.319-0.023,0.408-0.049l0.031,0.529c-0.136,0.055-0.352,0.096-0.623,0.096c-0.328,0-0.592-0.105-0.76-0.297
		c-0.2-0.207-0.272-0.551-0.272-1.007v-2.11h-0.6v-0.537h0.6v-0.927L132.662,129.773z"/>
	<path fill="#C65500" d="M138.301,134.756l-0.056-0.488h-0.024c-0.216,0.305-0.632,0.576-1.184,0.576
		c-0.783,0-1.183-0.553-1.183-1.111c0-0.936,0.831-1.447,2.326-1.439v-0.08c0-0.32-0.088-0.896-0.88-0.896
		c-0.359,0-0.735,0.112-1.007,0.288l-0.16-0.465c0.32-0.207,0.784-0.344,1.271-0.344c1.184,0,1.471,0.809,1.471,1.584v1.447
		c0,0.336,0.017,0.664,0.064,0.928H138.301z M138.197,132.78c-0.768-0.016-1.64,0.12-1.64,0.872c0,0.455,0.304,0.672,0.664,0.672
		c0.503,0,0.823-0.32,0.936-0.648c0.023-0.072,0.04-0.152,0.04-0.224V132.78z"/>
	<path fill="#C65500" d="M140.015,131.934c0-0.4-0.009-0.729-0.032-1.049h0.615l0.032,0.625h0.024
		c0.216-0.369,0.575-0.713,1.215-0.713c0.528,0,0.928,0.32,1.096,0.776h0.016c0.12-0.216,0.272-0.384,0.432-0.504
		c0.232-0.176,0.488-0.272,0.855-0.272c0.512,0,1.271,0.336,1.271,1.68v2.279h-0.688v-2.191c0-0.744-0.271-1.191-0.84-1.191
		c-0.399,0-0.711,0.296-0.831,0.64c-0.032,0.097-0.056,0.224-0.056,0.353v2.391h-0.688v-2.319c0-0.616-0.272-1.063-0.808-1.063
		c-0.44,0-0.76,0.352-0.872,0.703c-0.04,0.104-0.056,0.225-0.056,0.344v2.336h-0.688V131.934z"/>
	<path fill="#C65500" d="M147.078,132.948c0.016,0.952,0.623,1.343,1.327,1.343c0.504,0,0.808-0.088,1.071-0.199l0.12,0.504
		c-0.248,0.111-0.672,0.24-1.287,0.24c-1.191,0-1.903-0.784-1.903-1.951c0-1.168,0.688-2.088,1.815-2.088
		c1.263,0,1.599,1.111,1.599,1.824c0,0.144-0.016,0.256-0.023,0.327H147.078z M149.141,132.445c0.008-0.448-0.184-1.145-0.976-1.145
		c-0.711,0-1.023,0.656-1.079,1.145H149.141z"/>
	<path fill="#C65500" d="M151.542,129.773v1.111h1.007v0.537h-1.007v2.086c0,0.48,0.136,0.752,0.527,0.752
		c0.184,0,0.319-0.023,0.407-0.049l0.032,0.529c-0.136,0.055-0.352,0.096-0.623,0.096c-0.328,0-0.592-0.105-0.76-0.297
		c-0.2-0.207-0.272-0.551-0.272-1.007v-2.11h-0.6v-0.537h0.6v-0.927L151.542,129.773z"/>
	<path fill="#C65500" d="M152.862,135.738c0.176-0.471,0.392-1.326,0.479-1.91l0.784-0.08c-0.185,0.68-0.536,1.566-0.76,1.943
		L152.862,135.738z"/>
	<path fill="#C65500" d="M159.428,134.611c-0.184,0.096-0.592,0.225-1.111,0.225c-1.167,0-1.927-0.792-1.927-1.976
		c0-1.191,0.815-2.055,2.079-2.055c0.416,0,0.783,0.104,0.976,0.2l-0.16,0.543c-0.168-0.096-0.432-0.184-0.815-0.184
		c-0.888,0-1.367,0.656-1.367,1.463c0,0.896,0.575,1.447,1.343,1.447c0.4,0,0.664-0.104,0.864-0.191L159.428,134.611z"/>
	<path fill="#C65500" d="M163.708,132.789c0,1.431-0.991,2.055-1.927,2.055c-1.048,0-1.855-0.768-1.855-1.991
		c0-1.296,0.848-2.056,1.919-2.056C162.956,130.797,163.708,131.605,163.708,132.789z M160.638,132.828
		c0,0.848,0.487,1.487,1.175,1.487c0.672,0,1.176-0.632,1.176-1.503c0-0.656-0.328-1.487-1.159-1.487
		C160.997,131.325,160.638,132.093,160.638,132.828z"/>
	<path fill="#C65500" d="M164.598,131.934c0-0.4-0.008-0.729-0.032-1.049h0.624l0.039,0.641h0.017
		c0.191-0.368,0.64-0.729,1.279-0.729c0.535,0,1.367,0.32,1.367,1.648v2.311h-0.704v-2.231c0-0.624-0.231-1.144-0.896-1.144
		c-0.463,0-0.823,0.328-0.943,0.721c-0.031,0.088-0.048,0.207-0.048,0.327v2.327h-0.703V131.934z"/>
	<path fill="#C65500" d="M168.941,134.035c0.208,0.137,0.576,0.28,0.928,0.28c0.512,0,0.752-0.256,0.752-0.575
		c0-0.336-0.2-0.52-0.72-0.712c-0.695-0.248-1.023-0.632-1.023-1.095c0-0.625,0.504-1.137,1.335-1.137
		c0.392,0,0.736,0.113,0.952,0.24l-0.177,0.512c-0.151-0.096-0.432-0.224-0.791-0.224c-0.416,0-0.647,0.239-0.647,0.528
		c0,0.319,0.231,0.463,0.735,0.655c0.672,0.256,1.016,0.591,1.016,1.167c0,0.68-0.528,1.16-1.447,1.16
		c-0.424,0-0.815-0.105-1.088-0.264L168.941,134.035z"/>
	<path fill="#C65500" d="M172.597,132.948c0.016,0.952,0.624,1.343,1.327,1.343c0.504,0,0.808-0.088,1.071-0.199l0.12,0.504
		c-0.248,0.111-0.672,0.24-1.287,0.24c-1.191,0-1.903-0.784-1.903-1.951c0-1.168,0.688-2.088,1.815-2.088
		c1.263,0,1.599,1.111,1.599,1.824c0,0.144-0.016,0.256-0.023,0.327H172.597z M174.659,132.445c0.008-0.448-0.184-1.145-0.976-1.145
		c-0.711,0-1.023,0.656-1.079,1.145H174.659z"/>
	<path fill="#C65500" d="M178.972,134.611c-0.184,0.096-0.591,0.225-1.111,0.225c-1.167,0-1.927-0.792-1.927-1.976
		c0-1.191,0.815-2.055,2.079-2.055c0.416,0,0.783,0.104,0.976,0.2l-0.16,0.543c-0.168-0.096-0.432-0.184-0.815-0.184
		c-0.888,0-1.367,0.656-1.367,1.463c0,0.896,0.575,1.447,1.343,1.447c0.4,0,0.664-0.104,0.864-0.191L178.972,134.611z"/>
	<path fill="#C65500" d="M180.749,129.773v1.111h1.007v0.537h-1.007v2.086c0,0.48,0.136,0.752,0.527,0.752
		c0.184,0,0.319-0.023,0.407-0.049l0.032,0.529c-0.136,0.055-0.352,0.096-0.623,0.096c-0.328,0-0.592-0.105-0.76-0.297
		c-0.2-0.207-0.272-0.551-0.272-1.007v-2.11h-0.6v-0.537h0.6v-0.927L180.749,129.773z"/>
	<path fill="#C65500" d="M182.893,132.948c0.016,0.952,0.623,1.343,1.327,1.343c0.504,0,0.808-0.088,1.071-0.199l0.12,0.504
		c-0.248,0.111-0.672,0.24-1.287,0.24c-1.191,0-1.903-0.784-1.903-1.951c0-1.168,0.688-2.088,1.815-2.088
		c1.263,0,1.599,1.111,1.599,1.824c0,0.144-0.016,0.256-0.023,0.327H182.893z M184.955,132.445c0.008-0.448-0.184-1.145-0.976-1.145
		c-0.711,0-1.023,0.656-1.079,1.145H184.955z"/>
	<path fill="#C65500" d="M187.356,129.773v1.111h1.007v0.537h-1.007v2.086c0,0.48,0.136,0.752,0.527,0.752
		c0.184,0,0.319-0.023,0.407-0.049l0.032,0.529c-0.136,0.055-0.352,0.096-0.623,0.096c-0.328,0-0.592-0.105-0.76-0.297
		c-0.2-0.207-0.272-0.551-0.272-1.007v-2.11h-0.6v-0.537h0.6v-0.927L187.356,129.773z"/>
	<path fill="#C65500" d="M192.396,133.699c0,0.4,0.008,0.752,0.031,1.057h-0.623l-0.04-0.633h-0.017
		c-0.184,0.312-0.591,0.721-1.279,0.721c-0.607,0-1.335-0.336-1.335-1.695v-2.264h0.704v2.144c0,0.735,0.224,1.231,0.863,1.231
		c0.472,0,0.8-0.328,0.928-0.64c0.04-0.104,0.063-0.231,0.063-0.36v-2.375h0.704V133.699z"/>
	<path fill="#C65500" d="M193.564,132.093c0-0.456-0.008-0.848-0.032-1.208h0.615l0.024,0.76h0.032
		c0.176-0.52,0.6-0.848,1.071-0.848c0.08,0,0.136,0.009,0.199,0.025v0.663c-0.071-0.017-0.144-0.024-0.239-0.024
		c-0.496,0-0.848,0.376-0.943,0.904c-0.017,0.096-0.032,0.207-0.032,0.327v2.063h-0.695V132.093z"/>
	<path fill="#C65500" d="M63.067,142.756l-0.056-0.488h-0.024c-0.216,0.305-0.632,0.576-1.184,0.576
		c-0.783,0-1.183-0.553-1.183-1.111c0-0.936,0.831-1.447,2.326-1.439v-0.08c0-0.32-0.088-0.896-0.879-0.896
		c-0.36,0-0.736,0.113-1.008,0.289l-0.16-0.465c0.32-0.207,0.783-0.344,1.271-0.344c1.184,0,1.471,0.809,1.471,1.584v1.447
		c0,0.336,0.017,0.664,0.064,0.928H63.067z M62.963,140.781c-0.768-0.018-1.639,0.119-1.639,0.871c0,0.455,0.304,0.672,0.664,0.672
		c0.503,0,0.823-0.32,0.936-0.648c0.023-0.072,0.039-0.152,0.039-0.225V140.781z"/>
	<path fill="#C65500" d="M68.122,137.078v4.678c0,0.344,0.008,0.736,0.032,1h-0.632l-0.032-0.672h-0.016
		c-0.216,0.432-0.688,0.76-1.319,0.76c-0.936,0-1.655-0.793-1.655-1.967c-0.008-1.287,0.792-2.08,1.735-2.08
		c0.592,0,0.991,0.281,1.167,0.592h0.017v-2.311H68.122z M67.419,140.461c0-0.088-0.009-0.209-0.032-0.297
		c-0.104-0.447-0.488-0.814-1.016-0.814c-0.728,0-1.159,0.639-1.159,1.494c0,0.785,0.384,1.432,1.144,1.432
		c0.472,0,0.903-0.312,1.031-0.84c0.023-0.096,0.032-0.191,0.032-0.303V140.461z"/>
	<path fill="#C65500" d="M70.076,137.799c0.008,0.238-0.168,0.432-0.447,0.432c-0.248,0-0.424-0.193-0.424-0.432
		c0-0.248,0.184-0.441,0.439-0.441C69.908,137.357,70.076,137.551,70.076,137.799z M69.293,142.756v-3.871h0.703v3.871H69.293z"/>
	<path fill="#C65500" d="M71.164,140.148c0-0.496-0.017-0.895-0.032-1.264h0.632l0.031,0.664h0.017
		c0.288-0.471,0.743-0.752,1.375-0.752c0.936,0,1.64,0.793,1.64,1.967c0,1.393-0.848,2.08-1.76,2.08
		c-0.512,0-0.959-0.225-1.191-0.607h-0.016v2.102h-0.695V140.148z M71.859,141.18c0,0.104,0.016,0.201,0.032,0.289
		c0.128,0.486,0.552,0.822,1.056,0.822c0.743,0,1.175-0.607,1.175-1.494c0-0.775-0.407-1.439-1.151-1.439
		c-0.479,0-0.928,0.344-1.063,0.871c-0.023,0.088-0.048,0.191-0.048,0.287V141.18z"/>
	<path fill="#C65500" d="M76.5,137.799c0.008,0.238-0.168,0.432-0.447,0.432c-0.248,0-0.424-0.193-0.424-0.432
		c0-0.248,0.184-0.441,0.439-0.441C76.332,137.357,76.5,137.551,76.5,137.799z M75.717,142.756v-3.871h0.703v3.871H75.717z"/>
	<path fill="#C65500" d="M77.491,142.035c0.208,0.137,0.576,0.281,0.928,0.281c0.512,0,0.752-0.256,0.752-0.576
		c0-0.336-0.2-0.52-0.72-0.713c-0.695-0.246-1.023-0.631-1.023-1.094c0-0.625,0.504-1.137,1.335-1.137
		c0.392,0,0.735,0.113,0.952,0.24l-0.177,0.512c-0.151-0.096-0.432-0.223-0.791-0.223c-0.416,0-0.647,0.238-0.647,0.527
		c0,0.318,0.231,0.463,0.735,0.654c0.672,0.256,1.016,0.592,1.016,1.168c0,0.68-0.528,1.16-1.447,1.16
		c-0.424,0-0.815-0.105-1.088-0.264L77.491,142.035z"/>
	<path fill="#C65500" d="M83.514,142.611c-0.184,0.096-0.592,0.225-1.111,0.225c-1.167,0-1.927-0.793-1.927-1.975
		c0-1.191,0.815-2.057,2.079-2.057c0.416,0,0.783,0.105,0.976,0.201l-0.16,0.543c-0.168-0.096-0.432-0.184-0.815-0.184
		c-0.888,0-1.367,0.656-1.367,1.463c0,0.896,0.575,1.447,1.343,1.447c0.4,0,0.664-0.104,0.864-0.191L83.514,142.611z"/>
	<path fill="#C65500" d="M85.123,137.799c0.008,0.238-0.168,0.432-0.447,0.432c-0.248,0-0.424-0.193-0.424-0.432
		c0-0.248,0.184-0.441,0.439-0.441C84.955,137.357,85.123,137.551,85.123,137.799z M84.34,142.756v-3.871h0.703v3.871H84.34z"/>
	<path fill="#C65500" d="M86.212,139.934c0-0.4-0.009-0.729-0.032-1.049h0.624l0.04,0.641h0.016c0.191-0.367,0.64-0.729,1.279-0.729
		c0.535,0,1.367,0.32,1.367,1.648v2.311h-0.704v-2.23c0-0.625-0.231-1.145-0.896-1.145c-0.463,0-0.823,0.328-0.943,0.721
		c-0.031,0.088-0.048,0.207-0.048,0.326v2.328h-0.703V139.934z"/>
	<path fill="#C65500" d="M93.986,138.885c-0.016,0.281-0.032,0.592-0.032,1.064v2.246c0,0.889-0.176,1.432-0.552,1.768
		c-0.376,0.352-0.919,0.463-1.407,0.463c-0.464,0-0.976-0.111-1.287-0.318l0.176-0.537c0.256,0.16,0.655,0.305,1.136,0.305
		c0.72,0,1.247-0.377,1.247-1.352v-0.432h-0.016c-0.216,0.359-0.632,0.648-1.231,0.648c-0.96,0-1.647-0.816-1.647-1.889
		c0-1.311,0.855-2.055,1.743-2.055c0.672,0,1.039,0.352,1.207,0.672h0.017l0.031-0.584H93.986z M93.259,140.412
		c0-0.119-0.008-0.223-0.04-0.318c-0.128-0.408-0.472-0.744-0.983-0.744c-0.672,0-1.151,0.566-1.151,1.463
		c0,0.76,0.384,1.391,1.144,1.391c0.432,0,0.823-0.271,0.976-0.719c0.039-0.121,0.056-0.256,0.056-0.377V140.412z"/>
	<path fill="#C65500" d="M94.836,142.34c0-0.297,0.199-0.504,0.479-0.504s0.472,0.207,0.472,0.504c0,0.287-0.184,0.504-0.479,0.504
		C95.027,142.844,94.836,142.627,94.836,142.34z"/>
	<path fill="#C65500" d="M102.921,140.389c-0.04-0.752-0.088-1.654-0.08-2.326h-0.024c-0.184,0.631-0.407,1.303-0.68,2.047
		l-0.951,2.613h-0.527l-0.872-2.566c-0.256-0.76-0.472-1.455-0.623-2.094h-0.017c-0.016,0.672-0.056,1.574-0.104,2.383l-0.145,2.311
		h-0.663l0.376-5.389h0.887l0.92,2.605c0.224,0.664,0.408,1.256,0.544,1.814h0.023c0.137-0.543,0.328-1.135,0.568-1.814l0.959-2.605
		h0.888l0.336,5.389h-0.68L102.921,140.389z"/>
	<path fill="#C65500" d="M108.337,140.789c0,1.43-0.991,2.055-1.927,2.055c-1.048,0-1.855-0.768-1.855-1.992
		c0-1.295,0.848-2.055,1.919-2.055C107.585,138.797,108.337,139.605,108.337,140.789z M105.267,140.828
		c0,0.848,0.487,1.488,1.175,1.488c0.672,0,1.176-0.633,1.176-1.504c0-0.656-0.328-1.486-1.159-1.486
		C105.626,139.326,105.267,140.094,105.267,140.828z"/>
	<path fill="#C65500" d="M109.228,140.094c0-0.457-0.009-0.848-0.032-1.209h0.615l0.024,0.76h0.032
		c0.176-0.52,0.6-0.848,1.071-0.848c0.08,0,0.136,0.008,0.2,0.025v0.662c-0.072-0.016-0.145-0.023-0.24-0.023
		c-0.496,0-0.848,0.377-0.943,0.904c-0.017,0.096-0.032,0.207-0.032,0.328v2.062h-0.695V140.094z"/>
	<path fill="#C65500" d="M111.843,142.756c0.016-0.264,0.032-0.656,0.032-1v-4.678h0.695v2.432h0.016
		c0.248-0.432,0.696-0.713,1.319-0.713c0.96,0,1.64,0.801,1.632,1.975c0,1.385-0.872,2.072-1.735,2.072
		c-0.56,0-1.008-0.217-1.296-0.729h-0.023l-0.032,0.641H111.843z M112.57,141.205c0,0.088,0.016,0.176,0.032,0.256
		c0.136,0.486,0.544,0.822,1.056,0.822c0.735,0,1.175-0.6,1.175-1.486c0-0.775-0.399-1.439-1.151-1.439
		c-0.479,0-0.928,0.328-1.071,0.863c-0.016,0.08-0.04,0.176-0.04,0.287V141.205z"/>
	<path fill="#C65500" d="M117.21,137.799c0.008,0.238-0.168,0.432-0.447,0.432c-0.248,0-0.424-0.193-0.424-0.432
		c0-0.248,0.184-0.441,0.439-0.441C117.042,137.357,117.21,137.551,117.21,137.799z M116.427,142.756v-3.871h0.703v3.871H116.427z"
		/>
	<path fill="#C65500" d="M119.052,143.875c0.319-0.023,0.6-0.111,0.768-0.297c0.191-0.223,0.264-0.527,0.264-1.455v-3.238h0.703
		v3.512c0,0.75-0.12,1.238-0.464,1.59c-0.312,0.312-0.823,0.439-1.199,0.439L119.052,143.875z M120.866,137.799
		c0.008,0.23-0.16,0.432-0.439,0.432c-0.264,0-0.432-0.201-0.432-0.432c0-0.248,0.184-0.441,0.447-0.441
		C120.698,137.357,120.866,137.551,120.866,137.799z"/>
	<path fill="#C65500" d="M125.177,141.699c0,0.4,0.008,0.752,0.031,1.057h-0.623l-0.04-0.633h-0.017
		c-0.184,0.312-0.591,0.721-1.279,0.721c-0.607,0-1.335-0.336-1.335-1.695v-2.264h0.704v2.143c0,0.736,0.224,1.232,0.863,1.232
		c0.472,0,0.8-0.328,0.928-0.641c0.04-0.104,0.063-0.23,0.063-0.359v-2.375h0.704V141.699z"/>
	<path fill="#C65500" d="M126.25,142.035c0.208,0.137,0.576,0.281,0.928,0.281c0.512,0,0.752-0.256,0.752-0.576
		c0-0.336-0.2-0.52-0.72-0.713c-0.695-0.246-1.023-0.631-1.023-1.094c0-0.625,0.504-1.137,1.335-1.137
		c0.392,0,0.736,0.113,0.952,0.24l-0.177,0.512c-0.151-0.096-0.432-0.223-0.791-0.223c-0.416,0-0.647,0.238-0.647,0.527
		c0,0.318,0.231,0.463,0.735,0.654c0.672,0.256,1.016,0.592,1.016,1.168c0,0.68-0.528,1.16-1.447,1.16
		c-0.424,0-0.815-0.105-1.088-0.264L126.25,142.035z"/>
	<path fill="#C65500" d="M130.362,137.773v1.111h1.007v0.537h-1.007v2.086c0,0.48,0.136,0.752,0.527,0.752
		c0.184,0,0.319-0.023,0.407-0.049l0.032,0.529c-0.136,0.055-0.352,0.096-0.623,0.096c-0.328,0-0.592-0.105-0.76-0.297
		c-0.2-0.207-0.272-0.551-0.272-1.008v-2.109h-0.6v-0.537h0.6v-0.928L130.362,137.773z"/>
	<path fill="#C65500" d="M135.616,140.789c0,1.43-0.991,2.055-1.927,2.055c-1.048,0-1.855-0.768-1.855-1.992
		c0-1.295,0.848-2.055,1.919-2.055C134.864,138.797,135.616,139.605,135.616,140.789z M132.546,140.828
		c0,0.848,0.487,1.488,1.175,1.488c0.672,0,1.176-0.633,1.176-1.504c0-0.656-0.328-1.486-1.159-1.486
		C132.905,139.326,132.546,140.094,132.546,140.828z"/>
	<path fill="#C65500" d="M138.202,139.934c0-0.4-0.009-0.729-0.032-1.049h0.615l0.032,0.625h0.024
		c0.216-0.369,0.575-0.713,1.215-0.713c0.528,0,0.928,0.32,1.096,0.775h0.016c0.12-0.215,0.272-0.383,0.432-0.502
		c0.232-0.178,0.488-0.273,0.855-0.273c0.512,0,1.271,0.336,1.271,1.68v2.279h-0.688v-2.191c0-0.744-0.271-1.191-0.84-1.191
		c-0.399,0-0.711,0.297-0.831,0.641c-0.032,0.096-0.056,0.223-0.056,0.352v2.391h-0.688v-2.318c0-0.617-0.272-1.064-0.808-1.064
		c-0.44,0-0.76,0.352-0.872,0.703c-0.04,0.105-0.056,0.225-0.056,0.344v2.336h-0.688V139.934z"/>
	<path fill="#C65500" d="M148.376,140.789c0,1.43-0.991,2.055-1.927,2.055c-1.048,0-1.855-0.768-1.855-1.992
		c0-1.295,0.848-2.055,1.919-2.055C147.624,138.797,148.376,139.605,148.376,140.789z M145.306,140.828
		c0,0.848,0.487,1.488,1.175,1.488c0.672,0,1.176-0.633,1.176-1.504c0-0.656-0.328-1.486-1.159-1.486
		C145.665,139.326,145.306,140.094,145.306,140.828z"/>
	<path fill="#C65500" d="M149.267,137.078h0.703v5.678h-0.703V137.078z"/>
	<path fill="#C65500" d="M151.546,140.949c0.016,0.951,0.624,1.342,1.327,1.342c0.504,0,0.808-0.088,1.071-0.199l0.12,0.504
		c-0.248,0.111-0.672,0.24-1.287,0.24c-1.191,0-1.903-0.785-1.903-1.951c0-1.168,0.688-2.088,1.815-2.088
		c1.263,0,1.599,1.111,1.599,1.824c0,0.143-0.016,0.256-0.023,0.328H151.546z M153.608,140.445c0.008-0.449-0.184-1.145-0.976-1.145
		c-0.711,0-1.023,0.656-1.079,1.145H153.608z"/>
	<path fill="#C65500" d="M155.065,142.035c0.208,0.137,0.576,0.281,0.928,0.281c0.512,0,0.752-0.256,0.752-0.576
		c0-0.336-0.2-0.52-0.72-0.713c-0.695-0.246-1.023-0.631-1.023-1.094c0-0.625,0.504-1.137,1.335-1.137
		c0.392,0,0.735,0.113,0.952,0.24l-0.177,0.512c-0.151-0.096-0.432-0.223-0.791-0.223c-0.416,0-0.647,0.238-0.647,0.527
		c0,0.318,0.231,0.463,0.735,0.654c0.672,0.256,1.016,0.592,1.016,1.168c0,0.68-0.528,1.16-1.447,1.16
		c-0.424,0-0.815-0.105-1.088-0.264L155.065,142.035z"/>
	<path fill="#C65500" d="M159.178,137.773v1.111h1.007v0.537h-1.007v2.086c0,0.48,0.136,0.752,0.527,0.752
		c0.184,0,0.319-0.023,0.408-0.049l0.031,0.529c-0.136,0.055-0.352,0.096-0.623,0.096c-0.328,0-0.592-0.105-0.76-0.297
		c-0.2-0.207-0.272-0.551-0.272-1.008v-2.109h-0.6v-0.537h0.6v-0.928L159.178,137.773z"/>
	<path fill="#C65500" d="M161.761,137.799c0.008,0.238-0.168,0.432-0.447,0.432c-0.248,0-0.424-0.193-0.424-0.432
		c0-0.248,0.184-0.441,0.439-0.441C161.593,137.357,161.761,137.551,161.761,137.799z M160.978,142.756v-3.871h0.703v3.871H160.978z
		"/>
	<path fill="#C65500" d="M163.241,140.949c0.016,0.951,0.624,1.342,1.327,1.342c0.504,0,0.808-0.088,1.071-0.199l0.12,0.504
		c-0.248,0.111-0.672,0.24-1.287,0.24c-1.191,0-1.903-0.785-1.903-1.951c0-1.168,0.688-2.088,1.815-2.088
		c1.263,0,1.599,1.111,1.599,1.824c0,0.143-0.016,0.256-0.023,0.328H163.241z M165.304,140.445c0.008-0.449-0.184-1.145-0.976-1.145
		c-0.711,0-1.023,0.656-1.079,1.145H165.304z"/>
	<path fill="#C65500" d="M168.554,140.094c0-0.457-0.009-0.848-0.032-1.209h0.615l0.024,0.76h0.032
		c0.176-0.52,0.6-0.848,1.071-0.848c0.08,0,0.136,0.008,0.2,0.025v0.662c-0.072-0.016-0.145-0.023-0.24-0.023
		c-0.496,0-0.848,0.377-0.943,0.904c-0.017,0.096-0.032,0.207-0.032,0.328v2.062h-0.695V140.094z"/>
	<path fill="#C65500" d="M171.201,137.078h0.703v2.414h0.017c0.111-0.199,0.287-0.375,0.503-0.494
		c0.208-0.121,0.456-0.201,0.72-0.201c0.52,0,1.352,0.32,1.352,1.656v2.303h-0.704v-2.223c0-0.625-0.231-1.152-0.896-1.152
		c-0.455,0-0.815,0.32-0.943,0.703c-0.04,0.098-0.048,0.201-0.048,0.336v2.336h-0.703V137.078z"/>
	<path fill="#C65500" d="M179.144,140.789c0,1.43-0.991,2.055-1.927,2.055c-1.048,0-1.855-0.768-1.855-1.992
		c0-1.295,0.848-2.055,1.919-2.055C178.392,138.797,179.144,139.605,179.144,140.789z M176.073,140.828
		c0,0.848,0.487,1.488,1.175,1.488c0.672,0,1.176-0.633,1.176-1.504c0-0.656-0.328-1.486-1.159-1.486
		C176.433,139.326,176.073,140.094,176.073,140.828z"/>
	<path fill="#C65500" d="M180.033,139.934c0-0.4-0.008-0.729-0.032-1.049h0.624l0.039,0.641h0.017
		c0.191-0.367,0.64-0.729,1.279-0.729c0.535,0,1.367,0.32,1.367,1.648v2.311h-0.704v-2.23c0-0.625-0.231-1.145-0.896-1.145
		c-0.463,0-0.823,0.328-0.943,0.721c-0.031,0.088-0.048,0.207-0.048,0.326v2.328h-0.703V139.934z"/>
	<path fill="#C65500" d="M187.231,142.611c-0.184,0.096-0.591,0.225-1.111,0.225c-1.167,0-1.927-0.793-1.927-1.975
		c0-1.191,0.815-2.057,2.079-2.057c0.416,0,0.783,0.105,0.976,0.201l-0.16,0.543c-0.168-0.096-0.432-0.184-0.815-0.184
		c-0.888,0-1.367,0.656-1.367,1.463c0,0.896,0.575,1.447,1.343,1.447c0.4,0,0.664-0.104,0.864-0.191L187.231,142.611z"/>
	<path fill="#C65500" d="M191.296,141.699c0,0.4,0.008,0.752,0.031,1.057h-0.623l-0.04-0.633h-0.017
		c-0.184,0.312-0.591,0.721-1.279,0.721c-0.607,0-1.335-0.336-1.335-1.695v-2.264h0.704v2.143c0,0.736,0.224,1.232,0.863,1.232
		c0.472,0,0.8-0.328,0.928-0.641c0.04-0.104,0.063-0.23,0.063-0.359v-2.375h0.704V141.699z"/>
	<path fill="#C65500" d="M192.368,142.035c0.208,0.137,0.576,0.281,0.928,0.281c0.512,0,0.752-0.256,0.752-0.576
		c0-0.336-0.2-0.52-0.72-0.713c-0.695-0.246-1.023-0.631-1.023-1.094c0-0.625,0.504-1.137,1.335-1.137
		c0.392,0,0.735,0.113,0.952,0.24l-0.177,0.512c-0.151-0.096-0.432-0.223-0.791-0.223c-0.416,0-0.647,0.238-0.647,0.527
		c0,0.318,0.231,0.463,0.735,0.654c0.672,0.256,1.016,0.592,1.016,1.168c0,0.68-0.528,1.16-1.447,1.16
		c-0.424,0-0.815-0.105-1.088-0.264L192.368,142.035z"/>
	<path fill="#C65500" d="M195.377,142.34c0-0.297,0.199-0.504,0.479-0.504s0.472,0.207,0.472,0.504c0,0.287-0.184,0.504-0.479,0.504
		C195.568,142.844,195.377,142.627,195.377,142.34z"/>
</g>
<g>
	<path fill="#F75237" d="M57.201,108.661c0,9.04-5.533,13.56-16.601,13.56c-4.965,0-9.229-0.739-12.792-2.218l1.279-6.794
		c3.146,1.517,6.405,2.274,9.778,2.274c2.597,0,4.463-0.274,5.601-0.824c1.705-0.814,2.558-2.368,2.558-4.662
		c0-1.819-1.07-3.411-3.212-4.775c-0.985-0.626-2.833-1.478-5.543-2.558c-3.411-1.365-5.903-2.985-7.476-4.861
		c-1.801-2.161-2.701-4.965-2.701-8.415c0-3.998,1.763-7.078,5.287-9.238c2.976-1.819,6.604-2.729,10.888-2.729
		c4.529,0,8.253,0.588,11.171,1.763l-1.052,6.396c-3.657-0.948-6.851-1.421-9.579-1.421c-4.928,0-7.391,1.44-7.391,4.321
		c0,1.933,1.042,3.506,3.127,4.718c0.246,0.152,2.169,0.881,5.771,2.189C53.572,98.039,57.201,102.465,57.201,108.661z"/>
	<path fill="#F75237" d="M110.301,88.422l-13.502,33.23h-6.056l-6.281-17.113l-6.937,17.113h-6.339L58.85,88.422h10.404
		l7.106,19.671l7.106-19.671h4.604l7.391,19.5l7.505-19.5H110.301z"/>
	<path fill="#F75237" d="M143.104,106.813h-21.604c0,6.52,2.918,9.778,8.755,9.778c3.051,0,6.301-0.786,9.75-2.359l1.422,5.004
		c-3.771,2.122-8.026,3.184-12.764,3.184c-5.344,0-9.438-1.555-12.28-4.662c-2.748-2.994-4.121-7.191-4.121-12.593
		c0-5.269,1.308-9.466,3.922-12.593c2.805-3.354,6.794-5.032,11.968-5.032c5.003,0,8.783,1.469,11.342,4.406
		c2.406,2.786,3.61,6.708,3.61,11.768V106.813z M134.548,102.038c-0.341-6.14-2.473-9.21-6.396-9.21c-4.094,0-6.282,3.07-6.566,9.21
		H134.548z"/>
	<path fill="#F75237" d="M178.665,106.813h-21.604c0,6.52,2.918,9.778,8.755,9.778c3.051,0,6.301-0.786,9.75-2.359l1.422,5.004
		c-3.771,2.122-8.026,3.184-12.764,3.184c-5.344,0-9.438-1.555-12.28-4.662c-2.748-2.994-4.121-7.191-4.121-12.593
		c0-5.269,1.308-9.466,3.922-12.593c2.805-3.354,6.794-5.032,11.968-5.032c5.003,0,8.783,1.469,11.342,4.406
		c2.406,2.786,3.61,6.708,3.61,11.768V106.813z M170.108,102.038c-0.341-6.14-2.473-9.21-6.396-9.21c-4.094,0-6.282,3.07-6.566,9.21
		H170.108z"/>
	<path fill="#F75237" d="M204.078,120.344c-2.027,1.062-4.747,1.592-8.158,1.592c-3.278,0-5.78-1.098-7.504-3.297
		c-1.592-2.008-2.388-4.69-2.388-8.045V94.278h-4.378v-5.856h4.378v-4.207l9.267-5.571v9.778h6.907v5.856h-6.907v16.884
		c0,1.706,0.274,2.928,0.824,3.668c0.644,0.891,1.781,1.336,3.411,1.336c1.459,0,2.53-0.161,3.212-0.483L204.078,120.344z"/>
	<path fill="#F75237" d="M229.32,111.532c0,3.904-1.497,6.774-4.491,8.613c-2.444,1.516-5.742,2.274-9.893,2.274
		c-3.904,0-7.106-0.683-9.607-2.047l1.08-5.486c2.71,1.439,5.315,2.16,7.817,2.16c1.648,0,3.107-0.266,4.377-0.796
		c1.668-0.7,2.502-1.791,2.502-3.269c0-1.535-0.872-2.758-2.615-3.668c-0.437-0.227-1.972-0.748-4.605-1.562
		c-2.748-0.854-4.729-2.076-5.94-3.668c-1.271-1.648-1.905-3.884-1.905-6.708c0-3.259,1.289-5.732,3.866-7.419
		c2.179-1.421,4.984-2.132,8.414-2.132c3.544,0,6.576,0.644,9.097,1.933l-0.768,4.975c-1.972-1.08-4.596-1.62-7.874-1.62
		c-1.402,0-2.605,0.218-3.61,0.654c-1.402,0.606-2.104,1.497-2.104,2.672c0,1.327,0.834,2.341,2.502,3.042
		c0.113,0.058,1.516,0.483,4.207,1.279c3.221,0.966,5.533,2.151,6.936,3.554C228.448,106.056,229.32,108.463,229.32,111.532z"/>
</g>
<g>
	<path fill="#C65500" d="M87.319,76.278l-1.525,4.707h-1.961l4.989-14.964h2.288l5.012,14.964h-2.026l-1.568-4.707H87.319z
		 M92.135,74.768l-1.438-4.307c-0.326-0.977-0.545-1.865-0.763-2.731h-0.043c-0.218,0.888-0.458,1.798-0.741,2.708l-1.438,4.33
		H92.135z"/>
	<path fill="#C65500" d="M98.282,66.021h1.896v13.343h6.275v1.621h-8.171V66.021z"/>
	<path fill="#C65500" d="M108.569,66.021h1.896v13.343h6.275v1.621h-8.171V66.021z"/>
	<path fill="#C65500" d="M125.742,80.984v-6.35l-4.642-8.614h2.157l2.07,4.129c0.566,1.132,1.002,2.042,1.46,3.086h0.043
		c0.414-0.977,0.915-1.954,1.481-3.086l2.114-4.129h2.157l-4.925,8.592v6.372H125.742z"/>
	<path fill="#C65500" d="M146.031,73.347c0,5.15-3.072,7.881-6.82,7.881c-3.879,0-6.603-3.064-6.603-7.593
		c0-4.751,2.898-7.859,6.82-7.859C143.438,65.776,146.031,68.907,146.031,73.347z M134.635,73.591c0,3.197,1.7,6.061,4.686,6.061
		c3.007,0,4.706-2.82,4.706-6.216c0-2.975-1.525-6.083-4.685-6.083C136.204,67.353,134.635,70.306,134.635,73.591z"/>
	<path fill="#C65500" d="M150.392,66.021v8.858c0,3.353,1.46,4.773,3.421,4.773c2.179,0,3.573-1.465,3.573-4.773v-8.858h1.918v8.725
		c0,4.596-2.375,6.483-5.557,6.483c-3.007,0-5.273-1.754-5.273-6.394v-8.814H150.392z"/>
	<path fill="#C65500" d="M162.598,66.22c0.959-0.2,2.331-0.311,3.639-0.311c2.026,0,3.334,0.377,4.249,1.221
		c0.741,0.667,1.154,1.688,1.154,2.842c0,1.976-1.22,3.286-2.767,3.819v0.067c1.133,0.399,1.809,1.465,2.157,3.019
		c0.479,2.087,0.828,3.53,1.133,4.107h-1.961c-0.24-0.422-0.566-1.709-0.98-3.574c-0.437-2.065-1.221-2.842-2.941-2.909h-1.787
		v6.483h-1.896V66.22z M164.493,73.036h1.939c2.026,0,3.312-1.132,3.312-2.842c0-1.932-1.372-2.775-3.377-2.797
		c-0.915,0-1.569,0.089-1.874,0.178V73.036z"/>
</g>
</svg>
