<?xml version="1.0" encoding="utf-8"?>
<!-- Generator: Adobe Illustrator 16.0.4, SVG Export Plug-In . SVG Version: 6.00 Build 0)  -->
<!DOCTYPE svg PUBLIC "-//W3C//DTD SVG 1.1//EN" "http://www.w3.org/Graphics/SVG/1.1/DTD/svg11.dtd">
<svg version="1.1" id="Layer_1" xmlns="http://www.w3.org/2000/svg" xmlns:xlink="http://www.w3.org/1999/xlink" x="0px" y="0px"
	 width="251.898px" height="191.207px" viewBox="0 0 251.898 191.207" enable-background="new 0 0 251.898 191.207"
	 xml:space="preserve">
<g>
	<path fill-rule="evenodd" clip-rule="evenodd" fill="#ED1A3E" d="M125.086,4.176l-5.478,12.149
		c-0.323,0.576-3.079,5.201-8.948,6.499c-0.939,0.208-2.697,0.455-5.734,0.455c-7.973,0-19.178-1.643-29.062-3.092
		c-5.889-0.863-11.449-1.678-15.664-2.038c-0.992-0.084-1.995-0.127-2.985-0.127C47.069,18.019,37.52,22.393,30.33,30.336
		c-6.207,6.854-9.999,15.867-10.622,25.074C7.628,63.542,0.029,79.475,0.029,97.357c0,17.879,7.599,33.812,19.676,41.947
		c1.345,20.529,17.975,37.391,37.51,37.391c0.989,0,1.992-0.043,2.985-0.127c4.215-0.361,9.774-1.176,15.662-2.039
		c9.886-1.449,21.091-3.092,29.063-3.092c3.037,0,4.794,0.248,5.734,0.455c6.136,1.357,8.908,6.414,8.934,6.465l5.82,11.643
		l6.566-10.967c0.391-0.561,4.086-5.572,11.832-7.367c0.822-0.189,2.369-0.416,5.068-0.416c7.489,0,18.194,1.691,27.639,3.184
		c5.711,0.902,11.104,1.756,15.195,2.131c1.052,0.096,2.119,0.143,3.169,0.143c19.461,0,36.029-16.865,37.369-37.402
		c12.079-8.135,19.675-24.068,19.675-41.947c0-17.88-7.596-33.812-19.675-41.946c-1.34-20.538-17.908-37.406-37.369-37.406
		c-1.05,0-2.117,0.05-3.17,0.146c-4.09,0.375-9.483,1.227-15.194,2.129c-9.443,1.494-20.149,3.186-27.639,3.186
		c-2.699,0-4.246-0.229-5.068-0.417c-7.747-1.794-11.441-6.808-11.832-7.367L125.086,4.176z"/>
	<path fill-rule="evenodd" clip-rule="evenodd" fill="#B31F2D" d="M125.979,16.245c0,0-4.144,8.406-14.114,10.642
		c-2.033,0.457-4.572,0.65-7.452,0.65c-13.764,0-35.297-4.394-46.44-5.359c-0.816-0.07-1.63-0.105-2.435-0.105
		c-17.384,0-31.202,16.213-31.202,34.222V57.8C12.618,63.728,4.27,79.078,4.27,97.086c0,18.009,8.349,33.361,20.065,39.289v1.506
		c0,18.006,13.82,34.221,31.202,34.221c0.805,0,1.616-0.035,2.435-0.107c11.143-0.963,32.677-5.355,46.44-5.355
		c2.881,0,5.418,0.191,7.452,0.646c9.971,2.238,14.114,10.645,14.114,10.645s5.118-8.158,16.618-10.861
		c1.869-0.438,4.199-0.627,6.843-0.627c13.083,0,33.855,4.562,44.545,5.553c0.867,0.082,1.729,0.123,2.581,0.123
		c17.307,0,31.057-16.279,31.057-34.236v-1.506c11.717-5.926,20.064-21.277,20.064-39.288c0-18.01-8.349-33.361-20.064-39.288
		v-1.505c0-17.958-13.751-34.236-31.057-34.236c-0.854,0-1.712,0.04-2.581,0.121c-10.689,0.991-31.463,5.552-44.545,5.552
		c-2.645,0-4.973-0.186-6.843-0.625C131.097,24.403,125.979,16.245,125.979,16.245L125.979,16.245z"/>
	<path fill-rule="evenodd" clip-rule="evenodd" fill="#FBD6DE" d="M125.979,19.279c0,0-4.045,8.091-13.778,10.242
		c-1.984,0.439-4.464,0.625-7.274,0.625c-13.437,0-34.456-4.229-45.334-5.157c-0.798-0.068-1.592-0.102-2.378-0.102
		c-16.969,0-30.459,15.604-30.459,32.938v1.449C15.317,64.98,7.168,79.754,7.168,97.086c0,17.333,8.149,32.108,19.587,37.814v1.449
		c0,17.33,13.491,32.936,30.459,32.936c0.786,0,1.578-0.033,2.378-0.102c10.877-0.928,31.897-5.156,45.334-5.156
		c2.812,0,5.289,0.186,7.274,0.623c9.733,2.154,13.778,10.244,13.778,10.244s4.996-7.852,16.223-10.453
		c1.824-0.422,4.1-0.602,6.679-0.602c12.772,0,33.05,4.389,43.485,5.344c0.846,0.078,1.687,0.117,2.52,0.117
		c16.895,0,30.317-15.668,30.317-32.951V134.9c11.437-5.703,19.587-20.479,19.587-37.813c0-17.333-8.15-32.109-19.587-37.813v-1.448
		c0-17.284-13.423-32.952-30.317-32.952c-0.834,0-1.672,0.039-2.52,0.116c-10.436,0.954-30.714,5.343-43.485,5.343
		c-2.581,0-4.854-0.178-6.679-0.602C130.975,27.131,125.979,19.279,125.979,19.279L125.979,19.279z"/>
	<path fill-rule="evenodd" clip-rule="evenodd" fill="#F597AD" d="M126.1,26.102c2.148,2.448,7.046,6.954,15.225,8.804
		c1.791,0.405,4.001,0.602,6.757,0.602c7.878,0,18.55-1.646,27.966-3.1c5.375-0.83,10.449-1.613,14.128-1.942
		c0.766-0.069,1.542-0.104,2.306-0.104c15.111,0,27.882,13.608,27.882,29.716v1.365v0.833l0.763,0.371
		c10.85,5.285,18.142,19.126,18.142,34.44c0,15.313-7.292,29.153-18.142,34.44l-0.763,0.372v0.831v1.367
		c0,16.107-12.771,29.717-27.882,29.717c-0.764,0-1.54-0.035-2.306-0.105c-3.679-0.328-8.755-1.113-14.128-1.941
		c-9.417-1.455-20.088-3.102-27.966-3.102c-2.756,0-4.966,0.195-6.757,0.602c-8.179,1.852-13.076,6.357-15.225,8.805
		c-1.824-2.533-5.97-7.064-13.121-8.607c-1.931-0.42-4.324-0.621-7.317-0.621c-8.3,0-19.43,1.594-29.249,3
		c-5.556,0.795-10.802,1.547-14.621,1.863c-0.724,0.062-1.457,0.092-2.178,0.092c-15.188,0-28.019-13.602-28.019-29.701v-1.367
		v-0.832l-0.763-0.371c-10.85-5.287-18.14-19.127-18.14-34.441c0-15.313,7.29-29.153,18.14-34.439l0.763-0.371v-0.833v-1.366
		c0-7.564,2.989-15.126,8.201-20.749c5.353-5.774,12.39-8.956,19.817-8.956c0.721,0,1.454,0.032,2.178,0.094
		c3.819,0.317,9.065,1.068,14.622,1.864c9.819,1.406,20.949,3,29.248,3c2.993,0,5.387-0.203,7.317-0.621
		C120.13,33.165,124.275,28.637,126.1,26.102z"/>
	<g>
		<path fill-rule="evenodd" clip-rule="evenodd" fill="#FBD6DE" d="M15.187,69.667v54.841c-0.881-1.275-1.702-2.627-2.455-4.046
			v-46.75C13.484,72.292,14.306,70.941,15.187,69.667z"/>
		<path fill-rule="evenodd" clip-rule="evenodd" fill="#FBD6DE" d="M29.366,44.779v104.616c-1.28-3.098-2.126-6.408-2.456-9.822
			V54.603C27.24,51.187,28.086,47.875,29.366,44.779z"/>
		<path fill-rule="evenodd" clip-rule="evenodd" fill="#FBD6DE" d="M43.546,28.504v137.164c-0.843-0.471-1.661-0.984-2.456-1.535
			V30.04C41.885,29.489,42.703,28.976,43.546,28.504z"/>
		<rect x="55.27" y="26.748" fill-rule="evenodd" clip-rule="evenodd" fill="#FBD6DE" width="2.455" height="140.678"/>
		<rect x="69.449" y="26.748" fill-rule="evenodd" clip-rule="evenodd" fill="#FBD6DE" width="2.455" height="140.678"/>
		<path fill-rule="evenodd" clip-rule="evenodd" fill="#FBD6DE" d="M86.084,28.571v137.033c-0.818,0.107-1.637,0.219-2.456,0.33
			V28.241C84.446,28.354,85.266,28.463,86.084,28.571z"/>
		<path fill-rule="evenodd" clip-rule="evenodd" fill="#FBD6DE" d="M100.264,30.004V164.17c-0.803,0.045-1.623,0.102-2.456,0.164
			V29.84C98.641,29.904,99.461,29.959,100.264,30.004z"/>
		<path fill-rule="evenodd" clip-rule="evenodd" fill="#FBD6DE" d="M114.443,28.893v136.387c-0.712-0.242-1.459-0.455-2.243-0.629
			l-0.213-0.045V29.567l0.213-0.046C112.984,29.348,113.731,29.136,114.443,28.893z"/>
		<rect x="126.167" y="26.748" fill-rule="evenodd" clip-rule="evenodd" fill="#FBD6DE" width="2.455" height="140.678"/>
		<path fill-rule="evenodd" clip-rule="evenodd" fill="#FBD6DE" d="M142.802,29.859v134.455c-0.205,0.039-0.405,0.082-0.601,0.127
			c-0.639,0.148-1.256,0.314-1.854,0.494V29.239c0.599,0.179,1.216,0.345,1.854,0.493C142.396,29.777,142.597,29.819,142.802,29.859
			z"/>
		<path fill-rule="evenodd" clip-rule="evenodd" fill="#FBD6DE" d="M156.981,29.9v134.374c-0.832-0.078-1.651-0.146-2.456-0.205
			V30.105C155.33,30.046,156.149,29.978,156.981,29.9z"/>
		<path fill-rule="evenodd" clip-rule="evenodd" fill="#FBD6DE" d="M171.161,28.071v138.03c-0.817-0.123-1.636-0.246-2.456-0.367
			V28.438C169.525,28.318,170.344,28.195,171.161,28.071z"/>
		<rect x="182.885" y="26.748" fill-rule="evenodd" clip-rule="evenodd" fill="#FBD6DE" width="2.455" height="140.678"/>
		<rect x="197.064" y="26.748" fill-rule="evenodd" clip-rule="evenodd" fill="#FBD6DE" width="2.455" height="140.678"/>
		<path fill-rule="evenodd" clip-rule="evenodd" fill="#FBD6DE" d="M213.699,32.215v129.746c-0.787,0.693-1.607,1.346-2.456,1.955
			V30.259C212.092,30.868,212.912,31.521,213.699,32.215z"/>
		<path fill-rule="evenodd" clip-rule="evenodd" fill="#FBD6DE" d="M227.879,60.813v72.548c-0.8,0.521-1.619,0.998-2.456,1.424
			V59.388C226.26,59.815,227.079,60.29,227.879,60.813z"/>
		<path fill-rule="evenodd" clip-rule="evenodd" fill="#FBD6DE" d="M22.276,62.096v69.982c-0.845-0.65-1.664-1.355-2.455-2.11
			V64.207C20.612,63.452,21.432,62.748,22.276,62.096z"/>
		<path fill-rule="evenodd" clip-rule="evenodd" fill="#FBD6DE" d="M36.456,33.971v126.23c-0.867-0.891-1.688-1.832-2.455-2.82
			V36.791C34.769,35.803,35.589,34.861,36.456,33.971z"/>
		<rect x="48.18" y="26.748" fill-rule="evenodd" clip-rule="evenodd" fill="#FBD6DE" width="2.456" height="140.678"/>
		<rect x="62.359" y="26.748" fill-rule="evenodd" clip-rule="evenodd" fill="#FBD6DE" width="2.456" height="140.678"/>
		<path fill-rule="evenodd" clip-rule="evenodd" fill="#FBD6DE" d="M78.994,27.586v139.001c-0.824,0.119-1.644,0.238-2.455,0.357
			V27.229C77.351,27.348,78.17,27.468,78.994,27.586z"/>
		<path fill-rule="evenodd" clip-rule="evenodd" fill="#FBD6DE" d="M93.174,29.417v135.341c-0.812,0.086-1.631,0.176-2.455,0.271
			V29.146C91.543,29.241,92.362,29.332,93.174,29.417z"/>
		<path fill-rule="evenodd" clip-rule="evenodd" fill="#FBD6DE" d="M107.354,30.095V164.08c-0.776-0.035-1.587-0.053-2.428-0.053
			h-0.028V30.147h0.028C105.767,30.147,106.577,30.13,107.354,30.095z"/>
		<rect x="119.077" y="26.748" fill-rule="evenodd" clip-rule="evenodd" fill="#FBD6DE" width="2.456" height="140.678"/>
		<path fill-rule="evenodd" clip-rule="evenodd" fill="#FBD6DE" d="M133.257,26.748h1.212c0.4,0.225,0.813,0.445,1.244,0.66v139.36
			c-0.43,0.213-0.844,0.434-1.243,0.658h-1.213V26.748z"/>
		<path fill-rule="evenodd" clip-rule="evenodd" fill="#FBD6DE" d="M149.892,30.324V163.85c-0.342-0.006-0.68-0.01-1.012-0.01
			c-0.492,0-0.974,0.006-1.443,0.02V30.313c0.469,0.014,0.951,0.02,1.443,0.02C149.212,30.333,149.55,30.33,149.892,30.324z"/>
		<path fill-rule="evenodd" clip-rule="evenodd" fill="#FBD6DE" d="M164.071,29.087v135.999c-0.823-0.109-1.643-0.213-2.456-0.311
			V29.398C162.429,29.3,163.248,29.196,164.071,29.087z"/>
		<polygon fill-rule="evenodd" clip-rule="evenodd" fill="#FBD6DE" points="178.251,26.964 178.251,167.209 175.795,166.822 
			175.795,27.352 		"/>
		<rect x="189.975" y="26.748" fill-rule="evenodd" clip-rule="evenodd" fill="#FBD6DE" width="2.456" height="140.678"/>
		<path fill-rule="evenodd" clip-rule="evenodd" fill="#FBD6DE" d="M204.154,26.748h0.642c0.614,0.239,1.219,0.5,1.813,0.78v139.119
			c-0.594,0.281-1.198,0.541-1.812,0.779h-0.644V26.748z"/>
		<path fill-rule="evenodd" clip-rule="evenodd" fill="#FBD6DE" d="M220.789,41.043v112.09c-0.738,1.32-1.559,2.586-2.455,3.789
			V37.254C219.23,38.456,220.051,39.723,220.789,41.043z"/>
		<path fill-rule="evenodd" clip-rule="evenodd" fill="#FBD6DE" d="M234.969,67.272v59.63c-0.782,0.956-1.602,1.857-2.456,2.699
			V64.573C233.367,65.415,234.187,66.316,234.969,67.272z"/>
	</g>
	<g>
		<path fill="#FBD6DE" d="M57.421,108.661c0,9.04-5.533,13.56-16.601,13.56c-4.965,0-9.229-0.739-12.792-2.218l1.279-6.794
			c3.146,1.517,6.405,2.274,9.778,2.274c2.597,0,4.463-0.274,5.601-0.824c1.705-0.814,2.558-2.368,2.558-4.662
			c0-1.819-1.07-3.411-3.212-4.775c-0.985-0.626-2.833-1.478-5.543-2.558c-3.411-1.365-5.903-2.985-7.476-4.861
			c-1.801-2.161-2.701-4.965-2.701-8.415c0-3.998,1.763-7.078,5.287-9.238c2.976-1.819,6.604-2.729,10.888-2.729
			c4.529,0,8.253,0.588,11.171,1.763l-1.052,6.396c-3.657-0.948-6.851-1.421-9.579-1.421c-4.928,0-7.391,1.44-7.391,4.321
			c0,1.933,1.042,3.506,3.127,4.718c0.246,0.152,2.169,0.881,5.771,2.189C53.792,98.039,57.421,102.465,57.421,108.661z"/>
		<path fill="#FBD6DE" d="M110.521,88.422l-13.502,33.23h-6.056l-6.281-17.113l-6.937,17.113h-6.339l-12.337-33.23h10.404
			l7.106,19.671l7.106-19.671h4.604l7.391,19.5l7.505-19.5H110.521z"/>
		<path fill="#FBD6DE" d="M143.324,106.813h-21.604c0,6.52,2.918,9.778,8.755,9.778c3.051,0,6.301-0.786,9.75-2.359l1.422,5.004
			c-3.771,2.122-8.026,3.184-12.764,3.184c-5.344,0-9.438-1.555-12.28-4.662c-2.748-2.994-4.121-7.191-4.121-12.593
			c0-5.269,1.308-9.466,3.922-12.593c2.805-3.354,6.794-5.032,11.968-5.032c5.003,0,8.783,1.469,11.342,4.406
			c2.406,2.786,3.61,6.708,3.61,11.768V106.813z M134.768,102.038c-0.341-6.14-2.473-9.21-6.396-9.21
			c-4.094,0-6.282,3.07-6.566,9.21H134.768z"/>
		<path fill="#FBD6DE" d="M178.885,106.813h-21.604c0,6.52,2.918,9.778,8.755,9.778c3.051,0,6.301-0.786,9.75-2.359l1.422,5.004
			c-3.771,2.122-8.026,3.184-12.764,3.184c-5.344,0-9.438-1.555-12.28-4.662c-2.748-2.994-4.121-7.191-4.121-12.593
			c0-5.269,1.308-9.466,3.922-12.593c2.805-3.354,6.794-5.032,11.968-5.032c5.003,0,8.783,1.469,11.342,4.406
			c2.406,2.786,3.61,6.708,3.61,11.768V106.813z M170.328,102.038c-0.341-6.14-2.473-9.21-6.396-9.21
			c-4.094,0-6.282,3.07-6.566,9.21H170.328z"/>
		<path fill="#FBD6DE" d="M204.298,120.344c-2.027,1.062-4.747,1.592-8.158,1.592c-3.278,0-5.78-1.098-7.504-3.297
			c-1.592-2.008-2.388-4.69-2.388-8.045V94.278h-4.378v-5.856h4.378v-4.207l9.267-5.571v9.778h6.907v5.856h-6.907v16.884
			c0,1.706,0.274,2.928,0.824,3.668c0.644,0.891,1.781,1.336,3.411,1.336c1.459,0,2.53-0.161,3.212-0.483L204.298,120.344z"/>
		<path fill="#FBD6DE" d="M229.54,111.532c0,3.904-1.497,6.774-4.491,8.613c-2.444,1.516-5.742,2.274-9.893,2.274
			c-3.904,0-7.106-0.683-9.607-2.047l1.08-5.486c2.71,1.439,5.315,2.16,7.817,2.16c1.648,0,3.107-0.266,4.377-0.796
			c1.668-0.7,2.502-1.791,2.502-3.269c0-1.535-0.872-2.758-2.615-3.668c-0.437-0.227-1.972-0.748-4.605-1.562
			c-2.748-0.854-4.729-2.076-5.94-3.668c-1.271-1.648-1.905-3.884-1.905-6.708c0-3.259,1.289-5.732,3.866-7.419
			c2.179-1.421,4.984-2.132,8.414-2.132c3.544,0,6.576,0.644,9.097,1.933l-0.768,4.975c-1.972-1.08-4.596-1.62-7.874-1.62
			c-1.402,0-2.605,0.218-3.61,0.654c-1.402,0.606-2.104,1.497-2.104,2.672c0,1.327,0.834,2.341,2.502,3.042
			c0.113,0.058,1.516,0.483,4.207,1.279c3.221,0.966,5.533,2.151,6.936,3.554C228.668,106.056,229.54,108.463,229.54,111.532z"/>
	</g>
	<g>
		<path fill="#EF3C65" d="M54.121,106.276c0,9.04-5.533,13.56-16.601,13.56c-4.965,0-9.229-0.739-12.792-2.218l1.279-6.794
			c3.146,1.517,6.405,2.274,9.778,2.274c2.597,0,4.463-0.274,5.601-0.824c1.705-0.814,2.558-2.368,2.558-4.662
			c0-1.819-1.07-3.411-3.212-4.775c-0.985-0.626-2.833-1.478-5.543-2.558c-3.411-1.365-5.903-2.985-7.476-4.861
			c-1.801-2.161-2.701-4.965-2.701-8.415c0-3.998,1.763-7.078,5.287-9.238c2.976-1.819,6.604-2.729,10.888-2.729
			c4.529,0,8.253,0.588,11.171,1.763l-1.052,6.396c-3.657-0.948-6.851-1.421-9.579-1.421c-4.928,0-7.391,1.44-7.391,4.321
			c0,1.933,1.042,3.506,3.127,4.718c0.246,0.152,2.169,0.881,5.771,2.189C50.492,95.655,54.121,100.08,54.121,106.276z"/>
		<path fill="#EF3C65" d="M107.221,86.037l-13.502,33.23h-6.056l-6.281-17.113l-6.937,17.113h-6.339L55.77,86.037h10.404
			l7.106,19.671l7.106-19.671h4.604l7.391,19.5l7.505-19.5H107.221z"/>
		<path fill="#EF3C65" d="M140.024,104.429h-21.604c0,6.52,2.918,9.778,8.755,9.778c3.051,0,6.301-0.786,9.75-2.359l1.422,5.004
			c-3.771,2.122-8.026,3.184-12.764,3.184c-5.344,0-9.438-1.555-12.28-4.662c-2.748-2.994-4.121-7.191-4.121-12.593
			c0-5.269,1.308-9.466,3.922-12.593c2.805-3.354,6.794-5.032,11.968-5.032c5.003,0,8.783,1.469,11.342,4.406
			c2.406,2.786,3.61,6.708,3.61,11.768V104.429z M131.468,99.653c-0.341-6.14-2.473-9.21-6.396-9.21c-4.094,0-6.282,3.07-6.566,9.21
			H131.468z"/>
		<path fill="#EF3C65" d="M175.585,104.429h-21.604c0,6.52,2.918,9.778,8.755,9.778c3.051,0,6.301-0.786,9.75-2.359l1.422,5.004
			c-3.771,2.122-8.026,3.184-12.764,3.184c-5.344,0-9.438-1.555-12.28-4.662c-2.748-2.994-4.121-7.191-4.121-12.593
			c0-5.269,1.308-9.466,3.922-12.593c2.805-3.354,6.794-5.032,11.968-5.032c5.003,0,8.783,1.469,11.342,4.406
			c2.406,2.786,3.61,6.708,3.61,11.768V104.429z M167.028,99.653c-0.341-6.14-2.473-9.21-6.396-9.21c-4.094,0-6.282,3.07-6.566,9.21
			H167.028z"/>
		<path fill="#EF3C65" d="M200.998,117.959c-2.027,1.062-4.747,1.592-8.158,1.592c-3.278,0-5.78-1.098-7.504-3.297
			c-1.592-2.008-2.388-4.69-2.388-8.045V91.893h-4.378v-5.856h4.378V81.83l9.267-5.571v9.778h6.907v5.856h-6.907v16.884
			c0,1.706,0.274,2.928,0.824,3.668c0.644,0.891,1.781,1.336,3.411,1.336c1.459,0,2.53-0.161,3.212-0.483L200.998,117.959z"/>
		<path fill="#EF3C65" d="M226.24,109.147c0,3.904-1.497,6.774-4.491,8.613c-2.444,1.516-5.742,2.274-9.893,2.274
			c-3.904,0-7.106-0.683-9.607-2.047l1.08-5.486c2.71,1.439,5.315,2.16,7.817,2.16c1.648,0,3.107-0.266,4.377-0.796
			c1.668-0.7,2.502-1.791,2.502-3.269c0-1.535-0.872-2.758-2.615-3.668c-0.437-0.227-1.972-0.748-4.605-1.562
			c-2.748-0.854-4.729-2.076-5.94-3.668c-1.271-1.648-1.905-3.884-1.905-6.708c0-3.259,1.289-5.732,3.866-7.419
			c2.179-1.421,4.984-2.132,8.414-2.132c3.544,0,6.576,0.644,9.097,1.933l-0.768,4.975c-1.972-1.08-4.596-1.62-7.874-1.62
			c-1.402,0-2.605,0.218-3.61,0.654c-1.402,0.606-2.104,1.497-2.104,2.672c0,1.327,0.834,2.341,2.502,3.042
			c0.113,0.057,1.516,0.483,4.207,1.279c3.221,0.966,5.533,2.151,6.936,3.554C225.368,103.671,226.24,106.078,226.24,109.147z"/>
	</g>
	<g>
		<path fill="#E0899A" d="M86.582,76.278l-1.525,4.707h-1.961l4.989-14.964h2.288l5.012,14.964h-2.026l-1.569-4.707H86.582z
			 M91.397,74.768l-1.438-4.307c-0.326-0.977-0.545-1.865-0.763-2.731h-0.043c-0.218,0.888-0.458,1.798-0.741,2.708l-1.438,4.33
			H91.397z"/>
		<path fill="#E0899A" d="M97.545,66.021h1.896v13.343h6.275v1.621h-8.171V66.021z"/>
		<path fill="#E0899A" d="M107.832,66.021h1.896v13.343h6.275v1.621h-8.171V66.021z"/>
		<path fill="#E0899A" d="M125.005,80.984v-6.35l-4.642-8.614h2.157l2.07,4.129c0.566,1.132,1.002,2.042,1.46,3.086h0.043
			c0.414-0.977,0.915-1.954,1.482-3.086l2.113-4.129h2.157l-4.925,8.592v6.372H125.005z"/>
		<path fill="#E0899A" d="M145.294,73.347c0,5.15-3.072,7.881-6.82,7.881c-3.879,0-6.603-3.064-6.603-7.593
			c0-4.751,2.898-7.859,6.82-7.859C142.701,65.776,145.294,68.907,145.294,73.347z M133.897,73.591c0,3.197,1.7,6.061,4.685,6.061
			c3.008,0,4.707-2.82,4.707-6.216c0-2.975-1.525-6.083-4.685-6.083C135.467,67.353,133.897,70.306,133.897,73.591z"/>
		<path fill="#E0899A" d="M149.654,66.021v8.858c0,3.353,1.46,4.773,3.421,4.773c2.179,0,3.573-1.465,3.573-4.773v-8.858h1.918
			v8.725c0,4.596-2.375,6.483-5.557,6.483c-3.007,0-5.273-1.754-5.273-6.394v-8.814H149.654z"/>
		<path fill="#E0899A" d="M161.86,66.22c0.958-0.2,2.331-0.311,3.639-0.311c2.026,0,3.334,0.377,4.249,1.221
			c0.74,0.667,1.154,1.688,1.154,2.842c0,1.976-1.22,3.286-2.767,3.819v0.067c1.133,0.399,1.809,1.465,2.157,3.019
			c0.479,2.087,0.828,3.53,1.133,4.107h-1.961c-0.24-0.422-0.566-1.709-0.98-3.574c-0.436-2.065-1.221-2.842-2.941-2.909h-1.787
			v6.483h-1.896V66.22z M163.756,73.036h1.939c2.026,0,3.312-1.132,3.312-2.842c0-1.932-1.372-2.775-3.377-2.797
			c-0.915,0-1.569,0.089-1.874,0.178V73.036z"/>
	</g>
	<g>
		<path fill="#FFFFFF" d="M84.136,74.361l-1.525,4.707h-1.961l4.989-14.964h2.288l5.012,14.964h-2.026l-1.568-4.707H84.136z
			 M88.951,72.851l-1.438-4.307c-0.326-0.977-0.545-1.865-0.763-2.731h-0.043c-0.218,0.888-0.458,1.798-0.741,2.708l-1.438,4.33
			H88.951z"/>
		<path fill="#FFFFFF" d="M95.099,64.104h1.896v13.343h6.275v1.621h-8.171V64.104z"/>
		<path fill="#FFFFFF" d="M105.386,64.104h1.896v13.343h6.275v1.621h-8.171V64.104z"/>
		<path fill="#FFFFFF" d="M122.559,79.067v-6.35l-4.642-8.614h2.157l2.07,4.129c0.566,1.132,1.002,2.042,1.46,3.086h0.043
			c0.414-0.977,0.915-1.954,1.481-3.086l2.114-4.129h2.157l-4.925,8.592v6.372H122.559z"/>
		<path fill="#FFFFFF" d="M142.848,71.43c0,5.15-3.072,7.881-6.82,7.881c-3.879,0-6.603-3.064-6.603-7.593
			c0-4.751,2.898-7.859,6.82-7.859C140.255,63.859,142.848,66.99,142.848,71.43z M131.451,71.674c0,3.197,1.7,6.061,4.686,6.061
			c3.007,0,4.706-2.82,4.706-6.216c0-2.975-1.525-6.083-4.685-6.083C133.021,65.436,131.451,68.389,131.451,71.674z"/>
		<path fill="#FFFFFF" d="M147.208,64.104v8.858c0,3.353,1.46,4.773,3.421,4.773c2.179,0,3.573-1.465,3.573-4.773v-8.858h1.918
			v8.725c0,4.596-2.375,6.483-5.557,6.483c-3.007,0-5.273-1.754-5.273-6.394v-8.814H147.208z"/>
		<path fill="#FFFFFF" d="M159.414,64.303c0.959-0.2,2.331-0.311,3.639-0.311c2.026,0,3.334,0.377,4.249,1.221
			c0.741,0.667,1.154,1.688,1.154,2.842c0,1.976-1.22,3.286-2.767,3.819v0.067c1.133,0.399,1.809,1.465,2.157,3.019
			c0.479,2.087,0.828,3.53,1.133,4.107h-1.961c-0.24-0.422-0.566-1.709-0.98-3.574c-0.437-2.065-1.221-2.842-2.941-2.909h-1.787
			v6.483h-1.896V64.303z M161.31,71.119h1.939c2.026,0,3.312-1.132,3.312-2.842c0-1.932-1.372-2.775-3.377-2.797
			c-0.915,0-1.569,0.089-1.874,0.178V71.119z"/>
	</g>
	<g>
		<path fill="#2D130F" d="M59.968,129.366h0.696v4.806h2.303v0.584h-2.999V129.366z"/>
		<path fill="#2D130F" d="M67.11,132.789c0,1.431-0.991,2.055-1.927,2.055c-1.048,0-1.855-0.768-1.855-1.991
			c0-1.296,0.848-2.056,1.919-2.056C66.358,130.797,67.11,131.605,67.11,132.789z M64.04,132.828c0,0.848,0.487,1.487,1.175,1.487
			c0.672,0,1.176-0.632,1.176-1.503c0-0.656-0.328-1.487-1.159-1.487C64.399,131.325,64.04,132.093,64.04,132.828z"/>
		<path fill="#2D130F" d="M68,132.093c0-0.456-0.008-0.848-0.032-1.208h0.615l0.024,0.76h0.032c0.176-0.52,0.6-0.848,1.071-0.848
			c0.08,0,0.136,0.009,0.199,0.025v0.663c-0.071-0.017-0.144-0.024-0.239-0.024c-0.496,0-0.848,0.376-0.943,0.904
			c-0.017,0.096-0.032,0.207-0.032,0.327v2.063H68V132.093z"/>
		<path fill="#2D130F" d="M70.928,132.948c0.016,0.952,0.623,1.343,1.327,1.343c0.504,0,0.808-0.088,1.071-0.199l0.12,0.504
			c-0.248,0.111-0.672,0.24-1.287,0.24c-1.191,0-1.903-0.784-1.903-1.951c0-1.168,0.688-2.088,1.815-2.088
			c1.263,0,1.599,1.111,1.599,1.824c0,0.144-0.016,0.256-0.023,0.327H70.928z M72.99,132.445c0.008-0.448-0.184-1.145-0.976-1.145
			c-0.711,0-1.023,0.656-1.079,1.145H72.99z"/>
		<path fill="#2D130F" d="M74.544,131.934c0-0.4-0.009-0.729-0.032-1.049h0.615l0.032,0.625h0.024
			c0.216-0.369,0.575-0.713,1.215-0.713c0.528,0,0.928,0.32,1.096,0.776h0.016c0.12-0.216,0.272-0.384,0.432-0.504
			c0.232-0.176,0.488-0.272,0.855-0.272c0.512,0,1.271,0.336,1.271,1.68v2.279h-0.688v-2.191c0-0.744-0.271-1.191-0.84-1.191
			c-0.399,0-0.711,0.296-0.831,0.64c-0.032,0.097-0.056,0.224-0.056,0.353v2.391h-0.688v-2.319c0-0.616-0.272-1.063-0.808-1.063
			c-0.44,0-0.76,0.352-0.872,0.703c-0.04,0.104-0.056,0.225-0.056,0.344v2.336h-0.688V131.934z"/>
		<path fill="#2D130F" d="M83.695,129.799c0.008,0.239-0.168,0.432-0.447,0.432c-0.248,0-0.424-0.192-0.424-0.432
			c0-0.248,0.184-0.44,0.439-0.44C83.527,129.358,83.695,129.551,83.695,129.799z M82.912,134.756v-3.871h0.703v3.871H82.912z"/>
		<path fill="#2D130F" d="M84.784,132.148c0-0.496-0.017-0.895-0.032-1.264h0.632l0.032,0.664h0.016
			c0.288-0.471,0.743-0.752,1.375-0.752c0.936,0,1.64,0.793,1.64,1.968c0,1.392-0.848,2.079-1.76,2.079
			c-0.512,0-0.959-0.225-1.191-0.607h-0.016v2.102h-0.695V132.148z M85.479,133.18c0,0.104,0.016,0.201,0.032,0.289
			c0.128,0.486,0.552,0.822,1.055,0.822c0.744,0,1.176-0.607,1.176-1.494c0-0.775-0.408-1.439-1.151-1.439
			c-0.479,0-0.928,0.344-1.063,0.871c-0.023,0.088-0.048,0.191-0.048,0.288V133.18z"/>
		<path fill="#2D130F" d="M89.239,134.035c0.208,0.137,0.576,0.28,0.928,0.28c0.512,0,0.752-0.256,0.752-0.575
			c0-0.336-0.2-0.52-0.72-0.712c-0.695-0.248-1.023-0.632-1.023-1.095c0-0.625,0.504-1.137,1.335-1.137
			c0.392,0,0.735,0.113,0.952,0.24l-0.177,0.512c-0.151-0.096-0.432-0.224-0.791-0.224c-0.416,0-0.647,0.239-0.647,0.528
			c0,0.319,0.231,0.463,0.735,0.655c0.672,0.256,1.016,0.591,1.016,1.167c0,0.68-0.528,1.16-1.447,1.16
			c-0.424,0-0.815-0.105-1.088-0.264L89.239,134.035z"/>
		<path fill="#2D130F" d="M95.742,133.699c0,0.4,0.008,0.752,0.031,1.057H95.15l-0.04-0.633h-0.017
			c-0.184,0.312-0.591,0.721-1.279,0.721c-0.607,0-1.335-0.336-1.335-1.695v-2.264h0.704v2.144c0,0.735,0.224,1.231,0.863,1.231
			c0.472,0,0.8-0.328,0.928-0.64c0.04-0.104,0.063-0.231,0.063-0.36v-2.375h0.704V133.699z"/>
		<path fill="#2D130F" d="M96.911,131.934c0-0.4-0.009-0.729-0.032-1.049h0.615l0.032,0.625h0.024
			c0.216-0.369,0.575-0.713,1.215-0.713c0.528,0,0.928,0.32,1.096,0.776h0.016c0.12-0.216,0.272-0.384,0.432-0.504
			c0.232-0.176,0.488-0.272,0.855-0.272c0.512,0,1.271,0.336,1.271,1.68v2.279h-0.688v-2.191c0-0.744-0.271-1.191-0.84-1.191
			c-0.399,0-0.711,0.296-0.831,0.64c-0.032,0.097-0.056,0.224-0.056,0.353v2.391h-0.688v-2.319c0-0.616-0.272-1.063-0.808-1.063
			c-0.44,0-0.76,0.352-0.872,0.703c-0.04,0.104-0.056,0.225-0.056,0.344v2.336h-0.688V131.934z"/>
		<path fill="#2D130F" d="M108.621,129.078v4.678c0,0.344,0.008,0.736,0.032,1h-0.632l-0.032-0.672h-0.016
			c-0.216,0.432-0.688,0.76-1.319,0.76c-0.936,0-1.655-0.792-1.655-1.967c-0.008-1.287,0.792-2.08,1.735-2.08
			c0.592,0,0.991,0.281,1.167,0.592h0.017v-2.311H108.621z M107.918,132.461c0-0.088-0.009-0.208-0.032-0.297
			c-0.104-0.447-0.488-0.814-1.016-0.814c-0.728,0-1.159,0.639-1.159,1.494c0,0.784,0.384,1.432,1.144,1.432
			c0.472,0,0.903-0.312,1.031-0.84c0.023-0.096,0.032-0.191,0.032-0.303V132.461z"/>
		<path fill="#2D130F" d="M113.293,132.789c0,1.431-0.991,2.055-1.927,2.055c-1.048,0-1.855-0.768-1.855-1.991
			c0-1.296,0.848-2.056,1.919-2.056C112.541,130.797,113.293,131.605,113.293,132.789z M110.223,132.828
			c0,0.848,0.487,1.487,1.175,1.487c0.672,0,1.176-0.632,1.176-1.503c0-0.656-0.328-1.487-1.159-1.487
			C110.582,131.325,110.223,132.093,110.223,132.828z"/>
		<path fill="#2D130F" d="M114.183,129.078h0.703v5.678h-0.703V129.078z"/>
		<path fill="#2D130F" d="M119.573,132.789c0,1.431-0.991,2.055-1.927,2.055c-1.048,0-1.855-0.768-1.855-1.991
			c0-1.296,0.848-2.056,1.919-2.056C118.821,130.797,119.573,131.605,119.573,132.789z M116.503,132.828
			c0,0.848,0.487,1.487,1.175,1.487c0.672,0,1.176-0.632,1.176-1.503c0-0.656-0.328-1.487-1.159-1.487
			C116.862,131.325,116.503,132.093,116.503,132.828z"/>
		<path fill="#2D130F" d="M120.463,132.093c0-0.456-0.008-0.848-0.032-1.208h0.615l0.024,0.76h0.032
			c0.176-0.52,0.6-0.848,1.071-0.848c0.08,0,0.136,0.009,0.199,0.025v0.663c-0.071-0.017-0.144-0.024-0.239-0.024
			c-0.496,0-0.848,0.376-0.943,0.904c-0.017,0.096-0.032,0.207-0.032,0.327v2.063h-0.695V132.093z"/>
		<path fill="#2D130F" d="M124.678,134.035c0.208,0.137,0.576,0.28,0.928,0.28c0.512,0,0.752-0.256,0.752-0.575
			c0-0.336-0.2-0.52-0.72-0.712c-0.695-0.248-1.023-0.632-1.023-1.095c0-0.625,0.504-1.137,1.335-1.137
			c0.392,0,0.736,0.113,0.952,0.24l-0.177,0.512c-0.151-0.096-0.432-0.224-0.791-0.224c-0.416,0-0.647,0.239-0.647,0.528
			c0,0.319,0.231,0.463,0.735,0.655c0.672,0.256,1.016,0.591,1.016,1.167c0,0.68-0.528,1.16-1.447,1.16
			c-0.424,0-0.815-0.105-1.088-0.264L124.678,134.035z"/>
		<path fill="#2D130F" d="M128.726,129.799c0.008,0.239-0.168,0.432-0.447,0.432c-0.248,0-0.424-0.192-0.424-0.432
			c0-0.248,0.184-0.44,0.439-0.44C128.558,129.358,128.726,129.551,128.726,129.799z M127.942,134.756v-3.871h0.703v3.871H127.942z"
			/>
		<path fill="#2D130F" d="M130.662,129.773v1.111h1.007v0.537h-1.007v2.086c0,0.48,0.136,0.752,0.527,0.752
			c0.184,0,0.319-0.023,0.408-0.049l0.031,0.529c-0.136,0.055-0.352,0.096-0.623,0.096c-0.328,0-0.592-0.105-0.76-0.297
			c-0.2-0.207-0.272-0.551-0.272-1.007v-2.11h-0.6v-0.537h0.6v-0.927L130.662,129.773z"/>
		<path fill="#2D130F" d="M136.301,134.756l-0.056-0.488h-0.024c-0.216,0.305-0.632,0.576-1.184,0.576
			c-0.783,0-1.183-0.553-1.183-1.111c0-0.936,0.831-1.447,2.326-1.439v-0.08c0-0.32-0.088-0.896-0.88-0.896
			c-0.359,0-0.735,0.112-1.007,0.288l-0.16-0.465c0.32-0.207,0.784-0.344,1.271-0.344c1.184,0,1.471,0.809,1.471,1.584v1.447
			c0,0.336,0.017,0.664,0.064,0.928H136.301z M136.197,132.78c-0.768-0.016-1.64,0.12-1.64,0.872c0,0.455,0.304,0.672,0.664,0.672
			c0.503,0,0.823-0.32,0.936-0.648c0.023-0.072,0.04-0.152,0.04-0.224V132.78z"/>
		<path fill="#2D130F" d="M138.015,131.934c0-0.4-0.009-0.729-0.032-1.049h0.615l0.032,0.625h0.024
			c0.216-0.369,0.575-0.713,1.215-0.713c0.528,0,0.928,0.32,1.096,0.776h0.016c0.12-0.216,0.272-0.384,0.432-0.504
			c0.232-0.176,0.488-0.272,0.855-0.272c0.512,0,1.271,0.336,1.271,1.68v2.279h-0.688v-2.191c0-0.744-0.271-1.191-0.84-1.191
			c-0.399,0-0.711,0.296-0.831,0.64c-0.032,0.097-0.056,0.224-0.056,0.353v2.391h-0.688v-2.319c0-0.616-0.272-1.063-0.808-1.063
			c-0.44,0-0.76,0.352-0.872,0.703c-0.04,0.104-0.056,0.225-0.056,0.344v2.336h-0.688V131.934z"/>
		<path fill="#2D130F" d="M145.078,132.948c0.016,0.952,0.623,1.343,1.327,1.343c0.504,0,0.808-0.088,1.071-0.199l0.12,0.504
			c-0.248,0.111-0.672,0.24-1.287,0.24c-1.191,0-1.903-0.784-1.903-1.951c0-1.168,0.688-2.088,1.815-2.088
			c1.263,0,1.599,1.111,1.599,1.824c0,0.144-0.016,0.256-0.023,0.327H145.078z M147.141,132.445
			c0.008-0.448-0.184-1.145-0.976-1.145c-0.711,0-1.023,0.656-1.079,1.145H147.141z"/>
		<path fill="#2D130F" d="M149.542,129.773v1.111h1.007v0.537h-1.007v2.086c0,0.48,0.136,0.752,0.527,0.752
			c0.184,0,0.319-0.023,0.407-0.049l0.032,0.529c-0.136,0.055-0.352,0.096-0.623,0.096c-0.328,0-0.592-0.105-0.76-0.297
			c-0.2-0.207-0.272-0.551-0.272-1.007v-2.11h-0.6v-0.537h0.6v-0.927L149.542,129.773z"/>
		<path fill="#2D130F" d="M150.862,135.738c0.176-0.471,0.392-1.326,0.479-1.91l0.784-0.08c-0.185,0.68-0.536,1.566-0.76,1.943
			L150.862,135.738z"/>
		<path fill="#2D130F" d="M157.428,134.611c-0.184,0.096-0.592,0.225-1.111,0.225c-1.167,0-1.927-0.792-1.927-1.976
			c0-1.191,0.815-2.055,2.079-2.055c0.416,0,0.783,0.104,0.976,0.2l-0.16,0.543c-0.168-0.096-0.432-0.184-0.815-0.184
			c-0.888,0-1.367,0.656-1.367,1.463c0,0.896,0.575,1.447,1.343,1.447c0.4,0,0.664-0.104,0.864-0.191L157.428,134.611z"/>
		<path fill="#2D130F" d="M161.708,132.789c0,1.431-0.991,2.055-1.927,2.055c-1.048,0-1.855-0.768-1.855-1.991
			c0-1.296,0.848-2.056,1.919-2.056C160.956,130.797,161.708,131.605,161.708,132.789z M158.638,132.828
			c0,0.848,0.487,1.487,1.175,1.487c0.672,0,1.176-0.632,1.176-1.503c0-0.656-0.328-1.487-1.159-1.487
			C158.997,131.325,158.638,132.093,158.638,132.828z"/>
		<path fill="#2D130F" d="M162.598,131.934c0-0.4-0.008-0.729-0.032-1.049h0.624l0.039,0.641h0.017
			c0.191-0.368,0.64-0.729,1.279-0.729c0.535,0,1.367,0.32,1.367,1.648v2.311h-0.704v-2.231c0-0.624-0.231-1.144-0.896-1.144
			c-0.463,0-0.823,0.328-0.943,0.721c-0.031,0.088-0.048,0.207-0.048,0.327v2.327h-0.703V131.934z"/>
		<path fill="#2D130F" d="M166.941,134.035c0.208,0.137,0.576,0.28,0.928,0.28c0.512,0,0.752-0.256,0.752-0.575
			c0-0.336-0.2-0.52-0.72-0.712c-0.695-0.248-1.023-0.632-1.023-1.095c0-0.625,0.504-1.137,1.335-1.137
			c0.392,0,0.736,0.113,0.952,0.24l-0.177,0.512c-0.151-0.096-0.432-0.224-0.791-0.224c-0.416,0-0.647,0.239-0.647,0.528
			c0,0.319,0.231,0.463,0.735,0.655c0.672,0.256,1.016,0.591,1.016,1.167c0,0.68-0.528,1.16-1.447,1.16
			c-0.424,0-0.815-0.105-1.088-0.264L166.941,134.035z"/>
		<path fill="#2D130F" d="M170.597,132.948c0.016,0.952,0.624,1.343,1.327,1.343c0.504,0,0.808-0.088,1.071-0.199l0.12,0.504
			c-0.248,0.111-0.672,0.24-1.287,0.24c-1.191,0-1.903-0.784-1.903-1.951c0-1.168,0.688-2.088,1.815-2.088
			c1.263,0,1.599,1.111,1.599,1.824c0,0.144-0.016,0.256-0.023,0.327H170.597z M172.659,132.445
			c0.008-0.448-0.184-1.145-0.976-1.145c-0.711,0-1.023,0.656-1.079,1.145H172.659z"/>
		<path fill="#2D130F" d="M176.972,134.611c-0.184,0.096-0.591,0.225-1.111,0.225c-1.167,0-1.927-0.792-1.927-1.976
			c0-1.191,0.815-2.055,2.079-2.055c0.416,0,0.783,0.104,0.976,0.2l-0.16,0.543c-0.168-0.096-0.432-0.184-0.815-0.184
			c-0.888,0-1.367,0.656-1.367,1.463c0,0.896,0.575,1.447,1.343,1.447c0.4,0,0.664-0.104,0.864-0.191L176.972,134.611z"/>
		<path fill="#2D130F" d="M178.749,129.773v1.111h1.007v0.537h-1.007v2.086c0,0.48,0.136,0.752,0.527,0.752
			c0.184,0,0.319-0.023,0.407-0.049l0.032,0.529c-0.136,0.055-0.352,0.096-0.623,0.096c-0.328,0-0.592-0.105-0.76-0.297
			c-0.2-0.207-0.272-0.551-0.272-1.007v-2.11h-0.6v-0.537h0.6v-0.927L178.749,129.773z"/>
		<path fill="#2D130F" d="M180.893,132.948c0.016,0.952,0.623,1.343,1.327,1.343c0.504,0,0.808-0.088,1.071-0.199l0.12,0.504
			c-0.248,0.111-0.672,0.24-1.287,0.24c-1.191,0-1.903-0.784-1.903-1.951c0-1.168,0.688-2.088,1.815-2.088
			c1.263,0,1.599,1.111,1.599,1.824c0,0.144-0.016,0.256-0.023,0.327H180.893z M182.955,132.445
			c0.008-0.448-0.184-1.145-0.976-1.145c-0.711,0-1.023,0.656-1.079,1.145H182.955z"/>
		<path fill="#2D130F" d="M185.356,129.773v1.111h1.007v0.537h-1.007v2.086c0,0.48,0.136,0.752,0.527,0.752
			c0.184,0,0.319-0.023,0.407-0.049l0.032,0.529c-0.136,0.055-0.352,0.096-0.623,0.096c-0.328,0-0.592-0.105-0.76-0.297
			c-0.2-0.207-0.272-0.551-0.272-1.007v-2.11h-0.6v-0.537h0.6v-0.927L185.356,129.773z"/>
		<path fill="#2D130F" d="M190.396,133.699c0,0.4,0.008,0.752,0.031,1.057h-0.623l-0.04-0.633h-0.017
			c-0.184,0.312-0.591,0.721-1.279,0.721c-0.607,0-1.335-0.336-1.335-1.695v-2.264h0.704v2.144c0,0.735,0.224,1.231,0.863,1.231
			c0.472,0,0.8-0.328,0.928-0.64c0.04-0.104,0.063-0.231,0.063-0.36v-2.375h0.704V133.699z"/>
		<path fill="#2D130F" d="M191.564,132.093c0-0.456-0.008-0.848-0.032-1.208h0.615l0.024,0.76h0.032
			c0.176-0.52,0.6-0.848,1.071-0.848c0.08,0,0.136,0.009,0.199,0.025v0.663c-0.071-0.017-0.144-0.024-0.239-0.024
			c-0.496,0-0.848,0.376-0.943,0.904c-0.017,0.096-0.032,0.207-0.032,0.327v2.063h-0.695V132.093z"/>
		<path fill="#2D130F" d="M61.067,142.756l-0.056-0.488h-0.024c-0.216,0.305-0.632,0.576-1.184,0.576
			c-0.783,0-1.183-0.553-1.183-1.111c0-0.936,0.831-1.447,2.326-1.439v-0.08c0-0.32-0.088-0.896-0.879-0.896
			c-0.36,0-0.736,0.113-1.008,0.289l-0.16-0.465c0.32-0.207,0.783-0.344,1.271-0.344c1.184,0,1.471,0.809,1.471,1.584v1.447
			c0,0.336,0.017,0.664,0.064,0.928H61.067z M60.963,140.781c-0.768-0.018-1.639,0.119-1.639,0.871c0,0.455,0.304,0.672,0.664,0.672
			c0.503,0,0.823-0.32,0.936-0.648c0.023-0.072,0.039-0.152,0.039-0.225V140.781z"/>
		<path fill="#2D130F" d="M66.122,137.078v4.678c0,0.344,0.008,0.736,0.032,1h-0.632l-0.032-0.672h-0.016
			c-0.216,0.432-0.688,0.76-1.319,0.76c-0.936,0-1.655-0.793-1.655-1.967c-0.008-1.287,0.792-2.08,1.735-2.08
			c0.592,0,0.991,0.281,1.167,0.592h0.017v-2.311H66.122z M65.419,140.461c0-0.088-0.009-0.209-0.032-0.297
			c-0.104-0.447-0.488-0.814-1.016-0.814c-0.728,0-1.159,0.639-1.159,1.494c0,0.785,0.384,1.432,1.144,1.432
			c0.472,0,0.903-0.312,1.031-0.84c0.023-0.096,0.032-0.191,0.032-0.303V140.461z"/>
		<path fill="#2D130F" d="M68.076,137.799c0.008,0.238-0.168,0.432-0.447,0.432c-0.248,0-0.424-0.193-0.424-0.432
			c0-0.248,0.184-0.441,0.439-0.441C67.908,137.357,68.076,137.551,68.076,137.799z M67.293,142.756v-3.871h0.703v3.871H67.293z"/>
		<path fill="#2D130F" d="M69.164,140.148c0-0.496-0.017-0.895-0.032-1.264h0.632l0.031,0.664h0.017
			c0.288-0.471,0.743-0.752,1.375-0.752c0.936,0,1.64,0.793,1.64,1.967c0,1.393-0.848,2.08-1.76,2.08
			c-0.512,0-0.959-0.225-1.191-0.607h-0.016v2.102h-0.695V140.148z M69.859,141.18c0,0.104,0.016,0.201,0.032,0.289
			c0.128,0.486,0.552,0.822,1.056,0.822c0.743,0,1.175-0.607,1.175-1.494c0-0.775-0.407-1.439-1.151-1.439
			c-0.479,0-0.928,0.344-1.063,0.871c-0.023,0.088-0.048,0.191-0.048,0.287V141.18z"/>
		<path fill="#2D130F" d="M74.5,137.799c0.008,0.238-0.168,0.432-0.447,0.432c-0.248,0-0.424-0.193-0.424-0.432
			c0-0.248,0.184-0.441,0.439-0.441C74.332,137.357,74.5,137.551,74.5,137.799z M73.717,142.756v-3.871h0.703v3.871H73.717z"/>
		<path fill="#2D130F" d="M75.491,142.035c0.208,0.137,0.576,0.281,0.928,0.281c0.512,0,0.752-0.256,0.752-0.576
			c0-0.336-0.2-0.52-0.72-0.713c-0.695-0.246-1.023-0.631-1.023-1.094c0-0.625,0.504-1.137,1.335-1.137
			c0.392,0,0.735,0.113,0.952,0.24l-0.177,0.512c-0.151-0.096-0.432-0.223-0.791-0.223c-0.416,0-0.647,0.238-0.647,0.527
			c0,0.318,0.231,0.463,0.735,0.654c0.672,0.256,1.016,0.592,1.016,1.168c0,0.68-0.528,1.16-1.447,1.16
			c-0.424,0-0.815-0.105-1.088-0.264L75.491,142.035z"/>
		<path fill="#2D130F" d="M81.514,142.611c-0.184,0.096-0.592,0.225-1.111,0.225c-1.167,0-1.927-0.793-1.927-1.975
			c0-1.191,0.815-2.057,2.079-2.057c0.416,0,0.783,0.105,0.976,0.201l-0.16,0.543c-0.168-0.096-0.432-0.184-0.815-0.184
			c-0.888,0-1.367,0.656-1.367,1.463c0,0.896,0.575,1.447,1.343,1.447c0.4,0,0.664-0.104,0.864-0.191L81.514,142.611z"/>
		<path fill="#2D130F" d="M83.123,137.799c0.008,0.238-0.168,0.432-0.447,0.432c-0.248,0-0.424-0.193-0.424-0.432
			c0-0.248,0.184-0.441,0.439-0.441C82.955,137.357,83.123,137.551,83.123,137.799z M82.34,142.756v-3.871h0.703v3.871H82.34z"/>
		<path fill="#2D130F" d="M84.212,139.934c0-0.4-0.009-0.729-0.032-1.049h0.624l0.04,0.641h0.016
			c0.191-0.367,0.64-0.729,1.279-0.729c0.535,0,1.367,0.32,1.367,1.648v2.311h-0.704v-2.23c0-0.625-0.231-1.145-0.896-1.145
			c-0.463,0-0.823,0.328-0.943,0.721c-0.031,0.088-0.048,0.207-0.048,0.326v2.328h-0.703V139.934z"/>
		<path fill="#2D130F" d="M91.986,138.885c-0.016,0.281-0.032,0.592-0.032,1.064v2.246c0,0.889-0.176,1.432-0.552,1.768
			c-0.376,0.352-0.919,0.463-1.407,0.463c-0.464,0-0.976-0.111-1.287-0.318l0.176-0.537c0.256,0.16,0.655,0.305,1.136,0.305
			c0.72,0,1.247-0.377,1.247-1.352v-0.432h-0.016c-0.216,0.359-0.632,0.648-1.231,0.648c-0.96,0-1.647-0.816-1.647-1.889
			c0-1.311,0.855-2.055,1.743-2.055c0.672,0,1.039,0.352,1.207,0.672h0.017l0.031-0.584H91.986z M91.259,140.412
			c0-0.119-0.008-0.223-0.04-0.318c-0.128-0.408-0.472-0.744-0.983-0.744c-0.672,0-1.151,0.566-1.151,1.463
			c0,0.76,0.384,1.391,1.144,1.391c0.432,0,0.823-0.271,0.976-0.719c0.039-0.121,0.056-0.256,0.056-0.377V140.412z"/>
		<path fill="#2D130F" d="M92.836,142.34c0-0.297,0.199-0.504,0.479-0.504s0.472,0.207,0.472,0.504c0,0.287-0.184,0.504-0.479,0.504
			C93.027,142.844,92.836,142.627,92.836,142.34z"/>
		<path fill="#2D130F" d="M100.921,140.389c-0.04-0.752-0.088-1.654-0.08-2.326h-0.024c-0.184,0.631-0.407,1.303-0.68,2.047
			l-0.951,2.613h-0.527l-0.872-2.566c-0.256-0.76-0.472-1.455-0.623-2.094h-0.017c-0.016,0.672-0.056,1.574-0.104,2.383
			l-0.145,2.311h-0.663l0.376-5.389h0.887l0.92,2.605c0.224,0.664,0.408,1.256,0.544,1.814h0.023
			c0.137-0.543,0.328-1.135,0.568-1.814l0.959-2.605h0.888l0.336,5.389h-0.68L100.921,140.389z"/>
		<path fill="#2D130F" d="M106.337,140.789c0,1.43-0.991,2.055-1.927,2.055c-1.048,0-1.855-0.768-1.855-1.992
			c0-1.295,0.848-2.055,1.919-2.055C105.585,138.797,106.337,139.605,106.337,140.789z M103.267,140.828
			c0,0.848,0.487,1.488,1.175,1.488c0.672,0,1.176-0.633,1.176-1.504c0-0.656-0.328-1.486-1.159-1.486
			C103.626,139.326,103.267,140.094,103.267,140.828z"/>
		<path fill="#2D130F" d="M107.228,140.094c0-0.457-0.009-0.848-0.032-1.209h0.615l0.024,0.76h0.032
			c0.176-0.52,0.6-0.848,1.071-0.848c0.08,0,0.136,0.008,0.2,0.025v0.662c-0.072-0.016-0.145-0.023-0.24-0.023
			c-0.496,0-0.848,0.377-0.943,0.904c-0.017,0.096-0.032,0.207-0.032,0.328v2.062h-0.695V140.094z"/>
		<path fill="#2D130F" d="M109.843,142.756c0.016-0.264,0.032-0.656,0.032-1v-4.678h0.695v2.432h0.016
			c0.248-0.432,0.696-0.713,1.319-0.713c0.96,0,1.64,0.801,1.632,1.975c0,1.385-0.872,2.072-1.735,2.072
			c-0.56,0-1.008-0.217-1.296-0.729h-0.023l-0.032,0.641H109.843z M110.57,141.205c0,0.088,0.016,0.176,0.032,0.256
			c0.136,0.486,0.544,0.822,1.056,0.822c0.735,0,1.175-0.6,1.175-1.486c0-0.775-0.399-1.439-1.151-1.439
			c-0.479,0-0.928,0.328-1.071,0.863c-0.016,0.08-0.04,0.176-0.04,0.287V141.205z"/>
		<path fill="#2D130F" d="M115.21,137.799c0.008,0.238-0.168,0.432-0.447,0.432c-0.248,0-0.424-0.193-0.424-0.432
			c0-0.248,0.184-0.441,0.439-0.441C115.042,137.357,115.21,137.551,115.21,137.799z M114.427,142.756v-3.871h0.703v3.871H114.427z"
			/>
		<path fill="#2D130F" d="M117.052,143.875c0.319-0.023,0.6-0.111,0.768-0.297c0.191-0.223,0.264-0.527,0.264-1.455v-3.238h0.703
			v3.512c0,0.75-0.12,1.238-0.464,1.59c-0.312,0.312-0.823,0.439-1.199,0.439L117.052,143.875z M118.866,137.799
			c0.008,0.23-0.16,0.432-0.439,0.432c-0.264,0-0.432-0.201-0.432-0.432c0-0.248,0.184-0.441,0.447-0.441
			C118.698,137.357,118.866,137.551,118.866,137.799z"/>
		<path fill="#2D130F" d="M123.177,141.699c0,0.4,0.008,0.752,0.031,1.057h-0.623l-0.04-0.633h-0.017
			c-0.184,0.312-0.591,0.721-1.279,0.721c-0.607,0-1.335-0.336-1.335-1.695v-2.264h0.704v2.143c0,0.736,0.224,1.232,0.863,1.232
			c0.472,0,0.8-0.328,0.928-0.641c0.04-0.104,0.063-0.23,0.063-0.359v-2.375h0.704V141.699z"/>
		<path fill="#2D130F" d="M124.25,142.035c0.208,0.137,0.576,0.281,0.928,0.281c0.512,0,0.752-0.256,0.752-0.576
			c0-0.336-0.2-0.52-0.72-0.713c-0.695-0.246-1.023-0.631-1.023-1.094c0-0.625,0.504-1.137,1.335-1.137
			c0.392,0,0.736,0.113,0.952,0.24l-0.177,0.512c-0.151-0.096-0.432-0.223-0.791-0.223c-0.416,0-0.647,0.238-0.647,0.527
			c0,0.318,0.231,0.463,0.735,0.654c0.672,0.256,1.016,0.592,1.016,1.168c0,0.68-0.528,1.16-1.447,1.16
			c-0.424,0-0.815-0.105-1.088-0.264L124.25,142.035z"/>
		<path fill="#2D130F" d="M128.362,137.773v1.111h1.007v0.537h-1.007v2.086c0,0.48,0.136,0.752,0.527,0.752
			c0.184,0,0.319-0.023,0.407-0.049l0.032,0.529c-0.136,0.055-0.352,0.096-0.623,0.096c-0.328,0-0.592-0.105-0.76-0.297
			c-0.2-0.207-0.272-0.551-0.272-1.008v-2.109h-0.6v-0.537h0.6v-0.928L128.362,137.773z"/>
		<path fill="#2D130F" d="M133.616,140.789c0,1.43-0.991,2.055-1.927,2.055c-1.048,0-1.855-0.768-1.855-1.992
			c0-1.295,0.848-2.055,1.919-2.055C132.864,138.797,133.616,139.605,133.616,140.789z M130.546,140.828
			c0,0.848,0.487,1.488,1.175,1.488c0.672,0,1.176-0.633,1.176-1.504c0-0.656-0.328-1.486-1.159-1.486
			C130.905,139.326,130.546,140.094,130.546,140.828z"/>
		<path fill="#2D130F" d="M136.202,139.934c0-0.4-0.009-0.729-0.032-1.049h0.615l0.032,0.625h0.024
			c0.216-0.369,0.575-0.713,1.215-0.713c0.528,0,0.928,0.32,1.096,0.775h0.016c0.12-0.215,0.272-0.383,0.432-0.502
			c0.232-0.178,0.488-0.273,0.855-0.273c0.512,0,1.271,0.336,1.271,1.68v2.279h-0.688v-2.191c0-0.744-0.271-1.191-0.84-1.191
			c-0.399,0-0.711,0.297-0.831,0.641c-0.032,0.096-0.056,0.223-0.056,0.352v2.391h-0.688v-2.318c0-0.617-0.272-1.064-0.808-1.064
			c-0.44,0-0.76,0.352-0.872,0.703c-0.04,0.105-0.056,0.225-0.056,0.344v2.336h-0.688V139.934z"/>
		<path fill="#2D130F" d="M146.376,140.789c0,1.43-0.991,2.055-1.927,2.055c-1.048,0-1.855-0.768-1.855-1.992
			c0-1.295,0.848-2.055,1.919-2.055C145.624,138.797,146.376,139.605,146.376,140.789z M143.306,140.828
			c0,0.848,0.487,1.488,1.175,1.488c0.672,0,1.176-0.633,1.176-1.504c0-0.656-0.328-1.486-1.159-1.486
			C143.665,139.326,143.306,140.094,143.306,140.828z"/>
		<path fill="#2D130F" d="M147.267,137.078h0.703v5.678h-0.703V137.078z"/>
		<path fill="#2D130F" d="M149.546,140.949c0.016,0.951,0.624,1.342,1.327,1.342c0.504,0,0.808-0.088,1.071-0.199l0.12,0.504
			c-0.248,0.111-0.672,0.24-1.287,0.24c-1.191,0-1.903-0.785-1.903-1.951c0-1.168,0.688-2.088,1.815-2.088
			c1.263,0,1.599,1.111,1.599,1.824c0,0.143-0.016,0.256-0.023,0.328H149.546z M151.608,140.445
			c0.008-0.449-0.184-1.145-0.976-1.145c-0.711,0-1.023,0.656-1.079,1.145H151.608z"/>
		<path fill="#2D130F" d="M153.065,142.035c0.208,0.137,0.576,0.281,0.928,0.281c0.512,0,0.752-0.256,0.752-0.576
			c0-0.336-0.2-0.52-0.72-0.713c-0.695-0.246-1.023-0.631-1.023-1.094c0-0.625,0.504-1.137,1.335-1.137
			c0.392,0,0.735,0.113,0.952,0.24l-0.177,0.512c-0.151-0.096-0.432-0.223-0.791-0.223c-0.416,0-0.647,0.238-0.647,0.527
			c0,0.318,0.231,0.463,0.735,0.654c0.672,0.256,1.016,0.592,1.016,1.168c0,0.68-0.528,1.16-1.447,1.16
			c-0.424,0-0.815-0.105-1.088-0.264L153.065,142.035z"/>
		<path fill="#2D130F" d="M157.178,137.773v1.111h1.007v0.537h-1.007v2.086c0,0.48,0.136,0.752,0.527,0.752
			c0.184,0,0.319-0.023,0.408-0.049l0.031,0.529c-0.136,0.055-0.352,0.096-0.623,0.096c-0.328,0-0.592-0.105-0.76-0.297
			c-0.2-0.207-0.272-0.551-0.272-1.008v-2.109h-0.6v-0.537h0.6v-0.928L157.178,137.773z"/>
		<path fill="#2D130F" d="M159.761,137.799c0.008,0.238-0.168,0.432-0.447,0.432c-0.248,0-0.424-0.193-0.424-0.432
			c0-0.248,0.184-0.441,0.439-0.441C159.593,137.357,159.761,137.551,159.761,137.799z M158.978,142.756v-3.871h0.703v3.871H158.978
			z"/>
		<path fill="#2D130F" d="M161.241,140.949c0.016,0.951,0.624,1.342,1.327,1.342c0.504,0,0.808-0.088,1.071-0.199l0.12,0.504
			c-0.248,0.111-0.672,0.24-1.287,0.24c-1.191,0-1.903-0.785-1.903-1.951c0-1.168,0.688-2.088,1.815-2.088
			c1.263,0,1.599,1.111,1.599,1.824c0,0.143-0.016,0.256-0.023,0.328H161.241z M163.304,140.445
			c0.008-0.449-0.184-1.145-0.976-1.145c-0.711,0-1.023,0.656-1.079,1.145H163.304z"/>
		<path fill="#2D130F" d="M166.554,140.094c0-0.457-0.009-0.848-0.032-1.209h0.615l0.024,0.76h0.032
			c0.176-0.52,0.6-0.848,1.071-0.848c0.08,0,0.136,0.008,0.2,0.025v0.662c-0.072-0.016-0.145-0.023-0.24-0.023
			c-0.496,0-0.848,0.377-0.943,0.904c-0.017,0.096-0.032,0.207-0.032,0.328v2.062h-0.695V140.094z"/>
		<path fill="#2D130F" d="M169.201,137.078h0.703v2.414h0.017c0.111-0.199,0.287-0.375,0.503-0.494
			c0.208-0.121,0.456-0.201,0.72-0.201c0.52,0,1.352,0.32,1.352,1.656v2.303h-0.704v-2.223c0-0.625-0.231-1.152-0.896-1.152
			c-0.455,0-0.815,0.32-0.943,0.703c-0.04,0.098-0.048,0.201-0.048,0.336v2.336h-0.703V137.078z"/>
		<path fill="#2D130F" d="M177.144,140.789c0,1.43-0.991,2.055-1.927,2.055c-1.048,0-1.855-0.768-1.855-1.992
			c0-1.295,0.848-2.055,1.919-2.055C176.392,138.797,177.144,139.605,177.144,140.789z M174.073,140.828
			c0,0.848,0.487,1.488,1.175,1.488c0.672,0,1.176-0.633,1.176-1.504c0-0.656-0.328-1.486-1.159-1.486
			C174.433,139.326,174.073,140.094,174.073,140.828z"/>
		<path fill="#2D130F" d="M178.033,139.934c0-0.4-0.008-0.729-0.032-1.049h0.624l0.039,0.641h0.017
			c0.191-0.367,0.64-0.729,1.279-0.729c0.535,0,1.367,0.32,1.367,1.648v2.311h-0.704v-2.23c0-0.625-0.231-1.145-0.896-1.145
			c-0.463,0-0.823,0.328-0.943,0.721c-0.031,0.088-0.048,0.207-0.048,0.326v2.328h-0.703V139.934z"/>
		<path fill="#2D130F" d="M185.231,142.611c-0.184,0.096-0.591,0.225-1.111,0.225c-1.167,0-1.927-0.793-1.927-1.975
			c0-1.191,0.815-2.057,2.079-2.057c0.416,0,0.783,0.105,0.976,0.201l-0.16,0.543c-0.168-0.096-0.432-0.184-0.815-0.184
			c-0.888,0-1.367,0.656-1.367,1.463c0,0.896,0.575,1.447,1.343,1.447c0.4,0,0.664-0.104,0.864-0.191L185.231,142.611z"/>
		<path fill="#2D130F" d="M189.296,141.699c0,0.4,0.008,0.752,0.031,1.057h-0.623l-0.04-0.633h-0.017
			c-0.184,0.312-0.591,0.721-1.279,0.721c-0.607,0-1.335-0.336-1.335-1.695v-2.264h0.704v2.143c0,0.736,0.224,1.232,0.863,1.232
			c0.472,0,0.8-0.328,0.928-0.641c0.04-0.104,0.063-0.23,0.063-0.359v-2.375h0.704V141.699z"/>
		<path fill="#2D130F" d="M190.368,142.035c0.208,0.137,0.576,0.281,0.928,0.281c0.512,0,0.752-0.256,0.752-0.576
			c0-0.336-0.2-0.52-0.72-0.713c-0.695-0.246-1.023-0.631-1.023-1.094c0-0.625,0.504-1.137,1.335-1.137
			c0.392,0,0.735,0.113,0.952,0.24l-0.177,0.512c-0.151-0.096-0.432-0.223-0.791-0.223c-0.416,0-0.647,0.238-0.647,0.527
			c0,0.318,0.231,0.463,0.735,0.654c0.672,0.256,1.016,0.592,1.016,1.168c0,0.68-0.528,1.16-1.447,1.16
			c-0.424,0-0.815-0.105-1.088-0.264L190.368,142.035z"/>
		<path fill="#2D130F" d="M193.377,142.34c0-0.297,0.199-0.504,0.479-0.504s0.472,0.207,0.472,0.504
			c0,0.287-0.184,0.504-0.479,0.504C193.568,142.844,193.377,142.627,193.377,142.34z"/>
	</g>
</g>
</svg>
