<?xml version="1.0" encoding="utf-8"?>
<!-- Generator: Adobe Illustrator 16.0.4, SVG Export Plug-In . SVG Version: 6.00 Build 0)  -->
<!DOCTYPE svg PUBLIC "-//W3C//DTD SVG 1.1//EN" "http://www.w3.org/Graphics/SVG/1.1/DTD/svg11.dtd">
<svg version="1.1" id="Layer_1" xmlns="http://www.w3.org/2000/svg" xmlns:xlink="http://www.w3.org/1999/xlink" x="0px" y="0px"
	 width="90.304px" height="96.367px" viewBox="0 0 90.304 96.367" enable-background="new 0 0 90.304 96.367" xml:space="preserve">
<path fill="#DBA94B" d="M40.587,47.865c-0.672,0.827-1.717-0.577-2.427-1.875c-0.202-0.631-0.444-1.241-0.786-1.795
	c-0.125-0.202-0.841-0.408-0.781,0c0.065,0.432,0.4,1.222,0.881,2.025c0.579,1.801,0.836,3.726,1.975,5.192
	c-0.811-0.403-1.585-0.867-2.346-1.41c-0.161-0.116-0.844-0.168-0.639,0.201c0.42,0.757,0.933,1.455,1.357,2.208
	c0.64,1.137-0.609,1.175-1.328,0.635c-0.231-0.174-0.868-0.119-0.59,0.269c0.564,0.787,4.07,5.224,0.806,3.791
	c-0.151-0.066-0.753-0.073-0.549,0.252c0.482,0.77,2.758,3.231,0.905,3.819c-0.086,0.027-0.198,0.112-0.169,0.22
	c0.329,1.18,1.826,3.417,0.169,3.889c-0.126,0.037-0.219,0.165-0.145,0.292c1.838,3.168,0.396,7.141,1.042,10.583
	c0.062,0.336,0.876,0.45,0.805,0.073c-0.387-2.063-0.111-4.108-0.12-6.188c-0.003-0.973,0.011-2.022-0.285-2.962
	c-0.238-0.754-0.764-1.307,0.237-1.593c0.103-0.029,0.178-0.11,0.168-0.218c-0.038-0.44-0.944-3.679-0.789-3.729
	c0.44-0.14,0.611-0.521,0.677-0.928c0.151-0.913-0.727-1.964-1.353-2.79c0.473,0.087,0.944,0.088,1.509,0.071
	c0.132-0.004,0.273-0.091,0.26-0.237c-0.127-1.393-0.859-2.41-1.657-3.438c0.507,0.189,1.047,0.258,1.702,0.174
	c0.105-0.014,0.306-0.088,0.26-0.238c-0.343-1.107-0.956-2.052-1.555-3.017c0.888,0.539,1.808,1.001,2.807,1.371
	c0.283,0.104,0.861-0.081,0.432-0.381c-1.476-1.037-1.964-2.662-2.399-4.331c0.879,0.908,1.877,1.362,2.659,0.403
	C41.564,47.908,40.802,47.603,40.587,47.865z M32.353,2.312c1.802,0.483,3.604-0.559,5.381-0.698c1.37-0.107,2.03,0.799,3.235,0.927
	c0.21,0.022,0.438,0.037,0.672,0.046c-0.132,1.017-0.337,1.818,0.111,2.668c0.438,0.83,0.647,1.334,0.271,2.263
	c-0.089,0.219-0.338,0.707-0.301,0.979c0.194,1.487,0.813,2.39,0.501,4.008c-1.02-0.083-2.084,0.206-2.303,1.058
	c-0.23,0.895-0.137,1.907-0.184,2.848c-0.897,0.347-1.451,1.627-1.437,2.487c0.001,0.118,0.013,0.233,0.03,0.344
	c0.042,1.633,0.493,2.671,1.182,3.287c0.04,0.66,0.074,2.014,0.083,2.471c0.044,2.179,0.393,3.799,0.286,5.977
	c-0.059,1.191-0.227,2.438-0.772,3.518c-0.63,1.247-1.586,2.097-2.345,3.229c-1.127,1.682-1.825,2.881-2.252,4.851
	c-2.311,10.681-0.72,19.95-1.344,30.742c-0.139,2.401-0.309,4.836-0.09,7.235c0.162,1.778,0.364,3.915,1.726,5.243
	c2.224,2.162,6.098,2.794,9.016,1.779c6.444-2.237,4.375-10.864,5.24-16.052c0.232,0.02,0.47,0.029,0.716,0.029
	c-0.513,2.772-0.362,5.815-0.494,8.617c-0.087,1.871-0.172,3.745-0.25,5.618c-0.004,0.103-0.005,0.229-0.004,0.367
	c-2.83,0.692-5.157,2.63-4.328,5.791c0.625,2.386,3.06,4.402,5.514,4.6c3.191,0.256,6.699-2.092,6.611-5.562
	c-0.078-3.086-2.651-5.342-5.689-5.02c-0.007-0.06-0.013-0.121-0.019-0.182c-0.076-0.727-0.144-1.446-0.152-2.177
	c-0.02-1.74,0.049-3.48,0.136-5.217c0.118-2.323,0.232-4.646,0.349-6.966c6.517-1.143,5.885-9.198,5.799-14.733
	c0.921-3.189-2.996-7.11-7.025-7.587c-0.062-1.172-0.118-2.347-0.14-3.523c-0.048-2.501,0.167-3.159-1.281-5.343
	c-0.971-1.465-2.408-2.623-3.299-4.126c-1.036-1.744-1.392-3.604-1.304-5.617c0.126-2.915,0.583-4.804-0.094-7.685
	c1.264-0.569,2.036-1.647,2.088-3.28l-0.049-0.642c0.134-0.856-0.417-1.54-1.246-1.924c0.114-1.079,0-2.237-0.441-3.12
	c-0.001-0.001-0.001-0.001-0.001-0.004c0,0-0.001,0-0.002-0.001c-0.109-0.219-0.238-0.421-0.39-0.6
	c-0.22-0.259-0.607-0.46-1.057-0.59c0.238-1.442-0.198-2.055-0.399-3.364c-0.149-0.978,0.849-2.103,0.417-2.97
	c-0.491-0.989-0.792-1.42-0.673-2.634c0.047-0.482,0.09-0.6,0.125-1.082c0.757-0.014,1.54-0.083,2.194-0.207
	c1.874-0.357,3.329-0.754,5.115,0.16c0.44,0.225,0.925,0.412,1.426,0.415c1.59,0.011-0.206-1.986-0.773-2.28
	c-1.6-0.831-3.932-0.439-5.623-0.178c-1.173,0.23-2.475,0.687-3.679,0.485c-1.015-0.169-2.023-0.379-3.039-0.541
	c-0.86-0.136-1.715-0.249-2.582-0.321c-1.08-0.09-3.061-0.378-4.011,0.358C30.626,1.171,31.572,2.104,32.353,2.312z M49.676,54.459
	c-2.936-0.39-6.259,1.057-6.087,3.104c-1.403-1.653-0.741-3.856,0.77-5.557c-0.111,0.34,0.553,0.604,0.749,0.295
	c1.08-1.703,2.655-2.607,4.345-2.716C49.542,51.207,49.635,52.83,49.676,54.459z M49.694,54.998c-0.08-0.014-0.156-0.03-0.239-0.041
	c-1.935-0.229-3.748,0.48-4.919,1.908c0.629-1.326,3.04-2.234,5.156-1.919C49.692,54.963,49.694,54.981,49.694,54.998z
	 M51.696,58.292c-0.738-1.289-1.638-2.297-3.327-2.441c-1.808-0.156-2.812,1.442-2.931,3.017c-0.154-0.07-0.309-0.139-0.452-0.216
	c-0.166-0.088-0.316-0.181-0.46-0.277c0.007-0.01,0.019-0.019,0.024-0.031c0.792-1.772,2.661-3.154,4.685-2.913
	C51.004,55.64,51.767,56.817,51.696,58.292z M47.166,59.434c-0.272-0.063-0.537-0.133-0.793-0.214
	c0.562-0.754,1.354-1.556,2.332-1.576c1.4-0.03,1.568,1.053,1.497,2.027C49.178,58.677,48.044,58.008,47.166,59.434z M49.688,59.742
	c-0.578-0.012-1.15-0.063-1.707-0.149C48.545,58.957,49.199,59.312,49.688,59.742z M46.501,58.003
	c0.569-1.482,1.963-2.913,3.645-0.876c0.592,0.718,0.983,1.525,1.394,2.353c0.024,0.048,0.076,0.094,0.142,0.134
	c-0.229,0.036-0.46,0.062-0.693,0.083C51.113,56.765,48.499,56.375,46.501,58.003z M50.489,55.221c0-0.007,0.006-0.01,0.006-0.018
	c0-0.023-0.001-0.047-0.002-0.07c1.494,0.48,2.677,1.692,2.696,3.976c0.001,0.048,0.023,0.09,0.06,0.13
	c-0.299,0.1-0.604,0.188-0.92,0.258C52.83,57.628,52.159,55.894,50.489,55.221z M56.656,55.754c-0.122,0.02-0.217,0.081-0.215,0.208
	c0.002,0.234,0.006,0.485,0.014,0.741c-0.108,0.269-0.265,0.531-0.474,0.784c-0.521,0.629-1.216,1.107-2.005,1.465
	c-0.112-2.517-1.64-3.845-3.496-4.332c-0.039-1.679-0.138-3.352-0.229-5.025c1.088,0.088,2.198,0.491,3.231,1.22
	C54.902,51.816,56.721,53.831,56.656,55.754z M49.998,82.134c0.156-3.41-0.054-7.132,0.595-10.494
	c0.007-0.039-0.008-0.076-0.033-0.112c0.025-0.002,0.051-0.002,0.075-0.004c-0.19,3.71-0.478,7.432-0.477,11.146
	c0,1.187,0.096,2.341,0.213,3.519c-0.022,0.053-0.012,0.11,0.016,0.168c0.004,0.039,0.007,0.078,0.011,0.118
	c0.126,1.233,0.01,2.423,0.68,3.504c0.49,0.794,1.434,0.691,1.774-0.072c0.125-0.278-0.661-0.52-0.797-0.214
	c-0.312,0.699-0.748-1.833-0.746-1.799c-0.025-0.448-0.067-0.895-0.113-1.338c3.651-0.489,6.129,3.599,4.163,6.725
	c-1.417,2.253-4.402,3.514-6.889,2.196c-1.659-0.878-3.155-2.643-3.155-4.615c0-2.277,1.741-3.478,3.712-4.06
	c-0.008,1.421-0.156,3.428-1.713,3.147c-0.553-0.099-0.244,0.342,0.119,0.404C50.787,90.956,49.908,84.112,49.998,82.134z
	 M42.525,57.435c0.102,0.154,0.215,0.307,0.344,0.458c2.681,3.145,9.844,3.267,12.969,0.8c0.259-0.204,0.472-0.422,0.662-0.645
	c0.185,4.803,0.433,11.762-4.951,12.821C43.364,72.482,41.702,63.61,42.525,57.435z M40.533,32.679
	c0.27-1.853,0.086-1.641-0.031-3.499c-0.095-1.489-0.098-4.068-0.203-5.556c-0.013-0.186-0.024-0.409-0.058-0.63
	c0.615,0.269,1.333,0.336,2.091,0.262c0.373-0.037,0.723-0.103,1.051-0.191c0.631,3.162-0.171,5.272,0.02,8.454
	c0.084,1.39,0.307,2.838,1.031,4.057c0.909,1.533,2.292,2.663,3.271,4.14c1.726,2.603,1.526,3.281,1.591,6.284
	c0.022,1.022,0.072,2.041,0.127,3.06c-1.324-0.001-2.627,0.396-3.74,1.35c-2.376,1.263-4.271,3.535-3.705,5.816
	c-0.059,0.024-0.106,0.062-0.118,0.126c-1,5.596-0.02,13.894,6.37,15.06c-0.718,5.211,1.164,15.162-6.178,15.926
	c-2.435,0.255-5.803-0.016-7.138-2.459c-1.093-1.999-1.139-4.556-1.12-6.787c0.04-4.713,0.517-9.369,0.346-14.09
	c-0.209-5.744-0.424-11.377,0.303-17.096c0.467-3.662,0.796-6.314,3.347-9.226C39.078,36.209,40.244,34.673,40.533,32.679z
	 M39.219,20.794c0.649,0.574,1.552,0.912,2.41,0.96c1.236,0.068,2.504-0.316,3.423-1.126c-0.495,1.101-1.463,1.945-2.773,2.073
	C40.76,22.851,39.618,22.11,39.219,20.794z M40.453,19.516c1.256,1.171,3.2,1.068,3.975-0.677c0.175-0.395,0.312-0.859,0.4-1.358
	c0.774,0.537,0.609,1.583-0.034,2.333c-0.78,0.911-2.025,1.579-3.258,1.44c-1.387-0.155-2.745-1.151-2.382-2.691
	c0.099-0.417,0.212-1.033,0.538-1.355c-0.011,0.763,0.149,1.443,0.585,2.096c0.01,0.038,0.037,0.081,0.083,0.127
	C40.384,19.465,40.417,19.492,40.453,19.516z M42.491,14.009c0.171-0.253,0.294-0.529,0.385-0.82
	c0.006,0.001,0.013,0.003,0.019,0.004c0.356,0.121,0.609,0.349,0.789,0.641c0.093,0.435-0.366,0.769-0.735,0.926
	c-0.213,0.089-0.412,0.145-0.646,0.139c-0.111-0.002-0.514-0.034-0.671-0.071c-0.001-0.023-0.008-0.048-0.028-0.077
	c-0.115-0.155-0.347-0.206-0.528-0.213c-0.021-0.001-0.042-0.002-0.065-0.002c-0.065-0.003-0.301,0.038-0.24,0.162
	c0.315,0.643,1.717,0.729,2.308,0.601c0.28-0.062,0.654-0.206,0.95-0.417c0.113,0.78,0.024,1.649-0.039,2.233
	c-0.136,1.278-1.216,3.856-2.965,2.089c-0.889-1.227-0.327-2.547-0.384-3.911c-0.019-0.471-0.122-1.076,0.077-1.516
	c0.216-0.477,0.79-0.67,1.347-0.689c-0.083,0.22-0.186,0.432-0.318,0.628C41.592,13.943,42.365,14.194,42.491,14.009z M33.211,0.532
	c0.715-0.071,1.435-0.069,2.154-0.02c1.477,0.103,2.915,0.351,4.372,0.615c2.09,0.381,3.512,0.188,5.577-0.217
	c0.992-0.153,2.01-0.293,3.016-0.246c0.929-0.065,1.75,0.232,2.461,0.894c-0.305,0.198-0.608,0.396-0.913,0.594
	c-0.245-0.134-0.492-0.268-0.739-0.403c-0.891-0.443-1.791-0.499-2.767-0.26c-0.987,0.241-2.051,0.614-3.08,0.551
	c-0.176-0.01-0.457,0.007-0.778,0.023c0.001-0.013,0.002-0.025,0.002-0.038c0.012-0.266-0.788-0.414-0.797-0.213
	c-0.003,0.091-0.011,0.187-0.021,0.283c-0.657,0.007-1.289-0.051-1.492-0.339c-0.437-0.628-1.652-0.646-2.284-0.596
	c-1.619,0.127-3.296,0.912-4.907,0.852C30.829,1.928,32.364,0.614,33.211,0.532z"/>
<path fill="#DBA94B" d="M62.177,48.297c-0.47,0.578-1.202-0.403-1.698-1.312c-0.142-0.442-0.311-0.869-0.55-1.256
	c-0.087-0.142-0.589-0.285-0.547,0c0.046,0.302,0.28,0.855,0.617,1.417c0.404,1.26,0.585,2.607,1.381,3.633
	c-0.567-0.282-1.108-0.606-1.641-0.986c-0.112-0.081-0.59-0.117-0.446,0.141c0.293,0.53,0.651,1.019,0.948,1.545
	c0.448,0.795-0.426,0.822-0.928,0.444c-0.162-0.123-0.608-0.083-0.414,0.188c0.396,0.551,2.849,3.655,0.563,2.652
	c-0.104-0.046-0.525-0.051-0.383,0.177c0.338,0.539,1.929,2.261,0.634,2.671c-0.062,0.02-0.14,0.079-0.118,0.154
	c0.229,0.825,1.276,2.391,0.118,2.721c-0.089,0.026-0.154,0.116-0.103,0.205c1.286,2.216,0.278,4.995,0.729,7.403
	c0.044,0.235,0.613,0.315,0.562,0.052c-0.27-1.443-0.076-2.874-0.084-4.329c-0.003-0.681,0.009-1.415-0.199-2.072
	c-0.166-0.527-0.533-0.914,0.166-1.114c0.072-0.02,0.124-0.076,0.117-0.152c-0.026-0.308-0.661-2.574-0.551-2.608
	c0.308-0.098,0.427-0.365,0.475-0.649c0.104-0.639-0.51-1.374-0.947-1.952c0.331,0.061,0.66,0.062,1.056,0.05
	c0.093-0.003,0.191-0.064,0.182-0.167c-0.089-0.974-0.602-1.686-1.16-2.405c0.355,0.133,0.733,0.181,1.191,0.123
	c0.073-0.01,0.214-0.062,0.182-0.167c-0.24-0.774-0.669-1.436-1.088-2.111c0.622,0.377,1.266,0.701,1.964,0.959
	c0.198,0.073,0.603-0.057,0.302-0.267c-1.032-0.727-1.373-1.863-1.678-3.03c0.614,0.635,1.312,0.953,1.859,0.282
	C62.861,48.327,62.327,48.113,62.177,48.297z M56.417,16.426c1.261,0.338,2.521-0.391,3.765-0.488
	c0.958-0.074,1.42,0.56,2.264,0.649c0.146,0.016,0.307,0.025,0.47,0.032c-0.093,0.711-0.235,1.272,0.078,1.866
	c0.306,0.581,0.453,0.935,0.19,1.583c-0.063,0.153-0.236,0.495-0.211,0.685c0.135,1.041,0.568,1.672,0.351,2.804
	c-0.714-0.058-1.459,0.144-1.611,0.74c-0.162,0.626-0.097,1.334-0.13,1.993c-0.627,0.243-1.015,1.138-1.005,1.74
	c0.001,0.083,0.01,0.163,0.021,0.241c0.029,1.143,0.346,1.869,0.827,2.3c0.027,0.462,0.052,1.409,0.058,1.729
	c0.031,1.525,0.275,2.658,0.2,4.182c-0.041,0.834-0.158,1.706-0.54,2.461c-0.44,0.873-1.11,1.468-1.641,2.26
	c-0.788,1.177-1.277,2.016-1.576,3.394c-1.617,7.473-0.504,13.958-0.941,21.508c-0.096,1.681-0.215,3.384-0.062,5.062
	c0.114,1.244,0.254,2.739,1.207,3.669c1.558,1.512,4.267,1.954,6.309,1.245c4.509-1.566,3.062-7.603,3.666-11.231
	c0.163,0.014,0.33,0.021,0.502,0.021c-0.358,1.94-0.253,4.068-0.346,6.029c-0.062,1.309-0.12,2.62-0.174,3.931
	c-0.004,0.071-0.005,0.159-0.004,0.256c-1.98,0.485-3.607,1.841-3.028,4.052c0.438,1.67,2.142,3.081,3.858,3.219
	c2.232,0.18,4.687-1.463,4.625-3.893c-0.056-2.158-1.854-3.735-3.98-3.511c-0.005-0.042-0.01-0.085-0.014-0.127
	c-0.052-0.509-0.101-1.013-0.106-1.522c-0.014-1.219,0.035-2.437,0.096-3.65c0.083-1.625,0.163-3.25,0.245-4.874
	c4.559-0.8,4.116-6.435,4.057-10.308c0.645-2.232-2.097-4.975-4.916-5.309c-0.044-0.82-0.082-1.642-0.097-2.464
	c-0.034-1.75,0.116-2.21-0.897-3.738c-0.679-1.025-1.685-1.835-2.309-2.886c-0.724-1.22-0.973-2.522-0.911-3.93
	c0.089-2.04,0.407-3.361-0.065-5.377c0.883-0.398,1.424-1.152,1.461-2.295l-0.035-0.449c0.094-0.599-0.291-1.077-0.871-1.346
	c0.079-0.755,0-1.565-0.31-2.183c0-0.001,0-0.001-0.001-0.003c0,0-0.001,0-0.001-0.001c-0.076-0.153-0.166-0.294-0.272-0.419
	c-0.154-0.181-0.426-0.322-0.74-0.413c0.168-1.009-0.138-1.438-0.278-2.354c-0.104-0.684,0.593-1.472,0.292-2.078
	c-0.344-0.692-0.554-0.994-0.471-1.843c0.033-0.338,0.062-0.42,0.087-0.757c0.53-0.009,1.077-0.057,1.535-0.145
	c1.312-0.25,2.33-0.527,3.579,0.113c0.308,0.157,0.646,0.288,0.998,0.29c1.113,0.008-0.145-1.389-0.542-1.595
	c-1.119-0.582-2.751-0.308-3.934-0.125c-0.82,0.161-1.732,0.48-2.574,0.339c-0.711-0.118-1.415-0.266-2.127-0.378
	c-0.602-0.096-1.199-0.174-1.806-0.225c-0.756-0.063-2.142-0.264-2.807,0.251C55.208,15.627,55.87,16.28,56.417,16.426z
	 M68.537,52.91c-2.054-0.272-4.379,0.74-4.259,2.172c-0.982-1.157-0.519-2.698,0.537-3.888c-0.077,0.238,0.388,0.422,0.525,0.207
	c0.754-1.192,1.856-1.824,3.038-1.901C68.443,50.634,68.506,51.771,68.537,52.91z M68.548,53.287
	c-0.056-0.01-0.108-0.021-0.167-0.028c-1.354-0.161-2.621,0.336-3.442,1.334c0.441-0.927,2.128-1.562,3.608-1.342
	C68.547,53.263,68.548,53.275,68.548,53.287z M69.95,55.591c-0.517-0.902-1.146-1.607-2.329-1.708
	c-1.265-0.109-1.967,1.009-2.05,2.111c-0.107-0.049-0.215-0.097-0.315-0.151c-0.116-0.062-0.222-0.127-0.322-0.194
	c0.004-0.008,0.012-0.014,0.017-0.022c0.554-1.24,1.862-2.207,3.278-2.038C69.465,53.737,69.999,54.56,69.95,55.591z M66.78,56.391
	c-0.191-0.044-0.375-0.093-0.554-0.149c0.391-0.528,0.946-1.088,1.63-1.103c0.979-0.021,1.097,0.737,1.048,1.418
	C68.188,55.861,67.394,55.393,66.78,56.391z M68.544,56.606c-0.404-0.008-0.806-0.044-1.194-0.104
	C67.746,56.057,68.202,56.305,68.544,56.606z M66.315,55.389c0.397-1.037,1.373-2.038,2.55-0.613
	c0.415,0.503,0.688,1.067,0.975,1.646c0.018,0.034,0.054,0.066,0.099,0.094c-0.159,0.024-0.321,0.042-0.484,0.058
	C69.541,54.523,67.712,54.25,66.315,55.389z M69.105,53.443c0-0.005,0.004-0.007,0.004-0.013c0-0.016-0.001-0.032-0.001-0.049
	c1.045,0.336,1.871,1.184,1.885,2.781c0.002,0.034,0.019,0.063,0.042,0.091c-0.208,0.07-0.423,0.131-0.644,0.18
	C70.743,55.127,70.273,53.914,69.105,53.443z M73.419,53.816c-0.085,0.014-0.151,0.057-0.15,0.145
	c0.001,0.164,0.004,0.339,0.009,0.519c-0.076,0.188-0.185,0.372-0.33,0.549c-0.365,0.44-0.851,0.774-1.403,1.025
	c-0.079-1.761-1.147-2.69-2.445-3.031c-0.028-1.175-0.097-2.345-0.161-3.516c0.762,0.062,1.538,0.343,2.262,0.853
	C72.193,51.061,73.465,52.471,73.419,53.816z M68.761,72.272c0.108-2.386-0.037-4.989,0.417-7.342
	c0.005-0.028-0.006-0.054-0.023-0.079c0.018-0.001,0.036-0.001,0.053-0.003c-0.133,2.596-0.335,5.199-0.334,7.799
	c0.001,0.829,0.067,1.638,0.15,2.461c-0.017,0.038-0.009,0.078,0.011,0.118c0.003,0.027,0.005,0.055,0.007,0.083
	c0.088,0.863,0.008,1.694,0.477,2.451c0.343,0.556,1.002,0.483,1.241-0.051c0.087-0.194-0.463-0.363-0.559-0.149
	c-0.218,0.489-0.522-1.282-0.521-1.259c-0.017-0.312-0.047-0.626-0.078-0.937c2.554-0.342,4.288,2.519,2.911,4.705
	c-0.99,1.577-3.079,2.459-4.819,1.537c-1.161-0.614-2.207-1.849-2.207-3.229c0-1.594,1.219-2.434,2.598-2.841
	c-0.007,0.994-0.109,2.398-1.198,2.202c-0.388-0.069-0.172,0.238,0.082,0.283C69.314,78.444,68.698,73.656,68.761,72.272z
	 M63.533,54.992c0.071,0.107,0.151,0.214,0.241,0.32c1.876,2.2,6.887,2.286,9.074,0.56c0.181-0.143,0.329-0.295,0.464-0.451
	c0.128,3.36,0.302,8.229-3.466,8.97C64.121,65.52,62.957,59.313,63.533,54.992z M62.139,37.672c0.188-1.296,0.061-1.148-0.021-2.448
	c-0.067-1.042-0.069-2.846-0.143-3.887c-0.009-0.13-0.017-0.286-0.041-0.441c0.432,0.188,0.934,0.235,1.463,0.183
	c0.262-0.026,0.507-0.072,0.735-0.134c0.442,2.212-0.119,3.689,0.014,5.915c0.06,0.972,0.215,1.985,0.723,2.838
	c0.635,1.073,1.602,1.863,2.288,2.896c1.207,1.821,1.067,2.296,1.113,4.397c0.016,0.715,0.051,1.428,0.09,2.141
	c-0.927,0-1.839,0.277-2.617,0.944c-1.663,0.883-2.987,2.473-2.592,4.069c-0.042,0.018-0.074,0.044-0.082,0.088
	c-0.7,3.916-0.014,9.72,4.455,10.536c-0.501,3.646,0.815,10.607-4.321,11.143c-1.703,0.178-4.061-0.012-4.994-1.721
	c-0.766-1.398-0.797-3.188-0.784-4.749c0.028-3.297,0.362-6.555,0.242-9.857c-0.146-4.019-0.296-7.959,0.213-11.961
	c0.325-2.562,0.557-4.418,2.341-6.455C61.122,40.142,61.937,39.067,62.139,37.672z M61.22,29.357
	c0.453,0.401,1.085,0.638,1.686,0.672c0.865,0.047,1.753-0.222,2.396-0.789c-0.346,0.77-1.023,1.361-1.94,1.45
	C62.297,30.795,61.5,30.277,61.22,29.357z M62.083,28.462c0.879,0.819,2.238,0.748,2.781-0.474c0.122-0.276,0.217-0.601,0.28-0.95
	c0.541,0.375,0.426,1.107-0.024,1.632c-0.546,0.638-1.417,1.105-2.279,1.008c-0.971-0.108-1.922-0.805-1.667-1.883
	c0.069-0.292,0.148-0.723,0.377-0.949c-0.008,0.535,0.104,1.01,0.408,1.467c0.008,0.027,0.026,0.056,0.059,0.089
	C62.035,28.426,62.057,28.446,62.083,28.462z M63.508,24.61c0.121-0.178,0.207-0.371,0.271-0.574
	c0.004,0.001,0.008,0.002,0.013,0.003c0.25,0.085,0.427,0.244,0.552,0.448c0.065,0.304-0.255,0.538-0.514,0.648
	c-0.149,0.062-0.288,0.101-0.451,0.097c-0.079-0.002-0.36-0.024-0.47-0.05c-0.001-0.016-0.006-0.034-0.021-0.054
	c-0.08-0.109-0.242-0.144-0.369-0.149c-0.015-0.001-0.03-0.001-0.045-0.001c-0.047-0.002-0.211,0.026-0.169,0.114
	c0.221,0.449,1.201,0.51,1.615,0.42c0.196-0.043,0.457-0.144,0.665-0.292c0.079,0.546,0.017,1.155-0.027,1.562
	c-0.096,0.895-0.851,2.698-2.074,1.462c-0.623-0.858-0.229-1.782-0.27-2.737c-0.013-0.329-0.085-0.752,0.054-1.061
	c0.151-0.333,0.553-0.468,0.942-0.482c-0.058,0.154-0.13,0.302-0.223,0.439C62.88,24.563,63.422,24.739,63.508,24.61z M57.017,15.18
	c0.5-0.05,1.004-0.049,1.507-0.014c1.032,0.072,2.039,0.245,3.058,0.43c1.464,0.267,2.458,0.131,3.902-0.151
	c0.694-0.107,1.407-0.206,2.109-0.173c0.65-0.045,1.226,0.163,1.723,0.625c-0.213,0.138-0.425,0.277-0.64,0.416
	c-0.17-0.094-0.343-0.188-0.516-0.282c-0.625-0.31-1.253-0.349-1.937-0.182c-0.69,0.168-1.435,0.43-2.155,0.386
	c-0.122-0.007-0.319,0.004-0.544,0.017c0.002-0.01,0.002-0.018,0.002-0.027c0.009-0.187-0.551-0.29-0.558-0.149
	c-0.003,0.063-0.008,0.13-0.015,0.198c-0.459,0.005-0.902-0.036-1.043-0.238c-0.305-0.439-1.156-0.451-1.599-0.417
	c-1.133,0.089-2.306,0.638-3.434,0.596C55.349,16.157,56.424,15.238,57.017,15.18z"/>
<path fill="#DBA94B" d="M21.972,48.297c-0.47,0.578-1.201-0.403-1.698-1.312c-0.141-0.442-0.31-0.869-0.549-1.256
	c-0.087-0.142-0.589-0.285-0.547,0c0.045,0.302,0.28,0.855,0.617,1.417c0.405,1.26,0.584,2.607,1.381,3.633
	c-0.567-0.282-1.109-0.606-1.641-0.986c-0.113-0.081-0.591-0.117-0.447,0.141c0.294,0.53,0.653,1.019,0.949,1.545
	c0.448,0.795-0.426,0.822-0.929,0.444c-0.162-0.123-0.607-0.083-0.413,0.188c0.395,0.551,2.848,3.655,0.564,2.652
	c-0.105-0.046-0.526-0.051-0.384,0.177c0.337,0.539,1.929,2.261,0.633,2.671c-0.06,0.02-0.139,0.079-0.118,0.154
	c0.23,0.825,1.277,2.391,0.118,2.721c-0.088,0.026-0.153,0.116-0.102,0.205c1.286,2.216,0.277,4.995,0.729,7.403
	c0.044,0.235,0.613,0.315,0.563,0.052c-0.271-1.443-0.078-2.874-0.084-4.329c-0.002-0.681,0.008-1.415-0.199-2.072
	c-0.166-0.527-0.534-0.914,0.166-1.114c0.071-0.02,0.124-0.076,0.118-0.152c-0.027-0.308-0.661-2.574-0.552-2.608
	c0.308-0.098,0.427-0.365,0.474-0.649c0.106-0.639-0.508-1.374-0.946-1.952c0.331,0.061,0.66,0.062,1.056,0.05
	c0.092-0.003,0.191-0.064,0.182-0.167c-0.088-0.974-0.601-1.686-1.16-2.405c0.355,0.133,0.732,0.181,1.191,0.123
	c0.074-0.01,0.214-0.062,0.182-0.167c-0.24-0.774-0.669-1.436-1.088-2.111c0.622,0.377,1.266,0.701,1.964,0.959
	c0.198,0.073,0.603-0.057,0.302-0.267c-1.032-0.727-1.374-1.863-1.679-3.03c0.615,0.635,1.313,0.953,1.86,0.282
	C22.656,48.327,22.123,48.113,21.972,48.297z M16.211,16.426c1.261,0.338,2.522-0.391,3.765-0.488
	c0.958-0.074,1.42,0.56,2.264,0.649c0.146,0.016,0.306,0.025,0.47,0.032c-0.092,0.711-0.236,1.272,0.078,1.866
	c0.306,0.581,0.453,0.935,0.189,1.583c-0.062,0.153-0.236,0.495-0.211,0.685c0.136,1.041,0.569,1.672,0.351,2.804
	c-0.714-0.058-1.458,0.144-1.611,0.74c-0.162,0.626-0.096,1.334-0.129,1.993c-0.627,0.243-1.015,1.138-1.005,1.74
	c0,0.083,0.009,0.163,0.021,0.241c0.029,1.143,0.345,1.869,0.827,2.3c0.027,0.462,0.052,1.409,0.058,1.729
	c0.031,1.525,0.275,2.658,0.2,4.182c-0.041,0.834-0.159,1.706-0.541,2.461c-0.44,0.873-1.11,1.468-1.641,2.26
	c-0.789,1.177-1.277,2.016-1.576,3.394c-1.617,7.473-0.504,13.958-0.941,21.508c-0.097,1.681-0.216,3.384-0.063,5.062
	c0.113,1.244,0.254,2.739,1.208,3.669c1.556,1.512,4.266,1.954,6.309,1.245c4.508-1.566,3.061-7.603,3.666-11.231
	c0.163,0.014,0.33,0.021,0.501,0.021c-0.358,1.94-0.252,4.068-0.345,6.029c-0.061,1.309-0.12,2.62-0.173,3.931
	c-0.004,0.071-0.005,0.159-0.004,0.256c-1.98,0.485-3.608,1.841-3.029,4.052c0.438,1.67,2.142,3.081,3.858,3.219
	c2.232,0.18,4.686-1.463,4.625-3.893c-0.055-2.158-1.854-3.735-3.98-3.511c-0.005-0.042-0.01-0.085-0.014-0.127
	c-0.052-0.509-0.101-1.013-0.106-1.522c-0.014-1.219,0.034-2.437,0.096-3.65c0.083-1.625,0.163-3.25,0.245-4.874
	c4.559-0.8,4.116-6.435,4.057-10.308c0.645-2.232-2.096-4.975-4.916-5.309c-0.043-0.82-0.082-1.642-0.097-2.464
	c-0.035-1.75,0.116-2.21-0.897-3.738c-0.679-1.025-1.685-1.835-2.309-2.886c-0.725-1.22-0.973-2.522-0.912-3.93
	c0.089-2.04,0.408-3.361-0.065-5.377c0.883-0.398,1.424-1.152,1.46-2.295l-0.034-0.449c0.093-0.599-0.292-1.077-0.872-1.346
	c0.079-0.755,0-1.565-0.309-2.183c0-0.001,0-0.001-0.001-0.003c0,0,0,0-0.001-0.001c-0.076-0.153-0.166-0.294-0.272-0.419
	c-0.154-0.181-0.425-0.322-0.739-0.413c0.167-1.009-0.139-1.438-0.279-2.354c-0.104-0.684,0.593-1.472,0.292-2.078
	c-0.344-0.692-0.554-0.994-0.471-1.843c0.033-0.338,0.063-0.42,0.088-0.757c0.53-0.009,1.077-0.057,1.535-0.145
	c1.311-0.25,2.329-0.527,3.579,0.113c0.308,0.157,0.647,0.288,0.998,0.29c1.113,0.008-0.144-1.389-0.542-1.595
	c-1.12-0.582-2.751-0.308-3.934-0.125c-0.821,0.161-1.732,0.48-2.574,0.339c-0.71-0.118-1.416-0.266-2.127-0.378
	c-0.602-0.096-1.2-0.174-1.806-0.225c-0.755-0.063-2.141-0.264-2.806,0.251C15.003,15.627,15.665,16.28,16.211,16.426z
	 M28.332,52.91c-2.055-0.272-4.379,0.74-4.259,2.172c-0.981-1.157-0.518-2.698,0.538-3.888c-0.078,0.238,0.388,0.422,0.524,0.207
	c0.755-1.192,1.858-1.824,3.04-1.901C28.238,50.634,28.302,51.771,28.332,52.91z M28.344,53.287
	c-0.055-0.01-0.108-0.021-0.167-0.028c-1.354-0.161-2.622,0.336-3.442,1.334c0.44-0.927,2.126-1.562,3.607-1.342
	C28.343,53.263,28.344,53.275,28.344,53.287z M29.745,55.591c-0.516-0.902-1.146-1.607-2.328-1.708
	c-1.265-0.109-1.967,1.009-2.05,2.111c-0.107-0.049-0.215-0.097-0.316-0.151c-0.116-0.062-0.221-0.127-0.322-0.194
	c0.004-0.008,0.012-0.014,0.017-0.022c0.554-1.24,1.862-2.207,3.278-2.038C29.26,53.737,29.794,54.56,29.745,55.591z M26.576,56.391
	c-0.191-0.044-0.375-0.093-0.555-0.149c0.392-0.528,0.947-1.088,1.631-1.103c0.979-0.021,1.097,0.737,1.047,1.418
	C27.984,55.861,27.19,55.393,26.576,56.391z M28.34,56.606c-0.404-0.008-0.805-0.044-1.193-0.104
	C27.541,56.057,27.998,56.305,28.34,56.606z M26.11,55.389c0.397-1.037,1.374-2.038,2.55-0.613c0.414,0.503,0.688,1.067,0.975,1.646
	c0.017,0.034,0.053,0.066,0.099,0.094c-0.16,0.024-0.321,0.042-0.484,0.058C29.336,54.523,27.508,54.25,26.11,55.389z M28.9,53.443
	c0-0.005,0.004-0.007,0.004-0.013c0-0.016-0.001-0.032-0.001-0.049c1.045,0.336,1.872,1.184,1.885,2.781
	c0.002,0.034,0.018,0.063,0.042,0.091c-0.208,0.07-0.422,0.131-0.643,0.18C30.538,55.127,30.068,53.914,28.9,53.443z M33.215,53.816
	c-0.085,0.014-0.151,0.057-0.15,0.145c0.001,0.164,0.004,0.339,0.009,0.519c-0.076,0.188-0.185,0.372-0.331,0.549
	c-0.365,0.44-0.851,0.774-1.403,1.025c-0.079-1.761-1.147-2.69-2.446-3.031c-0.028-1.175-0.097-2.345-0.161-3.516
	c0.762,0.062,1.538,0.343,2.261,0.853C31.988,51.061,33.261,52.471,33.215,53.816z M28.557,72.272
	c0.108-2.386-0.038-4.989,0.416-7.342c0.005-0.028-0.006-0.054-0.022-0.079c0.017-0.001,0.036-0.001,0.052-0.003
	c-0.133,2.596-0.334,5.199-0.333,7.799c0.001,0.829,0.067,1.638,0.15,2.461c-0.017,0.038-0.009,0.078,0.011,0.118
	c0.003,0.027,0.005,0.055,0.007,0.083c0.087,0.863,0.008,1.694,0.476,2.451c0.343,0.556,1.002,0.483,1.241-0.051
	c0.087-0.194-0.462-0.363-0.558-0.149c-0.218,0.489-0.523-1.282-0.522-1.259c-0.017-0.312-0.046-0.626-0.078-0.937
	c2.553-0.342,4.288,2.519,2.912,4.705c-0.991,1.577-3.079,2.459-4.82,1.537c-1.161-0.614-2.208-1.849-2.207-3.229
	c0-1.594,1.219-2.434,2.598-2.841c-0.007,0.994-0.11,2.398-1.199,2.202c-0.388-0.069-0.171,0.238,0.083,0.283
	C29.109,78.444,28.493,73.656,28.557,72.272z M23.329,54.992c0.071,0.107,0.151,0.214,0.241,0.32c1.875,2.2,6.886,2.286,9.074,0.56
	c0.181-0.143,0.33-0.295,0.463-0.451c0.128,3.36,0.302,8.229-3.465,8.97C23.916,65.52,22.752,59.313,23.329,54.992z M21.935,37.672
	c0.188-1.296,0.06-1.148-0.022-2.448c-0.066-1.042-0.068-2.846-0.142-3.887c-0.009-0.13-0.017-0.286-0.041-0.441
	c0.431,0.188,0.933,0.235,1.463,0.183c0.261-0.026,0.506-0.072,0.735-0.134c0.441,2.212-0.12,3.689,0.014,5.915
	c0.059,0.972,0.215,1.985,0.722,2.838c0.635,1.073,1.603,1.863,2.289,2.896c1.207,1.821,1.066,2.296,1.113,4.397
	c0.016,0.715,0.05,1.428,0.09,2.141c-0.927,0-1.839,0.277-2.617,0.944c-1.663,0.883-2.988,2.473-2.592,4.069
	c-0.042,0.018-0.075,0.044-0.083,0.088c-0.7,3.916-0.014,9.72,4.456,10.536c-0.502,3.646,0.815,10.607-4.322,11.143
	c-1.704,0.178-4.061-0.012-4.994-1.721c-0.765-1.398-0.797-3.188-0.784-4.749c0.028-3.297,0.362-6.555,0.243-9.857
	c-0.147-4.019-0.297-7.959,0.212-11.961c0.327-2.562,0.557-4.418,2.342-6.455C20.917,40.142,21.733,39.067,21.935,37.672z
	 M21.016,29.357c0.454,0.401,1.085,0.638,1.686,0.672c0.865,0.047,1.752-0.222,2.396-0.789c-0.347,0.77-1.024,1.361-1.941,1.45
	C22.093,30.795,21.294,30.277,21.016,29.357z M21.879,28.462c0.879,0.819,2.239,0.748,2.781-0.474
	c0.123-0.276,0.218-0.601,0.28-0.95c0.542,0.375,0.427,1.107-0.023,1.632c-0.547,0.638-1.418,1.105-2.28,1.008
	c-0.97-0.108-1.92-0.805-1.667-1.883c0.069-0.292,0.149-0.723,0.376-0.949c-0.007,0.535,0.105,1.01,0.41,1.467
	c0.007,0.027,0.026,0.056,0.058,0.089C21.831,28.426,21.853,28.446,21.879,28.462z M23.304,24.61c0.12-0.178,0.207-0.371,0.27-0.574
	c0.004,0.001,0.009,0.002,0.013,0.003c0.249,0.085,0.426,0.244,0.552,0.448c0.065,0.304-0.256,0.538-0.514,0.648
	c-0.149,0.062-0.288,0.101-0.452,0.097c-0.078-0.002-0.359-0.024-0.469-0.05c0-0.016-0.005-0.034-0.021-0.054
	c-0.08-0.109-0.242-0.144-0.369-0.149c-0.015-0.001-0.03-0.001-0.045-0.001c-0.046-0.002-0.211,0.026-0.168,0.114
	c0.221,0.449,1.201,0.51,1.615,0.42c0.196-0.043,0.458-0.144,0.665-0.292c0.079,0.546,0.017,1.155-0.027,1.562
	c-0.095,0.895-0.851,2.698-2.074,1.462c-0.622-0.858-0.229-1.782-0.269-2.737c-0.013-0.329-0.086-0.752,0.053-1.061
	c0.151-0.333,0.553-0.468,0.942-0.482c-0.058,0.154-0.13,0.302-0.223,0.439C22.676,24.563,23.217,24.739,23.304,24.61z
	 M16.812,15.18c0.5-0.05,1.004-0.049,1.507-0.014c1.034,0.072,2.04,0.245,3.059,0.43c1.463,0.267,2.458,0.131,3.902-0.151
	c0.694-0.107,1.407-0.206,2.11-0.173c0.65-0.045,1.225,0.163,1.722,0.625c-0.213,0.138-0.425,0.277-0.639,0.416
	c-0.171-0.094-0.343-0.188-0.516-0.282c-0.624-0.31-1.253-0.349-1.936-0.182c-0.691,0.168-1.435,0.43-2.155,0.386
	c-0.124-0.007-0.32,0.004-0.544,0.017c0.001-0.01,0.002-0.018,0.002-0.027c0.008-0.187-0.551-0.29-0.558-0.149
	c-0.002,0.063-0.008,0.13-0.014,0.198c-0.459,0.005-0.902-0.036-1.043-0.238c-0.305-0.439-1.156-0.451-1.598-0.417
	c-1.133,0.089-2.306,0.638-3.434,0.596C15.146,16.157,16.22,15.238,16.812,15.18z"/>
</svg>
